<svg width="30" height="30" viewBox="0 0 30 30" fill="none" xmlns="http://www.w3.org/2000/svg">
<circle cx="15" cy="15" r="15" fill="#D9D9D9"/>
<path d="M8.91797 22.392L9.4737 21.651C10.4255 20.382 11.785 19.4793 13.3239 19.0946V19.0946C14.4238 18.8196 15.5743 18.8196 16.6742 19.0946V19.0946C18.2131 19.4793 19.5726 20.382 20.5244 21.651L21.0801 22.392" stroke="#002033" stroke-width="1.8"/>
<path d="M18.1534 11.5812C18.1534 12.1949 17.7868 13.3772 17.1092 14.4303C16.4075 15.5208 15.6285 16.0866 14.9994 16.0866C14.3702 16.0866 13.5912 15.5208 12.8896 14.4303C12.212 13.3772 11.8453 12.1949 11.8453 11.5812C11.8453 10.2644 12.2467 9.10697 12.8527 8.29899C13.4585 7.49128 14.2267 7.07578 14.9994 7.07578C15.7721 7.07578 16.5402 7.49128 17.146 8.29899C17.752 9.10697 18.1534 10.2644 18.1534 11.5812Z" stroke="#002033" stroke-width="1.8"/>
</svg>
