<svg width="36" height="36" viewBox="0 0 36 36" fill="none" xmlns="http://www.w3.org/2000/svg">
<g clip-path="url(#clip0_947_13)">
<path d="M30.4138 0H5.58621C2.50103 0 0 2.54491 0 5.68421V30.3158C0 33.4551 2.50103 36 5.58621 36H30.4138C33.499 36 36 33.4551 36 30.3158V5.68421C36 2.54491 33.499 0 30.4138 0Z" fill="#002033"/>
<path d="M22.6542 7.5791H13.3439C11.8013 7.5791 10.5508 8.85156 10.5508 10.4212C10.5508 11.9909 11.8013 13.2633 13.3439 13.2633H22.6542C24.1968 13.2633 25.4473 11.9909 25.4473 10.4212C25.4473 8.85156 24.1968 7.5791 22.6542 7.5791Z" fill="#C5EE6D"/>
<path d="M22.6542 15.1582H13.3439C11.8013 15.1582 10.5508 16.4307 10.5508 18.0003C10.5508 19.57 11.8013 20.8424 13.3439 20.8424H22.6542C24.1968 20.8424 25.4473 19.57 25.4473 18.0003C25.4473 16.4307 24.1968 15.1582 22.6542 15.1582Z" fill="#C5EE6D"/>
<path d="M15.206 22.7373H13.3439C11.8013 22.7373 10.5508 24.0098 10.5508 25.5794C10.5508 27.1491 11.8013 28.4215 13.3439 28.4215H15.206C16.7485 28.4215 17.9991 27.1491 17.9991 25.5794C17.9991 24.0098 16.7485 22.7373 15.206 22.7373Z" fill="#C5EE6D"/>
</g>
<defs>
<clipPath id="clip0_947_13">
<rect width="36" height="36" fill="white"/>
</clipPath>
</defs>
</svg>
