<svg width="341" height="65" viewBox="0 0 341 65" fill="none" xmlns="http://www.w3.org/2000/svg">
<path d="M31.6875 9H7.3125C3.27392 9 0 12.3579 0 16.5C0 20.6421 3.27392 24 7.3125 24H31.6875C35.7261 24 39 20.6421 39 16.5C39 12.3579 35.7261 9 31.6875 9Z" fill="#C5EE6D"/>
<path d="M31.6875 29H7.3125C3.27392 29 0 32.3579 0 36.5C0 40.6421 3.27392 44 7.3125 44H31.6875C35.7261 44 39 40.6421 39 36.5C39 32.3579 35.7261 29 31.6875 29Z" fill="#C5EE6D"/>
<path d="M12.5 49H7.5C3.35786 49 0 52.3579 0 56.5C0 60.6421 3.35786 64 7.5 64H12.5C16.6421 64 20 60.6421 20 56.5C20 52.3579 16.6421 49 12.5 49Z" fill="#C5EE6D"/>
<path d="M69.2656 61.4538V44.598H71.9695C72.8771 43.9844 73.7081 43.1278 74.4624 42.0284C75.2166 40.9162 75.8622 39.3565 76.3991 37.3494C76.9361 35.3295 77.3196 32.6641 77.5497 29.353L78.777 12.7273H105.643V44.598H109.862V61.4347H100.734V52H78.3935V61.4538H69.2656ZM82.8615 44.598H96.5149V20.4361H87.2912L86.6776 29.353C86.5114 31.8459 86.2429 34.0447 85.8722 35.9496C85.5014 37.8544 85.0604 39.5163 84.549 40.9354C84.0376 42.3416 83.4751 43.5625 82.8615 44.598ZM127.983 52.5561C124.902 52.5561 122.243 51.9489 120.006 50.7344C117.781 49.5071 116.068 47.7621 114.866 45.4993C113.678 43.2237 113.083 40.5199 113.083 37.3878C113.083 34.3452 113.684 31.6861 114.886 29.4105C116.087 27.1222 117.781 25.3452 119.967 24.0795C122.153 22.8011 124.729 22.1619 127.695 22.1619C129.792 22.1619 131.71 22.4879 133.448 23.1399C135.187 23.7919 136.689 24.7571 137.955 26.0355C139.22 27.3139 140.205 28.8928 140.908 30.772C141.611 32.6385 141.962 34.7798 141.962 37.196V39.5355H116.362V34.0895H133.237C133.224 33.0923 132.988 32.2038 132.528 31.424C132.067 30.6442 131.435 30.0369 130.629 29.6023C129.837 29.1548 128.923 28.9311 127.887 28.9311C126.839 28.9311 125.899 29.1676 125.068 29.6406C124.237 30.1009 123.579 30.7337 123.093 31.5391C122.607 32.3317 122.352 33.233 122.326 34.2429V39.7848C122.326 40.9865 122.563 42.0412 123.036 42.9489C123.509 43.8437 124.18 44.5405 125.049 45.0391C125.918 45.5376 126.954 45.7869 128.156 45.7869C128.987 45.7869 129.741 45.6719 130.418 45.4418C131.096 45.2116 131.678 44.8729 132.163 44.4254C132.649 43.978 133.013 43.4283 133.256 42.7763L141.866 43.0256C141.509 44.956 140.722 46.6371 139.508 48.0689C138.306 49.4879 136.727 50.5937 134.771 51.3864C132.815 52.1662 130.553 52.5561 127.983 52.5561ZM145.313 52L145.256 44.7706H146.195C146.835 44.7706 147.391 44.6044 147.864 44.272C148.337 43.9396 148.733 43.4091 149.053 42.6804C149.372 41.9389 149.628 40.9865 149.82 39.8232C150.012 38.6598 150.133 37.2472 150.184 35.5852L150.664 22.5455H173.982V52H165.103V29.7173H159.005L158.545 38.1932C158.43 40.6861 158.104 42.8146 157.567 44.5788C157.043 46.3303 156.327 47.7493 155.419 48.8359C154.524 49.9226 153.463 50.7216 152.236 51.233C151.009 51.7443 149.622 52 148.075 52H145.313ZM188.589 39.8615L198.005 22.5455H207.017V52H198.139V34.6264L188.743 52H179.711V22.5455H188.589V39.8615Z" fill="white"/>
<path d="M212.986 52V12.7273H239.794V20.4361H222.478V28.4901H238.088V36.218H222.478V52H212.986ZM256.161 52.5561C253.067 52.5561 250.408 51.9233 248.184 50.6577C245.972 49.3793 244.265 47.6023 243.064 45.3267C241.875 43.0384 241.28 40.3857 241.28 37.3686C241.28 34.3388 241.875 31.6861 243.064 29.4105C244.265 27.1222 245.972 25.3452 248.184 24.0795C250.408 22.8011 253.067 22.1619 256.161 22.1619C259.255 22.1619 261.907 22.8011 264.119 24.0795C266.344 25.3452 268.05 27.1222 269.239 29.4105C270.441 31.6861 271.042 34.3388 271.042 37.3686C271.042 40.3857 270.441 43.0384 269.239 45.3267C268.05 47.6023 266.344 49.3793 264.119 50.6577C261.907 51.9233 259.255 52.5561 256.161 52.5561ZM256.219 45.4801C257.344 45.4801 258.296 45.1349 259.076 44.4446C259.856 43.7543 260.45 42.7955 260.859 41.5682C261.281 40.3409 261.492 38.9219 261.492 37.3111C261.492 35.6747 261.281 34.2429 260.859 33.0156C260.45 31.7884 259.856 30.8295 259.076 30.1392C258.296 29.4489 257.344 29.1037 256.219 29.1037C255.055 29.1037 254.071 29.4489 253.265 30.1392C252.473 30.8295 251.866 31.7884 251.444 33.0156C251.035 34.2429 250.83 35.6747 250.83 37.3111C250.83 38.9219 251.035 40.3409 251.444 41.5682C251.866 42.7955 252.473 43.7543 253.265 44.4446C254.071 45.1349 255.055 45.4801 256.219 45.4801ZM289.595 52.5561C286.501 52.5561 283.842 51.9233 281.617 50.6577C279.406 49.3793 277.699 47.6023 276.497 45.3267C275.308 43.0384 274.714 40.3857 274.714 37.3686C274.714 34.3388 275.308 31.6861 276.497 29.4105C277.699 27.1222 279.406 25.3452 281.617 24.0795C283.842 22.8011 286.501 22.1619 289.595 22.1619C292.688 22.1619 295.341 22.8011 297.553 24.0795C299.777 25.3452 301.484 27.1222 302.673 29.4105C303.874 31.6861 304.475 34.3388 304.475 37.3686C304.475 40.3857 303.874 43.0384 302.673 45.3267C301.484 47.6023 299.777 49.3793 297.553 50.6577C295.341 51.9233 292.688 52.5561 289.595 52.5561ZM289.652 45.4801C290.777 45.4801 291.73 45.1349 292.509 44.4446C293.289 43.7543 293.884 42.7955 294.293 41.5682C294.715 40.3409 294.926 38.9219 294.926 37.3111C294.926 35.6747 294.715 34.2429 294.293 33.0156C293.884 31.7884 293.289 30.8295 292.509 30.1392C291.73 29.4489 290.777 29.1037 289.652 29.1037C288.489 29.1037 287.504 29.4489 286.699 30.1392C285.906 30.8295 285.299 31.7884 284.877 33.0156C284.468 34.2429 284.264 35.6747 284.264 37.3111C284.264 38.9219 284.468 40.3409 284.877 41.5682C285.299 42.7955 285.906 43.7543 286.699 44.4446C287.504 45.1349 288.489 45.4801 289.652 45.4801ZM320.037 52.4219C317.863 52.4219 315.888 51.8594 314.111 50.7344C312.334 49.6094 310.915 47.9219 309.854 45.6719C308.793 43.4219 308.263 40.6286 308.263 37.2919C308.263 33.8274 308.812 30.9766 309.912 28.7393C311.011 26.5021 312.449 24.8466 314.226 23.7727C316.016 22.6989 317.94 22.1619 319.998 22.1619C321.545 22.1619 322.868 22.4304 323.968 22.9673C325.067 23.4915 325.975 24.169 326.691 25C327.407 25.831 327.95 26.6939 328.321 27.5888H328.513V12.7273H337.89V52H328.608V47.2251H328.321C327.925 48.1328 327.362 48.983 326.633 49.7756C325.905 50.5682 324.991 51.2074 323.891 51.6932C322.805 52.179 321.52 52.4219 320.037 52.4219ZM323.297 45.1158C324.434 45.1158 325.406 44.7962 326.211 44.157C327.017 43.505 327.637 42.5909 328.072 41.4148C328.506 40.2386 328.724 38.858 328.724 37.2727C328.724 35.6619 328.506 34.2749 328.072 33.1115C327.65 31.9482 327.03 31.0533 326.211 30.4268C325.406 29.8004 324.434 29.4872 323.297 29.4872C322.133 29.4872 321.149 29.8068 320.344 30.446C319.538 31.0852 318.925 31.9865 318.503 33.1499C318.094 34.3132 317.889 35.6875 317.889 37.2727C317.889 38.858 318.1 40.2386 318.522 41.4148C318.944 42.5909 319.551 43.505 320.344 44.157C321.149 44.7962 322.133 45.1158 323.297 45.1158Z" fill="#C5EE6D"/>
</svg>
