<svg width="390" height="50" viewBox="0 0 390 50" fill="none" xmlns="http://www.w3.org/2000/svg">
<rect width="390" height="50" fill="white"/>
<rect x="204" y="27" width="58" height="14" rx="7" fill="url(#paint0_linear_1613_185)"/>
<rect width="149" height="50" fill="#002033"/>
<rect x="330" y="27" width="45" height="14" rx="7" fill="#002033"/>
<path d="M44.4759 35.5085V29.5497H45.4631C45.7992 29.3082 46.107 28.9673 46.3864 28.527C46.6657 28.0819 46.9048 27.4688 47.1037 26.6875C47.3026 25.9015 47.4446 24.8741 47.5298 23.6051L47.9418 17.4545H57.5653V29.5497H59.1562V35.4943H56.2017V32H47.4304V35.5085H44.4759ZM49.0142 29.5497H54.6108V19.9901H50.7116L50.4844 23.6051C50.4228 24.5663 50.321 25.4186 50.179 26.1619C50.0417 26.9053 49.8736 27.5563 49.6747 28.1151C49.4806 28.669 49.2604 29.1473 49.0142 29.5497ZM65.9407 32.2131C64.8185 32.2131 63.8526 31.9858 63.043 31.5312C62.238 31.072 61.6178 30.4233 61.1822 29.5852C60.7466 28.7424 60.5288 27.7457 60.5288 26.5952C60.5288 25.473 60.7466 24.4882 61.1822 23.6406C61.6178 22.7931 62.2309 22.1326 63.0217 21.6591C63.8171 21.1856 64.7499 20.9489 65.82 20.9489C66.5397 20.9489 67.2096 21.0649 67.8299 21.2969C68.4549 21.5241 68.9994 21.8674 69.4634 22.3267C69.9322 22.786 70.2968 23.3636 70.5572 24.0597C70.8176 24.7509 70.9478 25.5606 70.9478 26.4886V27.3196H61.7362V25.4446H68.0998C68.0998 25.009 68.0051 24.6231 67.8157 24.2869C67.6263 23.9508 67.3635 23.688 67.0273 23.4986C66.6959 23.3045 66.31 23.2074 65.8697 23.2074C65.4104 23.2074 65.0032 23.3139 64.6481 23.527C64.2977 23.7353 64.0231 24.017 63.8242 24.3722C63.6254 24.7225 63.5236 25.1132 63.5188 25.544V27.3267C63.5188 27.8665 63.6183 28.3329 63.8171 28.7259C64.0207 29.1188 64.3072 29.4219 64.6765 29.6349C65.0458 29.848 65.4838 29.9545 65.9904 29.9545C66.3266 29.9545 66.6344 29.9072 66.9137 29.8125C67.1931 29.7178 67.4322 29.5758 67.631 29.3864C67.8299 29.197 67.9814 28.965 68.0856 28.6903L70.8839 28.875C70.7418 29.5473 70.4506 30.1345 70.0103 30.6364C69.5747 31.1335 69.0112 31.5218 68.32 31.8011C67.6334 32.0758 66.8403 32.2131 65.9407 32.2131ZM72.283 32L72.2688 29.5994H72.631C72.8867 29.5994 73.1069 29.5379 73.2915 29.4148C73.4809 29.2869 73.6372 29.081 73.7603 28.7969C73.8834 28.5128 73.9805 28.1364 74.0515 27.6676C74.1225 27.1941 74.1699 26.6117 74.1935 25.9205L74.3711 21.0909H82.6665V32H79.783V23.4702H77.0913L76.9208 26.8011C76.8782 27.715 76.7669 28.5009 76.587 29.1591C76.4118 29.8172 76.168 30.357 75.8555 30.7784C75.543 31.1951 75.1665 31.5028 74.7262 31.7017C74.2859 31.9006 73.7745 32 73.1921 32H72.283ZM87.9027 28.0085L91.8303 21.0909H94.8132V32H91.9297V25.0611L88.0163 32H85.0121V21.0909H87.9027V28.0085Z" fill="white"/>
<path d="M97.2955 32V17.4545H106.926V19.9901H100.371V23.456H106.287V25.9915H100.371V32H97.2955ZM113.066 32.2131C111.963 32.2131 111.009 31.9787 110.204 31.5099C109.404 31.0365 108.786 30.3783 108.35 29.5355C107.915 28.688 107.697 27.7055 107.697 26.5881C107.697 25.4612 107.915 24.4763 108.35 23.6335C108.786 22.786 109.404 22.1278 110.204 21.6591C111.009 21.1856 111.963 20.9489 113.066 20.9489C114.169 20.9489 115.121 21.1856 115.921 21.6591C116.726 22.1278 117.346 22.786 117.782 23.6335C118.218 24.4763 118.435 25.4612 118.435 26.5881C118.435 27.7055 118.218 28.688 117.782 29.5355C117.346 30.3783 116.726 31.0365 115.921 31.5099C115.121 31.9787 114.169 32.2131 113.066 32.2131ZM113.08 29.8693C113.582 29.8693 114.001 29.7273 114.337 29.4432C114.674 29.1544 114.927 28.7614 115.097 28.2642C115.272 27.767 115.36 27.2012 115.36 26.5668C115.36 25.9323 115.272 25.3665 115.097 24.8693C114.927 24.3722 114.674 23.9792 114.337 23.6903C114.001 23.4015 113.582 23.2571 113.08 23.2571C112.574 23.2571 112.147 23.4015 111.802 23.6903C111.461 23.9792 111.203 24.3722 111.028 24.8693C110.857 25.3665 110.772 25.9323 110.772 26.5668C110.772 27.2012 110.857 27.767 111.028 28.2642C111.203 28.7614 111.461 29.1544 111.802 29.4432C112.147 29.7273 112.574 29.8693 113.08 29.8693ZM125.332 32.2131C124.228 32.2131 123.274 31.9787 122.469 31.5099C121.669 31.0365 121.051 30.3783 120.616 29.5355C120.18 28.688 119.962 27.7055 119.962 26.5881C119.962 25.4612 120.18 24.4763 120.616 23.6335C121.051 22.786 121.669 22.1278 122.469 21.6591C123.274 21.1856 124.228 20.9489 125.332 20.9489C126.435 20.9489 127.387 21.1856 128.187 21.6591C128.992 22.1278 129.612 22.786 130.048 23.6335C130.483 24.4763 130.701 25.4612 130.701 26.5881C130.701 27.7055 130.483 28.688 130.048 29.5355C129.612 30.3783 128.992 31.0365 128.187 31.5099C127.387 31.9787 126.435 32.2131 125.332 32.2131ZM125.346 29.8693C125.848 29.8693 126.267 29.7273 126.603 29.4432C126.939 29.1544 127.192 28.7614 127.363 28.2642C127.538 27.767 127.626 27.2012 127.626 26.5668C127.626 25.9323 127.538 25.3665 127.363 24.8693C127.192 24.3722 126.939 23.9792 126.603 23.6903C126.267 23.4015 125.848 23.2571 125.346 23.2571C124.839 23.2571 124.413 23.4015 124.067 23.6903C123.727 23.9792 123.469 24.3722 123.293 24.8693C123.123 25.3665 123.038 25.9323 123.038 26.5668C123.038 27.2012 123.123 27.767 123.293 28.2642C123.469 28.7614 123.727 29.1544 124.067 29.4432C124.413 29.7273 124.839 29.8693 125.346 29.8693ZM136.688 32.1776C135.86 32.1776 135.109 31.9645 134.437 31.5384C133.769 31.1075 133.239 30.4754 132.846 29.642C132.458 28.804 132.263 27.7765 132.263 26.5597C132.263 25.3097 132.465 24.2704 132.867 23.4418C133.27 22.6084 133.805 21.9858 134.472 21.5739C135.145 21.1572 135.881 20.9489 136.681 20.9489C137.292 20.9489 137.801 21.053 138.208 21.2614C138.62 21.465 138.951 21.7206 139.202 22.0284C139.458 22.3314 139.652 22.6297 139.785 22.9233H139.877V17.4545H142.896V32H139.913V30.2528H139.785C139.643 30.5559 139.442 30.8565 139.181 31.1548C138.925 31.4484 138.592 31.6922 138.18 31.8864C137.772 32.0805 137.275 32.1776 136.688 32.1776ZM137.647 29.7699C138.135 29.7699 138.547 29.6373 138.883 29.3722C139.224 29.1023 139.484 28.7259 139.664 28.2429C139.849 27.7599 139.941 27.1941 139.941 26.5455C139.941 25.8968 139.851 25.3333 139.671 24.8551C139.491 24.3769 139.231 24.0076 138.89 23.7472C138.549 23.4867 138.135 23.3565 137.647 23.3565C137.15 23.3565 136.731 23.4915 136.39 23.7614C136.049 24.0312 135.791 24.4053 135.616 24.8835C135.441 25.3617 135.353 25.9157 135.353 26.5455C135.353 27.1799 135.441 27.741 135.616 28.2287C135.796 28.7116 136.054 29.0904 136.39 29.3651C136.731 29.6349 137.15 29.7699 137.647 29.7699Z" fill="#C5EE6D"/>
<path d="M28.1375 15.7373H19.8617C18.4905 15.7373 17.3789 16.8684 17.3789 18.2636C17.3789 19.6589 18.4905 20.7899 19.8617 20.7899H28.1375C29.5087 20.7899 30.6203 19.6589 30.6203 18.2636C30.6203 16.8684 29.5087 15.7373 28.1375 15.7373Z" fill="#C5EE6D"/>
<path d="M28.1375 22.4736H19.8617C18.4905 22.4736 17.3789 23.6047 17.3789 24.9999C17.3789 26.3952 18.4905 27.5263 19.8617 27.5263H28.1375C29.5087 27.5263 30.6203 26.3952 30.6203 24.9999C30.6203 23.6047 29.5087 22.4736 28.1375 22.4736Z" fill="#C5EE6D"/>
<path d="M21.5168 29.2109H19.8617C18.4905 29.2109 17.3789 30.342 17.3789 31.7373C17.3789 33.1325 18.4905 34.2636 19.8617 34.2636H21.5168C22.888 34.2636 23.9996 33.1325 23.9996 31.7373C23.9996 30.342 22.888 29.2109 21.5168 29.2109Z" fill="#C5EE6D"/>
<path d="M207.859 22V14.9091H213.846V22H212.235V16.2802H209.456V22H207.859ZM215.075 22L215.066 20.6243H215.311C215.495 20.6243 215.651 20.5827 215.777 20.4996C215.903 20.4165 216.008 20.2781 216.091 20.0842C216.174 19.8872 216.239 19.6225 216.285 19.2901C216.331 18.9577 216.363 18.5438 216.382 18.0483L216.506 14.9091H221.677V22H220.061V16.2802H218.025L217.915 18.5653C217.887 19.1562 217.821 19.6687 217.716 20.1026C217.614 20.5335 217.47 20.889 217.282 21.169C217.097 21.4491 216.865 21.6584 216.585 21.7969C216.305 21.9323 215.974 22 215.592 22H215.075ZM225.4 22.1431C224.951 22.1431 224.546 22.0631 224.186 21.9031C223.829 21.7399 223.546 21.4999 223.337 21.1829C223.13 20.8659 223.027 20.475 223.027 20.0103C223.027 19.6102 223.101 19.2794 223.249 19.0178C223.397 18.7562 223.598 18.5469 223.854 18.3899C224.109 18.233 224.397 18.1145 224.717 18.0344C225.04 17.9513 225.374 17.8913 225.719 17.8544C226.134 17.8113 226.471 17.7728 226.73 17.739C226.988 17.7021 227.176 17.6467 227.293 17.5728C227.413 17.4959 227.473 17.3774 227.473 17.2173V17.1896C227.473 16.8419 227.37 16.5726 227.164 16.3817C226.957 16.1909 226.66 16.0955 226.273 16.0955C225.863 16.0955 225.539 16.1848 225.299 16.3633C225.062 16.5418 224.902 16.7526 224.818 16.9957L223.258 16.7741C223.381 16.3433 223.584 15.9832 223.867 15.6939C224.151 15.4015 224.497 15.183 224.906 15.0384C225.315 14.8906 225.768 14.8168 226.263 14.8168C226.605 14.8168 226.945 14.8568 227.284 14.9368C227.622 15.0168 227.931 15.1491 228.212 15.3338C228.492 15.5154 228.716 15.7631 228.886 16.0771C229.058 16.391 229.144 16.7834 229.144 17.2543V22H227.538V21.0259H227.482C227.381 21.2229 227.237 21.4076 227.053 21.5799C226.871 21.7492 226.642 21.8861 226.365 21.9908C226.091 22.0923 225.769 22.1431 225.4 22.1431ZM225.834 20.9151C226.17 20.9151 226.46 20.849 226.707 20.7166C226.953 20.5812 227.142 20.4027 227.274 20.1811C227.41 19.9595 227.478 19.7179 227.478 19.4563V18.6207C227.425 18.6638 227.336 18.7038 227.21 18.7408C227.087 18.7777 226.948 18.81 226.794 18.8377C226.64 18.8654 226.488 18.89 226.337 18.9116C226.186 18.9331 226.056 18.9516 225.945 18.967C225.696 19.0008 225.472 19.0562 225.275 19.1332C225.079 19.2101 224.923 19.3178 224.809 19.4563C224.695 19.5917 224.638 19.7672 224.638 19.9826C224.638 20.2904 224.751 20.5227 224.975 20.6797C225.2 20.8366 225.486 20.9151 225.834 20.9151ZM230.03 16.2802V14.9091H236.235V16.2802H233.941V22H232.325V16.2802H230.03ZM240.491 24.4098V12.5455H242.167V24.4098H240.491ZM240.491 22.1385C239.971 22.1385 239.496 22.0508 239.065 21.8754C238.634 21.6999 238.262 21.4506 237.948 21.1275C237.637 20.8043 237.395 20.4196 237.223 19.9734C237.054 19.524 236.969 19.027 236.969 18.4822C236.969 17.9375 237.054 17.4405 237.223 16.9911C237.395 16.5418 237.637 16.1555 237.948 15.8324C238.262 15.5062 238.634 15.2553 239.065 15.0799C239.496 14.9045 239.971 14.8168 240.491 14.8168H240.847V22.1385H240.491ZM240.491 20.7905H240.699V16.1648H240.491C240.196 16.1648 239.934 16.2263 239.707 16.3494C239.482 16.4695 239.293 16.6372 239.139 16.8526C238.988 17.065 238.873 17.3112 238.793 17.5913C238.716 17.8683 238.677 18.1652 238.677 18.4822C238.677 18.9039 238.746 19.2901 238.885 19.641C239.023 19.9888 239.226 20.2673 239.494 20.4766C239.765 20.6858 240.097 20.7905 240.491 20.7905ZM242.167 22.1385H241.812V14.8168H242.167C242.687 14.8168 243.163 14.9045 243.594 15.0799C244.025 15.2553 244.395 15.5062 244.706 15.8324C245.02 16.1555 245.262 16.5418 245.431 16.9911C245.603 17.4405 245.69 17.9375 245.69 18.4822C245.69 19.027 245.603 19.524 245.431 19.9734C245.262 20.4196 245.02 20.8043 244.706 21.1275C244.395 21.4506 244.025 21.6999 243.594 21.8754C243.163 22.0508 242.687 22.1385 242.167 22.1385ZM242.167 20.7905C242.466 20.7905 242.727 20.7305 242.952 20.6104C243.177 20.4904 243.364 20.3242 243.515 20.1119C243.669 19.8995 243.784 19.6548 243.861 19.3778C243.938 19.0978 243.977 18.7992 243.977 18.4822C243.977 18.0606 243.909 17.6744 243.774 17.3235C243.638 16.9727 243.435 16.6926 243.164 16.4833C242.897 16.271 242.564 16.1648 242.167 16.1648H241.959V20.7905H242.167ZM250.193 22.1385C249.5 22.1385 248.9 21.9862 248.392 21.6815C247.885 21.3768 247.491 20.9505 247.211 20.4027C246.934 19.8549 246.795 19.2147 246.795 18.4822C246.795 17.7498 246.934 17.1081 247.211 16.5572C247.491 16.0063 247.885 15.5785 248.392 15.2738C248.9 14.9691 249.5 14.8168 250.193 14.8168C250.885 14.8168 251.486 14.9691 251.993 15.2738C252.501 15.5785 252.894 16.0063 253.171 16.5572C253.451 17.1081 253.591 17.7498 253.591 18.4822C253.591 19.2147 253.451 19.8549 253.171 20.4027C252.894 20.9505 252.501 21.3768 251.993 21.6815C251.486 21.9862 250.885 22.1385 250.193 22.1385ZM250.202 20.7997C250.578 20.7997 250.892 20.6966 251.144 20.4904C251.396 20.2811 251.584 20.0011 251.707 19.6502C251.833 19.2994 251.896 18.9085 251.896 18.4776C251.896 18.0437 251.833 17.6513 251.707 17.3004C251.584 16.9465 251.396 16.6649 251.144 16.4556C250.892 16.2463 250.578 16.1417 250.202 16.1417C249.817 16.1417 249.497 16.2463 249.242 16.4556C248.99 16.6649 248.8 16.9465 248.674 17.3004C248.551 17.6513 248.489 18.0437 248.489 18.4776C248.489 18.9085 248.551 19.2994 248.674 19.6502C248.8 20.0011 248.99 20.2811 249.242 20.4904C249.497 20.6966 249.817 20.7997 250.202 20.7997ZM255.009 24.6591V14.9091H256.653V16.0817H256.749C256.836 15.9093 256.957 15.7262 257.114 15.5323C257.271 15.3353 257.483 15.1676 257.751 15.0291C258.019 14.8875 258.361 14.8168 258.776 14.8168C259.324 14.8168 259.818 14.9568 260.258 15.2369C260.701 15.5138 261.052 15.9247 261.311 16.4695C261.572 17.0111 261.703 17.6759 261.703 18.4638C261.703 19.2424 261.575 19.9041 261.32 20.4489C261.064 20.9936 260.717 21.4091 260.276 21.6953C259.836 21.9815 259.338 22.1246 258.781 22.1246C258.374 22.1246 258.037 22.0569 257.77 21.9215C257.502 21.7861 257.287 21.623 257.123 21.4322C256.963 21.2383 256.839 21.0552 256.749 20.8828H256.68V24.6591H255.009ZM256.648 18.4545C256.648 18.9131 256.713 19.3147 256.842 19.6594C256.974 20.0041 257.163 20.2734 257.41 20.4673C257.659 20.6581 257.961 20.7536 258.314 20.7536C258.684 20.7536 258.993 20.6551 259.242 20.4581C259.492 20.258 259.679 19.9857 259.806 19.641C259.935 19.2932 259.999 18.8977 259.999 18.4545C259.999 18.0144 259.936 17.6236 259.81 17.282C259.684 16.9403 259.496 16.6726 259.247 16.4787C258.998 16.2848 258.687 16.1879 258.314 16.1879C257.957 16.1879 257.654 16.2817 257.405 16.4695C257.156 16.6572 256.966 16.9203 256.837 17.2589C256.711 17.5974 256.648 17.996 256.648 18.4545ZM267.215 20.0565L269.32 14.9091H270.668L267.801 22H266.633L263.831 14.9091H265.165L267.215 20.0565ZM264.745 14.9091V22H263.134V14.9091H264.745ZM269.754 22V14.9091H271.351V22H269.754ZM275.077 22.1431C274.628 22.1431 274.223 22.0631 273.863 21.9031C273.506 21.7399 273.223 21.4999 273.013 21.1829C272.807 20.8659 272.704 20.475 272.704 20.0103C272.704 19.6102 272.778 19.2794 272.926 19.0178C273.073 18.7562 273.275 18.5469 273.53 18.3899C273.786 18.233 274.074 18.1145 274.394 18.0344C274.717 17.9513 275.051 17.8913 275.395 17.8544C275.811 17.8113 276.148 17.7728 276.406 17.739C276.665 17.7021 276.853 17.6467 276.97 17.5728C277.09 17.4959 277.15 17.3774 277.15 17.2173V17.1896C277.15 16.8419 277.047 16.5726 276.84 16.3817C276.634 16.1909 276.337 16.0955 275.949 16.0955C275.54 16.0955 275.215 16.1848 274.975 16.3633C274.738 16.5418 274.578 16.7526 274.495 16.9957L272.935 16.7741C273.058 16.3433 273.261 15.9832 273.544 15.6939C273.827 15.4015 274.174 15.183 274.583 15.0384C274.992 14.8906 275.445 14.8168 275.94 14.8168C276.282 14.8168 276.622 14.8568 276.96 14.9368C277.299 15.0168 277.608 15.1491 277.888 15.3338C278.168 15.5154 278.393 15.7631 278.562 16.0771C278.735 16.391 278.821 16.7834 278.821 17.2543V22H277.214V21.0259H277.159C277.057 21.2229 276.914 21.4076 276.73 21.5799C276.548 21.7492 276.319 21.8861 276.042 21.9908C275.768 22.0923 275.446 22.1431 275.077 22.1431ZM275.511 20.9151C275.846 20.9151 276.137 20.849 276.383 20.7166C276.63 20.5812 276.819 20.4027 276.951 20.1811C277.087 19.9595 277.154 19.7179 277.154 19.4563V18.6207C277.102 18.6638 277.013 18.7038 276.887 18.7408C276.763 18.7777 276.625 18.81 276.471 18.8377C276.317 18.8654 276.165 18.89 276.014 18.9116C275.863 18.9331 275.732 18.9516 275.622 18.967C275.372 19.0008 275.149 19.0562 274.952 19.1332C274.755 19.2101 274.6 19.3178 274.486 19.4563C274.372 19.5917 274.315 19.7672 274.315 19.9826C274.315 20.2904 274.427 20.5227 274.652 20.6797C274.877 20.8366 275.163 20.9151 275.511 20.9151ZM283.098 24.0589V20.6243H283.661C283.812 20.5073 283.938 20.3488 284.04 20.1488C284.141 19.9457 284.224 19.7071 284.289 19.4332C284.357 19.1562 284.412 18.8469 284.455 18.5053C284.498 18.1606 284.537 17.7898 284.571 17.3928L284.774 14.9091H289.898V20.6243H290.997V24.0589H289.381V22H284.741V24.0589H283.098ZM285.379 20.6243H288.301V16.2571H286.223L286.113 17.3928C286.051 18.1437 285.969 18.7869 285.868 19.3224C285.766 19.858 285.603 20.2919 285.379 20.6243ZM291.755 22L291.746 20.6243H291.991C292.175 20.6243 292.331 20.5827 292.457 20.4996C292.583 20.4165 292.688 20.2781 292.771 20.0842C292.854 19.8872 292.918 19.6225 292.965 19.2901C293.011 18.9577 293.043 18.5438 293.062 18.0483L293.186 14.9091H298.357V22H296.741V16.2802H294.705L294.594 18.5653C294.566 19.1562 294.5 19.6687 294.396 20.1026C294.294 20.5335 294.149 20.889 293.962 21.169C293.777 21.4491 293.545 21.6584 293.265 21.7969C292.985 21.9323 292.654 22 292.272 22H291.755ZM304.231 22V16.2663H302.717C302.332 16.2663 302.037 16.3556 301.831 16.5341C301.624 16.7126 301.523 16.9342 301.526 17.1989C301.523 17.4635 301.62 17.6821 301.817 17.8544C302.014 18.0268 302.295 18.1129 302.661 18.1129H304.757V19.3317H302.661C302.095 19.3317 301.606 19.2424 301.193 19.0639C300.781 18.8854 300.464 18.633 300.242 18.3068C300.021 17.9806 299.91 17.599 299.91 17.1619C299.91 16.7064 300.022 16.311 300.247 15.9755C300.475 15.637 300.798 15.3754 301.217 15.1907C301.638 15.003 302.138 14.9091 302.717 14.9091H305.796V22H304.231ZM299.652 22L301.632 18.3622H303.28L301.295 22H299.652ZM313.796 22.1385C313.089 22.1385 312.481 21.9831 311.973 21.6722C311.468 21.3614 311.079 20.9321 310.805 20.3842C310.534 19.8333 310.399 19.1993 310.399 18.4822C310.399 17.7621 310.537 17.1265 310.814 16.5756C311.091 16.0217 311.482 15.5908 311.987 15.283C312.495 14.9722 313.095 14.8168 313.787 14.8168C314.363 14.8168 314.872 14.9229 315.315 15.1353C315.762 15.3446 316.117 15.6416 316.382 16.0263C316.646 16.4079 316.797 16.8542 316.834 17.3651H315.237C315.172 17.0234 315.018 16.7388 314.775 16.511C314.535 16.2802 314.213 16.1648 313.81 16.1648C313.469 16.1648 313.169 16.2571 312.91 16.4418C312.652 16.6233 312.45 16.8849 312.305 17.2266C312.164 17.5682 312.093 17.9775 312.093 18.4545C312.093 18.9377 312.164 19.3532 312.305 19.701C312.447 20.0457 312.645 20.3119 312.901 20.4996C313.159 20.6843 313.463 20.7766 313.81 20.7766C314.056 20.7766 314.277 20.7305 314.47 20.6381C314.667 20.5427 314.832 20.4058 314.964 20.2273C315.097 20.0488 315.188 19.8318 315.237 19.5763H316.834C316.794 20.078 316.646 20.5227 316.391 20.9105C316.135 21.2952 315.788 21.5968 315.348 21.8153C314.907 22.0308 314.39 22.1385 313.796 22.1385ZM321.299 22.1385C320.607 22.1385 320.007 21.9862 319.499 21.6815C318.991 21.3768 318.597 20.9505 318.317 20.4027C318.04 19.8549 317.902 19.2147 317.902 18.4822C317.902 17.7498 318.04 17.1081 318.317 16.5572C318.597 16.0063 318.991 15.5785 319.499 15.2738C320.007 14.9691 320.607 14.8168 321.299 14.8168C321.992 14.8168 322.592 14.9691 323.1 15.2738C323.608 15.5785 324 16.0063 324.277 16.5572C324.557 17.1081 324.697 17.7498 324.697 18.4822C324.697 19.2147 324.557 19.8549 324.277 20.4027C324 20.9505 323.608 21.3768 323.1 21.6815C322.592 21.9862 321.992 22.1385 321.299 22.1385ZM321.309 20.7997C321.684 20.7997 321.998 20.6966 322.25 20.4904C322.503 20.2811 322.69 20.0011 322.814 19.6502C322.94 19.2994 323.003 18.9085 323.003 18.4776C323.003 18.0437 322.94 17.6513 322.814 17.3004C322.69 16.9465 322.503 16.6649 322.25 16.4556C321.998 16.2463 321.684 16.1417 321.309 16.1417C320.924 16.1417 320.604 16.2463 320.348 16.4556C320.096 16.6649 319.907 16.9465 319.781 17.3004C319.657 17.6513 319.596 18.0437 319.596 18.4776C319.596 18.9085 319.657 19.2994 319.781 19.6502C319.907 20.0011 320.096 20.2811 320.348 20.4904C320.604 20.6966 320.924 20.7997 321.309 20.7997ZM325.723 20.0565H327.38C327.396 20.3211 327.514 20.5258 327.736 20.6705C327.957 20.8151 328.245 20.8874 328.599 20.8874C328.959 20.8874 329.262 20.8089 329.509 20.652C329.758 20.492 329.883 20.2504 329.883 19.9272C329.883 19.7364 329.835 19.5687 329.739 19.424C329.644 19.2763 329.51 19.1624 329.338 19.0824C329.165 19.0024 328.962 18.9624 328.728 18.9624H327.644V17.7759H328.728C329.076 17.7759 329.339 17.6959 329.518 17.5359C329.699 17.3758 329.79 17.1742 329.79 16.9311C329.79 16.6695 329.695 16.4571 329.504 16.294C329.316 16.1309 329.056 16.0494 328.724 16.0494C328.391 16.0494 328.114 16.1248 327.893 16.2756C327.674 16.4264 327.56 16.6203 327.551 16.8572H325.903C325.909 16.4448 326.032 16.0863 326.272 15.7816C326.516 15.4769 326.842 15.2399 327.251 15.0707C327.664 14.9014 328.128 14.8168 328.645 14.8168C329.199 14.8168 329.678 14.8999 330.081 15.0661C330.484 15.2322 330.795 15.4646 331.014 15.7631C331.232 16.0586 331.341 16.4064 331.341 16.8065C331.341 17.1912 331.221 17.5097 330.981 17.7621C330.741 18.0114 330.418 18.1899 330.012 18.2976V18.3714C330.292 18.3868 330.544 18.4669 330.769 18.6115C330.994 18.7531 331.172 18.9454 331.304 19.1886C331.437 19.4317 331.503 19.7133 331.503 20.0334C331.503 20.4673 331.378 20.8428 331.129 21.1598C330.88 21.4737 330.537 21.7153 330.1 21.8846C329.666 22.0539 329.169 22.1385 328.608 22.1385C328.064 22.1385 327.576 22.0569 327.145 21.8938C326.717 21.7276 326.377 21.4891 326.125 21.1783C325.872 20.8674 325.738 20.4935 325.723 20.0565ZM332.191 24.0589V20.6243H332.754C332.905 20.5073 333.031 20.3488 333.133 20.1488C333.234 19.9457 333.317 19.7071 333.382 19.4332C333.45 19.1562 333.505 18.8469 333.548 18.5053C333.591 18.1606 333.63 17.7898 333.663 17.3928L333.867 14.9091H338.991V20.6243H340.09V24.0589H338.474V22H333.834V24.0589H332.191ZM334.471 20.6243H337.394V16.2571H335.316L335.205 17.3928C335.144 18.1437 335.062 18.7869 334.961 19.3224C334.859 19.858 334.696 20.2919 334.471 20.6243ZM343.378 22.1431C342.928 22.1431 342.524 22.0631 342.164 21.9031C341.807 21.7399 341.523 21.4999 341.314 21.1829C341.108 20.8659 341.005 20.475 341.005 20.0103C341.005 19.6102 341.079 19.2794 341.226 19.0178C341.374 18.7562 341.576 18.5469 341.831 18.3899C342.087 18.233 342.374 18.1145 342.694 18.0344C343.018 17.9513 343.352 17.8913 343.696 17.8544C344.112 17.8113 344.449 17.7728 344.707 17.739C344.966 17.7021 345.153 17.6467 345.27 17.5728C345.39 17.4959 345.45 17.3774 345.45 17.2173V17.1896C345.45 16.8419 345.347 16.5726 345.141 16.3817C344.935 16.1909 344.638 16.0955 344.25 16.0955C343.841 16.0955 343.516 16.1848 343.276 16.3633C343.039 16.5418 342.879 16.7526 342.796 16.9957L341.236 16.7741C341.359 16.3433 341.562 15.9832 341.845 15.6939C342.128 15.4015 342.474 15.183 342.884 15.0384C343.293 14.8906 343.745 14.8168 344.241 14.8168C344.583 14.8168 344.923 14.8568 345.261 14.9368C345.6 15.0168 345.909 15.1491 346.189 15.3338C346.469 15.5154 346.694 15.7631 346.863 16.0771C347.035 16.391 347.122 16.7834 347.122 17.2543V22H345.515V21.0259H345.46C345.358 21.2229 345.215 21.4076 345.03 21.5799C344.849 21.7492 344.619 21.8861 344.343 21.9908C344.069 22.0923 343.747 22.1431 343.378 22.1431ZM343.812 20.9151C344.147 20.9151 344.438 20.849 344.684 20.7166C344.93 20.5812 345.12 20.4027 345.252 20.1811C345.387 19.9595 345.455 19.7179 345.455 19.4563V18.6207C345.403 18.6638 345.314 18.7038 345.187 18.7408C345.064 18.7777 344.926 18.81 344.772 18.8377C344.618 18.8654 344.466 18.89 344.315 18.9116C344.164 18.9331 344.033 18.9516 343.922 18.967C343.673 19.0008 343.45 19.0562 343.253 19.1332C343.056 19.2101 342.901 19.3178 342.787 19.4563C342.673 19.5917 342.616 19.7672 342.616 19.9826C342.616 20.2904 342.728 20.5227 342.953 20.6797C343.178 20.8366 343.464 20.9151 343.812 20.9151ZM353.672 17.7621V19.1332H349.896V17.7621H353.672ZM350.413 14.9091V22H348.802V14.9091H350.413ZM354.767 14.9091V22H353.16V14.9091H354.767ZM358.068 19.7379L360.908 14.9091H362.625V22H361.009V17.1665L358.179 22H356.457V14.9091H358.068V19.7379ZM368.533 22V16.2663H367.019C366.634 16.2663 366.338 16.3556 366.132 16.5341C365.926 16.7126 365.825 16.9342 365.828 17.1989C365.825 17.4635 365.921 17.6821 366.118 17.8544C366.315 18.0268 366.597 18.1129 366.963 18.1129H369.059V19.3317H366.963C366.397 19.3317 365.908 19.2424 365.495 19.0639C365.083 18.8854 364.766 18.633 364.544 18.3068C364.323 17.9806 364.212 17.599 364.212 17.1619C364.212 16.7064 364.324 16.311 364.549 15.9755C364.777 15.637 365.1 15.3754 365.518 15.1907C365.94 15.003 366.44 14.9091 367.019 14.9091H370.098V22H368.533ZM363.953 22L365.934 18.3622H367.582L365.597 22H363.953ZM207.471 32.2802V30.9091H213.675V32.2802H211.381V38H209.765V32.2802H207.471ZM216.045 40.6591C215.817 40.6591 215.606 40.6406 215.412 40.6037C215.222 40.5698 215.069 40.5298 214.955 40.4837L215.343 39.1818C215.586 39.2526 215.803 39.2865 215.994 39.2834C216.185 39.2803 216.353 39.2203 216.497 39.1033C216.645 38.9895 216.77 38.7987 216.871 38.5309L217.014 38.1477L214.443 30.9091H216.216L217.85 36.2642H217.924L219.563 30.9091H221.34L218.501 38.8587C218.368 39.2341 218.193 39.5558 217.975 39.8235C217.756 40.0943 217.488 40.3005 217.171 40.4421C216.857 40.5868 216.482 40.6591 216.045 40.6591ZM225.348 38.1385C224.64 38.1385 224.032 37.9831 223.525 37.6722C223.02 37.3614 222.631 36.9321 222.357 36.3842C222.086 35.8333 221.95 35.1993 221.95 34.4822C221.95 33.7621 222.089 33.1265 222.366 32.5756C222.643 32.0217 223.034 31.5908 223.539 31.283C224.046 30.9722 224.646 30.8168 225.339 30.8168C225.914 30.8168 226.424 30.9229 226.867 31.1353C227.313 31.3446 227.669 31.6416 227.933 32.0263C228.198 32.4079 228.349 32.8542 228.386 33.3651H226.789C226.724 33.0234 226.57 32.7388 226.327 32.511C226.087 32.2802 225.765 32.1648 225.362 32.1648C225.02 32.1648 224.72 32.2571 224.462 32.4418C224.203 32.6233 224.002 32.8849 223.857 33.2266C223.715 33.5682 223.645 33.9775 223.645 34.4545C223.645 34.9377 223.715 35.3532 223.857 35.701C223.999 36.0457 224.197 36.3119 224.453 36.4996C224.711 36.6843 225.014 36.7766 225.362 36.7766C225.608 36.7766 225.828 36.7305 226.022 36.6381C226.219 36.5427 226.384 36.4058 226.516 36.2273C226.648 36.0488 226.739 35.8318 226.789 35.5763H228.386C228.346 36.078 228.198 36.5227 227.943 36.9105C227.687 37.2952 227.339 37.5968 226.899 37.8153C226.459 38.0308 225.942 38.1385 225.348 38.1385ZM232.851 38.1385C232.159 38.1385 231.559 37.9862 231.051 37.6815C230.543 37.3768 230.149 36.9505 229.869 36.4027C229.592 35.8549 229.453 35.2147 229.453 34.4822C229.453 33.7498 229.592 33.1081 229.869 32.5572C230.149 32.0063 230.543 31.5785 231.051 31.2738C231.559 30.9691 232.159 30.8168 232.851 30.8168C233.544 30.8168 234.144 30.9691 234.652 31.2738C235.159 31.5785 235.552 32.0063 235.829 32.5572C236.109 33.1081 236.249 33.7498 236.249 34.4822C236.249 35.2147 236.109 35.8549 235.829 36.4027C235.552 36.9505 235.159 37.3768 234.652 37.6815C234.144 37.9862 233.544 38.1385 232.851 38.1385ZM232.86 36.7997C233.236 36.7997 233.55 36.6966 233.802 36.4904C234.054 36.2811 234.242 36.0011 234.365 35.6502C234.492 35.2994 234.555 34.9085 234.555 34.4776C234.555 34.0437 234.492 33.6513 234.365 33.3004C234.242 32.9465 234.054 32.6649 233.802 32.4556C233.55 32.2463 233.236 32.1417 232.86 32.1417C232.476 32.1417 232.156 32.2463 231.9 32.4556C231.648 32.6649 231.458 32.9465 231.332 33.3004C231.209 33.6513 231.148 34.0437 231.148 34.4776C231.148 34.9085 231.209 35.2994 231.332 35.6502C231.458 36.0011 231.648 36.2811 231.9 36.4904C232.156 36.6966 232.476 36.7997 232.86 36.7997ZM237.667 38V30.9091H240.645C241.485 30.9091 242.148 31.0768 242.635 31.4123C243.124 31.7478 243.369 32.2156 243.369 32.8157C243.369 33.2127 243.23 33.5374 242.953 33.7898C242.679 34.0391 242.305 34.2068 241.831 34.293C242.204 34.3237 242.53 34.4176 242.81 34.5746C243.093 34.7315 243.315 34.9377 243.475 35.1932C243.635 35.4486 243.715 35.7425 243.715 36.0749C243.715 36.4658 243.612 36.8059 243.406 37.0952C243.202 37.3814 242.905 37.6045 242.515 37.7646C242.127 37.9215 241.656 38 241.102 38H237.667ZM239.232 36.6843H241.102C241.41 36.6843 241.651 36.612 241.827 36.4673C242.002 36.3196 242.09 36.1196 242.09 35.8672C242.09 35.5748 242.002 35.3455 241.827 35.1793C241.651 35.0101 241.41 34.9254 241.102 34.9254H239.232V36.6843ZM239.232 33.8452H240.677C240.905 33.8452 241.1 33.8129 241.263 33.7482C241.427 33.6805 241.551 33.5866 241.637 33.4666C241.724 33.3435 241.767 33.1973 241.767 33.0281C241.767 32.7849 241.667 32.5941 241.467 32.4556C241.27 32.3171 240.996 32.2479 240.645 32.2479H239.232V33.8452ZM248.187 38.1385C247.495 38.1385 246.894 37.9862 246.387 37.6815C245.879 37.3768 245.485 36.9505 245.205 36.4027C244.928 35.8549 244.789 35.2147 244.789 34.4822C244.789 33.7498 244.928 33.1081 245.205 32.5572C245.485 32.0063 245.879 31.5785 246.387 31.2738C246.894 30.9691 247.495 30.8168 248.187 30.8168C248.88 30.8168 249.48 30.9691 249.987 31.2738C250.495 31.5785 250.888 32.0063 251.165 32.5572C251.445 33.1081 251.585 33.7498 251.585 34.4822C251.585 35.2147 251.445 35.8549 251.165 36.4027C250.888 36.9505 250.495 37.3768 249.987 37.6815C249.48 37.9862 248.88 38.1385 248.187 38.1385ZM248.196 36.7997C248.572 36.7997 248.886 36.6966 249.138 36.4904C249.39 36.2811 249.578 36.0011 249.701 35.6502C249.827 35.2994 249.891 34.9085 249.891 34.4776C249.891 34.0437 249.827 33.6513 249.701 33.3004C249.578 32.9465 249.39 32.6649 249.138 32.4556C248.886 32.2463 248.572 32.1417 248.196 32.1417C247.812 32.1417 247.492 32.2463 247.236 32.4556C246.984 32.6649 246.794 32.9465 246.668 33.3004C246.545 33.6513 246.484 34.0437 246.484 34.4776C246.484 34.9085 246.545 35.2994 246.668 35.6502C246.794 36.0011 246.984 36.2811 247.236 36.4904C247.492 36.6966 247.812 36.7997 248.196 36.7997ZM253.003 38V30.9091H254.674V33.7713H255.284L257.417 30.9091H259.429L256.803 34.3899L259.457 38H257.435L255.491 35.3271H254.674V38H253.003ZM263.629 38V30.9091H266.607C267.447 30.9091 268.11 31.0768 268.597 31.4123C269.086 31.7478 269.331 32.2156 269.331 32.8157C269.331 33.2127 269.192 33.5374 268.915 33.7898C268.641 34.0391 268.267 34.2068 267.793 34.293C268.166 34.3237 268.492 34.4176 268.772 34.5746C269.055 34.7315 269.277 34.9377 269.437 35.1932C269.597 35.4486 269.677 35.7425 269.677 36.0749C269.677 36.4658 269.574 36.8059 269.367 37.0952C269.164 37.3814 268.867 37.6045 268.476 37.7646C268.089 37.9215 267.618 38 267.064 38H263.629ZM265.194 36.6843H267.064C267.372 36.6843 267.613 36.612 267.789 36.4673C267.964 36.3196 268.052 36.1196 268.052 35.8672C268.052 35.5748 267.964 35.3455 267.789 35.1793C267.613 35.0101 267.372 34.9254 267.064 34.9254H265.194V36.6843ZM265.194 33.8452H266.639C266.867 33.8452 267.062 33.8129 267.225 33.7482C267.389 33.6805 267.513 33.5866 267.599 33.4666C267.686 33.3435 267.729 33.1973 267.729 33.0281C267.729 32.7849 267.629 32.5941 267.429 32.4556C267.232 32.3171 266.958 32.2479 266.607 32.2479H265.194V33.8452ZM277.374 38.1385C276.681 38.1385 276.081 37.9862 275.573 37.6815C275.065 37.3768 274.671 36.9505 274.391 36.4027C274.114 35.8549 273.976 35.2147 273.976 34.4822C273.976 33.7498 274.114 33.1081 274.391 32.5572C274.671 32.0063 275.065 31.5785 275.573 31.2738C276.081 30.9691 276.681 30.8168 277.374 30.8168C278.066 30.8168 278.666 30.9691 279.174 31.2738C279.682 31.5785 280.074 32.0063 280.351 32.5572C280.631 33.1081 280.771 33.7498 280.771 34.4822C280.771 35.2147 280.631 35.8549 280.351 36.4027C280.074 36.9505 279.682 37.3768 279.174 37.6815C278.666 37.9862 278.066 38.1385 277.374 38.1385ZM277.383 36.7997C277.758 36.7997 278.072 36.6966 278.325 36.4904C278.577 36.2811 278.765 36.0011 278.888 35.6502C279.014 35.2994 279.077 34.9085 279.077 34.4776C279.077 34.0437 279.014 33.6513 278.888 33.3004C278.765 32.9465 278.577 32.6649 278.325 32.4556C278.072 32.2463 277.758 32.1417 277.383 32.1417C276.998 32.1417 276.678 32.2463 276.423 32.4556C276.17 32.6649 275.981 32.9465 275.855 33.3004C275.732 33.6513 275.67 34.0437 275.67 34.4776C275.67 34.9085 275.732 35.2994 275.855 35.6502C275.981 36.0011 276.17 36.2811 276.423 36.4904C276.678 36.6966 276.998 36.7997 277.383 36.7997ZM287.873 28.2869L288.454 29.3672C288.248 29.5457 288.017 29.675 287.762 29.755C287.506 29.835 287.206 29.8873 286.862 29.9119C286.52 29.9335 286.114 29.9489 285.643 29.9581C285.113 29.9704 284.681 30.0704 284.346 30.2582C284.01 30.4459 283.753 30.7306 283.575 31.1122C283.396 31.4908 283.279 31.974 283.224 32.5618H283.302C283.524 32.1278 283.835 31.797 284.235 31.5692C284.635 31.3415 285.104 31.2276 285.643 31.2276C286.231 31.2276 286.749 31.36 287.199 31.6246C287.651 31.8862 288.003 32.2663 288.256 32.7649C288.511 33.2635 288.639 33.8667 288.639 34.5746C288.639 35.304 288.502 35.9364 288.228 36.4719C287.954 37.0044 287.565 37.4152 287.06 37.7045C286.558 37.9938 285.963 38.1385 285.274 38.1385C284.587 38.1385 283.99 37.9892 283.482 37.6907C282.978 37.3891 282.587 36.9444 282.31 36.3565C282.036 35.7656 281.899 35.0378 281.899 34.1729V33.5359C281.899 31.8678 282.21 30.6229 282.831 29.8011C283.453 28.9794 284.375 28.5608 285.597 28.5455C285.96 28.5393 286.285 28.5378 286.571 28.5408C286.86 28.5439 287.112 28.5301 287.328 28.4993C287.543 28.4685 287.725 28.3977 287.873 28.2869ZM285.283 36.7997C285.624 36.7997 285.92 36.712 286.169 36.5366C286.418 36.3581 286.609 36.1057 286.742 35.7795C286.877 35.4532 286.945 35.067 286.945 34.6207C286.945 34.1806 286.877 33.8067 286.742 33.4989C286.606 33.1881 286.414 32.9511 286.165 32.788C285.915 32.6249 285.618 32.5433 285.274 32.5433C285.015 32.5433 284.783 32.5895 284.576 32.6818C284.37 32.7741 284.195 32.9096 284.05 33.0881C283.906 33.2666 283.795 33.4835 283.718 33.739C283.641 33.9944 283.599 34.2884 283.593 34.6207C283.593 35.2886 283.744 35.8195 284.046 36.2134C284.347 36.6043 284.76 36.7997 285.283 36.7997ZM300.711 36.6289L300.573 40.0312H298.998V38H298.163V36.6289H300.711ZM290.061 30.9091H291.672V36.6243H293.902V30.9091H295.513V36.6243H297.743V30.9091H299.354V38H290.061V30.9091ZM304.073 38.1431C303.624 38.1431 303.219 38.0631 302.859 37.9031C302.502 37.7399 302.219 37.4999 302.009 37.1829C301.803 36.8659 301.7 36.475 301.7 36.0103C301.7 35.6102 301.774 35.2794 301.922 35.0178C302.069 34.7562 302.271 34.5469 302.526 34.3899C302.782 34.233 303.07 34.1145 303.39 34.0344C303.713 33.9513 304.047 33.8913 304.392 33.8544C304.807 33.8113 305.144 33.7728 305.403 33.739C305.661 33.7021 305.849 33.6467 305.966 33.5728C306.086 33.4959 306.146 33.3774 306.146 33.2173V33.1896C306.146 32.8419 306.043 32.5726 305.836 32.3817C305.63 32.1909 305.333 32.0955 304.945 32.0955C304.536 32.0955 304.211 32.1848 303.971 32.3633C303.734 32.5418 303.574 32.7526 303.491 32.9957L301.931 32.7741C302.054 32.3433 302.257 31.9832 302.54 31.6939C302.823 31.4015 303.17 31.183 303.579 31.0384C303.988 30.8906 304.441 30.8168 304.936 30.8168C305.278 30.8168 305.618 30.8568 305.956 30.9368C306.295 31.0168 306.604 31.1491 306.884 31.3338C307.164 31.5154 307.389 31.7631 307.558 32.0771C307.731 32.391 307.817 32.7834 307.817 33.2543V38H306.21V37.0259H306.155C306.053 37.2229 305.91 37.4076 305.726 37.5799C305.544 37.7492 305.315 37.8861 305.038 37.9908C304.764 38.0923 304.442 38.1431 304.073 38.1431ZM304.507 36.9151C304.842 36.9151 305.133 36.849 305.379 36.7166C305.626 36.5812 305.815 36.4027 305.947 36.1811C306.083 35.9595 306.15 35.7179 306.15 35.4563V34.6207C306.098 34.6638 306.009 34.7038 305.883 34.7408C305.76 34.7777 305.621 34.81 305.467 34.8377C305.313 34.8654 305.161 34.89 305.01 34.9116C304.859 34.9331 304.729 34.9516 304.618 34.967C304.368 35.0008 304.145 35.0562 303.948 35.1332C303.751 35.2101 303.596 35.3178 303.482 35.4563C303.368 35.5917 303.311 35.7672 303.311 35.9826C303.311 36.2904 303.424 36.5227 303.648 36.6797C303.873 36.8366 304.159 36.9151 304.507 36.9151ZM314.188 30.9091V32.2802H311.132V38H309.497V30.9091H314.188ZM317.276 38.1431C316.827 38.1431 316.422 38.0631 316.062 37.9031C315.705 37.7399 315.422 37.4999 315.213 37.1829C315.006 36.8659 314.903 36.475 314.903 36.0103C314.903 35.6102 314.977 35.2794 315.125 35.0178C315.273 34.7562 315.474 34.5469 315.73 34.3899C315.985 34.233 316.273 34.1145 316.593 34.0344C316.916 33.9513 317.25 33.8913 317.595 33.8544C318.01 33.8113 318.347 33.7728 318.606 33.739C318.864 33.7021 319.052 33.6467 319.169 33.5728C319.289 33.4959 319.349 33.3774 319.349 33.2173V33.1896C319.349 32.8419 319.246 32.5726 319.04 32.3817C318.833 32.1909 318.536 32.0955 318.149 32.0955C317.739 32.0955 317.415 32.1848 317.175 32.3633C316.938 32.5418 316.778 32.7526 316.694 32.9957L315.134 32.7741C315.257 32.3433 315.46 31.9832 315.743 31.6939C316.027 31.4015 316.373 31.183 316.782 31.0384C317.191 30.8906 317.644 30.8168 318.139 30.8168C318.481 30.8168 318.821 30.8568 319.16 30.9368C319.498 31.0168 319.807 31.1491 320.088 31.3338C320.368 31.5154 320.592 31.7631 320.762 32.0771C320.934 32.391 321.02 32.7834 321.02 33.2543V38H319.414V37.0259H319.358C319.257 37.2229 319.113 37.4076 318.929 37.5799C318.747 37.7492 318.518 37.8861 318.241 37.9908C317.967 38.0923 317.645 38.1431 317.276 38.1431ZM317.71 36.9151C318.046 36.9151 318.336 36.849 318.583 36.7166C318.829 36.5812 319.018 36.4027 319.15 36.1811C319.286 35.9595 319.354 35.7179 319.354 35.4563V34.6207C319.301 34.6638 319.212 34.7038 319.086 34.7408C318.963 34.7777 318.824 34.81 318.67 34.8377C318.516 34.8654 318.364 34.89 318.213 34.9116C318.062 34.9331 317.932 34.9516 317.821 34.967C317.572 35.0008 317.348 35.0562 317.151 35.1332C316.954 35.2101 316.799 35.3178 316.685 35.4563C316.571 35.5917 316.514 35.7672 316.514 35.9826C316.514 36.2904 316.627 36.5227 316.851 36.6797C317.076 36.8366 317.362 36.9151 317.71 36.9151ZM324.067 30.9091L325.498 33.5266L326.952 30.9091H328.72L326.583 34.4545L328.757 38H326.998L325.498 35.4471L324.012 38H322.239L324.399 34.4545L322.294 30.9091H324.067Z" fill="#002033"/>
<path d="M332.85 32.2802V30.9091H339.054V32.2802H336.76V38H335.144V32.2802H332.85ZM341.996 35.7379L344.835 30.9091H346.553V38H344.937V33.1665L342.107 38H340.385V30.9091H341.996V35.7379ZM352.35 36.0565L354.455 30.9091H355.803L352.936 38H351.768L348.966 30.9091H350.3L352.35 36.0565ZM349.88 30.9091V38H348.269V30.9091H349.88ZM354.889 38V30.9091H356.486V38H354.889ZM358.171 38V30.9091H359.842V33.7713H360.452L362.585 30.9091H364.597L361.971 34.3899L364.625 38H362.603L360.659 35.3271H359.842V38H358.171ZM367.184 35.7379L370.023 30.9091H371.74V38H370.124V33.1665L367.294 38H365.573V30.9091H367.184V35.7379Z" fill="#C5EE6D"/>
<rect x="148" width="45" height="50" fill="url(#paint1_linear_1613_185)"/>
<defs>
<linearGradient id="paint0_linear_1613_185" x1="204" y1="34" x2="262" y2="34" gradientUnits="userSpaceOnUse">
<stop stop-color="#FFE5C6"/>
<stop offset="0.279167" stop-color="#DDFFC8"/>
<stop offset="0.534375" stop-color="#C6FFF8"/>
<stop offset="0.773958" stop-color="#DAC4FF"/>
<stop offset="1" stop-color="#FFC6C6"/>
</linearGradient>
<linearGradient id="paint1_linear_1613_185" x1="148" y1="25" x2="193" y2="25" gradientUnits="userSpaceOnUse">
<stop stop-color="#002033"/>
<stop offset="1" stop-color="#002033" stop-opacity="0"/>
</linearGradient>
</defs>
</svg>
