<svg width="113" height="18" viewBox="0 0 113 18" fill="none" xmlns="http://www.w3.org/2000/svg">
<rect width="113" height="18" rx="9" fill="#C5EE6D"/>
<path d="M14.8395 7.09233H13.7315C13.6889 6.85559 13.6096 6.64725 13.4936 6.46733C13.3776 6.28741 13.2356 6.13471 13.0675 6.00923C12.8994 5.88376 12.7112 5.78906 12.5028 5.72514C12.2969 5.66122 12.0779 5.62926 11.8459 5.62926C11.4268 5.62926 11.0516 5.73461 10.7202 5.94531C10.3911 6.15601 10.1307 6.46496 9.93892 6.87216C9.74953 7.27936 9.65483 7.77652 9.65483 8.36364C9.65483 8.95549 9.74953 9.45502 9.93892 9.86222C10.1307 10.2694 10.3923 10.5772 10.7237 10.7855C11.0552 10.9938 11.428 11.098 11.8423 11.098C12.072 11.098 12.2898 11.0672 12.4957 11.0057C12.7041 10.9418 12.8923 10.8482 13.0604 10.7251C13.2285 10.602 13.3705 10.4517 13.4865 10.2741C13.6049 10.0942 13.6866 9.88826 13.7315 9.65625L14.8395 9.6598C14.7803 10.0173 14.6655 10.3464 14.495 10.647C14.3269 10.9453 14.1103 11.2034 13.8452 11.4212C13.5824 11.6366 13.2817 11.8035 12.9432 11.9219C12.6046 12.0402 12.2353 12.0994 11.8352 12.0994C11.2055 12.0994 10.6444 11.9503 10.152 11.652C9.65956 11.3513 9.27131 10.9216 8.98722 10.3629C8.70549 9.80421 8.56463 9.13778 8.56463 8.36364C8.56463 7.58712 8.70668 6.92069 8.99077 6.36435C9.27486 5.80563 9.66312 5.37713 10.1555 5.07884C10.648 4.77817 11.2079 4.62784 11.8352 4.62784C12.2211 4.62784 12.581 4.68348 12.9148 4.79474C13.2509 4.90365 13.5528 5.06463 13.8203 5.2777C14.0878 5.4884 14.3092 5.74645 14.4844 6.05185C14.6596 6.35488 14.7779 6.7017 14.8395 7.09233ZM18.3649 12.1101C17.8535 12.1101 17.4073 11.9929 17.0261 11.7585C16.6449 11.5241 16.349 11.1963 16.1383 10.7749C15.9276 10.3535 15.8223 9.86103 15.8223 9.29759C15.8223 8.73177 15.9276 8.23698 16.1383 7.81321C16.349 7.38944 16.6449 7.06037 17.0261 6.82599C17.4073 6.59162 17.8535 6.47443 18.3649 6.47443C18.8762 6.47443 19.3225 6.59162 19.7037 6.82599C20.0848 7.06037 20.3807 7.38944 20.5914 7.81321C20.8021 8.23698 20.9075 8.73177 20.9075 9.29759C20.9075 9.86103 20.8021 10.3535 20.5914 10.7749C20.3807 11.1963 20.0848 11.5241 19.7037 11.7585C19.3225 11.9929 18.8762 12.1101 18.3649 12.1101ZM18.3684 11.2188C18.6999 11.2188 18.9745 11.1312 19.1923 10.956C19.4101 10.7808 19.5711 10.5476 19.6752 10.2564C19.7818 9.9652 19.835 9.64441 19.835 9.29403C19.835 8.94602 19.7818 8.62642 19.6752 8.33523C19.5711 8.04167 19.4101 7.80611 19.1923 7.62855C18.9745 7.45099 18.6999 7.36222 18.3684 7.36222C18.0346 7.36222 17.7576 7.45099 17.5375 7.62855C17.3197 7.80611 17.1575 8.04167 17.051 8.33523C16.9468 8.62642 16.8947 8.94602 16.8947 9.29403C16.8947 9.64441 16.9468 9.9652 17.051 10.2564C17.1575 10.5476 17.3197 10.7808 17.5375 10.956C17.7576 11.1312 18.0346 11.2188 18.3684 11.2188ZM21.7695 10.5582H22.8562C22.8704 10.7808 22.971 10.9524 23.158 11.0732C23.3474 11.1939 23.5924 11.2543 23.8931 11.2543C24.1985 11.2543 24.4589 11.1892 24.6744 11.0589C24.8898 10.9264 24.9975 10.7216 24.9975 10.4446C24.9975 10.2789 24.9561 10.1345 24.8732 10.0114C24.7927 9.88589 24.6779 9.78883 24.5288 9.72017C24.382 9.65152 24.208 9.61719 24.0067 9.61719H23.119V8.78267H24.0067C24.3074 8.78267 24.5323 8.71402 24.6815 8.5767C24.8306 8.43939 24.9052 8.26776 24.9052 8.06179C24.9052 7.83925 24.8247 7.66051 24.6637 7.52557C24.5051 7.38826 24.2837 7.3196 23.9996 7.3196C23.7108 7.3196 23.4705 7.38471 23.2788 7.51491C23.087 7.64276 22.9864 7.80848 22.9769 8.01207H21.9045C21.9116 7.70668 22.0039 7.43916 22.1815 7.20952C22.3614 6.97751 22.6029 6.79759 22.9059 6.66974C23.2113 6.53954 23.5581 6.47443 23.9464 6.47443C24.3512 6.47443 24.7016 6.53954 24.9975 6.66974C25.2934 6.79995 25.5219 6.97988 25.6829 7.20952C25.8462 7.43916 25.9279 7.70312 25.9279 8.00142C25.9279 8.30208 25.8379 8.5483 25.658 8.74006C25.4805 8.92945 25.2485 9.06558 24.962 9.14844V9.20526C25.1727 9.21946 25.3597 9.28338 25.5231 9.39702C25.6864 9.51065 25.8143 9.66098 25.9066 9.84801C25.9989 10.035 26.0451 10.2469 26.0451 10.4837C26.0451 10.8175 25.9528 11.1063 25.7681 11.3501C25.5858 11.594 25.3325 11.7822 25.0082 11.9148C24.6862 12.045 24.3181 12.1101 23.9038 12.1101C23.5013 12.1101 23.1403 12.0473 22.8207 11.9219C22.5034 11.794 22.2513 11.6141 22.0643 11.3821C21.8796 11.1501 21.7814 10.8755 21.7695 10.5582ZM26.6088 13.5732V11.0803H27.0527C27.1664 10.9761 27.2623 10.8518 27.3404 10.7074C27.4209 10.563 27.4883 10.3913 27.5428 10.1925C27.5996 9.99361 27.647 9.7616 27.6848 9.49645C27.7227 9.22893 27.7559 8.92353 27.7843 8.58026L27.9547 6.54545H31.6621V11.0803H32.5002V13.5732H31.4632V12H27.66V13.5732H26.6088ZM28.1891 11.0803H30.6252V7.45455H28.9064L28.7928 8.58026C28.7383 9.15317 28.6697 9.65033 28.5868 10.0717C28.504 10.4908 28.3714 10.8269 28.1891 11.0803ZM35.1254 12.1207C34.7797 12.1207 34.4672 12.0568 34.1879 11.929C33.9085 11.7988 33.6871 11.6106 33.5238 11.3643C33.3628 11.1181 33.2823 10.8163 33.2823 10.4588C33.2823 10.151 33.3415 9.89773 33.4599 9.69886C33.5782 9.5 33.738 9.34257 33.9393 9.22656C34.1405 9.11056 34.3654 9.02296 34.614 8.96378C34.8626 8.90459 35.1159 8.85961 35.3739 8.82884C35.7006 8.79096 35.9658 8.76018 36.1694 8.73651C36.373 8.71046 36.521 8.66903 36.6133 8.61222C36.7056 8.5554 36.7518 8.46307 36.7518 8.33523V8.31037C36.7518 8.00024 36.6642 7.75994 36.489 7.58949C36.3162 7.41903 36.0581 7.33381 35.7148 7.33381C35.3574 7.33381 35.0756 7.41312 34.8697 7.57173C34.6661 7.72798 34.5252 7.90199 34.4471 8.09375L33.4492 7.86648C33.5676 7.53504 33.7404 7.26752 33.9677 7.06392C34.1973 6.85795 34.4613 6.70881 34.7596 6.61648C35.0579 6.52178 35.3716 6.47443 35.7006 6.47443C35.9184 6.47443 36.1493 6.50047 36.3931 6.55256C36.6393 6.60227 36.869 6.6946 37.082 6.82955C37.2975 6.96449 37.4738 7.15743 37.6112 7.40838C37.7485 7.65696 37.8171 7.98011 37.8171 8.37784V12H36.7802V11.2543H36.7376C36.6689 11.3916 36.5659 11.5265 36.4286 11.6591C36.2913 11.7917 36.1149 11.9018 35.8995 11.9893C35.6841 12.0769 35.426 12.1207 35.1254 12.1207ZM35.3562 11.2685C35.6497 11.2685 35.9007 11.2105 36.109 11.0945C36.3197 10.9785 36.4795 10.8269 36.5884 10.6399C36.6997 10.4505 36.7553 10.2481 36.7553 10.0327V9.32955C36.7174 9.36742 36.6441 9.40294 36.5352 9.43608C36.4286 9.46686 36.3067 9.49408 36.1694 9.51776C36.0321 9.53906 35.8983 9.55919 35.7681 9.57812C35.6379 9.5947 35.529 9.6089 35.4414 9.62074C35.2354 9.64678 35.0472 9.69058 34.8768 9.75213C34.7087 9.81368 34.5737 9.90246 34.4719 10.0185C34.3725 10.1321 34.3228 10.2836 34.3228 10.473C34.3228 10.7358 34.4199 10.9347 34.614 11.0696C34.8081 11.2022 35.0555 11.2685 35.3562 11.2685ZM40.2718 10.5121L42.676 6.54545H43.8194V12H42.7789V8.02983L40.3855 12H39.2314V6.54545H40.2718V10.5121ZM42.2214 4.69886H43.095C43.095 5.09896 42.9529 5.42448 42.6689 5.67543C42.3871 5.92401 42.006 6.0483 41.5254 6.0483C41.0472 6.0483 40.6672 5.92401 40.3855 5.67543C40.1038 5.42448 39.9629 5.09896 39.9629 4.69886H40.8329C40.8329 4.87642 40.885 5.03385 40.9892 5.17116C41.0933 5.30611 41.2721 5.37358 41.5254 5.37358C41.774 5.37358 41.9515 5.30611 42.0581 5.17116C42.167 5.03622 42.2214 4.87879 42.2214 4.69886ZM50.1911 12.1101C49.6631 12.1101 49.2086 11.9905 48.8274 11.7514C48.4486 11.5099 48.1574 11.1773 47.9538 10.7536C47.7502 10.3298 47.6484 9.84446 47.6484 9.29759C47.6484 8.74361 47.7526 8.25473 47.9609 7.83097C48.1693 7.40483 48.4628 7.07221 48.8416 6.8331C49.2204 6.59399 49.6667 6.47443 50.1804 6.47443C50.5947 6.47443 50.964 6.55137 51.2884 6.70526C51.6127 6.85677 51.8743 7.06984 52.0732 7.34446C52.2744 7.61908 52.3939 7.93987 52.4318 8.30682H51.3984C51.3416 8.05114 51.2114 7.83097 51.0078 7.64631C50.8066 7.46165 50.5367 7.36932 50.1982 7.36932C49.9022 7.36932 49.643 7.44744 49.4205 7.60369C49.2003 7.75758 49.0286 7.97775 48.9055 8.2642C48.7824 8.5483 48.7209 8.88447 48.7209 9.27273C48.7209 9.67045 48.7813 10.0137 48.902 10.3026C49.0227 10.5914 49.1932 10.8151 49.4134 10.9737C49.6359 11.1323 49.8975 11.2116 50.1982 11.2116C50.3994 11.2116 50.5817 11.175 50.745 11.1016C50.9107 11.0258 51.0492 10.9181 51.1605 10.7784C51.2741 10.6387 51.3535 10.4706 51.3984 10.2741H52.4318C52.3939 10.6269 52.2791 10.9418 52.0874 11.2188C51.8956 11.4957 51.6387 11.7135 51.3168 11.8722C50.9972 12.0308 50.6219 12.1101 50.1911 12.1101ZM53.5673 12V6.54545H55.8294C56.4449 6.54545 56.9326 6.67685 57.2924 6.93963C57.6523 7.20005 57.8322 7.55398 57.8322 8.00142C57.8322 8.32102 57.7304 8.57434 57.5268 8.76136C57.3232 8.94839 57.0533 9.07386 56.7172 9.13778C56.961 9.16619 57.1847 9.23958 57.3883 9.35795C57.5919 9.47396 57.7553 9.63021 57.8784 9.8267C58.0038 10.0232 58.0666 10.2576 58.0666 10.5298C58.0666 10.8187 57.992 11.0743 57.8429 11.2969C57.6937 11.517 57.4771 11.6899 57.193 11.8153C56.9113 11.9384 56.5716 12 56.1738 12H53.5673ZM54.5652 11.1122H56.1738C56.4366 11.1122 56.6426 11.0495 56.7917 10.924C56.9409 10.7985 57.0154 10.6281 57.0154 10.4126C57.0154 10.1593 56.9409 9.96046 56.7917 9.81605C56.6426 9.66927 56.4366 9.59588 56.1738 9.59588H54.5652V11.1122ZM54.5652 8.81818H55.84C56.0389 8.81818 56.2093 8.78977 56.3514 8.73295C56.4958 8.67614 56.6059 8.59564 56.6816 8.49148C56.7598 8.38494 56.7988 8.25947 56.7988 8.11506C56.7988 7.90436 56.7124 7.73982 56.5396 7.62145C56.3668 7.50308 56.13 7.44389 55.8294 7.44389H54.5652V8.81818ZM61.5289 12.1101C61.0176 12.1101 60.5713 11.9929 60.1902 11.7585C59.809 11.5241 59.5131 11.1963 59.3024 10.7749C59.0917 10.3535 58.9863 9.86103 58.9863 9.29759C58.9863 8.73177 59.0917 8.23698 59.3024 7.81321C59.5131 7.38944 59.809 7.06037 60.1902 6.82599C60.5713 6.59162 61.0176 6.47443 61.5289 6.47443C62.0403 6.47443 62.4866 6.59162 62.8677 6.82599C63.2489 7.06037 63.5448 7.38944 63.7555 7.81321C63.9662 8.23698 64.0716 8.73177 64.0716 9.29759C64.0716 9.86103 63.9662 10.3535 63.7555 10.7749C63.5448 11.1963 63.2489 11.5241 62.8677 11.7585C62.4866 11.9929 62.0403 12.1101 61.5289 12.1101ZM61.5325 11.2188C61.8639 11.2188 62.1386 11.1312 62.3564 10.956C62.5742 10.7808 62.7351 10.5476 62.8393 10.2564C62.9458 9.9652 62.9991 9.64441 62.9991 9.29403C62.9991 8.94602 62.9458 8.62642 62.8393 8.33523C62.7351 8.04167 62.5742 7.80611 62.3564 7.62855C62.1386 7.45099 61.8639 7.36222 61.5325 7.36222C61.1987 7.36222 60.9217 7.45099 60.7015 7.62855C60.4837 7.80611 60.3216 8.04167 60.215 8.33523C60.1109 8.62642 60.0588 8.94602 60.0588 9.29403C60.0588 9.64441 60.1109 9.9652 60.215 10.2564C60.3216 10.5476 60.4837 10.7808 60.7015 10.956C60.9217 11.1312 61.1987 11.2188 61.5325 11.2188ZM66.2972 10.5121L68.7013 6.54545H69.8448V12H68.8043V8.02983L66.4109 12H65.2567V6.54545H66.2972V10.5121ZM68.2468 4.69886H69.1204C69.1204 5.09896 68.9783 5.42448 68.6942 5.67543C68.4125 5.92401 68.0314 6.0483 67.5508 6.0483C67.0726 6.0483 66.6926 5.92401 66.4109 5.67543C66.1291 5.42448 65.9883 5.09896 65.9883 4.69886H66.8583C66.8583 4.87642 66.9104 5.03385 67.0146 5.17116C67.1187 5.30611 67.2975 5.37358 67.5508 5.37358C67.7994 5.37358 67.9769 5.30611 68.0835 5.17116C68.1924 5.03622 68.2468 4.87879 68.2468 4.69886ZM76.2164 12.1101C75.7051 12.1101 75.2588 11.9929 74.8777 11.7585C74.4965 11.5241 74.2006 11.1963 73.9899 10.7749C73.7792 10.3535 73.6738 9.86103 73.6738 9.29759C73.6738 8.73177 73.7792 8.23698 73.9899 7.81321C74.2006 7.38944 74.4965 7.06037 74.8777 6.82599C75.2588 6.59162 75.7051 6.47443 76.2164 6.47443C76.7278 6.47443 77.1741 6.59162 77.5552 6.82599C77.9364 7.06037 78.2323 7.38944 78.443 7.81321C78.6537 8.23698 78.7591 8.73177 78.7591 9.29759C78.7591 9.86103 78.6537 10.3535 78.443 10.7749C78.2323 11.1963 77.9364 11.5241 77.5552 11.7585C77.1741 11.9929 76.7278 12.1101 76.2164 12.1101ZM76.22 11.2188C76.5514 11.2188 76.8261 11.1312 77.0439 10.956C77.2617 10.7808 77.4226 10.5476 77.5268 10.2564C77.6333 9.9652 77.6866 9.64441 77.6866 9.29403C77.6866 8.94602 77.6333 8.62642 77.5268 8.33523C77.4226 8.04167 77.2617 7.80611 77.0439 7.62855C76.8261 7.45099 76.5514 7.36222 76.22 7.36222C75.8862 7.36222 75.6092 7.45099 75.389 7.62855C75.1712 7.80611 75.0091 8.04167 74.9025 8.33523C74.7984 8.62642 74.7463 8.94602 74.7463 9.29403C74.7463 9.64441 74.7984 9.9652 74.9025 10.2564C75.0091 10.5476 75.1712 10.7808 75.389 10.956C75.6092 11.1312 75.8862 11.2188 76.22 11.2188ZM79.9442 14.0455V6.54545H80.9812V7.42969H81.07C81.1315 7.31605 81.2203 7.18466 81.3363 7.03551C81.4523 6.88636 81.6133 6.75616 81.8192 6.64489C82.0252 6.53125 82.2975 6.47443 82.636 6.47443C83.0763 6.47443 83.4693 6.5857 83.815 6.80824C84.1606 7.03078 84.4317 7.35156 84.6282 7.7706C84.8271 8.18963 84.9265 8.69389 84.9265 9.28338C84.9265 9.87287 84.8282 10.3783 84.6317 10.7997C84.4353 11.2187 84.1654 11.5419 83.8221 11.7692C83.4788 11.9941 83.087 12.1065 82.6467 12.1065C82.3152 12.1065 82.0442 12.0509 81.8335 11.9396C81.6251 11.8284 81.4618 11.6982 81.3434 11.549C81.225 11.3999 81.1339 11.2673 81.07 11.1513H81.006V14.0455H79.9442ZM80.9847 9.27273C80.9847 9.65625 81.0404 9.99242 81.1516 10.2812C81.2629 10.5701 81.4239 10.7962 81.6346 10.9595C81.8453 11.1205 82.1033 11.201 82.4087 11.201C82.726 11.201 82.9911 11.117 83.2042 10.9489C83.4173 10.7784 83.5782 10.5476 83.6871 10.2564C83.7984 9.9652 83.854 9.63731 83.854 9.27273C83.854 8.91288 83.7996 8.58973 83.6907 8.30327C83.5842 8.01681 83.4232 7.79072 83.2077 7.625C82.9947 7.45928 82.7283 7.37642 82.4087 7.37642C82.101 7.37642 81.8406 7.45573 81.6275 7.61435C81.4168 7.77296 81.257 7.99432 81.1481 8.27841C81.0392 8.5625 80.9847 8.89394 80.9847 9.27273ZM85.5835 13.5732V11.0803H86.0273C86.141 10.9761 86.2369 10.8518 86.315 10.7074C86.3955 10.563 86.4629 10.3913 86.5174 10.1925C86.5742 9.99361 86.6216 9.7616 86.6594 9.49645C86.6973 9.22893 86.7305 8.92353 86.7589 8.58026L86.9293 6.54545H90.6367V11.0803H91.4748V13.5732H90.4379V12H86.6346V13.5732H85.5835ZM87.1637 11.0803H89.5998V7.45455H87.881L87.7674 8.58026C87.7129 9.15317 87.6443 9.65033 87.5614 10.0717C87.4786 10.4908 87.346 10.8269 87.1637 11.0803ZM94.8635 12.1101C94.3261 12.1101 93.8632 11.9953 93.475 11.7656C93.0891 11.5336 92.7908 11.2081 92.5801 10.7891C92.3717 10.3677 92.2676 9.87405 92.2676 9.30824C92.2676 8.74953 92.3717 8.2571 92.5801 7.83097C92.7908 7.40483 93.0843 7.07221 93.4608 6.8331C93.8395 6.59399 94.2823 6.47443 94.7889 6.47443C95.0967 6.47443 95.3949 6.52533 95.6838 6.62713C95.9726 6.72893 96.2318 6.88873 96.4615 7.10653C96.6911 7.32434 96.8722 7.60724 97.0048 7.95526C97.1374 8.3009 97.2037 8.72112 97.2037 9.21591V9.59233H92.8677V8.79688H96.1632C96.1632 8.51752 96.1064 8.27012 95.9927 8.05469C95.8791 7.83688 95.7193 7.66525 95.5133 7.53977C95.3097 7.4143 95.0706 7.35156 94.796 7.35156C94.4977 7.35156 94.2373 7.42495 94.0147 7.57173C93.7946 7.71615 93.6241 7.90554 93.5034 8.13991C93.385 8.37192 93.3258 8.62405 93.3258 8.89631V9.51776C93.3258 9.88234 93.3897 10.1925 93.5176 10.4482C93.6478 10.7038 93.8289 10.8991 94.0609 11.0341C94.2929 11.1667 94.564 11.233 94.8741 11.233C95.0753 11.233 95.2588 11.2045 95.4245 11.1477C95.5903 11.0885 95.7335 11.0009 95.8542 10.8849C95.975 10.7689 96.0673 10.6257 96.1312 10.4553L97.1362 10.6364C97.0557 10.9323 96.9113 11.1915 96.7029 11.4141C96.497 11.6342 96.2377 11.8059 95.9252 11.929C95.6151 12.0497 95.2612 12.1101 94.8635 12.1101ZM98.3817 14.0455V6.54545H99.4187V7.42969H99.5075C99.569 7.31605 99.6578 7.18466 99.7738 7.03551C99.8898 6.88636 100.051 6.75616 100.257 6.64489C100.463 6.53125 100.735 6.47443 101.074 6.47443C101.514 6.47443 101.907 6.5857 102.252 6.80824C102.598 7.03078 102.869 7.35156 103.066 7.7706C103.265 8.18963 103.364 8.69389 103.364 9.28338C103.364 9.87287 103.266 10.3783 103.069 10.7997C102.873 11.2187 102.603 11.5419 102.26 11.7692C101.916 11.9941 101.525 12.1065 101.084 12.1065C100.753 12.1065 100.482 12.0509 100.271 11.9396C100.063 11.8284 99.8993 11.6982 99.7809 11.549C99.6625 11.3999 99.5714 11.2673 99.5075 11.1513H99.4435V14.0455H98.3817ZM99.4222 9.27273C99.4222 9.65625 99.4779 9.99242 99.5891 10.2812C99.7004 10.5701 99.8614 10.7962 100.072 10.9595C100.283 11.1205 100.541 11.201 100.846 11.201C101.163 11.201 101.429 11.117 101.642 10.9489C101.855 10.7784 102.016 10.5476 102.125 10.2564C102.236 9.9652 102.292 9.63731 102.292 9.27273C102.292 8.91288 102.237 8.58973 102.128 8.30327C102.022 8.01681 101.861 7.79072 101.645 7.625C101.432 7.45928 101.166 7.37642 100.846 7.37642C100.538 7.37642 100.278 7.45573 100.065 7.61435C99.8543 7.77296 99.6945 7.99432 99.5856 8.27841C99.4767 8.5625 99.4222 8.89394 99.4222 9.27273Z" fill="#344C00"/>
</svg>
