<svg width="22" height="22" viewBox="0 0 22 22" fill="none" xmlns="http://www.w3.org/2000/svg">
<path d="M6.95714 20H3.9C2.85066 20 2 19.1493 2 18.1V11.5908C2 11.0792 2.20637 10.5891 2.5724 10.2316L9.6724 3.29673C10.4106 2.57568 11.5894 2.57569 12.3276 3.29673L19.4276 10.2316C19.7936 10.5891 20 11.0792 20 11.5908V18.1C20 19.1493 19.1493 20 18.1 20H15.0429C13.9935 20 13.1429 19.1493 13.1429 18.1V15.6771C13.1429 15.2251 12.9817 14.7878 12.6883 14.4439L12.4454 14.1593C11.6869 13.2702 10.3131 13.2702 9.55458 14.1593L9.31173 14.4439C9.01832 14.7878 8.85714 15.2251 8.85714 15.6771V18.1C8.85714 19.1493 8.00648 20 6.95714 20Z" stroke="#646464" stroke-width="2"/>
</svg>
