<svg width="57" height="58" viewBox="0 0 57 58" fill="none" xmlns="http://www.w3.org/2000/svg">
<g clip-path="url(#clip0_1539_598)">
<path d="M48.0935 0.308594H8.90206C4.03197 0.308594 0.0839844 4.32584 0.0839844 9.28137V48.1634C0.0839844 53.1189 4.03197 57.1362 8.90206 57.1362H48.0935C52.9636 57.1362 56.9116 53.1189 56.9116 48.1634V9.28137C56.9116 4.32584 52.9636 0.308594 48.0935 0.308594Z" fill="#002033"/>
<path d="M35.8461 12.2715H21.1493C18.7142 12.2715 16.7402 14.2801 16.7402 16.7579C16.7402 19.2356 18.7142 21.2443 21.1493 21.2443H35.8461C38.2811 21.2443 40.2551 19.2356 40.2551 16.7579C40.2551 14.2801 38.2811 12.2715 35.8461 12.2715Z" fill="#C5EE6D"/>
<path d="M35.8461 24.2363H21.1493C18.7142 24.2363 16.7402 26.245 16.7402 28.7227C16.7402 31.2005 18.7142 33.2091 21.1493 33.2091H35.8461C38.2811 33.2091 40.2551 31.2005 40.2551 28.7227C40.2551 26.245 38.2811 24.2363 35.8461 24.2363Z" fill="#C5EE6D"/>
<path d="M24.0886 36.1992H21.1493C18.7142 36.1992 16.7402 38.2078 16.7402 40.6856C16.7402 43.1634 18.7142 45.172 21.1493 45.172H24.0886C26.5237 45.172 28.4977 43.1634 28.4977 40.6856C28.4977 38.2078 26.5237 36.1992 24.0886 36.1992Z" fill="#C5EE6D"/>
</g>
<defs>
<clipPath id="clip0_1539_598">
<rect width="56.8276" height="56.8276" fill="white" transform="translate(0.0839844 0.308594)"/>
</clipPath>
</defs>
</svg>
