<svg width="130" height="24" viewBox="0 0 130 24" fill="none" xmlns="http://www.w3.org/2000/svg">
<rect width="130" height="24" rx="12" fill="#EAEAEA"/>
<path d="M18.7861 8V16H17.583V9.03125H13.8174V16H12.6143V8H18.7861ZM20.5381 18.25V10H21.6787V10.9727H21.7764C21.8441 10.8477 21.9417 10.7031 22.0693 10.5391C22.1969 10.375 22.374 10.2318 22.6006 10.1094C22.8271 9.98438 23.1266 9.92188 23.499 9.92188C23.9834 9.92188 24.4157 10.0443 24.7959 10.2891C25.1761 10.5339 25.4743 10.8867 25.6904 11.3477C25.9092 11.8086 26.0186 12.3633 26.0186 13.0117C26.0186 13.6602 25.9105 14.2161 25.6943 14.6797C25.4782 15.1406 25.1813 15.4961 24.8037 15.7461C24.4261 15.9935 23.9951 16.1172 23.5107 16.1172C23.1462 16.1172 22.848 16.056 22.6162 15.9336C22.387 15.8112 22.2074 15.668 22.0771 15.5039C21.9469 15.3398 21.8467 15.194 21.7764 15.0664H21.7061V18.25H20.5381ZM21.6826 13C21.6826 13.4219 21.7438 13.7917 21.8662 14.1094C21.9886 14.4271 22.1657 14.6758 22.3975 14.8555C22.6292 15.0326 22.9131 15.1211 23.249 15.1211C23.598 15.1211 23.8896 15.0286 24.124 14.8437C24.3584 14.6562 24.5355 14.4023 24.6553 14.082C24.7777 13.7617 24.8389 13.401 24.8389 13C24.8389 12.6042 24.779 12.2487 24.6592 11.9336C24.542 11.6185 24.3649 11.3698 24.1279 11.1875C23.8936 11.0052 23.6006 10.9141 23.249 10.9141C22.9105 10.9141 22.624 11.0013 22.3896 11.1758C22.1579 11.3503 21.9821 11.5937 21.8623 11.9062C21.7425 12.2187 21.6826 12.5833 21.6826 13ZM29.8545 16.1211C29.292 16.1211 28.8011 15.9922 28.3818 15.7344C27.9626 15.4766 27.637 15.1159 27.4053 14.6523C27.1735 14.1888 27.0576 13.6471 27.0576 13.0273C27.0576 12.4049 27.1735 11.8607 27.4053 11.3945C27.637 10.9284 27.9626 10.5664 28.3818 10.3086C28.8011 10.0508 29.292 9.92188 29.8545 9.92188C30.417 9.92188 30.9079 10.0508 31.3271 10.3086C31.7464 10.5664 32.0719 10.9284 32.3037 11.3945C32.5355 11.8607 32.6514 12.4049 32.6514 13.0273C32.6514 13.6471 32.5355 14.1888 32.3037 14.6523C32.0719 15.1159 31.7464 15.4766 31.3271 15.7344C30.9079 15.9922 30.417 16.1211 29.8545 16.1211ZM29.8584 15.1406C30.223 15.1406 30.5251 15.0443 30.7646 14.8516C31.0042 14.6589 31.1813 14.4023 31.2959 14.082C31.4131 13.7617 31.4717 13.4089 31.4717 13.0234C31.4717 12.6406 31.4131 12.2891 31.2959 11.9687C31.1813 11.6458 31.0042 11.3867 30.7646 11.1914C30.5251 10.9961 30.223 10.8984 29.8584 10.8984C29.4912 10.8984 29.1865 10.9961 28.9443 11.1914C28.7048 11.3867 28.5264 11.6458 28.4092 11.9687C28.2946 12.2891 28.2373 12.6406 28.2373 13.0234C28.2373 13.4089 28.2946 13.7617 28.4092 14.082C28.5264 14.4023 28.7048 14.6589 28.9443 14.8516C29.1865 15.0443 29.4912 15.1406 29.8584 15.1406ZM36.4824 16.1211C35.9017 16.1211 35.4017 15.9896 34.9824 15.7266C34.5658 15.4609 34.2454 15.0951 34.0215 14.6289C33.7975 14.1628 33.6855 13.6289 33.6855 13.0273C33.6855 12.418 33.8001 11.8802 34.0293 11.4141C34.2585 10.9453 34.5814 10.5794 34.998 10.3164C35.4147 10.0534 35.9056 9.92188 36.4707 9.92188C36.9264 9.92188 37.3327 10.0065 37.6895 10.1758C38.0462 10.3424 38.334 10.5768 38.5527 10.8789C38.7741 11.181 38.9056 11.5339 38.9473 11.9375H37.8105C37.748 11.6562 37.6048 11.4141 37.3809 11.2109C37.1595 11.0078 36.8626 10.9062 36.4902 10.9062C36.1647 10.9062 35.8796 10.9922 35.6348 11.1641C35.3926 11.3333 35.2038 11.5755 35.0684 11.8906C34.9329 12.2031 34.8652 12.5729 34.8652 13C34.8652 13.4375 34.9316 13.8151 35.0645 14.1328C35.1973 14.4505 35.3848 14.6966 35.627 14.8711C35.8717 15.0456 36.1595 15.1328 36.4902 15.1328C36.7116 15.1328 36.9121 15.0924 37.0918 15.0117C37.2741 14.9284 37.4264 14.8099 37.5488 14.6562C37.6738 14.5026 37.7611 14.3177 37.8105 14.1016H38.9473C38.9056 14.4896 38.7793 14.8359 38.5684 15.1406C38.3574 15.4453 38.0749 15.6849 37.7207 15.8594C37.3691 16.0339 36.9564 16.1211 36.4824 16.1211ZM39.7422 11.0078V10H44.8047V11.0078H42.8477V16H41.707V11.0078H39.7422ZM48.2881 16.1211C47.7256 16.1211 47.2347 15.9922 46.8154 15.7344C46.3962 15.4766 46.0706 15.1159 45.8389 14.6523C45.6071 14.1888 45.4912 13.6471 45.4912 13.0273C45.4912 12.4049 45.6071 11.8607 45.8389 11.3945C46.0706 10.9284 46.3962 10.5664 46.8154 10.3086C47.2347 10.0508 47.7256 9.92188 48.2881 9.92188C48.8506 9.92188 49.3415 10.0508 49.7607 10.3086C50.18 10.5664 50.5055 10.9284 50.7373 11.3945C50.9691 11.8607 51.085 12.4049 51.085 13.0273C51.085 13.6471 50.9691 14.1888 50.7373 14.6523C50.5055 15.1159 50.18 15.4766 49.7607 15.7344C49.3415 15.9922 48.8506 16.1211 48.2881 16.1211ZM48.292 15.1406C48.6566 15.1406 48.9587 15.0443 49.1982 14.8516C49.4378 14.6589 49.6149 14.4023 49.7295 14.082C49.8467 13.7617 49.9053 13.4089 49.9053 13.0234C49.9053 12.6406 49.8467 12.2891 49.7295 11.9687C49.6149 11.6458 49.4378 11.3867 49.1982 11.1914C48.9587 10.9961 48.6566 10.8984 48.292 10.8984C47.9248 10.8984 47.6201 10.9961 47.3779 11.1914C47.1383 11.3867 46.96 11.6458 46.8428 11.9687C46.7282 12.2891 46.6709 12.6406 46.6709 13.0234C46.6709 13.4089 46.7282 13.7617 46.8428 14.082C46.96 14.4023 47.1383 14.6589 47.3779 14.8516C47.6201 15.0443 47.9248 15.1406 48.292 15.1406ZM57.8271 16.1211C57.2464 16.1211 56.7464 15.9896 56.3271 15.7266C55.9105 15.4609 55.5902 15.0951 55.3662 14.6289C55.1423 14.1628 55.0303 13.6289 55.0303 13.0273C55.0303 12.418 55.1449 11.8802 55.374 11.4141C55.6032 10.9453 55.9261 10.5794 56.3428 10.3164C56.7594 10.0534 57.2503 9.92188 57.8154 9.92188C58.2712 9.92188 58.6774 10.0065 59.0342 10.1758C59.391 10.3424 59.6787 10.5768 59.8975 10.8789C60.1188 11.181 60.2503 11.5339 60.292 11.9375H59.1553C59.0928 11.6562 58.9495 11.4141 58.7256 11.2109C58.5042 11.0078 58.2074 10.9062 57.835 10.9062C57.5094 10.9062 57.2243 10.9922 56.9795 11.1641C56.7373 11.3333 56.5485 11.5755 56.4131 11.8906C56.2777 12.2031 56.21 12.5729 56.21 13C56.21 13.4375 56.2764 13.8151 56.4092 14.1328C56.542 14.4505 56.7295 14.6966 56.9717 14.8711C57.2165 15.0456 57.5042 15.1328 57.835 15.1328C58.0563 15.1328 58.2568 15.0924 58.4365 15.0117C58.6188 14.9284 58.7712 14.8099 58.8936 14.6562C59.0186 14.5026 59.1058 14.3177 59.1553 14.1016H60.292C60.2503 14.4896 60.124 14.8359 59.9131 15.1406C59.7021 15.4453 59.4196 15.6849 59.0654 15.8594C58.7139 16.0339 58.3011 16.1211 57.8271 16.1211ZM63.6035 10.9336C63.4004 10.9362 63.2051 10.9844 63.0176 11.0781C62.8301 11.1719 62.6751 11.2969 62.5527 11.4531C62.4329 11.6094 62.373 11.7865 62.373 11.9844H61.2715C61.2715 11.7031 61.334 11.4375 61.459 11.1875C61.584 10.9375 61.7546 10.7174 61.9707 10.5273C62.1868 10.3372 62.4355 10.1875 62.7168 10.0781C62.998 9.96875 63.2936 9.91406 63.6035 9.91406C64.1686 9.91406 64.6465 10.0521 65.0371 10.3281C65.4303 10.6016 65.7285 10.9661 65.9316 11.4219C66.1348 11.875 66.2363 12.3724 66.2363 12.9141V13.1094C66.2363 13.651 66.1348 14.1497 65.9316 14.6055C65.7285 15.0612 65.4303 15.4258 65.0371 15.6992C64.6465 15.9727 64.1686 16.1094 63.6035 16.1094C63.1504 16.1094 62.748 16.013 62.3965 15.8203C62.0449 15.6276 61.7689 15.3646 61.5684 15.0312C61.3704 14.6953 61.2715 14.3125 61.2715 13.8828H62.373C62.373 14.0964 62.429 14.2943 62.541 14.4766C62.653 14.6589 62.8014 14.806 62.9863 14.918C63.1738 15.0273 63.3796 15.0833 63.6035 15.0859C63.9395 15.0833 64.2168 14.9818 64.4355 14.7812C64.6569 14.5807 64.821 14.3294 64.9277 14.0273C65.0371 13.7227 65.0918 13.4167 65.0918 13.1094V12.9141C65.0918 12.5937 65.0371 12.2826 64.9277 11.9805C64.821 11.6784 64.6569 11.4297 64.4355 11.2344C64.2168 11.0365 63.9395 10.9362 63.6035 10.9336ZM65.502 12.5352V13.4336H63.0449V12.5352H65.502ZM67.5352 16V10H68.7031V12.5156H69.2656L71.2461 10H72.6914L70.3672 12.918L72.7187 16H71.2695L69.4609 13.6016H68.7031V16H67.5352ZM75.9063 16.1211C75.3438 16.1211 74.8529 15.9922 74.4336 15.7344C74.0143 15.4766 73.6888 15.1159 73.457 14.6523C73.2253 14.1888 73.1094 13.6471 73.1094 13.0273C73.1094 12.4049 73.2253 11.8607 73.457 11.3945C73.6888 10.9284 74.0143 10.5664 74.4336 10.3086C74.8529 10.0508 75.3438 9.92188 75.9063 9.92188C76.4688 9.92188 76.9596 10.0508 77.3789 10.3086C77.7982 10.5664 78.1237 10.9284 78.3555 11.3945C78.5872 11.8607 78.7031 12.4049 78.7031 13.0273C78.7031 13.6471 78.5872 14.1888 78.3555 14.6523C78.1237 15.1159 77.7982 15.4766 77.3789 15.7344C76.9596 15.9922 76.4688 16.1211 75.9063 16.1211ZM75.9102 15.1406C76.2747 15.1406 76.5768 15.0443 76.8164 14.8516C77.056 14.6589 77.2331 14.4023 77.3477 14.082C77.4648 13.7617 77.5234 13.4089 77.5234 13.0234C77.5234 12.6406 77.4648 12.2891 77.3477 11.9687C77.2331 11.6458 77.056 11.3867 76.8164 11.1914C76.5768 10.9961 76.2747 10.8984 75.9102 10.8984C75.543 10.8984 75.2383 10.9961 74.9961 11.1914C74.7565 11.3867 74.5781 11.6458 74.4609 11.9687C74.3464 12.2891 74.2891 12.6406 74.2891 13.0234C74.2891 13.4089 74.3464 13.7617 74.4609 14.082C74.5781 14.4023 74.7565 14.6589 74.9961 14.8516C75.2383 15.0443 75.543 15.1406 75.9102 15.1406ZM84.0732 12.4961V13.5078H80.8232V12.4961H84.0732ZM81.1514 10V16H80.0068V10H81.1514ZM84.8896 10V16H83.749V10H84.8896ZM88.9795 16.1211C88.417 16.1211 87.9261 15.9922 87.5068 15.7344C87.0876 15.4766 86.762 15.1159 86.5303 14.6523C86.2985 14.1888 86.1826 13.6471 86.1826 13.0273C86.1826 12.4049 86.2985 11.8607 86.5303 11.3945C86.762 10.9284 87.0876 10.5664 87.5068 10.3086C87.9261 10.0508 88.417 9.92188 88.9795 9.92188C89.542 9.92188 90.0329 10.0508 90.4521 10.3086C90.8714 10.5664 91.1969 10.9284 91.4287 11.3945C91.6605 11.8607 91.7764 12.4049 91.7764 13.0273C91.7764 13.6471 91.6605 14.1888 91.4287 14.6523C91.1969 15.1159 90.8714 15.4766 90.4521 15.7344C90.0329 15.9922 89.542 16.1211 88.9795 16.1211ZM88.9834 15.1406C89.348 15.1406 89.6501 15.0443 89.8896 14.8516C90.1292 14.6589 90.3063 14.4023 90.4209 14.082C90.5381 13.7617 90.5967 13.4089 90.5967 13.0234C90.5967 12.6406 90.5381 12.2891 90.4209 11.9687C90.3063 11.6458 90.1292 11.3867 89.8896 11.1914C89.6501 10.9961 89.348 10.8984 88.9834 10.8984C88.6162 10.8984 88.3115 10.9961 88.0693 11.1914C87.8298 11.3867 87.6514 11.6458 87.5342 11.9687C87.4196 12.2891 87.3623 12.6406 87.3623 13.0234C87.3623 13.4089 87.4196 13.7617 87.5342 14.082C87.6514 14.4023 87.8298 14.6589 88.0693 14.8516C88.3115 15.0443 88.6162 15.1406 88.9834 15.1406ZM96.4473 14.5547L98.3848 10H99.3926L96.8809 16H96.0137L93.5527 10H94.5488L96.4473 14.5547ZM94.2246 10V16H93.0801V10H94.2246ZM98.7012 16V10H99.8379V16H98.7012ZM102.539 14.3633L105.184 10H106.441V16H105.297V11.6328L102.664 16H101.395V10H102.539V14.3633ZM107.268 11.0078V10H112.33V11.0078H110.373V16H109.232V11.0078H107.268ZM114.444 12.0625H116.187C116.921 12.0625 117.486 12.2448 117.882 12.6094C118.278 12.974 118.476 13.444 118.476 14.0195C118.476 14.3945 118.387 14.7318 118.21 15.0312C118.033 15.3307 117.774 15.5677 117.433 15.7422C117.091 15.9141 116.676 16 116.187 16H113.565V10H114.71V14.9922H116.187C116.522 14.9922 116.799 14.9049 117.015 14.7305C117.231 14.5534 117.339 14.3281 117.339 14.0547C117.339 13.7656 117.231 13.5299 117.015 13.3477C116.799 13.1628 116.522 13.0703 116.187 13.0703H114.444V12.0625Z" fill="#002033" fill-opacity="0.8"/>
</svg>
