<svg width="116" height="24" viewBox="0 0 116 24" fill="none" xmlns="http://www.w3.org/2000/svg">
<rect width="116" height="24" rx="12" fill="#D4EDDA"/>
<path d="M12.8789 8H14.3438L16.8906 14.2187H16.9844L19.5313 8H20.9961V16H19.8477V10.2109H19.7734L17.4141 15.9883H16.4609L14.1016 10.207H14.0273V16H12.8789V8ZM25.1846 16.1211C24.6221 16.1211 24.1312 15.9922 23.7119 15.7344C23.2926 15.4766 22.9671 15.1159 22.7354 14.6523C22.5036 14.1888 22.3877 13.6471 22.3877 13.0273C22.3877 12.4049 22.5036 11.8607 22.7354 11.3945C22.9671 10.9284 23.2926 10.5664 23.7119 10.3086C24.1312 10.0508 24.6221 9.92188 25.1846 9.92188C25.7471 9.92188 26.238 10.0508 26.6572 10.3086C27.0765 10.5664 27.402 10.9284 27.6338 11.3945C27.8656 11.8607 27.9814 12.4049 27.9814 13.0273C27.9814 13.6471 27.8656 14.1888 27.6338 14.6523C27.402 15.1159 27.0765 15.4766 26.6572 15.7344C26.238 15.9922 25.7471 16.1211 25.1846 16.1211ZM25.1885 15.1406C25.5531 15.1406 25.8551 15.0443 26.0947 14.8516C26.3343 14.6589 26.5114 14.4023 26.626 14.082C26.7432 13.7617 26.8018 13.4089 26.8018 13.0234C26.8018 12.6406 26.7432 12.2891 26.626 11.9687C26.5114 11.6458 26.3343 11.3867 26.0947 11.1914C25.8551 10.9961 25.5531 10.8984 25.1885 10.8984C24.8213 10.8984 24.5166 10.9961 24.2744 11.1914C24.0348 11.3867 23.8564 11.6458 23.7393 11.9687C23.6247 12.2891 23.5674 12.6406 23.5674 13.0234C23.5674 13.4089 23.6247 13.7617 23.7393 14.082C23.8564 14.4023 24.0348 14.6589 24.2744 14.8516C24.5166 15.0443 24.8213 15.1406 25.1885 15.1406ZM28.666 16L30.9902 12.9297L28.6934 10H30.0527L31.9082 12.4922H32.3262V10H33.4941V12.4922H33.9004L35.7559 10H37.1152L34.8301 12.9297L37.1426 16H35.7559L33.8848 13.5H33.4941V16H32.3262V13.5H31.9355L30.0527 16H28.666ZM42.3965 12.4961V13.5078H39.1465V12.4961H42.3965ZM39.4746 10V16H38.3301V10H39.4746ZM43.2129 10V16H42.0723V10H43.2129ZM47.3027 16.1211C46.7402 16.1211 46.2493 15.9922 45.8301 15.7344C45.4108 15.4766 45.0853 15.1159 44.8535 14.6523C44.6217 14.1888 44.5059 13.6471 44.5059 13.0273C44.5059 12.4049 44.6217 11.8607 44.8535 11.3945C45.0853 10.9284 45.4108 10.5664 45.8301 10.3086C46.2493 10.0508 46.7402 9.92188 47.3027 9.92188C47.8652 9.92188 48.3561 10.0508 48.7754 10.3086C49.1947 10.5664 49.5202 10.9284 49.752 11.3945C49.9837 11.8607 50.0996 12.4049 50.0996 13.0273C50.0996 13.6471 49.9837 14.1888 49.752 14.6523C49.5202 15.1159 49.1947 15.4766 48.7754 15.7344C48.3561 15.9922 47.8652 16.1211 47.3027 16.1211ZM47.3066 15.1406C47.6712 15.1406 47.9733 15.0443 48.2129 14.8516C48.4525 14.6589 48.6296 14.4023 48.7441 14.082C48.8613 13.7617 48.9199 13.4089 48.9199 13.0234C48.9199 12.6406 48.8613 12.2891 48.7441 11.9687C48.6296 11.6458 48.4525 11.3867 48.2129 11.1914C47.9733 10.9961 47.6712 10.8984 47.3066 10.8984C46.9395 10.8984 46.6348 10.9961 46.3926 11.1914C46.153 11.3867 45.9746 11.6458 45.8574 11.9687C45.7428 12.2891 45.6855 12.6406 45.6855 13.0234C45.6855 13.4089 45.7428 13.7617 45.8574 14.082C45.9746 14.4023 46.153 14.6589 46.3926 14.8516C46.6348 15.0443 46.9395 15.1406 47.3066 15.1406ZM54.3145 16V10H59.209V16H58.0645V11.0078H55.4512V16H54.3145ZM63.2979 16.1211C62.7354 16.1211 62.2445 15.9922 61.8252 15.7344C61.4059 15.4766 61.0804 15.1159 60.8486 14.6523C60.6169 14.1888 60.501 13.6471 60.501 13.0273C60.501 12.4049 60.6169 11.8607 60.8486 11.3945C61.0804 10.9284 61.4059 10.5664 61.8252 10.3086C62.2445 10.0508 62.7354 9.92188 63.2979 9.92188C63.8604 9.92188 64.3512 10.0508 64.7705 10.3086C65.1898 10.5664 65.5153 10.9284 65.7471 11.3945C65.9788 11.8607 66.0947 12.4049 66.0947 13.0273C66.0947 13.6471 65.9788 14.1888 65.7471 14.6523C65.5153 15.1159 65.1898 15.4766 64.7705 15.7344C64.3512 15.9922 63.8604 16.1211 63.2979 16.1211ZM63.3018 15.1406C63.6663 15.1406 63.9684 15.0443 64.208 14.8516C64.4476 14.6589 64.6247 14.4023 64.7393 14.082C64.8564 13.7617 64.915 13.4089 64.915 13.0234C64.915 12.6406 64.8564 12.2891 64.7393 11.9687C64.6247 11.6458 64.4476 11.3867 64.208 11.1914C63.9684 10.9961 63.6663 10.8984 63.3018 10.8984C62.9346 10.8984 62.6299 10.9961 62.3877 11.1914C62.1481 11.3867 61.9697 11.6458 61.8525 11.9687C61.738 12.2891 61.6807 12.6406 61.6807 13.0234C61.6807 13.4089 61.738 13.7617 61.8525 14.082C61.9697 14.4023 62.1481 14.6589 62.3877 14.8516C62.6299 15.0443 62.9346 15.1406 63.3018 15.1406ZM69.9258 16.1211C69.3451 16.1211 68.8451 15.9896 68.4258 15.7266C68.0091 15.4609 67.6888 15.0951 67.4648 14.6289C67.2409 14.1628 67.1289 13.6289 67.1289 13.0273C67.1289 12.418 67.2435 11.8802 67.4727 11.4141C67.7018 10.9453 68.0247 10.5794 68.4414 10.3164C68.8581 10.0534 69.349 9.92188 69.9141 9.92188C70.3698 9.92188 70.776 10.0065 71.1328 10.1758C71.4896 10.3424 71.7773 10.5768 71.9961 10.8789C72.2174 11.181 72.349 11.5339 72.3906 11.9375H71.2539C71.1914 11.6562 71.0482 11.4141 70.8242 11.2109C70.6029 11.0078 70.306 10.9062 69.9336 10.9062C69.6081 10.9062 69.3229 10.9922 69.0781 11.1641C68.8359 11.3333 68.6471 11.5755 68.5117 11.8906C68.3763 12.2031 68.3086 12.5729 68.3086 13C68.3086 13.4375 68.375 13.8151 68.5078 14.1328C68.6406 14.4505 68.8281 14.6966 69.0703 14.8711C69.3151 15.0456 69.6029 15.1328 69.9336 15.1328C70.1549 15.1328 70.3555 15.0924 70.5352 15.0117C70.7174 14.9284 70.8698 14.8099 70.9922 14.6562C71.1172 14.5026 71.2044 14.3177 71.2539 14.1016H72.3906C72.349 14.4896 72.2227 14.8359 72.0117 15.1406C71.8008 15.4453 71.5182 15.6849 71.1641 15.8594C70.8125 16.0339 70.3997 16.1211 69.9258 16.1211ZM74.7842 14.3633L77.4287 10H78.6865V16H77.542V11.6328L74.9092 16H73.6396V10H74.7842V14.3633ZM79.6709 17.7305V14.9883H80.1592C80.2842 14.8737 80.3896 14.737 80.4756 14.5781C80.5641 14.4193 80.6383 14.2305 80.6982 14.0117C80.7607 13.793 80.8128 13.5378 80.8545 13.2461C80.8962 12.9518 80.9326 12.6159 80.9639 12.2383L81.1514 10H85.2295V14.9883H86.1514V17.7305H85.0107V16H80.8271V17.7305H79.6709ZM81.4092 14.9883H84.0889V11H82.1982L82.0732 12.2383C82.0133 12.8685 81.9378 13.4154 81.8467 13.8789C81.7555 14.3398 81.6097 14.7096 81.4092 14.9883ZM89.8789 16.1211C89.2878 16.1211 88.7786 15.9948 88.3516 15.7422C87.9271 15.487 87.599 15.1289 87.3672 14.668C87.138 14.2044 87.0234 13.6615 87.0234 13.0391C87.0234 12.4245 87.138 11.8828 87.3672 11.4141C87.599 10.9453 87.9219 10.5794 88.3359 10.3164C88.7526 10.0534 89.2396 9.92188 89.7969 9.92188C90.1354 9.92188 90.4635 9.97786 90.7813 10.0898C91.099 10.2018 91.3841 10.3776 91.6367 10.6172C91.8893 10.8568 92.0885 11.168 92.2344 11.5508C92.3802 11.931 92.4531 12.3932 92.4531 12.9375V13.3516H87.6836V12.4766H91.3086C91.3086 12.1693 91.2461 11.8971 91.1211 11.6602C90.9961 11.4206 90.8203 11.2318 90.5938 11.0937C90.3698 10.9557 90.1068 10.8867 89.8047 10.8867C89.4766 10.8867 89.1901 10.9674 88.9453 11.1289C88.7031 11.2878 88.5156 11.4961 88.3828 11.7539C88.2526 12.0091 88.1875 12.2865 88.1875 12.5859V13.2695C88.1875 13.6706 88.2578 14.0117 88.3984 14.293C88.5417 14.5742 88.7409 14.7891 88.9961 14.9375C89.2513 15.0833 89.5495 15.1562 89.8906 15.1562C90.112 15.1562 90.3138 15.125 90.4961 15.0625C90.6784 14.9974 90.8359 14.901 90.9688 14.7734C91.1016 14.6458 91.2031 14.4883 91.2734 14.3008L92.3789 14.5C92.2904 14.8255 92.1315 15.1107 91.9023 15.3555C91.6758 15.5977 91.3906 15.7865 91.0469 15.9219C90.7057 16.0547 90.3164 16.1211 89.8789 16.1211ZM93.2197 11.0078V10H98.2822V11.0078H96.3252V16H95.1846V11.0078H93.2197ZM100.396 12.0625H102.139C102.873 12.0625 103.438 12.2448 103.834 12.6094C104.23 12.974 104.428 13.444 104.428 14.0195C104.428 14.3945 104.339 14.7318 104.162 15.0312C103.985 15.3307 103.726 15.5677 103.385 15.7422C103.044 15.9141 102.628 16 102.139 16H99.5176V10H100.662V14.9922H102.139C102.475 14.9922 102.751 14.9049 102.967 14.7305C103.183 14.5534 103.291 14.3281 103.291 14.0547C103.291 13.7656 103.183 13.5299 102.967 13.3477C102.751 13.1628 102.475 13.0703 102.139 13.0703H100.396V12.0625Z" fill="#002033" fill-opacity="0.8"/>
</svg>
