<svg width="146" height="24" viewBox="0 0 146 24" fill="none" xmlns="http://www.w3.org/2000/svg">
<rect width="146" height="24" rx="12" fill="url(#paint0_linear_1161_114)"/>
<path d="M12.7646 9.03906V8H18.9561V9.03906H16.46V16H15.2568V9.03906H12.7646ZM20.2813 18.25C20.1068 18.25 19.9479 18.2357 19.8047 18.207C19.6615 18.181 19.5547 18.1523 19.4844 18.1211L19.7656 17.1641C19.9792 17.2214 20.1693 17.2461 20.3359 17.2383C20.5026 17.2305 20.6497 17.168 20.7773 17.0508C20.9076 16.9336 21.0221 16.7422 21.1211 16.4766L21.2656 16.0781L19.0703 10H20.3203L21.8398 14.6562H21.9023L23.4219 10H24.6758L22.2031 16.8008C22.0885 17.1133 21.9427 17.3776 21.7656 17.5938C21.5885 17.8125 21.3776 17.9766 21.1328 18.0859C20.888 18.1953 20.6042 18.25 20.2813 18.25ZM28.0967 16.1211C27.516 16.1211 27.016 15.9896 26.5967 15.7266C26.18 15.4609 25.8597 15.0951 25.6357 14.6289C25.4118 14.1628 25.2998 13.6289 25.2998 13.0273C25.2998 12.418 25.4144 11.8802 25.6436 11.4141C25.8727 10.9453 26.1956 10.5794 26.6123 10.3164C27.029 10.0534 27.5199 9.92188 28.085 9.92188C28.5407 9.92188 28.9469 10.0065 29.3037 10.1758C29.6605 10.3424 29.9482 10.5768 30.167 10.8789C30.3883 11.181 30.5199 11.5339 30.5615 11.9375H29.4248C29.3623 11.6562 29.2191 11.4141 28.9951 11.2109C28.7738 11.0078 28.4769 10.9062 28.1045 10.9062C27.779 10.9062 27.4938 10.9922 27.249 11.1641C27.0068 11.3333 26.818 11.5755 26.6826 11.8906C26.5472 12.2031 26.4795 12.5729 26.4795 13C26.4795 13.4375 26.5459 13.8151 26.6787 14.1328C26.8115 14.4505 26.999 14.6966 27.2412 14.8711C27.486 15.0456 27.7738 15.1328 28.1045 15.1328C28.3258 15.1328 28.5264 15.0924 28.7061 15.0117C28.8883 14.9284 29.0407 14.8099 29.1631 14.6562C29.2881 14.5026 29.3753 14.3177 29.4248 14.1016H30.5615C30.5199 14.4896 30.3936 14.8359 30.1826 15.1406C29.9717 15.4453 29.6891 15.6849 29.335 15.8594C28.9834 16.0339 28.5706 16.1211 28.0967 16.1211ZM34.3379 16.1211C33.7754 16.1211 33.2845 15.9922 32.8652 15.7344C32.446 15.4766 32.1204 15.1159 31.8887 14.6523C31.6569 14.1888 31.541 13.6471 31.541 13.0273C31.541 12.4049 31.6569 11.8607 31.8887 11.3945C32.1204 10.9284 32.446 10.5664 32.8652 10.3086C33.2845 10.0508 33.7754 9.92188 34.3379 9.92188C34.9004 9.92188 35.3913 10.0508 35.8105 10.3086C36.2298 10.5664 36.5553 10.9284 36.7871 11.3945C37.0189 11.8607 37.1348 12.4049 37.1348 13.0273C37.1348 13.6471 37.0189 14.1888 36.7871 14.6523C36.5553 15.1159 36.2298 15.4766 35.8105 15.7344C35.3913 15.9922 34.9004 16.1211 34.3379 16.1211ZM34.3418 15.1406C34.7064 15.1406 35.0085 15.0443 35.248 14.8516C35.4876 14.6589 35.6647 14.4023 35.7793 14.082C35.8965 13.7617 35.9551 13.4089 35.9551 13.0234C35.9551 12.6406 35.8965 12.2891 35.7793 11.9687C35.6647 11.6458 35.4876 11.3867 35.248 11.1914C35.0085 10.9961 34.7064 10.8984 34.3418 10.8984C33.9746 10.8984 33.6699 10.9961 33.4277 11.1914C33.1882 11.3867 33.0098 11.6458 32.8926 11.9687C32.778 12.2891 32.7207 12.6406 32.7207 13.0234C32.7207 13.4089 32.778 13.7617 32.8926 14.082C33.0098 14.4023 33.1882 14.6589 33.4277 14.8516C33.6699 15.0443 33.9746 15.1406 34.3418 15.1406ZM38.4385 16V10H40.9268C41.6038 10 42.1403 10.1445 42.5361 10.4336C42.932 10.7201 43.1299 11.1094 43.1299 11.6016C43.1299 11.9531 43.0179 12.2318 42.7939 12.4375C42.57 12.6432 42.2731 12.7813 41.9033 12.8516C42.1715 12.8828 42.4176 12.9635 42.6416 13.0937C42.8656 13.2214 43.0452 13.3932 43.1807 13.6094C43.3187 13.8255 43.3877 14.0833 43.3877 14.3828C43.3877 14.7005 43.3057 14.9818 43.1416 15.2266C42.9775 15.4687 42.7393 15.6589 42.4268 15.7969C42.1169 15.9323 41.7432 16 41.3057 16H38.4385ZM39.5361 15.0234H41.3057C41.5947 15.0234 41.8213 14.9544 41.9854 14.8164C42.1494 14.6784 42.2314 14.4909 42.2314 14.2539C42.2314 13.9753 42.1494 13.7565 41.9854 13.5977C41.8213 13.4362 41.5947 13.3555 41.3057 13.3555H39.5361V15.0234ZM39.5361 12.5H40.9385C41.1572 12.5 41.3447 12.4687 41.501 12.4062C41.6598 12.3437 41.7809 12.2552 41.8643 12.1406C41.9502 12.0234 41.9932 11.8854 41.9932 11.7266C41.9932 11.4948 41.8981 11.3138 41.708 11.1836C41.5179 11.0534 41.2575 10.9883 40.9268 10.9883H39.5361V12.5ZM44.6689 16V10H45.8369V12.5156H46.3994L48.3799 10H49.8252L47.501 12.918L49.8525 16H48.4033L46.5947 13.6016H45.8369V16H44.6689ZM52.5059 16.1328C52.1257 16.1328 51.7819 16.0625 51.4746 15.9219C51.1673 15.7786 50.9238 15.5716 50.7441 15.3008C50.5671 15.0299 50.4785 14.6979 50.4785 14.3047C50.4785 13.9661 50.5436 13.6875 50.6738 13.4687C50.804 13.25 50.9798 13.0768 51.2012 12.9492C51.4225 12.8216 51.6699 12.7253 51.9434 12.6602C52.2168 12.5951 52.4954 12.5456 52.7793 12.5117C53.1387 12.4701 53.4303 12.4362 53.6543 12.4102C53.8783 12.3815 54.041 12.3359 54.1426 12.2734C54.2441 12.2109 54.2949 12.1094 54.2949 11.9687V11.9414C54.2949 11.6003 54.1986 11.3359 54.0059 11.1484C53.8158 10.9609 53.5319 10.8672 53.1543 10.8672C52.7611 10.8672 52.4512 10.9544 52.2246 11.1289C52.0007 11.3008 51.8457 11.4922 51.7598 11.7031L50.6621 11.4531C50.7923 11.0885 50.9824 10.7943 51.2324 10.5703C51.485 10.3437 51.7754 10.1797 52.1035 10.0781C52.4316 9.97396 52.7767 9.92188 53.1387 9.92188C53.3783 9.92188 53.6322 9.95052 53.9004 10.0078C54.1712 10.0625 54.4238 10.1641 54.6582 10.3125C54.8952 10.4609 55.0892 10.6732 55.2402 10.9492C55.3913 11.2227 55.4668 11.5781 55.4668 12.0156V16H54.3262V15.1797H54.2793C54.2038 15.3307 54.0905 15.4792 53.9395 15.625C53.7884 15.7708 53.5944 15.8919 53.3574 15.9883C53.1204 16.0846 52.8366 16.1328 52.5059 16.1328ZM52.7598 15.1953C53.0827 15.1953 53.3587 15.1315 53.5879 15.0039C53.8197 14.8763 53.9954 14.7096 54.1152 14.5039C54.2376 14.2956 54.2988 14.0729 54.2988 13.8359V13.0625C54.2572 13.1042 54.1764 13.1432 54.0566 13.1797C53.9395 13.2135 53.8053 13.2435 53.6543 13.2695C53.5033 13.293 53.3561 13.3151 53.2129 13.3359C53.0697 13.3542 52.9499 13.3698 52.8535 13.3828C52.627 13.4115 52.4199 13.4596 52.2324 13.5273C52.0475 13.5951 51.8991 13.6927 51.7871 13.8203C51.6777 13.9453 51.623 14.112 51.623 14.3203C51.623 14.6094 51.7298 14.8281 51.9434 14.9766C52.1569 15.1224 52.429 15.1953 52.7598 15.1953ZM59.9336 16V10H64.8281V16H63.6836V11.0078H61.0703V16H59.9336ZM68.917 16.1211C68.3545 16.1211 67.8636 15.9922 67.4443 15.7344C67.0251 15.4766 66.6995 15.1159 66.4678 14.6523C66.236 14.1888 66.1201 13.6471 66.1201 13.0273C66.1201 12.4049 66.236 11.8607 66.4678 11.3945C66.6995 10.9284 67.0251 10.5664 67.4443 10.3086C67.8636 10.0508 68.3545 9.92188 68.917 9.92188C69.4795 9.92188 69.9704 10.0508 70.3896 10.3086C70.8089 10.5664 71.1344 10.9284 71.3662 11.3945C71.598 11.8607 71.7139 12.4049 71.7139 13.0273C71.7139 13.6471 71.598 14.1888 71.3662 14.6523C71.1344 15.1159 70.8089 15.4766 70.3896 15.7344C69.9704 15.9922 69.4795 16.1211 68.917 16.1211ZM68.9209 15.1406C69.2855 15.1406 69.5876 15.0443 69.8271 14.8516C70.0667 14.6589 70.2438 14.4023 70.3584 14.082C70.4756 13.7617 70.5342 13.4089 70.5342 13.0234C70.5342 12.6406 70.4756 12.2891 70.3584 11.9687C70.2438 11.6458 70.0667 11.3867 69.8271 11.1914C69.5876 10.9961 69.2855 10.8984 68.9209 10.8984C68.5537 10.8984 68.249 10.9961 68.0068 11.1914C67.7673 11.3867 67.5889 11.6458 67.4717 11.9687C67.3571 12.2891 67.2998 12.6406 67.2998 13.0234C67.2998 13.4089 67.3571 13.7617 67.4717 14.082C67.5889 14.4023 67.7673 14.6589 68.0068 14.8516C68.249 15.0443 68.5537 15.1406 68.9209 15.1406ZM77.0732 14.3633L79.7178 10H80.9756V16H79.8311V11.6328L77.1982 16H75.9287V10H77.0732V14.3633ZM86.6123 12.4961V13.5078H83.3623V12.4961H86.6123ZM83.6904 10V16H82.5459V10H83.6904ZM87.4287 10V16H86.2881V10H87.4287ZM88.2471 11.0078V10H93.3096V11.0078H91.3525V16H90.2119V11.0078H88.2471ZM96.8516 16.1211C96.2604 16.1211 95.7513 15.9948 95.3242 15.7422C94.8997 15.487 94.5716 15.1289 94.3398 14.668C94.1107 14.2044 93.9961 13.6615 93.9961 13.0391C93.9961 12.4245 94.1107 11.8828 94.3398 11.4141C94.5716 10.9453 94.8945 10.5794 95.3086 10.3164C95.7253 10.0534 96.2122 9.92188 96.7695 9.92188C97.1081 9.92188 97.4362 9.97786 97.7539 10.0898C98.0716 10.2018 98.3568 10.3776 98.6094 10.6172C98.862 10.8568 99.0612 11.168 99.207 11.5508C99.3529 11.931 99.4258 12.3932 99.4258 12.9375V13.3516H94.6563V12.4766H98.2813C98.2813 12.1693 98.2188 11.8971 98.0938 11.6602C97.9688 11.4206 97.793 11.2318 97.5664 11.0937C97.3424 10.9557 97.0794 10.8867 96.7773 10.8867C96.4492 10.8867 96.1628 10.9674 95.918 11.1289C95.6758 11.2878 95.4883 11.4961 95.3555 11.7539C95.2253 12.0091 95.1602 12.2865 95.1602 12.5859V13.2695C95.1602 13.6706 95.2305 14.0117 95.3711 14.293C95.5143 14.5742 95.7135 14.7891 95.9688 14.9375C96.224 15.0833 96.5221 15.1562 96.8633 15.1562C97.0846 15.1562 97.2865 15.125 97.4688 15.0625C97.651 14.9974 97.8086 14.901 97.9414 14.7734C98.0742 14.6458 98.1758 14.4883 98.2461 14.3008L99.3516 14.5C99.263 14.8255 99.1042 15.1107 98.875 15.3555C98.6484 15.5977 98.3633 15.7865 98.0195 15.9219C97.6784 16.0547 97.2891 16.1211 96.8516 16.1211ZM100.722 18.25V10H101.862V10.9727H101.96C102.028 10.8477 102.125 10.7031 102.253 10.5391C102.381 10.375 102.558 10.2318 102.784 10.1094C103.011 9.98438 103.31 9.92188 103.683 9.92188C104.167 9.92188 104.599 10.0443 104.979 10.2891C105.36 10.5339 105.658 10.8867 105.874 11.3477C106.093 11.8086 106.202 12.3633 106.202 13.0117C106.202 13.6602 106.094 14.2161 105.878 14.6797C105.662 15.1406 105.365 15.4961 104.987 15.7461C104.61 15.9935 104.179 16.1172 103.694 16.1172C103.33 16.1172 103.032 16.056 102.8 15.9336C102.571 15.8112 102.391 15.668 102.261 15.5039C102.131 15.3398 102.03 15.194 101.96 15.0664H101.89V18.25H100.722ZM101.866 13C101.866 13.4219 101.927 13.7917 102.05 14.1094C102.172 14.4271 102.349 14.6758 102.581 14.8555C102.813 15.0326 103.097 15.1211 103.433 15.1211C103.782 15.1211 104.073 15.0286 104.308 14.8437C104.542 14.6562 104.719 14.4023 104.839 14.082C104.961 13.7617 105.022 13.401 105.022 13C105.022 12.6042 104.963 12.2487 104.843 11.9336C104.726 11.6185 104.549 11.3698 104.312 11.1875C104.077 11.0052 103.784 10.9141 103.433 10.9141C103.094 10.9141 102.808 11.0013 102.573 11.1758C102.341 11.3503 102.166 11.5937 102.046 11.9062C101.926 12.2187 101.866 12.5833 101.866 13ZM110.097 16.1211C109.506 16.1211 108.996 15.9948 108.569 15.7422C108.145 15.487 107.817 15.1289 107.585 14.668C107.356 14.2044 107.241 13.6615 107.241 13.0391C107.241 12.4245 107.356 11.8828 107.585 11.4141C107.817 10.9453 108.14 10.5794 108.554 10.3164C108.97 10.0534 109.457 9.92188 110.015 9.92188C110.353 9.92188 110.681 9.97786 110.999 10.0898C111.317 10.2018 111.602 10.3776 111.854 10.6172C112.107 10.8568 112.306 11.168 112.452 11.5508C112.598 11.931 112.671 12.3932 112.671 12.9375V13.3516H107.901V12.4766H111.526C111.526 12.1693 111.464 11.8971 111.339 11.6602C111.214 11.4206 111.038 11.2318 110.812 11.0937C110.588 10.9557 110.325 10.8867 110.022 10.8867C109.694 10.8867 109.408 10.9674 109.163 11.1289C108.921 11.2878 108.733 11.4961 108.601 11.7539C108.47 12.0091 108.405 12.2865 108.405 12.5859V13.2695C108.405 13.6706 108.476 14.0117 108.616 14.293C108.759 14.5742 108.959 14.7891 109.214 14.9375C109.469 15.0833 109.767 15.1562 110.108 15.1562C110.33 15.1562 110.532 15.125 110.714 15.0625C110.896 14.9974 111.054 14.901 111.187 14.7734C111.319 14.6458 111.421 14.4883 111.491 14.3008L112.597 14.5C112.508 14.8255 112.349 15.1107 112.12 15.3555C111.894 15.5977 111.608 15.7865 111.265 15.9219C110.924 16.0547 110.534 16.1211 110.097 16.1211ZM116.494 16.1211C115.913 16.1211 115.413 15.9896 114.994 15.7266C114.577 15.4609 114.257 15.0951 114.033 14.6289C113.809 14.1628 113.697 13.6289 113.697 13.0273C113.697 12.418 113.812 11.8802 114.041 11.4141C114.27 10.9453 114.593 10.5794 115.01 10.3164C115.426 10.0534 115.917 9.92188 116.482 9.92188C116.938 9.92188 117.344 10.0065 117.701 10.1758C118.058 10.3424 118.346 10.5768 118.564 10.8789C118.786 11.181 118.917 11.5339 118.959 11.9375H117.822C117.76 11.6562 117.617 11.4141 117.393 11.2109C117.171 11.0078 116.874 10.9062 116.502 10.9062C116.176 10.9062 115.891 10.9922 115.646 11.1641C115.404 11.3333 115.215 11.5755 115.08 11.8906C114.945 12.2031 114.877 12.5729 114.877 13C114.877 13.4375 114.943 13.8151 115.076 14.1328C115.209 14.4505 115.396 14.6966 115.639 14.8711C115.883 15.0456 116.171 15.1328 116.502 15.1328C116.723 15.1328 116.924 15.0924 117.104 15.0117C117.286 14.9284 117.438 14.8099 117.561 14.6562C117.686 14.5026 117.773 14.3177 117.822 14.1016H118.959C118.917 14.4896 118.791 14.8359 118.58 15.1406C118.369 15.4453 118.087 15.6849 117.732 15.8594C117.381 16.0339 116.968 16.1211 116.494 16.1211ZM121.954 16.1328C121.574 16.1328 121.23 16.0625 120.923 15.9219C120.616 15.7786 120.372 15.5716 120.192 15.3008C120.015 15.0299 119.927 14.6979 119.927 14.3047C119.927 13.9661 119.992 13.6875 120.122 13.4687C120.252 13.25 120.428 13.0768 120.649 12.9492C120.871 12.8216 121.118 12.7253 121.392 12.6602C121.665 12.5951 121.944 12.5456 122.228 12.5117C122.587 12.4701 122.879 12.4362 123.103 12.4102C123.326 12.3815 123.489 12.3359 123.591 12.2734C123.692 12.2109 123.743 12.1094 123.743 11.9687V11.9414C123.743 11.6003 123.647 11.3359 123.454 11.1484C123.264 10.9609 122.98 10.8672 122.603 10.8672C122.209 10.8672 121.899 10.9544 121.673 11.1289C121.449 11.3008 121.294 11.4922 121.208 11.7031L120.11 11.4531C120.241 11.0885 120.431 10.7943 120.681 10.5703C120.933 10.3437 121.224 10.1797 121.552 10.0781C121.88 9.97396 122.225 9.92188 122.587 9.92188C122.826 9.92188 123.08 9.95052 123.349 10.0078C123.619 10.0625 123.872 10.1641 124.106 10.3125C124.343 10.4609 124.537 10.6732 124.688 10.9492C124.84 11.2227 124.915 11.5781 124.915 12.0156V16H123.774V15.1797H123.728C123.652 15.3307 123.539 15.4792 123.388 15.625C123.237 15.7708 123.043 15.8919 122.806 15.9883C122.569 16.0846 122.285 16.1328 121.954 16.1328ZM122.208 15.1953C122.531 15.1953 122.807 15.1315 123.036 15.0039C123.268 14.8763 123.444 14.7096 123.563 14.5039C123.686 14.2956 123.747 14.0729 123.747 13.8359V13.0625C123.705 13.1042 123.625 13.1432 123.505 13.1797C123.388 13.2135 123.254 13.2435 123.103 13.2695C122.951 13.293 122.804 13.3151 122.661 13.3359C122.518 13.3542 122.398 13.3698 122.302 13.3828C122.075 13.4115 121.868 13.4596 121.681 13.5273C121.496 13.5951 121.347 13.6927 121.235 13.8203C121.126 13.9453 121.071 14.112 121.071 14.3203C121.071 14.6094 121.178 14.8281 121.392 14.9766C121.605 15.1224 121.877 15.1953 122.208 15.1953ZM129.838 14.5547L131.775 10H132.783L130.271 16H129.404L126.943 10H127.939L129.838 14.5547ZM127.615 10V16H126.471V10H127.615ZM132.092 16V10H133.229V16H132.092Z" fill="#002033" fill-opacity="0.8"/>
<defs>
<linearGradient id="paint0_linear_1161_114" x1="0" y1="12" x2="146" y2="12" gradientUnits="userSpaceOnUse">
<stop stop-color="#FFE5C6"/>
<stop offset="0.279167" stop-color="#DDFFC8"/>
<stop offset="0.534375" stop-color="#C6FFF8"/>
<stop offset="0.773958" stop-color="#DAC4FF"/>
<stop offset="1" stop-color="#FFC6C6"/>
</linearGradient>
</defs>
</svg>
