<svg width="20" height="20" viewBox="0 0 20 20" fill="none" xmlns="http://www.w3.org/2000/svg">
<g clip-path="url(#clip0_947_18)">
<path d="M16.8966 0H3.10345C1.38946 0 0 1.41384 0 3.15789V16.8421C0 18.5862 1.38946 20 3.10345 20H16.8966C18.6105 20 20 18.5862 20 16.8421V3.15789C20 1.41384 18.6105 0 16.8966 0Z" fill="#002033"/>
<path d="M12.5855 4.21094H7.41305C6.55606 4.21094 5.86133 4.91786 5.86133 5.78989C5.86133 6.66191 6.55606 7.36883 7.41305 7.36883H12.5855C13.4425 7.36883 14.1372 6.66191 14.1372 5.78989C14.1372 4.91786 13.4425 4.21094 12.5855 4.21094Z" fill="#C5EE6D"/>
<path d="M12.5855 8.4209H7.41305C6.55606 8.4209 5.86133 9.12782 5.86133 9.99985C5.86133 10.8719 6.55606 11.5788 7.41305 11.5788H12.5855C13.4425 11.5788 14.1372 10.8719 14.1372 9.99985C14.1372 9.12782 13.4425 8.4209 12.5855 8.4209Z" fill="#C5EE6D"/>
<path d="M8.44753 12.6318H7.41305C6.55606 12.6318 5.86133 13.3388 5.86133 14.2108C5.86133 15.0828 6.55606 15.7897 7.41305 15.7897H8.44753C9.30453 15.7897 9.99926 15.0828 9.99926 14.2108C9.99926 13.3388 9.30453 12.6318 8.44753 12.6318Z" fill="#C5EE6D"/>
</g>
<defs>
<clipPath id="clip0_947_18">
<rect width="20" height="20" fill="white"/>
</clipPath>
</defs>
</svg>
