<svg width="19" height="17" viewBox="0 0 19 17" fill="none" xmlns="http://www.w3.org/2000/svg">
<path d="M1 11.1667V6.2619C1 4.92064 2.08731 3.83333 3.42857 3.83333H4.44048C5.22288 3.83333 5.85714 3.19907 5.85714 2.41667C5.85714 1.63426 6.49141 1 7.27381 1H11.7262C12.5086 1 13.1429 1.63426 13.1429 2.41667C13.1429 3.19907 13.7771 3.83333 14.5595 3.83333H15.5714C16.9127 3.83333 18 4.92064 18 6.2619V11.1667C18 13.3758 16.2091 15.1667 14 15.1667H5C2.79086 15.1667 1 13.3758 1 11.1667Z" stroke="#002033" stroke-width="2" stroke-linecap="round"/>
<circle cx="9.50028" cy="9.09501" r="2.64286" stroke="#002033" stroke-width="2"/>
</svg>
