<svg width="263" height="233" viewBox="0 0 263 233" fill="none" xmlns="http://www.w3.org/2000/svg">
<path d="M2.35138 52.6367V48.6044H3.07049C3.31552 48.3984 3.54457 48.1055 3.75764 47.7255C3.9707 47.3455 4.15181 46.8324 4.30096 46.1861C4.45011 45.5398 4.55309 44.7106 4.60991 43.6985L4.86559 39.0909H11.5932V48.6044H12.829V52.6207H11.2523V50H3.92809V52.6367H2.35138ZM5.00941 48.6044H10.0165V40.5078H6.35707L6.18661 43.6985C6.14045 44.4691 6.0641 45.1616 5.95756 45.7759C5.85458 46.3903 5.72141 46.9336 5.55806 47.4059C5.39826 47.8746 5.21538 48.2741 5.00941 48.6044ZM13.8597 50L13.8544 48.6204H14.1474C14.3746 48.6204 14.5646 48.5724 14.7173 48.4766C14.8736 48.3771 15.0014 48.2102 15.1009 47.9759C15.2003 47.7415 15.2766 47.4183 15.3299 47.0064C15.3832 46.5909 15.4222 46.0689 15.4471 45.4403L15.5909 41.8182H21.3011V50H19.7404V43.1925H17.0664L16.9386 45.973C16.9066 46.6477 16.8374 47.2372 16.7308 47.7415C16.6278 48.2457 16.4769 48.6665 16.2781 49.0039C16.0792 49.3377 15.8235 49.5881 15.511 49.755C15.1985 49.9183 14.8185 50 14.3711 50H13.8597ZM28.3044 50V43.1765H26.3442C25.879 43.1765 25.5168 43.2848 25.2575 43.5014C24.9983 43.718 24.8687 44.0021 24.8687 44.3537C24.8687 44.7017 24.9877 44.9822 25.2256 45.1953C25.4671 45.4048 25.8044 45.5096 26.2377 45.5096H28.7678V46.7987H26.2377C25.634 46.7987 25.1119 46.6992 24.6716 46.5004C24.2348 46.2979 23.8975 46.0121 23.6595 45.6428C23.4252 45.2734 23.308 44.8366 23.308 44.3324C23.308 43.8175 23.4287 43.3736 23.6702 43.0007C23.9152 42.6243 24.265 42.3331 24.7195 42.1271C25.1776 41.9212 25.7192 41.8182 26.3442 41.8182H29.8012V50H28.3044ZM22.9351 50L25.2416 45.8665H26.8715L24.5651 50H22.9351ZM41.4361 45.2219V46.6016H37.0043V45.2219H41.4361ZM37.4517 41.8182V50H35.891V41.8182H37.4517ZM42.5494 41.8182V50H40.994V41.8182H42.5494ZM47.0611 50.1811C46.5426 50.1811 46.0739 50.0852 45.6548 49.8935C45.2358 49.6982 44.9038 49.4158 44.6587 49.0465C44.4173 48.6772 44.2965 48.2244 44.2965 47.6882C44.2965 47.2266 44.3853 46.8466 44.5629 46.5483C44.7404 46.25 44.9801 46.0138 45.282 45.8398C45.5838 45.6658 45.9212 45.5344 46.294 45.4457C46.6669 45.3569 47.0469 45.2894 47.4339 45.2433C47.924 45.1864 48.3217 45.1403 48.6271 45.1048C48.9325 45.0657 49.1545 45.0036 49.293 44.9183C49.4315 44.8331 49.5007 44.6946 49.5007 44.5028V44.4656C49.5007 44.0004 49.3693 43.6399 49.1065 43.3842C48.8473 43.1286 48.4602 43.0007 47.9453 43.0007C47.4091 43.0007 46.9865 43.1197 46.6776 43.3576C46.3722 43.592 46.1609 43.853 46.0437 44.1406L44.5469 43.7997C44.7244 43.3026 44.9837 42.9013 45.3246 42.5959C45.669 42.2869 46.065 42.0632 46.5124 41.9247C46.9599 41.7827 47.4304 41.7116 47.924 41.7116C48.2507 41.7116 48.5969 41.7507 48.9627 41.8288C49.332 41.9034 49.6765 42.0419 49.9961 42.2443C50.3192 42.4467 50.5838 42.7362 50.7898 43.1126C50.9957 43.4854 51.0987 43.9702 51.0987 44.5668V50H49.5433V48.8814H49.4794C49.3764 49.0874 49.2219 49.2898 49.016 49.4886C48.81 49.6875 48.5455 49.8526 48.2223 49.984C47.8991 50.1154 47.5121 50.1811 47.0611 50.1811ZM47.4073 48.9027C47.8477 48.9027 48.2241 48.8157 48.5366 48.6417C48.8526 48.4677 49.0923 48.2404 49.2557 47.9599C49.4226 47.6758 49.506 47.3722 49.506 47.049V45.9943C49.4492 46.0511 49.3391 46.1044 49.1758 46.1541C49.016 46.2003 48.8331 46.2411 48.6271 46.2766C48.4212 46.3086 48.2205 46.3388 48.0252 46.3672C47.8299 46.392 47.6665 46.4134 47.5352 46.4311C47.2262 46.4702 46.9439 46.5359 46.6882 46.6282C46.4361 46.7205 46.2337 46.8537 46.081 47.0277C45.9318 47.1982 45.8572 47.4254 45.8572 47.7095C45.8572 48.1037 46.0028 48.402 46.294 48.6044C46.5852 48.8033 46.9563 48.9027 47.4073 48.9027ZM59.7879 41.8182V50H58.2325V41.8182H59.7879ZM59.1114 45.6161V46.9904C58.8664 47.0898 58.6072 47.1786 58.3337 47.2567C58.0603 47.3313 57.7726 47.3899 57.4708 47.4325C57.1689 47.4751 56.8547 47.4964 56.528 47.4964C55.5159 47.4964 54.7116 47.2496 54.115 46.756C53.5184 46.2589 53.2201 45.4989 53.2201 44.4762V41.8022H54.7702V44.4762C54.7702 44.8633 54.8412 45.1776 54.9832 45.419C55.1253 45.6605 55.3277 45.8381 55.5905 45.9517C55.8532 46.0653 56.1657 46.1222 56.528 46.1222C57.0074 46.1222 57.4495 46.0778 57.8543 45.989C58.2627 45.8967 58.6817 45.7724 59.1114 45.6161ZM64.2876 50.1811C63.7692 50.1811 63.3004 50.0852 62.8814 49.8935C62.4624 49.6982 62.1303 49.4158 61.8853 49.0465C61.6438 48.6772 61.5231 48.2244 61.5231 47.6882C61.5231 47.2266 61.6119 46.8466 61.7894 46.5483C61.967 46.25 62.2067 46.0138 62.5085 45.8398C62.8104 45.6658 63.1477 45.5344 63.5206 45.4457C63.8935 45.3569 64.2734 45.2894 64.6605 45.2433C65.1506 45.1864 65.5483 45.1403 65.8537 45.1048C66.1591 45.0657 66.381 45.0036 66.5195 44.9183C66.658 44.8331 66.7273 44.6946 66.7273 44.5028V44.4656C66.7273 44.0004 66.5959 43.6399 66.3331 43.3842C66.0739 43.1286 65.6868 43.0007 65.1719 43.0007C64.6357 43.0007 64.2131 43.1197 63.9041 43.3576C63.5987 43.592 63.3874 43.853 63.2702 44.1406L61.7734 43.7997C61.951 43.3026 62.2102 42.9013 62.5511 42.5959C62.8956 42.2869 63.2915 42.0632 63.739 41.9247C64.1864 41.7827 64.657 41.7116 65.1506 41.7116C65.4773 41.7116 65.8235 41.7507 66.1893 41.8288C66.5586 41.9034 66.9031 42.0419 67.2227 42.2443C67.5458 42.4467 67.8104 42.7362 68.0163 43.1126C68.2223 43.4854 68.3253 43.9702 68.3253 44.5668V50H66.7699V48.8814H66.706C66.603 49.0874 66.4485 49.2898 66.2425 49.4886C66.0366 49.6875 65.772 49.8526 65.4489 49.984C65.1257 50.1154 64.7386 50.1811 64.2876 50.1811ZM64.6339 48.9027C65.0742 48.9027 65.4506 48.8157 65.7631 48.6417C66.0792 48.4677 66.3189 48.2404 66.4822 47.9599C66.6491 47.6758 66.7326 47.3722 66.7326 47.049V45.9943C66.6758 46.0511 66.5657 46.1044 66.4023 46.1541C66.2425 46.2003 66.0597 46.2411 65.8537 46.2766C65.6477 46.3086 65.4471 46.3388 65.2518 46.3672C65.0565 46.392 64.8931 46.4134 64.7617 46.4311C64.4528 46.4702 64.1705 46.5359 63.9148 46.6282C63.6626 46.7205 63.4602 46.8537 63.3075 47.0277C63.1584 47.1982 63.0838 47.4254 63.0838 47.7095C63.0838 48.1037 63.2294 48.402 63.5206 48.6044C63.8118 48.8033 64.1829 48.9027 64.6339 48.9027ZM69.8021 50L69.7968 48.6204H70.0898C70.317 48.6204 70.507 48.5724 70.6597 48.4766C70.816 48.3771 70.9438 48.2102 71.0432 47.9759C71.1427 47.7415 71.219 47.4183 71.2723 47.0064C71.3256 46.5909 71.3646 46.0689 71.3895 45.4403L71.5333 41.8182H77.2435V50H75.6828V43.1925H73.0088L72.8809 45.973C72.849 46.6477 72.7797 47.2372 72.6732 47.7415C72.5702 48.2457 72.4193 48.6665 72.2204 49.0039C72.0216 49.3377 71.7659 49.5881 71.4534 49.755C71.1409 49.9183 70.7609 50 70.3135 50H69.8021ZM81.7486 50.1811C81.2301 50.1811 80.7614 50.0852 80.3423 49.8935C79.9233 49.6982 79.5913 49.4158 79.3462 49.0465C79.1048 48.6772 78.984 48.2244 78.984 47.6882C78.984 47.2266 79.0728 46.8466 79.2504 46.5483C79.4279 46.25 79.6676 46.0138 79.9695 45.8398C80.2713 45.6658 80.6087 45.5344 80.9815 45.4457C81.3544 45.3569 81.7344 45.2894 82.1214 45.2433C82.6115 45.1864 83.0092 45.1403 83.3146 45.1048C83.62 45.0657 83.842 45.0036 83.9805 44.9183C84.119 44.8331 84.1882 44.6946 84.1882 44.5028V44.4656C84.1882 44.0004 84.0568 43.6399 83.794 43.3842C83.5348 43.1286 83.1477 43.0007 82.6328 43.0007C82.0966 43.0007 81.674 43.1197 81.3651 43.3576C81.0597 43.592 80.8484 43.853 80.7312 44.1406L79.2344 43.7997C79.4119 43.3026 79.6712 42.9013 80.0121 42.5959C80.3565 42.2869 80.7525 42.0632 81.1999 41.9247C81.6474 41.7827 82.1179 41.7116 82.6115 41.7116C82.9382 41.7116 83.2844 41.7507 83.6502 41.8288C84.0195 41.9034 84.364 42.0419 84.6836 42.2443C85.0067 42.4467 85.2713 42.7362 85.4773 43.1126C85.6832 43.4854 85.7862 43.9702 85.7862 44.5668V50H84.2308V48.8814H84.1669C84.0639 49.0874 83.9094 49.2898 83.7035 49.4886C83.4975 49.6875 83.233 49.8526 82.9098 49.984C82.5866 50.1154 82.1996 50.1811 81.7486 50.1811ZM82.0948 48.9027C82.5352 48.9027 82.9116 48.8157 83.2241 48.6417C83.5401 48.4677 83.7798 48.2404 83.9432 47.9599C84.1101 47.6758 84.1935 47.3722 84.1935 47.049V45.9943C84.1367 46.0511 84.0266 46.1044 83.8633 46.1541C83.7035 46.2003 83.5206 46.2411 83.3146 46.2766C83.1087 46.3086 82.908 46.3388 82.7127 46.3672C82.5174 46.392 82.354 46.4134 82.2227 46.4311C81.9137 46.4702 81.6314 46.5359 81.3757 46.6282C81.1236 46.7205 80.9212 46.8537 80.7685 47.0277C80.6193 47.1982 80.5447 47.4254 80.5447 47.7095C80.5447 48.1037 80.6903 48.402 80.9815 48.6044C81.2727 48.8033 81.6438 48.9027 82.0948 48.9027ZM91.8773 50V41.8182H95.2704C96.1937 41.8182 96.9252 42.0153 97.465 42.4094C98.0048 42.8001 98.2747 43.331 98.2747 44.0021C98.2747 44.4815 98.122 44.8615 97.8166 45.142C97.5112 45.4226 97.1064 45.6108 96.6021 45.7067C96.9679 45.7493 97.3034 45.8594 97.6088 46.0369C97.9142 46.2109 98.1593 46.4453 98.3439 46.7401C98.5321 47.0348 98.6262 47.3864 98.6262 47.7947C98.6262 48.228 98.5144 48.6115 98.2907 48.9453C98.0669 49.2756 97.742 49.5348 97.3159 49.723C96.8933 49.9077 96.3837 50 95.7871 50H91.8773ZM93.3741 48.6683H95.7871C96.1813 48.6683 96.4902 48.5742 96.714 48.386C96.9377 48.1978 97.0495 47.9421 97.0495 47.619C97.0495 47.239 96.9377 46.9407 96.714 46.7241C96.4902 46.5039 96.1813 46.3938 95.7871 46.3938H93.3741V48.6683ZM93.3741 45.2273H95.2864C95.5847 45.2273 95.8404 45.1847 96.0534 45.0994C96.2701 45.0142 96.4352 44.8935 96.5488 44.7372C96.666 44.5774 96.7246 44.3892 96.7246 44.1726C96.7246 43.8565 96.595 43.6097 96.3358 43.4322C96.0765 43.2546 95.7214 43.1658 95.2704 43.1658H93.3741V45.2273ZM101.572 44.6307H103.948C104.949 44.6307 105.72 44.8793 106.259 45.3764C106.799 45.8736 107.069 46.5146 107.069 47.2994C107.069 47.8107 106.948 48.2706 106.707 48.679C106.465 49.0874 106.112 49.4105 105.647 49.6484C105.182 49.8828 104.615 50 103.948 50H100.373V41.8182H101.934V48.6257H103.948C104.406 48.6257 104.782 48.5067 105.077 48.2688C105.372 48.0273 105.519 47.7202 105.519 47.3473C105.519 46.9531 105.372 46.6317 105.077 46.3832C104.782 46.131 104.406 46.005 103.948 46.005H101.572V44.6307ZM108.23 50V41.8182H109.823V50H108.23ZM118.272 38.7713L118.933 39.7781C118.688 40.0018 118.409 40.1616 118.097 40.2575C117.788 40.3498 117.431 40.4084 117.026 40.4332C116.621 40.4545 116.158 40.4741 115.636 40.4918C115.046 40.5096 114.562 40.6374 114.182 40.8754C113.802 41.1097 113.509 41.4577 113.303 41.9194C113.1 42.3775 112.969 42.9528 112.908 43.6452H113.01C113.276 43.1374 113.645 42.7575 114.118 42.5053C114.593 42.2532 115.128 42.1271 115.721 42.1271C116.381 42.1271 116.969 42.2781 117.484 42.5799C117.999 42.8817 118.404 43.3239 118.699 43.9062C118.997 44.4851 119.146 45.1935 119.146 46.0316C119.146 46.8803 118.99 47.6136 118.677 48.2315C118.368 48.8494 117.932 49.3271 117.367 49.6644C116.806 49.9982 116.144 50.1651 115.38 50.1651C114.617 50.1651 113.951 49.9929 113.383 49.6484C112.818 49.3004 112.379 48.7855 112.067 48.1037C111.758 47.4219 111.603 46.5803 111.603 45.5788V44.7692C111.603 42.8977 111.937 41.4897 112.605 40.5451C113.272 39.6005 114.27 39.1158 115.598 39.0909C116.028 39.0803 116.412 39.0785 116.749 39.0856C117.086 39.0891 117.381 39.0732 117.633 39.0376C117.889 38.9986 118.102 38.9098 118.272 38.7713ZM115.385 48.8281C115.829 48.8281 116.211 48.7163 116.531 48.4925C116.854 48.2653 117.102 47.9439 117.276 47.5284C117.45 47.1129 117.537 46.6229 117.537 46.0582C117.537 45.5043 117.45 45.0337 117.276 44.6467C117.102 44.2596 116.854 43.9648 116.531 43.7624C116.207 43.5565 115.82 43.4535 115.369 43.4535C115.036 43.4535 114.737 43.5121 114.475 43.6293C114.212 43.7429 113.986 43.9116 113.798 44.1353C113.613 44.359 113.47 44.6325 113.367 44.9556C113.267 45.2752 113.214 45.6428 113.207 46.0582C113.207 46.9034 113.4 47.5763 113.787 48.0771C114.178 48.5778 114.711 48.8281 115.385 48.8281ZM124.451 50.1651C123.645 50.1651 122.951 49.9929 122.369 49.6484C121.79 49.3004 121.342 48.8121 121.026 48.1836C120.714 47.5515 120.558 46.8111 120.558 45.9624C120.558 45.1243 120.714 44.3857 121.026 43.7464C121.342 43.1072 121.783 42.6083 122.347 42.2496C122.916 41.891 123.58 41.7116 124.34 41.7116C124.801 41.7116 125.249 41.788 125.682 41.9407C126.115 42.0934 126.504 42.3331 126.848 42.6598C127.193 42.9865 127.465 43.4109 127.663 43.9329C127.862 44.4513 127.962 45.0817 127.962 45.8239V46.3885H121.458V45.1953H126.401C126.401 44.7763 126.316 44.4052 126.145 44.082C125.975 43.7553 125.735 43.4979 125.426 43.3097C125.121 43.1214 124.762 43.0273 124.35 43.0273C123.903 43.0273 123.512 43.1374 123.178 43.3576C122.848 43.5742 122.592 43.8583 122.411 44.2099C122.234 44.5579 122.145 44.9361 122.145 45.3445V46.2766C122.145 46.8235 122.241 47.2887 122.433 47.6722C122.628 48.0558 122.9 48.3487 123.248 48.5511C123.596 48.75 124.002 48.8494 124.467 48.8494C124.769 48.8494 125.044 48.8068 125.293 48.7216C125.542 48.6328 125.756 48.5014 125.938 48.3274C126.119 48.1534 126.257 47.9386 126.353 47.6829L127.861 47.9545C127.74 48.3984 127.523 48.7873 127.211 49.1211C126.902 49.4513 126.513 49.7088 126.044 49.8935C125.579 50.0746 125.048 50.1651 124.451 50.1651ZM129.729 53.0682V41.8182H131.284V43.1445H131.417C131.51 42.9741 131.643 42.777 131.817 42.5533C131.991 42.3295 132.232 42.1342 132.541 41.9673C132.85 41.7969 133.259 41.7116 133.767 41.7116C134.427 41.7116 135.017 41.8786 135.535 42.2124C136.053 42.5462 136.46 43.0273 136.755 43.6559C137.053 44.2844 137.202 45.0408 137.202 45.9251C137.202 46.8093 137.055 47.5675 136.76 48.1996C136.465 48.8281 136.061 49.3129 135.546 49.6538C135.031 49.9911 134.443 50.1598 133.782 50.1598C133.285 50.1598 132.879 50.0763 132.563 49.9094C132.25 49.7425 132.005 49.5472 131.828 49.3235C131.65 49.0998 131.513 48.9009 131.417 48.7269H131.322V53.0682H129.729ZM131.29 45.9091C131.29 46.4844 131.373 46.9886 131.54 47.4219C131.707 47.8551 131.948 48.1942 132.264 48.4393C132.58 48.6808 132.968 48.8015 133.426 48.8015C133.901 48.8015 134.299 48.6754 134.619 48.4233C134.938 48.1676 135.18 47.8214 135.343 47.3846C135.51 46.9478 135.594 46.456 135.594 45.9091C135.594 45.3693 135.512 44.8846 135.349 44.4549C135.189 44.0252 134.947 43.6861 134.624 43.4375C134.305 43.1889 133.905 43.0646 133.426 43.0646C132.964 43.0646 132.573 43.1836 132.254 43.4215C131.938 43.6594 131.698 43.9915 131.535 44.4176C131.371 44.8437 131.29 45.3409 131.29 45.9091ZM140.547 47.7681L144.154 41.8182H145.869V50H144.308V44.0447L140.718 50H138.987V41.8182H140.547V47.7681ZM155.426 50.1651C154.634 50.1651 153.953 49.9858 153.381 49.6271C152.813 49.2649 152.376 48.766 152.07 48.1303C151.765 47.4947 151.612 46.7667 151.612 45.9464C151.612 45.1154 151.769 44.3821 152.081 43.7464C152.394 43.1072 152.834 42.6083 153.402 42.2496C153.97 41.891 154.64 41.7116 155.41 41.7116C156.032 41.7116 156.586 41.8271 157.072 42.0579C157.559 42.2852 157.951 42.6048 158.249 43.0167C158.551 43.4286 158.731 43.9098 158.787 44.4602H157.237C157.152 44.0767 156.957 43.7464 156.651 43.4695C156.35 43.1925 155.945 43.054 155.437 43.054C154.993 43.054 154.604 43.1712 154.27 43.4055C153.94 43.6364 153.683 43.9666 153.498 44.3963C153.313 44.8224 153.221 45.3267 153.221 45.9091C153.221 46.5057 153.312 47.0206 153.493 47.4538C153.674 47.8871 153.929 48.2227 154.26 48.4606C154.593 48.6985 154.986 48.8175 155.437 48.8175C155.739 48.8175 156.012 48.7624 156.257 48.6523C156.506 48.5387 156.714 48.3771 156.88 48.1676C157.051 47.9581 157.17 47.706 157.237 47.4112H158.787C158.731 47.9403 158.558 48.4126 158.271 48.8281C157.983 49.2436 157.598 49.5703 157.115 49.8082C156.635 50.0462 156.073 50.1651 155.426 50.1651ZM160.491 50V41.8182H163.884C164.807 41.8182 165.539 42.0153 166.078 42.4094C166.618 42.8001 166.888 43.331 166.888 44.0021C166.888 44.4815 166.735 44.8615 166.43 45.142C166.124 45.4226 165.72 45.6108 165.215 45.7067C165.581 45.7493 165.917 45.8594 166.222 46.0369C166.528 46.2109 166.773 46.4453 166.957 46.7401C167.145 47.0348 167.24 47.3864 167.24 47.7947C167.24 48.228 167.128 48.6115 166.904 48.9453C166.68 49.2756 166.355 49.5348 165.929 49.723C165.507 49.9077 164.997 50 164.4 50H160.491ZM161.987 48.6683H164.4C164.795 48.6683 165.104 48.5742 165.327 48.386C165.551 48.1978 165.663 47.9421 165.663 47.619C165.663 47.239 165.551 46.9407 165.327 46.7241C165.104 46.5039 164.795 46.3938 164.4 46.3938H161.987V48.6683ZM161.987 45.2273H163.9C164.198 45.2273 164.454 45.1847 164.667 45.0994C164.883 45.0142 165.048 44.8935 165.162 44.7372C165.279 44.5774 165.338 44.3892 165.338 44.1726C165.338 43.8565 165.208 43.6097 164.949 43.4322C164.69 43.2546 164.335 43.1658 163.884 43.1658H161.987V45.2273ZM172.433 50.1651C171.666 50.1651 170.997 49.9893 170.425 49.6378C169.853 49.2862 169.409 48.7944 169.093 48.1623C168.777 47.5302 168.619 46.7915 168.619 45.9464C168.619 45.0977 168.777 44.3555 169.093 43.7198C169.409 43.0842 169.853 42.5906 170.425 42.239C170.997 41.8874 171.666 41.7116 172.433 41.7116C173.2 41.7116 173.869 41.8874 174.441 42.239C175.013 42.5906 175.457 43.0842 175.773 43.7198C176.089 44.3555 176.247 45.0977 176.247 45.9464C176.247 46.7915 176.089 47.5302 175.773 48.1623C175.457 48.7944 175.013 49.2862 174.441 49.6378C173.869 49.9893 173.2 50.1651 172.433 50.1651ZM172.438 48.8281C172.936 48.8281 173.347 48.6967 173.674 48.4339C174.001 48.1712 174.242 47.8214 174.399 47.3846C174.558 46.9478 174.638 46.4666 174.638 45.9411C174.638 45.419 174.558 44.9396 174.399 44.5028C174.242 44.0625 174.001 43.7092 173.674 43.4428C173.347 43.1765 172.936 43.0433 172.438 43.0433C171.938 43.0433 171.522 43.1765 171.192 43.4428C170.865 43.7092 170.622 44.0625 170.462 44.5028C170.306 44.9396 170.228 45.419 170.228 45.9411C170.228 46.4666 170.306 46.9478 170.462 47.3846C170.622 47.8214 170.865 48.1712 171.192 48.4339C171.522 48.6967 171.938 48.8281 172.438 48.8281ZM182.142 45.2805V46.6655H177.78V45.2805H182.142ZM179.074 41.8182V50H177.481V41.8182H179.074ZM184.635 50.1651C183.875 50.1651 183.211 49.9876 182.643 49.6325C182.075 49.2773 181.634 48.7837 181.322 48.1516C181.009 47.516 180.853 46.7791 180.853 45.9411C180.853 45.0959 181.009 44.3572 181.322 43.7251C181.634 43.0895 182.075 42.5959 182.643 42.2443C183.211 41.8892 183.875 41.7116 184.635 41.7116C185.399 41.7116 186.063 41.8892 186.627 42.2443C187.196 42.5959 187.636 43.0895 187.948 43.7251C188.264 44.3572 188.422 45.0959 188.422 45.9411C188.422 46.7791 188.264 47.516 187.948 48.1516C187.636 48.7837 187.196 49.2773 186.627 49.6325C186.063 49.9876 185.399 50.1651 184.635 50.1651ZM184.635 48.8015C185.15 48.8015 185.571 48.6719 185.898 48.4126C186.228 48.1499 186.471 47.8018 186.627 47.3686C186.784 46.9354 186.862 46.4595 186.862 45.9411C186.862 45.419 186.784 44.9414 186.627 44.5082C186.471 44.0714 186.228 43.7216 185.898 43.4588C185.571 43.196 185.15 43.0646 184.635 43.0646C184.124 43.0646 183.703 43.196 183.373 43.4588C183.043 43.7216 182.799 44.0714 182.643 44.5082C182.487 44.9414 182.409 45.419 182.409 45.9411C182.409 46.4595 182.487 46.9354 182.643 47.3686C182.799 47.8018 183.043 48.1499 183.373 48.4126C183.703 48.6719 184.124 48.8015 184.635 48.8015ZM197.716 50.1651C196.949 50.1651 196.28 49.9893 195.708 49.6378C195.136 49.2862 194.692 48.7944 194.376 48.1623C194.06 47.5302 193.902 46.7915 193.902 45.9464C193.902 45.0977 194.06 44.3555 194.376 43.7198C194.692 43.0842 195.136 42.5906 195.708 42.239C196.28 41.8874 196.949 41.7116 197.716 41.7116C198.483 41.7116 199.153 41.8874 199.724 42.239C200.296 42.5906 200.74 43.0842 201.056 43.7198C201.372 44.3555 201.53 45.0977 201.53 45.9464C201.53 46.7915 201.372 47.5302 201.056 48.1623C200.74 48.7944 200.296 49.2862 199.724 49.6378C199.153 49.9893 198.483 50.1651 197.716 50.1651ZM197.722 48.8281C198.219 48.8281 198.631 48.6967 198.957 48.4339C199.284 48.1712 199.526 47.8214 199.682 47.3846C199.842 46.9478 199.922 46.4666 199.922 45.9411C199.922 45.419 199.842 44.9396 199.682 44.5028C199.526 44.0625 199.284 43.7092 198.957 43.4428C198.631 43.1765 198.219 43.0433 197.722 43.0433C197.221 43.0433 196.805 43.1765 196.475 43.4428C196.148 43.7092 195.905 44.0625 195.745 44.5028C195.589 44.9396 195.511 45.419 195.511 45.9411C195.511 46.4666 195.589 46.9478 195.745 47.3846C195.905 47.8214 196.148 48.1712 196.475 48.4339C196.805 48.6967 197.221 48.8281 197.722 48.8281ZM209.62 38.7713L210.281 39.7781C210.036 40.0018 209.757 40.1616 209.444 40.2575C209.135 40.3498 208.778 40.4084 208.374 40.4332C207.969 40.4545 207.505 40.4741 206.983 40.4918C206.394 40.5096 205.909 40.6374 205.529 40.8754C205.149 41.1097 204.856 41.4577 204.65 41.9194C204.448 42.3775 204.316 42.9528 204.256 43.6452H204.357C204.624 43.1374 204.993 42.7575 205.465 42.5053C205.941 42.2532 206.476 42.1271 207.069 42.1271C207.729 42.1271 208.317 42.2781 208.832 42.5799C209.347 42.8817 209.752 43.3239 210.046 43.9062C210.345 44.4851 210.494 45.1935 210.494 46.0316C210.494 46.8803 210.337 47.6136 210.025 48.2315C209.716 48.8494 209.279 49.3271 208.715 49.6644C208.153 49.9982 207.491 50.1651 206.728 50.1651C205.964 50.1651 205.298 49.9929 204.73 49.6484C204.166 49.3004 203.727 48.7855 203.415 48.1037C203.106 47.4219 202.951 46.5803 202.951 45.5788V44.7692C202.951 42.8977 203.285 41.4897 203.953 40.5451C204.62 39.6005 205.618 39.1158 206.946 39.0909C207.376 39.0803 207.759 39.0785 208.097 39.0856C208.434 39.0891 208.729 39.0732 208.981 39.0376C209.237 38.9986 209.45 38.9098 209.62 38.7713ZM206.733 48.8281C207.177 48.8281 207.559 48.7163 207.878 48.4925C208.201 48.2653 208.45 47.9439 208.624 47.5284C208.798 47.1129 208.885 46.6229 208.885 46.0582C208.885 45.5043 208.798 45.0337 208.624 44.6467C208.45 44.2596 208.201 43.9648 207.878 43.7624C207.555 43.5565 207.168 43.4535 206.717 43.4535C206.383 43.4535 206.085 43.5121 205.822 43.6293C205.559 43.7429 205.334 43.9116 205.146 44.1353C204.961 44.359 204.817 44.6325 204.714 44.9556C204.615 45.2752 204.562 45.6428 204.554 46.0582C204.554 46.9034 204.748 47.5763 205.135 48.0771C205.526 48.5778 206.058 48.8281 206.733 48.8281ZM223.997 48.6257L223.848 52.3438H222.287V50H221.27V48.6257H223.997ZM212.273 41.8182H213.834V48.6204H216.662V41.8182H218.223V48.6204H221.051V41.8182H222.612V50H212.273V41.8182ZM228.057 50.1811C227.539 50.1811 227.07 50.0852 226.651 49.8935C226.232 49.6982 225.9 49.4158 225.655 49.0465C225.413 48.6772 225.293 48.2244 225.293 47.6882C225.293 47.2266 225.381 46.8466 225.559 46.5483C225.737 46.25 225.976 46.0138 226.278 45.8398C226.58 45.6658 226.917 45.5344 227.29 45.4457C227.663 45.3569 228.043 45.2894 228.43 45.2433C228.92 45.1864 229.318 45.1403 229.623 45.1048C229.929 45.0657 230.151 45.0036 230.289 44.9183C230.428 44.8331 230.497 44.6946 230.497 44.5028V44.4656C230.497 44.0004 230.365 43.6399 230.103 43.3842C229.843 43.1286 229.456 43.0007 228.941 43.0007C228.405 43.0007 227.983 43.1197 227.674 43.3576C227.368 43.592 227.157 43.853 227.04 44.1406L225.543 43.7997C225.721 43.3026 225.98 42.9013 226.321 42.5959C226.665 42.2869 227.061 42.0632 227.509 41.9247C227.956 41.7827 228.426 41.7116 228.92 41.7116C229.247 41.7116 229.593 41.7507 229.959 41.8288C230.328 41.9034 230.673 42.0419 230.992 42.2443C231.315 42.4467 231.58 42.7362 231.786 43.1126C231.992 43.4854 232.095 43.9702 232.095 44.5668V50H230.539V48.8814H230.475C230.373 49.0874 230.218 49.2898 230.012 49.4886C229.806 49.6875 229.542 49.8526 229.218 49.984C228.895 50.1154 228.508 50.1811 228.057 50.1811ZM228.403 48.9027C228.844 48.9027 229.22 48.8157 229.533 48.6417C229.849 48.4677 230.088 48.2404 230.252 47.9599C230.419 47.6758 230.502 47.3722 230.502 47.049V45.9943C230.445 46.0511 230.335 46.1044 230.172 46.1541C230.012 46.2003 229.829 46.2411 229.623 46.2766C229.417 46.3086 229.217 46.3388 229.021 46.3672C228.826 46.392 228.663 46.4134 228.531 46.4311C228.222 46.4702 227.94 46.5359 227.684 46.6282C227.432 46.7205 227.23 46.8537 227.077 47.0277C226.928 47.1982 226.853 47.4254 226.853 47.7095C226.853 48.1037 226.999 48.402 227.29 48.6044C227.581 48.8033 227.952 48.9027 228.403 48.9027ZM239.447 41.8182V43.1925H235.788V50H234.216V41.8182H239.447ZM242.137 53.0682C241.899 53.0682 241.682 53.0487 241.487 53.0096C241.292 52.9741 241.146 52.935 241.05 52.8924L241.434 51.5874C241.725 51.6655 241.984 51.6992 242.212 51.6886C242.439 51.6779 242.639 51.5927 242.813 51.4329C242.991 51.2731 243.147 51.0121 243.282 50.6499L243.479 50.1065L240.486 41.8182H242.19L244.262 48.1676H244.348L246.42 41.8182H248.13L244.758 51.092C244.601 51.5181 244.403 51.8786 244.161 52.1733C243.92 52.4716 243.632 52.6953 243.298 52.8445C242.964 52.9936 242.577 53.0682 242.137 53.0682ZM253.596 50V41.8182H256.989C257.912 41.8182 258.644 42.0153 259.184 42.4094C259.724 42.8001 259.993 43.331 259.993 44.0021C259.993 44.4815 259.841 44.8615 259.535 45.142C259.23 45.4226 258.825 45.6108 258.321 45.7067C258.687 45.7493 259.022 45.8594 259.328 46.0369C259.633 46.2109 259.878 46.4453 260.063 46.7401C260.251 47.0348 260.345 47.3864 260.345 47.7947C260.345 48.228 260.233 48.6115 260.009 48.9453C259.786 49.2756 259.461 49.5348 259.035 49.723C258.612 49.9077 258.102 50 257.506 50H253.596ZM255.093 48.6683H257.506C257.9 48.6683 258.209 48.5742 258.433 48.386C258.656 48.1978 258.768 47.9421 258.768 47.619C258.768 47.239 258.656 46.9407 258.433 46.7241C258.209 46.5039 257.9 46.3938 257.506 46.3938H255.093V48.6683ZM255.093 45.2273H257.005C257.303 45.2273 257.559 45.1847 257.772 45.0994C257.989 45.0142 258.154 44.8935 258.268 44.7372C258.385 44.5774 258.443 44.3892 258.443 44.1726C258.443 43.8565 258.314 43.6097 258.055 43.4322C257.795 43.2546 257.44 43.1658 256.989 43.1658H255.093V45.2273ZM48.3894 71.0682C48.1515 71.0682 47.9349 71.0487 47.7396 71.0096C47.5443 70.9741 47.3987 70.935 47.3028 70.8924L47.6863 69.5874C47.9775 69.6655 48.2367 69.6992 48.464 69.6886C48.6913 69.6779 48.8919 69.5927 49.0659 69.4329C49.2435 69.2731 49.3997 69.0121 49.5347 68.6499L49.7318 68.1065L46.7381 59.8182H48.4427L50.5148 66.1676H50.6L52.6721 59.8182H54.382L51.0102 69.092C50.8539 69.5181 50.6551 69.8786 50.4136 70.1733C50.1721 70.4716 49.8845 70.6953 49.5506 70.8445C49.2168 70.9936 48.8298 71.0682 48.3894 71.0682ZM55.8788 68V59.8182H62.5531V68H60.9924V61.1925H57.4288V68H55.8788ZM64.6825 71.0682V59.8182H66.2379V61.1445H66.371C66.4634 60.9741 66.5965 60.777 66.7706 60.5533C66.9446 60.3295 67.186 60.1342 67.495 59.9673C67.8039 59.7969 68.2123 59.7116 68.7201 59.7116C69.3806 59.7116 69.9701 59.8786 70.4886 60.2124C71.0071 60.5462 71.4137 61.0273 71.7084 61.6559C72.0067 62.2844 72.1559 63.0408 72.1559 63.9251C72.1559 64.8093 72.0085 65.5675 71.7137 66.1996C71.419 66.8281 71.0142 67.3129 70.4992 67.6538C69.9843 67.9911 69.3966 68.1598 68.7361 68.1598C68.2389 68.1598 67.8323 68.0763 67.5163 67.9094C67.2038 67.7425 66.9588 67.5472 66.7812 67.3235C66.6036 67.0998 66.4669 66.9009 66.371 66.7269H66.2752V71.0682H64.6825ZM66.2432 63.9091C66.2432 64.4844 66.3267 64.9886 66.4936 65.4219C66.6605 65.8551 66.9019 66.1942 67.218 66.4393C67.534 66.6808 67.9211 66.8015 68.3792 66.8015C68.8551 66.8015 69.2528 66.6754 69.5724 66.4233C69.892 66.1676 70.1335 65.8214 70.2968 65.3846C70.4637 64.9478 70.5472 64.456 70.5472 63.9091C70.5472 63.3693 70.4655 62.8846 70.3022 62.4549C70.1424 62.0252 69.9009 61.6861 69.5777 61.4375C69.2581 61.1889 68.8586 61.0646 68.3792 61.0646C67.9176 61.0646 67.5269 61.1836 67.2073 61.4215C66.8913 61.6594 66.6516 61.9915 66.4882 62.4176C66.3249 62.8437 66.2432 63.3409 66.2432 63.9091ZM76.3213 68.1811C75.8029 68.1811 75.3341 68.0852 74.9151 67.8935C74.496 67.6982 74.164 67.4158 73.919 67.0465C73.6775 66.6772 73.5568 66.2244 73.5568 65.6882C73.5568 65.2266 73.6456 64.8466 73.8231 64.5483C74.0007 64.25 74.2404 64.0138 74.5422 63.8398C74.8441 63.6658 75.1814 63.5344 75.5543 63.4457C75.9272 63.3569 76.3071 63.2894 76.6942 63.2433C77.1843 63.1864 77.582 63.1403 77.8874 63.1048C78.1928 63.0657 78.4147 63.0036 78.5532 62.9183C78.6917 62.8331 78.761 62.6946 78.761 62.5028V62.4656C78.761 62.0004 78.6296 61.6399 78.3668 61.3842C78.1076 61.1286 77.7205 61.0007 77.2056 61.0007C76.6693 61.0007 76.2468 61.1197 75.9378 61.3576C75.6324 61.592 75.4211 61.853 75.3039 62.1406L73.8071 61.7997C73.9847 61.3026 74.2439 60.9013 74.5848 60.5959C74.9293 60.2869 75.3252 60.0632 75.7727 59.9247C76.2201 59.7827 76.6907 59.7116 77.1843 59.7116C77.511 59.7116 77.8572 59.7507 78.223 59.8288C78.5923 59.9034 78.9367 60.0419 79.2563 60.2443C79.5795 60.4467 79.8441 60.7362 80.05 61.1126C80.256 61.4854 80.359 61.9702 80.359 62.5668V68H78.8036V66.8814H78.7397C78.6367 67.0874 78.4822 67.2898 78.2762 67.4886C78.0703 67.6875 77.8057 67.8526 77.4826 67.984C77.1594 68.1154 76.7723 68.1811 76.3213 68.1811ZM76.6676 66.9027C77.1079 66.9027 77.4843 66.8157 77.7968 66.6417C78.1129 66.4677 78.3526 66.2404 78.5159 65.9599C78.6828 65.6758 78.7663 65.3722 78.7663 65.049V63.9943C78.7095 64.0511 78.5994 64.1044 78.436 64.1541C78.2762 64.2003 78.0934 64.2411 77.8874 64.2766C77.6814 64.3086 77.4808 64.3388 77.2855 64.3672C77.0902 64.392 76.9268 64.4134 76.7954 64.4311C76.4865 64.4702 76.2041 64.5359 75.9485 64.6282C75.6963 64.7205 75.4939 64.8537 75.3412 65.0277C75.1921 65.1982 75.1175 65.4254 75.1175 65.7095C75.1175 66.1037 75.2631 66.402 75.5543 66.6044C75.8455 66.8033 76.2166 66.9027 76.6676 66.9027ZM82.4803 68V59.8182H85.8734C86.7967 59.8182 87.5283 60.0153 88.068 60.4094C88.6078 60.8001 88.8777 61.331 88.8777 62.0021C88.8777 62.4815 88.725 62.8615 88.4196 63.142C88.1142 63.4226 87.7094 63.6108 87.2051 63.7067C87.5709 63.7493 87.9065 63.8594 88.2119 64.0369C88.5173 64.2109 88.7623 64.4453 88.947 64.7401C89.1352 65.0348 89.2293 65.3864 89.2293 65.7947C89.2293 66.228 89.1174 66.6115 88.8937 66.9453C88.67 67.2756 88.345 67.5348 87.9189 67.723C87.4963 67.9077 86.9867 68 86.3901 68H82.4803ZM83.9771 66.6683H86.3901C86.7843 66.6683 87.0933 66.5742 87.317 66.386C87.5407 66.1978 87.6526 65.9421 87.6526 65.619C87.6526 65.239 87.5407 64.9407 87.317 64.7241C87.0933 64.5039 86.7843 64.3938 86.3901 64.3938H83.9771V66.6683ZM83.9771 63.2273H85.8894C86.1877 63.2273 86.4434 63.1847 86.6565 63.0994C86.8731 63.0142 87.0382 62.8935 87.1519 62.7372C87.269 62.5774 87.3276 62.3892 87.3276 62.1726C87.3276 61.8565 87.198 61.6097 86.9388 61.4322C86.6796 61.2546 86.3244 61.1658 85.8734 61.1658H83.9771V63.2273ZM90.3319 68L90.3266 66.6204H90.6195C90.8468 66.6204 91.0368 66.5724 91.1895 66.4766C91.3457 66.3771 91.4736 66.2102 91.573 65.9759C91.6725 65.7415 91.7488 65.4183 91.8021 65.0064C91.8553 64.5909 91.8944 64.0689 91.9193 63.4403L92.0631 59.8182H97.7733V68H96.2126V61.1925H93.5386L93.4107 63.973C93.3788 64.6477 93.3095 65.2372 93.203 65.7415C93.1 66.2457 92.9491 66.6665 92.7502 67.0039C92.5514 67.3377 92.2957 67.5881 91.9832 67.755C91.6707 67.9183 91.2907 68 90.8433 68H90.3319ZM103.424 68.1651C102.617 68.1651 101.923 67.9929 101.341 67.6484C100.762 67.3004 100.315 66.8121 99.9985 66.1836C99.686 65.5515 99.5298 64.8111 99.5298 63.9624C99.5298 63.1243 99.686 62.3857 99.9985 61.7464C100.315 61.1072 100.755 60.6083 101.32 60.2496C101.888 59.891 102.552 59.7116 103.312 59.7116C103.773 59.7116 104.221 59.788 104.654 59.9407C105.087 60.0934 105.476 60.3331 105.821 60.6598C106.165 60.9865 106.437 61.4109 106.636 61.9329C106.834 62.4513 106.934 63.0817 106.934 63.8239V64.3885H100.43V63.1953H105.373C105.373 62.7763 105.288 62.4052 105.117 62.082C104.947 61.7553 104.707 61.4979 104.398 61.3097C104.093 61.1214 103.734 61.0273 103.322 61.0273C102.875 61.0273 102.484 61.1374 102.151 61.3576C101.82 61.5742 101.565 61.8583 101.383 62.2099C101.206 62.5579 101.117 62.9361 101.117 63.3445V64.2766C101.117 64.8235 101.213 65.2887 101.405 65.6722C101.6 66.0558 101.872 66.3487 102.22 66.5511C102.568 66.75 102.974 66.8494 103.44 66.8494C103.741 66.8494 104.017 66.8068 104.265 66.7216C104.514 66.6328 104.729 66.5014 104.91 66.3274C105.091 66.1534 105.229 65.9386 105.325 65.6829L106.833 65.9545C106.712 66.3984 106.495 66.7873 106.183 67.1211C105.874 67.4513 105.485 67.7088 105.016 67.8935C104.551 68.0746 104.02 68.1651 103.424 68.1651ZM114.246 63.2219V64.6016H109.814V63.2219H114.246ZM110.262 59.8182V68H108.701V59.8182H110.262ZM115.359 59.8182V68H113.804V59.8182H115.359ZM119.051 65.7681L122.657 59.8182H124.372V68H122.811V62.0447L119.221 68H117.49V59.8182H119.051V65.7681ZM128.074 65.7681L131.68 59.8182H133.396V68H131.835V62.0447L128.245 68H126.514V59.8182H128.074V65.7681ZM141.888 68.1811C141.369 68.1811 140.901 68.0852 140.481 67.8935C140.062 67.6982 139.73 67.4158 139.485 67.0465C139.244 66.6772 139.123 66.2244 139.123 65.6882C139.123 65.2266 139.212 64.8466 139.39 64.5483C139.567 64.25 139.807 64.0138 140.109 63.8398C140.41 63.6658 140.748 63.5344 141.121 63.4457C141.494 63.3569 141.874 63.2894 142.261 63.2433C142.751 63.1864 143.148 63.1403 143.454 63.1048C143.759 63.0657 143.981 63.0036 144.12 62.9183C144.258 62.8331 144.327 62.6946 144.327 62.5028V62.4656C144.327 62.0004 144.196 61.6399 143.933 61.3842C143.674 61.1286 143.287 61.0007 142.772 61.0007C142.236 61.0007 141.813 61.1197 141.504 61.3576C141.199 61.592 140.988 61.853 140.87 62.1406L139.374 61.7997C139.551 61.3026 139.81 60.9013 140.151 60.5959C140.496 60.2869 140.892 60.0632 141.339 59.9247C141.787 59.7827 142.257 59.7116 142.751 59.7116C143.077 59.7116 143.424 59.7507 143.789 59.8288C144.159 59.9034 144.503 60.0419 144.823 60.2443C145.146 60.4467 145.41 60.7362 145.616 61.1126C145.822 61.4854 145.925 61.9702 145.925 62.5668V68H144.37V66.8814H144.306C144.203 67.0874 144.049 67.2898 143.843 67.4886C143.637 67.6875 143.372 67.8526 143.049 67.984C142.726 68.1154 142.339 68.1811 141.888 68.1811ZM142.234 66.9027C142.674 66.9027 143.051 66.8157 143.363 66.6417C143.679 66.4677 143.919 66.2404 144.082 65.9599C144.249 65.6758 144.333 65.3722 144.333 65.049V63.9943C144.276 64.0511 144.166 64.1044 144.002 64.1541C143.843 64.2003 143.66 64.2411 143.454 64.2766C143.248 64.3086 143.047 64.3388 142.852 64.3672C142.657 64.392 142.493 64.4134 142.362 64.4311C142.053 64.4702 141.771 64.5359 141.515 64.6282C141.263 64.7205 141.06 64.8537 140.908 65.0277C140.758 65.1982 140.684 65.4254 140.684 65.7095C140.684 66.1037 140.83 66.402 141.121 66.6044C141.412 66.8033 141.783 66.9027 142.234 66.9027ZM148.047 68V59.8182H149.639V63.2486H150.406L153.107 59.8182H155.078L151.909 63.7972L155.115 68H153.139L150.673 64.7294H149.639V68H148.047ZM156.352 68V59.8182H157.945V63.2486H158.712L161.413 59.8182H163.384L160.214 63.7972L163.421 68H161.445L158.978 64.7294H157.945V68H156.352ZM167.039 68.1811C166.521 68.1811 166.052 68.0852 165.633 67.8935C165.214 67.6982 164.882 67.4158 164.637 67.0465C164.395 66.6772 164.275 66.2244 164.275 65.6882C164.275 65.2266 164.363 64.8466 164.541 64.5483C164.718 64.25 164.958 64.0138 165.26 63.8398C165.562 63.6658 165.899 63.5344 166.272 63.4457C166.645 63.3569 167.025 63.2894 167.412 63.2433C167.902 63.1864 168.3 63.1403 168.605 63.1048C168.911 63.0657 169.133 63.0036 169.271 62.9183C169.409 62.8331 169.479 62.6946 169.479 62.5028V62.4656C169.479 62.0004 169.347 61.6399 169.085 61.3842C168.825 61.1286 168.438 61.0007 167.923 61.0007C167.387 61.0007 166.965 61.1197 166.656 61.3576C166.35 61.592 166.139 61.853 166.022 62.1406L164.525 61.7997C164.702 61.3026 164.962 60.9013 165.303 60.5959C165.647 60.2869 166.043 60.0632 166.49 59.9247C166.938 59.7827 167.408 59.7116 167.902 59.7116C168.229 59.7116 168.575 59.7507 168.941 59.8288C169.31 59.9034 169.655 60.0419 169.974 60.2443C170.297 60.4467 170.562 60.7362 170.768 61.1126C170.974 61.4854 171.077 61.9702 171.077 62.5668V68H169.521V66.8814H169.457C169.354 67.0874 169.2 67.2898 168.994 67.4886C168.788 67.6875 168.523 67.8526 168.2 67.984C167.877 68.1154 167.49 68.1811 167.039 68.1811ZM167.385 66.9027C167.826 66.9027 168.202 66.8157 168.515 66.6417C168.831 66.4677 169.07 66.2404 169.234 65.9599C169.401 65.6758 169.484 65.3722 169.484 65.049V63.9943C169.427 64.0511 169.317 64.1044 169.154 64.1541C168.994 64.2003 168.811 64.2411 168.605 64.2766C168.399 64.3086 168.199 64.3388 168.003 64.3672C167.808 64.392 167.645 64.4134 167.513 64.4311C167.204 64.4702 166.922 64.5359 166.666 64.6282C166.414 64.7205 166.212 64.8537 166.059 65.0277C165.91 65.1982 165.835 65.4254 165.835 65.7095C165.835 66.1037 165.981 66.402 166.272 66.6044C166.563 66.8033 166.934 66.9027 167.385 66.9027ZM173.912 71.0682C173.674 71.0682 173.457 71.0487 173.262 71.0096C173.067 70.9741 172.921 70.935 172.825 70.8924L173.209 69.5874C173.5 69.6655 173.759 69.6992 173.986 69.6886C174.214 69.6779 174.414 69.5927 174.588 69.4329C174.766 69.2731 174.922 69.0121 175.057 68.6499L175.254 68.1065L172.261 59.8182H173.965L176.037 66.1676H176.122L178.195 59.8182H179.904L176.533 69.092C176.376 69.5181 176.178 69.8786 175.936 70.1733C175.695 70.4716 175.407 70.6953 175.073 70.8445C174.739 70.9936 174.352 71.0682 173.912 71.0682ZM186.946 63.2219V64.6016H182.515V63.2219H186.946ZM182.962 59.8182V68H181.401V59.8182H182.962ZM188.06 59.8182V68H186.504V59.8182H188.06ZM189.176 61.1925V59.8182H196.079V61.1925H193.41V68H191.855V61.1925H189.176ZM200.829 68.1651C200.062 68.1651 199.393 67.9893 198.821 67.6378C198.249 67.2862 197.805 66.7944 197.489 66.1623C197.173 65.5302 197.015 64.7915 197.015 63.9464C197.015 63.0977 197.173 62.3555 197.489 61.7198C197.805 61.0842 198.249 60.5906 198.821 60.239C199.393 59.8874 200.062 59.7116 200.829 59.7116C201.596 59.7116 202.265 59.8874 202.837 60.239C203.409 60.5906 203.853 61.0842 204.169 61.7198C204.485 62.3555 204.643 63.0977 204.643 63.9464C204.643 64.7915 204.485 65.5302 204.169 66.1623C203.853 66.7944 203.409 67.2862 202.837 67.6378C202.265 67.9893 201.596 68.1651 200.829 68.1651ZM200.834 66.8281C201.332 66.8281 201.743 66.6967 202.07 66.4339C202.397 66.1712 202.638 65.8214 202.795 65.3846C202.954 64.9478 203.034 64.4666 203.034 63.9411C203.034 63.419 202.954 62.9396 202.795 62.5028C202.638 62.0625 202.397 61.7092 202.07 61.4428C201.743 61.1765 201.332 61.0433 200.834 61.0433C200.334 61.0433 199.918 61.1765 199.588 61.4428C199.261 61.7092 199.018 62.0625 198.858 62.5028C198.702 62.9396 198.624 63.419 198.624 63.9411C198.624 64.4666 198.702 64.9478 198.858 65.3846C199.018 65.8214 199.261 66.1712 199.588 66.4339C199.918 66.6967 200.334 66.8281 200.834 66.8281ZM211.012 66.0291L213.654 59.8182H215.029L211.604 68H210.421L207.065 59.8182H208.424L211.012 66.0291ZM207.981 59.8182V68H206.421V59.8182H207.981ZM214.086 68V59.8182H215.636V68H214.086ZM6.17263 75.0909H7.8026V83.1023H7.90381L13.4542 75.0909H14.9777V86H13.3317V77.9993H13.2305L7.69074 86H6.17263V75.0909ZM22.7959 81.2219V82.6016H18.3641V81.2219H22.7959ZM18.8116 77.8182V86H17.2508V77.8182H18.8116ZM23.9092 77.8182V86H22.3538V77.8182H23.9092ZM28.4209 86.1811C27.9025 86.1811 27.4337 86.0852 27.0147 85.8935C26.5957 85.6982 26.2636 85.4158 26.0186 85.0465C25.7771 84.6772 25.6564 84.2244 25.6564 83.6882C25.6564 83.2266 25.7452 82.8466 25.9227 82.5483C26.1003 82.25 26.34 82.0138 26.6418 81.8398C26.9437 81.6658 27.281 81.5344 27.6539 81.4457C28.0268 81.3569 28.4067 81.2894 28.7938 81.2433C29.2839 81.1864 29.6816 81.1403 29.987 81.1048C30.2924 81.0657 30.5143 81.0036 30.6528 80.9183C30.7913 80.8331 30.8606 80.6946 30.8606 80.5028V80.4656C30.8606 80.0004 30.7292 79.6399 30.4664 79.3842C30.2072 79.1286 29.8201 79.0007 29.3052 79.0007C28.769 79.0007 28.3464 79.1197 28.0374 79.3576C27.732 79.592 27.5207 79.853 27.4035 80.1406L25.9067 79.7997C26.0843 79.3026 26.3435 78.9013 26.6844 78.5959C27.0289 78.2869 27.4248 78.0632 27.8723 77.9247C28.3197 77.7827 28.7903 77.7116 29.2839 77.7116C29.6106 77.7116 29.9568 77.7507 30.3226 77.8288C30.6919 77.9034 31.0364 78.0419 31.356 78.2443C31.6791 78.4467 31.9437 78.7362 32.1496 79.1126C32.3556 79.4854 32.4586 79.9702 32.4586 80.5668V86H30.9032V84.8814H30.8393C30.7363 85.0874 30.5818 85.2898 30.3758 85.4886C30.1699 85.6875 29.9053 85.8526 29.5822 85.984C29.259 86.1154 28.8719 86.1811 28.4209 86.1811ZM28.7672 84.9027C29.2075 84.9027 29.5839 84.8157 29.8964 84.6417C30.2125 84.4677 30.4522 84.2404 30.6155 83.9599C30.7824 83.6758 30.8659 83.3722 30.8659 83.049V81.9943C30.8091 82.0511 30.699 82.1044 30.5356 82.1541C30.3758 82.2003 30.193 82.2411 29.987 82.2766C29.781 82.3086 29.5804 82.3388 29.3851 82.3672C29.1898 82.392 29.0264 82.4134 28.895 82.4311C28.5861 82.4702 28.3038 82.5359 28.0481 82.6282C27.7959 82.7205 27.5935 82.8537 27.4408 83.0277C27.2917 83.1982 27.2171 83.4254 27.2171 83.7095C27.2171 84.1037 27.3627 84.402 27.6539 84.6044C27.9451 84.8033 28.3162 84.9027 28.7672 84.9027ZM41.1478 77.8182V86H39.5924V77.8182H41.1478ZM40.4713 81.6161V82.9904C40.2263 83.0898 39.967 83.1786 39.6936 83.2567C39.4201 83.3313 39.1325 83.3899 38.8307 83.4325C38.5288 83.4751 38.2145 83.4964 37.8878 83.4964C36.8758 83.4964 36.0714 83.2496 35.4748 82.756C34.8782 82.2589 34.5799 81.4989 34.5799 80.4762V77.8022H36.13V80.4762C36.13 80.8633 36.201 81.1776 36.3431 81.419C36.4851 81.6605 36.6875 81.8381 36.9503 81.9517C37.2131 82.0653 37.5256 82.1222 37.8878 82.1222C38.3672 82.1222 38.8093 82.0778 39.2142 81.989C39.6226 81.8967 40.0416 81.7724 40.4713 81.6161ZM46.7927 86.1651C45.9866 86.1651 45.2924 85.9929 44.71 85.6484C44.1312 85.3004 43.6837 84.8121 43.3677 84.1836C43.0552 83.5515 42.8989 82.8111 42.8989 81.9624C42.8989 81.1243 43.0552 80.3857 43.3677 79.7464C43.6837 79.1072 44.1241 78.6083 44.6887 78.2496C45.2569 77.891 45.9209 77.7116 46.6809 77.7116C47.1425 77.7116 47.59 77.788 48.0232 77.9407C48.4565 78.0934 48.8453 78.3331 49.1898 78.6598C49.5342 78.9865 49.8059 79.4109 50.0048 79.9329C50.2036 80.4513 50.303 81.0817 50.303 81.8239V82.3885H43.7991V81.1953H48.7423C48.7423 80.7763 48.6571 80.4052 48.4866 80.082C48.3162 79.7553 48.0765 79.4979 47.7675 79.3097C47.4621 79.1214 47.1035 79.0273 46.6915 79.0273C46.2441 79.0273 45.8535 79.1374 45.5197 79.3576C45.1894 79.5742 44.9337 79.8583 44.7526 80.2099C44.5751 80.5579 44.4863 80.9361 44.4863 81.3445V82.2766C44.4863 82.8235 44.5822 83.2887 44.7739 83.6722C44.9692 84.0558 45.2409 84.3487 45.5889 84.5511C45.9369 84.75 46.3435 84.8494 46.8087 84.8494C47.1106 84.8494 47.3858 84.8068 47.6344 84.7216C47.8829 84.6328 48.0978 84.5014 48.2789 84.3274C48.46 84.1534 48.5985 83.9386 48.6944 83.6829L50.2018 83.9545C50.0811 84.3984 49.8645 84.7873 49.552 85.1211C49.243 85.4513 48.8542 85.7088 48.3854 85.8935C47.9202 86.0746 47.3893 86.1651 46.7927 86.1651ZM54.1423 84.5085L54.0624 85.0891C54.0091 85.5153 53.9185 85.9592 53.7907 86.4208C53.6664 86.886 53.5368 87.3175 53.4019 87.7152C53.2705 88.1129 53.1622 88.429 53.0769 88.6634H51.9477C51.9938 88.4432 52.0578 88.1449 52.1394 87.7685C52.2211 87.3956 52.301 86.9783 52.3791 86.5167C52.4573 86.055 52.5158 85.5845 52.5549 85.1051L52.6082 84.5085H54.1423ZM64.777 84.0291L67.4191 77.8182H68.7934L65.3683 86H64.1858L60.8299 77.8182H62.1883L64.777 84.0291ZM61.7461 77.8182V86H60.1854V77.8182H61.7461ZM67.8505 86V77.8182H69.4006V86H67.8505ZM72.7218 80.6307H75.0975C76.0989 80.6307 76.8695 80.8793 77.4093 81.3764C77.9491 81.8736 78.219 82.5146 78.219 83.2994C78.219 83.8107 78.0982 84.2706 77.8568 84.679C77.6153 85.0874 77.2619 85.4105 76.7967 85.6484C76.3315 85.8828 75.7651 86 75.0975 86H71.5233V77.8182H73.084V84.6257H75.0975C75.5556 84.6257 75.932 84.5067 76.2268 84.2688C76.5215 84.0273 76.6689 83.7202 76.6689 83.3473C76.6689 82.9531 76.5215 82.6317 76.2268 82.3832C75.932 82.131 75.5556 82.005 75.0975 82.005H72.7218V80.6307ZM79.3802 86V77.8182H80.9729V86H79.3802ZM92.625 81.2219V82.6016H88.1932V81.2219H92.625ZM88.6407 77.8182V86H87.0799V77.8182H88.6407ZM93.7383 77.8182V86H92.1829V77.8182H93.7383ZM99.3953 86.1651C98.5892 86.1651 97.8949 85.9929 97.3125 85.6484C96.7337 85.3004 96.2863 84.8121 95.9702 84.1836C95.6577 83.5515 95.5015 82.8111 95.5015 81.9624C95.5015 81.1243 95.6577 80.3857 95.9702 79.7464C96.2863 79.1072 96.7266 78.6083 97.2912 78.2496C97.8594 77.891 98.5235 77.7116 99.2834 77.7116C99.7451 77.7116 100.193 77.788 100.626 77.9407C101.059 78.0934 101.448 78.3331 101.792 78.6598C102.137 78.9865 102.408 79.4109 102.607 79.9329C102.806 80.4513 102.906 81.0817 102.906 81.8239V82.3885H96.4017V81.1953H101.345C101.345 80.7763 101.26 80.4052 101.089 80.082C100.919 79.7553 100.679 79.4979 100.37 79.3097C100.065 79.1214 99.706 79.0273 99.2941 79.0273C98.8466 79.0273 98.456 79.1374 98.1222 79.3576C97.7919 79.5742 97.5363 79.8583 97.3552 80.2099C97.1776 80.5579 97.0888 80.9361 97.0888 81.3445V82.2766C97.0888 82.8235 97.1847 83.2887 97.3765 83.6722C97.5718 84.0558 97.8434 84.3487 98.1915 84.5511C98.5395 84.75 98.9461 84.8494 99.4113 84.8494C99.7131 84.8494 99.9883 84.8068 100.237 84.7216C100.485 84.6328 100.7 84.5014 100.881 84.3274C101.063 84.1534 101.201 83.9386 101.297 83.6829L102.804 83.9545C102.684 84.3984 102.467 84.7873 102.155 85.1211C101.846 85.4513 101.457 85.7088 100.988 85.8935C100.523 86.0746 99.9919 86.1651 99.3953 86.1651ZM108.158 83.8374H109.788C109.809 84.1712 109.96 84.4286 110.24 84.6097C110.525 84.7908 110.892 84.8814 111.343 84.8814C111.801 84.8814 112.192 84.7837 112.515 84.5884C112.838 84.3896 113 84.0824 113 83.6669C113 83.4183 112.938 83.2017 112.813 83.017C112.693 82.8288 112.52 82.6832 112.297 82.5803C112.076 82.4773 111.815 82.4258 111.514 82.4258H110.182V81.174H111.514C111.965 81.174 112.302 81.071 112.526 80.8651C112.749 80.6591 112.861 80.4016 112.861 80.0927C112.861 79.7589 112.74 79.4908 112.499 79.2884C112.261 79.0824 111.929 78.9794 111.503 78.9794C111.07 78.9794 110.709 79.0771 110.422 79.2724C110.134 79.4641 109.983 79.7127 109.969 80.0181H108.36C108.371 79.56 108.509 79.1587 108.776 78.8143C109.045 78.4663 109.408 78.1964 109.862 78.0046C110.32 77.8093 110.841 77.7116 111.423 77.7116C112.03 77.7116 112.556 77.8093 113 78.0046C113.444 78.1999 113.786 78.4698 114.028 78.8143C114.273 79.1587 114.395 79.5547 114.395 80.0021C114.395 80.4531 114.26 80.8224 113.99 81.1101C113.724 81.3942 113.376 81.5984 112.946 81.7227V81.8079C113.262 81.8292 113.543 81.9251 113.788 82.0955C114.033 82.266 114.225 82.4915 114.363 82.772C114.502 83.0526 114.571 83.3704 114.571 83.7255C114.571 84.2262 114.433 84.6594 114.156 85.0252C113.882 85.391 113.502 85.6733 113.016 85.8722C112.533 86.0675 111.981 86.1651 111.359 86.1651C110.755 86.1651 110.214 86.071 109.734 85.8828C109.259 85.6911 108.88 85.4212 108.6 85.0732C108.323 84.7251 108.175 84.3132 108.158 83.8374ZM121.761 81.2219V82.6016H117.329V81.2219H121.761ZM117.776 77.8182V86H116.216V77.8182H117.776ZM122.874 77.8182V86H121.319V77.8182H122.874ZM127.386 86.1811C126.867 86.1811 126.399 86.0852 125.98 85.8935C125.561 85.6982 125.228 85.4158 124.983 85.0465C124.742 84.6772 124.621 84.2244 124.621 83.6882C124.621 83.2266 124.71 82.8466 124.888 82.5483C125.065 82.25 125.305 82.0138 125.607 81.8398C125.909 81.6658 126.246 81.5344 126.619 81.4457C126.992 81.3569 127.372 81.2894 127.759 81.2433C128.249 81.1864 128.646 81.1403 128.952 81.1048C129.257 81.0657 129.479 81.0036 129.618 80.9183C129.756 80.8331 129.825 80.6946 129.825 80.5028V80.4656C129.825 80.0004 129.694 79.6399 129.431 79.3842C129.172 79.1286 128.785 79.0007 128.27 79.0007C127.734 79.0007 127.311 79.1197 127.002 79.3576C126.697 79.592 126.486 79.853 126.368 80.1406L124.872 79.7997C125.049 79.3026 125.308 78.9013 125.649 78.5959C125.994 78.2869 126.39 78.0632 126.837 77.9247C127.285 77.7827 127.755 77.7116 128.249 77.7116C128.575 77.7116 128.922 77.7507 129.287 77.8288C129.657 77.9034 130.001 78.0419 130.321 78.2443C130.644 78.4467 130.909 78.7362 131.114 79.1126C131.32 79.4854 131.423 79.9702 131.423 80.5668V86H129.868V84.8814H129.804C129.701 85.0874 129.547 85.2898 129.341 85.4886C129.135 85.6875 128.87 85.8526 128.547 85.984C128.224 86.1154 127.837 86.1811 127.386 86.1811ZM127.732 84.9027C128.172 84.9027 128.549 84.8157 128.861 84.6417C129.177 84.4677 129.417 84.2404 129.58 83.9599C129.747 83.6758 129.831 83.3722 129.831 83.049V81.9943C129.774 82.0511 129.664 82.1044 129.5 82.1541C129.341 82.2003 129.158 82.2411 128.952 82.2766C128.746 82.3086 128.545 82.3388 128.35 82.3672C128.155 82.392 127.991 82.4134 127.86 82.4311C127.551 82.4702 127.269 82.5359 127.013 82.6282C126.761 82.7205 126.558 82.8537 126.406 83.0277C126.257 83.1982 126.182 83.4254 126.182 83.7095C126.182 84.1037 126.328 84.402 126.619 84.6044C126.91 84.8033 127.281 84.9027 127.732 84.9027ZM137.071 86.1651C136.265 86.1651 135.571 85.9929 134.988 85.6484C134.409 85.3004 133.962 84.8121 133.646 84.1836C133.333 83.5515 133.177 82.8111 133.177 81.9624C133.177 81.1243 133.333 80.3857 133.646 79.7464C133.962 79.1072 134.402 78.6083 134.967 78.2496C135.535 77.891 136.199 77.7116 136.959 77.7116C137.421 77.7116 137.868 77.788 138.302 77.9407C138.735 78.0934 139.124 78.3331 139.468 78.6598C139.813 78.9865 140.084 79.4109 140.283 79.9329C140.482 80.4513 140.581 81.0817 140.581 81.8239V82.3885H134.077V81.1953H139.021C139.021 80.7763 138.935 80.4052 138.765 80.082C138.595 79.7553 138.355 79.4979 138.046 79.3097C137.74 79.1214 137.382 79.0273 136.97 79.0273C136.522 79.0273 136.132 79.1374 135.798 79.3576C135.468 79.5742 135.212 79.8583 135.031 80.2099C134.853 80.5579 134.765 80.9361 134.765 81.3445V82.2766C134.765 82.8235 134.86 83.2887 135.052 83.6722C135.248 84.0558 135.519 84.3487 135.867 84.5511C136.215 84.75 136.622 84.8494 137.087 84.8494C137.389 84.8494 137.664 84.8068 137.913 84.7216C138.161 84.6328 138.376 84.5014 138.557 84.3274C138.738 84.1534 138.877 83.9386 138.973 83.6829L140.48 83.9545C140.359 84.3984 140.143 84.7873 139.83 85.1211C139.521 85.4513 139.133 85.7088 138.664 85.8935C138.199 86.0746 137.668 86.1651 137.071 86.1651ZM146.94 84.0291L149.582 77.8182H150.956L147.531 86H146.349L142.993 77.8182H144.351L146.94 84.0291ZM143.909 77.8182V86H142.348V77.8182H143.909ZM150.014 86V77.8182H151.564V86H150.014ZM157.656 86V77.8182H159.249V81.2486H160.016L162.716 77.8182H164.687L161.518 81.7972L164.725 86H162.748L160.282 82.7294H159.249V86H157.656ZM168.343 86.1811C167.824 86.1811 167.356 86.0852 166.937 85.8935C166.518 85.6982 166.186 85.4158 165.94 85.0465C165.699 84.6772 165.578 84.2244 165.578 83.6882C165.578 83.2266 165.667 82.8466 165.845 82.5483C166.022 82.25 166.262 82.0138 166.564 81.8398C166.866 81.6658 167.203 81.5344 167.576 81.4457C167.949 81.3569 168.329 81.2894 168.716 81.2433C169.206 81.1864 169.603 81.1403 169.909 81.1048C170.214 81.0657 170.436 81.0036 170.575 80.9183C170.713 80.8331 170.782 80.6946 170.782 80.5028V80.4656C170.782 80.0004 170.651 79.6399 170.388 79.3842C170.129 79.1286 169.742 79.0007 169.227 79.0007C168.691 79.0007 168.268 79.1197 167.959 79.3576C167.654 79.592 167.443 79.853 167.325 80.1406L165.829 79.7997C166.006 79.3026 166.265 78.9013 166.606 78.5959C166.951 78.2869 167.347 78.0632 167.794 77.9247C168.242 77.7827 168.712 77.7116 169.206 77.7116C169.532 77.7116 169.879 77.7507 170.244 77.8288C170.614 77.9034 170.958 78.0419 171.278 78.2443C171.601 78.4467 171.866 78.7362 172.072 79.1126C172.277 79.4854 172.38 79.9702 172.38 80.5668V86H170.825V84.8814H170.761C170.658 85.0874 170.504 85.2898 170.298 85.4886C170.092 85.6875 169.827 85.8526 169.504 85.984C169.181 86.1154 168.794 86.1811 168.343 86.1811ZM168.689 84.9027C169.129 84.9027 169.506 84.8157 169.818 84.6417C170.134 84.4677 170.374 84.2404 170.537 83.9599C170.704 83.6758 170.788 83.3722 170.788 83.049V81.9943C170.731 82.0511 170.621 82.1044 170.458 82.1541C170.298 82.2003 170.115 82.2411 169.909 82.2766C169.703 82.3086 169.502 82.3388 169.307 82.3672C169.112 82.392 168.948 82.4134 168.817 82.4311C168.508 82.4702 168.226 82.5359 167.97 82.6282C167.718 82.7205 167.515 82.8537 167.363 83.0277C167.214 83.1982 167.139 83.4254 167.139 83.7095C167.139 84.1037 167.285 84.402 167.576 84.6044C167.867 84.8033 168.238 84.9027 168.689 84.9027ZM174.502 86V77.8182H176.095V81.2486H176.862L179.562 77.8182H181.533L178.364 81.7972L181.57 86H179.594L177.128 82.7294H176.095V86H174.502ZM184.368 83.7681L187.974 77.8182H189.69V86H188.129V80.0447L184.539 86H182.807V77.8182H184.368V83.7681ZM195.357 86.1651C194.551 86.1651 193.857 85.9929 193.274 85.6484C192.696 85.3004 192.248 84.8121 191.932 84.1836C191.62 83.5515 191.463 82.8111 191.463 81.9624C191.463 81.1243 191.62 80.3857 191.932 79.7464C192.248 79.1072 192.689 78.6083 193.253 78.2496C193.821 77.891 194.485 77.7116 195.245 77.7116C195.707 77.7116 196.154 77.788 196.588 77.9407C197.021 78.0934 197.41 78.3331 197.754 78.6598C198.099 78.9865 198.37 79.4109 198.569 79.9329C198.768 80.4513 198.867 81.0817 198.867 81.8239V82.3885H192.364V81.1953H197.307C197.307 80.7763 197.222 80.4052 197.051 80.082C196.881 79.7553 196.641 79.4979 196.332 79.3097C196.027 79.1214 195.668 79.0273 195.256 79.0273C194.809 79.0273 194.418 79.1374 194.084 79.3576C193.754 79.5742 193.498 79.8583 193.317 80.2099C193.14 80.5579 193.051 80.9361 193.051 81.3445V82.2766C193.051 82.8235 193.147 83.2887 193.338 83.6722C193.534 84.0558 193.805 84.3487 194.153 84.5511C194.501 84.75 194.908 84.8494 195.373 84.8494C195.675 84.8494 195.95 84.8068 196.199 84.7216C196.447 84.6328 196.662 84.5014 196.843 84.3274C197.024 84.1534 197.163 83.9386 197.259 83.6829L198.766 83.9545C198.646 84.3984 198.429 84.7873 198.116 85.1211C197.807 85.4513 197.419 85.7088 196.95 85.8935C196.485 86.0746 195.954 86.1651 195.357 86.1651ZM208.051 86.1651C207.284 86.1651 206.614 85.9893 206.043 85.6378C205.471 85.2862 205.027 84.7944 204.711 84.1623C204.395 83.5302 204.237 82.7915 204.237 81.9464C204.237 81.0977 204.395 80.3555 204.711 79.7198C205.027 79.0842 205.471 78.5906 206.043 78.239C206.614 77.8874 207.284 77.7116 208.051 77.7116C208.818 77.7116 209.487 77.8874 210.059 78.239C210.631 78.5906 211.075 79.0842 211.391 79.7198C211.707 80.3555 211.865 81.0977 211.865 81.9464C211.865 82.7915 211.707 83.5302 211.391 84.1623C211.075 84.7944 210.631 85.2862 210.059 85.6378C209.487 85.9893 208.818 86.1651 208.051 86.1651ZM208.056 84.8281C208.553 84.8281 208.965 84.6967 209.292 84.4339C209.619 84.1712 209.86 83.8214 210.016 83.3846C210.176 82.9478 210.256 82.4666 210.256 81.9411C210.256 81.419 210.176 80.9396 210.016 80.5028C209.86 80.0625 209.619 79.7092 209.292 79.4428C208.965 79.1765 208.553 79.0433 208.056 79.0433C207.555 79.0433 207.14 79.1765 206.81 79.4428C206.483 79.7092 206.24 80.0625 206.08 80.5028C205.924 80.9396 205.845 81.419 205.845 81.9411C205.845 82.4666 205.924 82.9478 206.08 83.3846C206.24 83.8214 206.483 84.1712 206.81 84.4339C207.14 84.6967 207.555 84.8281 208.056 84.8281ZM213.642 89.0682V77.8182H215.198V79.1445H215.331C215.423 78.9741 215.557 78.777 215.731 78.5533C215.905 78.3295 216.146 78.1342 216.455 77.9673C216.764 77.7969 217.172 77.7116 217.68 77.7116C218.341 77.7116 218.93 77.8786 219.449 78.2124C219.967 78.5462 220.374 79.0273 220.668 79.6559C220.967 80.2844 221.116 81.0408 221.116 81.9251C221.116 82.8093 220.968 83.5675 220.674 84.1996C220.379 84.8281 219.974 85.3129 219.459 85.6538C218.944 85.9911 218.357 86.1598 217.696 86.1598C217.199 86.1598 216.792 86.0763 216.476 85.9094C216.164 85.7425 215.919 85.5472 215.741 85.3235C215.564 85.0998 215.427 84.9009 215.331 84.7269H215.235V89.0682H213.642ZM215.203 81.9091C215.203 82.4844 215.287 82.9886 215.454 83.4219C215.62 83.8551 215.862 84.1942 216.178 84.4393C216.494 84.6808 216.881 84.8015 217.339 84.8015C217.815 84.8015 218.213 84.6754 218.532 84.4233C218.852 84.1676 219.093 83.8214 219.257 83.3846C219.424 82.9478 219.507 82.456 219.507 81.9091C219.507 81.3693 219.425 80.8846 219.262 80.4549C219.102 80.0252 218.861 79.6861 218.538 79.4375C218.218 79.1889 217.819 79.0646 217.339 79.0646C216.878 79.0646 216.487 79.1836 216.167 79.4215C215.851 79.6594 215.612 79.9915 215.448 80.4176C215.285 80.8437 215.203 81.3409 215.203 81.9091ZM222.101 88.3597V84.6204H222.767C222.938 84.4641 223.081 84.2777 223.199 84.0611C223.319 83.8445 223.42 83.587 223.502 83.2887C223.587 82.9904 223.658 82.6424 223.715 82.2447C223.772 81.8434 223.822 81.3853 223.864 80.8704L224.12 77.8182H229.681V84.6204H230.938V88.3597H229.383V86H223.678V88.3597H222.101ZM224.472 84.6204H228.126V79.1818H225.548L225.377 80.8704C225.295 81.7298 225.193 82.4755 225.068 83.1076C224.944 83.7362 224.745 84.2404 224.472 84.6204ZM236.021 86.1651C235.215 86.1651 234.521 85.9929 233.939 85.6484C233.36 85.3004 232.912 84.8121 232.596 84.1836C232.284 83.5515 232.127 82.8111 232.127 81.9624C232.127 81.1243 232.284 80.3857 232.596 79.7464C232.912 79.1072 233.353 78.6083 233.917 78.2496C234.485 77.891 235.149 77.7116 235.909 77.7116C236.371 77.7116 236.818 77.788 237.252 77.9407C237.685 78.0934 238.074 78.3331 238.418 78.6598C238.763 78.9865 239.034 79.4109 239.233 79.9329C239.432 80.4513 239.532 81.0817 239.532 81.8239V82.3885H233.028V81.1953H237.971C237.971 80.7763 237.886 80.4052 237.715 80.082C237.545 79.7553 237.305 79.4979 236.996 79.3097C236.691 79.1214 236.332 79.0273 235.92 79.0273C235.473 79.0273 235.082 79.1374 234.748 79.3576C234.418 79.5742 234.162 79.8583 233.981 80.2099C233.804 80.5579 233.715 80.9361 233.715 81.3445V82.2766C233.715 82.8235 233.811 83.2887 234.002 83.6722C234.198 84.0558 234.469 84.3487 234.817 84.5511C235.165 84.75 235.572 84.8494 236.037 84.8494C236.339 84.8494 236.614 84.8068 236.863 84.7216C237.111 84.6328 237.326 84.5014 237.507 84.3274C237.689 84.1534 237.827 83.9386 237.923 83.6829L239.43 83.9545C239.31 84.3984 239.093 84.7873 238.78 85.1211C238.472 85.4513 238.083 85.7088 237.614 85.8935C237.149 86.0746 236.618 86.1651 236.021 86.1651ZM241.299 89.0682V77.8182H242.854V79.1445H242.987C243.08 78.9741 243.213 78.777 243.387 78.5533C243.561 78.3295 243.802 78.1342 244.111 77.9673C244.42 77.7969 244.829 77.7116 245.336 77.7116C245.997 77.7116 246.586 77.8786 247.105 78.2124C247.623 78.5462 248.03 79.0273 248.325 79.6559C248.623 80.2844 248.772 81.0408 248.772 81.9251C248.772 82.8093 248.625 83.5675 248.33 84.1996C248.035 84.8281 247.63 85.3129 247.115 85.6538C246.601 85.9911 246.013 86.1598 245.352 86.1598C244.855 86.1598 244.449 86.0763 244.133 85.9094C243.82 85.7425 243.575 85.5472 243.397 85.3235C243.22 85.0998 243.083 84.9009 242.987 84.7269H242.891V89.0682H241.299ZM242.859 81.9091C242.859 82.4844 242.943 82.9886 243.11 83.4219C243.277 83.8551 243.518 84.1942 243.834 84.4393C244.15 84.6808 244.537 84.8015 244.995 84.8015C245.471 84.8015 245.869 84.6754 246.189 84.4233C246.508 84.1676 246.75 83.8214 246.913 83.3846C247.08 82.9478 247.163 82.456 247.163 81.9091C247.163 81.3693 247.082 80.8846 246.918 80.4549C246.759 80.0252 246.517 79.6861 246.194 79.4375C245.874 79.1889 245.475 79.0646 244.995 79.0646C244.534 79.0646 244.143 79.1836 243.824 79.4215C243.508 79.6594 243.268 79.9915 243.104 80.4176C242.941 80.8437 242.859 81.3409 242.859 81.9091ZM252.938 86.1811C252.419 86.1811 251.95 86.0852 251.531 85.8935C251.112 85.6982 250.78 85.4158 250.535 85.0465C250.294 84.6772 250.173 84.2244 250.173 83.6882C250.173 83.2266 250.262 82.8466 250.439 82.5483C250.617 82.25 250.857 82.0138 251.158 81.8398C251.46 81.6658 251.798 81.5344 252.17 81.4457C252.543 81.3569 252.923 81.2894 253.31 81.2433C253.8 81.1864 254.198 81.1403 254.504 81.1048C254.809 81.0657 255.031 81.0036 255.169 80.9183C255.308 80.8331 255.377 80.6946 255.377 80.5028V80.4656C255.377 80.0004 255.246 79.6399 254.983 79.3842C254.724 79.1286 254.337 79.0007 253.822 79.0007C253.286 79.0007 252.863 79.1197 252.554 79.3576C252.249 79.592 252.037 79.853 251.92 80.1406L250.423 79.7997C250.601 79.3026 250.86 78.9013 251.201 78.5959C251.545 78.2869 251.941 78.0632 252.389 77.9247C252.836 77.7827 253.307 77.7116 253.8 77.7116C254.127 77.7116 254.473 77.7507 254.839 77.8288C255.208 77.9034 255.553 78.0419 255.873 78.2443C256.196 78.4467 256.46 78.7362 256.666 79.1126C256.872 79.4854 256.975 79.9702 256.975 80.5668V86H255.42V84.8814H255.356C255.253 85.0874 255.098 85.2898 254.892 85.4886C254.686 85.6875 254.422 85.8526 254.099 85.984C253.776 86.1154 253.389 86.1811 252.938 86.1811ZM253.284 84.9027C253.724 84.9027 254.101 84.8157 254.413 84.6417C254.729 84.4677 254.969 84.2404 255.132 83.9599C255.299 83.6758 255.383 83.3722 255.383 83.049V81.9943C255.326 82.0511 255.216 82.1044 255.052 82.1541C254.892 82.2003 254.71 82.2411 254.504 82.2766C254.298 82.3086 254.097 82.3388 253.902 82.3672C253.706 82.392 253.543 82.4134 253.412 82.4311C253.103 82.4702 252.82 82.5359 252.565 82.6282C252.313 82.7205 252.11 82.8537 251.957 83.0277C251.808 83.1982 251.734 83.4254 251.734 83.7095C251.734 84.1037 251.879 84.402 252.17 84.6044C252.462 84.8033 252.833 84.9027 253.284 84.9027ZM81.5242 97.1925V95.8182H88.4276V97.1925H85.7589V104H84.2035V97.1925H81.5242ZM93.2576 104.165C92.4515 104.165 91.7572 103.993 91.1748 103.648C90.596 103.3 90.1486 102.812 89.8325 102.184C89.52 101.551 89.3638 100.811 89.3638 99.9624C89.3638 99.1243 89.52 98.3857 89.8325 97.7464C90.1486 97.1072 90.5889 96.6083 91.1535 96.2496C91.7217 95.891 92.3858 95.7116 93.1457 95.7116C93.6074 95.7116 94.0548 95.788 94.4881 95.9407C94.9213 96.0934 95.3101 96.3331 95.6546 96.6598C95.9991 96.9865 96.2707 97.4109 96.4696 97.9329C96.6685 98.4513 96.7679 99.0817 96.7679 99.8239V100.388H90.264V99.1953H95.2072C95.2072 98.7763 95.1219 98.4052 94.9515 98.082C94.781 97.7553 94.5413 97.4979 94.2324 97.3097C93.927 97.1214 93.5683 97.0273 93.1564 97.0273C92.7089 97.0273 92.3183 97.1374 91.9845 97.3576C91.6543 97.5742 91.3986 97.8583 91.2175 98.2099C91.0399 98.5579 90.9511 98.9361 90.9511 99.3445V100.277C90.9511 100.824 91.047 101.289 91.2388 101.672C91.4341 102.056 91.7057 102.349 92.0538 102.551C92.4018 102.75 92.8084 102.849 93.2736 102.849C93.5754 102.849 93.8506 102.807 94.0992 102.722C94.3478 102.633 94.5626 102.501 94.7437 102.327C94.9248 102.153 95.0633 101.939 95.1592 101.683L96.6667 101.955C96.5459 102.398 96.3293 102.787 96.0168 103.121C95.7079 103.451 95.319 103.709 94.8503 103.893C94.3851 104.075 93.8542 104.165 93.2576 104.165ZM104.847 92.7713L105.508 93.7781C105.263 94.0018 104.984 94.1616 104.671 94.2575C104.362 94.3498 104.006 94.4084 103.601 94.4332C103.196 94.4545 102.732 94.4741 102.21 94.4918C101.621 94.5096 101.136 94.6374 100.756 94.8754C100.376 95.1097 100.083 95.4577 99.8774 95.9194C99.6749 96.3775 99.5435 96.9528 99.4832 97.6452H99.5844C99.8507 97.1374 100.22 96.7575 100.692 96.5053C101.168 96.2532 101.703 96.1271 102.296 96.1271C102.956 96.1271 103.544 96.2781 104.059 96.5799C104.574 96.8817 104.979 97.3239 105.273 97.9062C105.572 98.4851 105.721 99.1935 105.721 100.032C105.721 100.88 105.564 101.614 105.252 102.232C104.943 102.849 104.506 103.327 103.942 103.664C103.381 103.998 102.718 104.165 101.955 104.165C101.191 104.165 100.525 103.993 99.9573 103.648C99.3926 103.3 98.9541 102.786 98.6416 102.104C98.3326 101.422 98.1781 100.58 98.1781 99.5788V98.7692C98.1781 96.8977 98.5119 95.4897 99.1796 94.5451C99.8472 93.6005 100.845 93.1158 102.173 93.0909C102.603 93.0803 102.986 93.0785 103.324 93.0856C103.661 93.0891 103.956 93.0732 104.208 93.0376C104.464 92.9986 104.677 92.9098 104.847 92.7713ZM101.96 102.828C102.404 102.828 102.786 102.716 103.105 102.493C103.428 102.265 103.677 101.944 103.851 101.528C104.025 101.113 104.112 100.623 104.112 100.058C104.112 99.5043 104.025 99.0337 103.851 98.6467C103.677 98.2596 103.428 97.9648 103.105 97.7624C102.782 97.5565 102.395 97.4535 101.944 97.4535C101.61 97.4535 101.312 97.5121 101.049 97.6293C100.786 97.7429 100.561 97.9116 100.373 98.1353C100.188 98.359 100.044 98.6325 99.9413 98.9556C99.8418 99.2752 99.7886 99.6428 99.7815 100.058C99.7815 100.903 99.975 101.576 100.362 102.077C100.753 102.578 101.285 102.828 101.96 102.828ZM111.026 104.165C110.22 104.165 109.526 103.993 108.943 103.648C108.365 103.3 107.917 102.812 107.601 102.184C107.289 101.551 107.132 100.811 107.132 99.9624C107.132 99.1243 107.289 98.3857 107.601 97.7464C107.917 97.1072 108.357 96.6083 108.922 96.2496C109.49 95.891 110.154 95.7116 110.914 95.7116C111.376 95.7116 111.823 95.788 112.257 95.9407C112.69 96.0934 113.079 96.3331 113.423 96.6598C113.768 96.9865 114.039 97.4109 114.238 97.9329C114.437 98.4513 114.536 99.0817 114.536 99.8239V100.388H108.033V99.1953H112.976C112.976 98.7763 112.89 98.4052 112.72 98.082C112.55 97.7553 112.31 97.4979 112.001 97.3097C111.696 97.1214 111.337 97.0273 110.925 97.0273C110.477 97.0273 110.087 97.1374 109.753 97.3576C109.423 97.5742 109.167 97.8583 108.986 98.2099C108.808 98.5579 108.72 98.9361 108.72 99.3445V100.277C108.72 100.824 108.816 101.289 109.007 101.672C109.203 102.056 109.474 102.349 109.822 102.551C110.17 102.75 110.577 102.849 111.042 102.849C111.344 102.849 111.619 102.807 111.868 102.722C112.116 102.633 112.331 102.501 112.512 102.327C112.693 102.153 112.832 101.939 112.928 101.683L114.435 101.955C114.314 102.398 114.098 102.787 113.785 103.121C113.476 103.451 113.088 103.709 112.619 103.893C112.154 104.075 111.623 104.165 111.026 104.165ZM120.273 104V95.8182H126.948V104H125.387V97.1925H121.823V104H120.273ZM132.523 104.165C131.756 104.165 131.087 103.989 130.515 103.638C129.943 103.286 129.5 102.794 129.184 102.162C128.867 101.53 128.709 100.792 128.709 99.9464C128.709 99.0977 128.867 98.3555 129.184 97.7198C129.5 97.0842 129.943 96.5906 130.515 96.239C131.087 95.8874 131.756 95.7116 132.523 95.7116C133.29 95.7116 133.96 95.8874 134.532 96.239C135.103 96.5906 135.547 97.0842 135.863 97.7198C136.179 98.3555 136.337 99.0977 136.337 99.9464C136.337 100.792 136.179 101.53 135.863 102.162C135.547 102.794 135.103 103.286 134.532 103.638C133.96 103.989 133.29 104.165 132.523 104.165ZM132.529 102.828C133.026 102.828 133.438 102.697 133.765 102.434C134.091 102.171 134.333 101.821 134.489 101.385C134.649 100.948 134.729 100.467 134.729 99.9411C134.729 99.419 134.649 98.9396 134.489 98.5028C134.333 98.0625 134.091 97.7092 133.765 97.4428C133.438 97.1765 133.026 97.0433 132.529 97.0433C132.028 97.0433 131.613 97.1765 131.282 97.4428C130.956 97.7092 130.712 98.0625 130.553 98.5028C130.396 98.9396 130.318 99.419 130.318 99.9411C130.318 100.467 130.396 100.948 130.553 101.385C130.712 101.821 130.956 102.171 131.282 102.434C131.613 102.697 132.028 102.828 132.529 102.828ZM138.115 104V95.8182H139.708V99.2486H140.475L143.175 95.8182H145.146L141.977 99.7972L145.184 104H143.207L140.741 100.729H139.708V104H138.115ZM148.802 104.181C148.283 104.181 147.815 104.085 147.396 103.893C146.977 103.698 146.644 103.416 146.399 103.047C146.158 102.677 146.037 102.224 146.037 101.688C146.037 101.227 146.126 100.847 146.304 100.548C146.481 100.25 146.721 100.014 147.023 99.8398C147.325 99.6658 147.662 99.5344 148.035 99.4457C148.408 99.3569 148.788 99.2894 149.175 99.2433C149.665 99.1864 150.062 99.1403 150.368 99.1048C150.673 99.0657 150.895 99.0036 151.034 98.9183C151.172 98.8331 151.241 98.6946 151.241 98.5028V98.4656C151.241 98.0004 151.11 97.6399 150.847 97.3842C150.588 97.1286 150.201 97.0007 149.686 97.0007C149.15 97.0007 148.727 97.1197 148.418 97.3576C148.113 97.592 147.902 97.853 147.784 98.1406L146.288 97.7997C146.465 97.3026 146.724 96.9013 147.065 96.5959C147.41 96.2869 147.806 96.0632 148.253 95.9247C148.701 95.7827 149.171 95.7116 149.665 95.7116C149.991 95.7116 150.338 95.7507 150.703 95.8288C151.073 95.9034 151.417 96.0419 151.737 96.2443C152.06 96.4467 152.325 96.7362 152.53 97.1126C152.736 97.4854 152.839 97.9702 152.839 98.5668V104H151.284V102.881H151.22C151.117 103.087 150.963 103.29 150.757 103.489C150.551 103.687 150.286 103.853 149.963 103.984C149.64 104.115 149.253 104.181 148.802 104.181ZM149.148 102.903C149.588 102.903 149.965 102.816 150.277 102.642C150.593 102.468 150.833 102.24 150.996 101.96C151.163 101.676 151.247 101.372 151.247 101.049V99.9943C151.19 100.051 151.08 100.104 150.917 100.154C150.757 100.2 150.574 100.241 150.368 100.277C150.162 100.309 149.961 100.339 149.766 100.367C149.571 100.392 149.407 100.413 149.276 100.431C148.967 100.47 148.685 100.536 148.429 100.628C148.177 100.721 147.974 100.854 147.822 101.028C147.673 101.198 147.598 101.425 147.598 101.71C147.598 102.104 147.744 102.402 148.035 102.604C148.326 102.803 148.697 102.903 149.148 102.903ZM154.476 101.837H156.106C156.127 102.171 156.278 102.429 156.559 102.61C156.843 102.791 157.21 102.881 157.661 102.881C158.12 102.881 158.51 102.784 158.833 102.588C159.156 102.39 159.318 102.082 159.318 101.667C159.318 101.418 159.256 101.202 159.132 101.017C159.011 100.829 158.839 100.683 158.615 100.58C158.395 100.477 158.134 100.426 157.832 100.426H156.5V99.174H157.832C158.283 99.174 158.62 99.071 158.844 98.8651C159.068 98.6591 159.18 98.4016 159.18 98.0927C159.18 97.7589 159.059 97.4908 158.817 97.2884C158.579 97.0824 158.247 96.9794 157.821 96.9794C157.388 96.9794 157.028 97.0771 156.74 97.2724C156.452 97.4641 156.301 97.7127 156.287 98.0181H154.678C154.689 97.56 154.828 97.1587 155.094 96.8143C155.364 96.4663 155.726 96.1964 156.181 96.0046C156.639 95.8093 157.159 95.7116 157.741 95.7116C158.349 95.7116 158.874 95.8093 159.318 96.0046C159.762 96.1999 160.105 96.4698 160.346 96.8143C160.591 97.1587 160.714 97.5547 160.714 98.0021C160.714 98.4531 160.579 98.8224 160.309 99.1101C160.042 99.3942 159.694 99.5984 159.265 99.7227V99.8079C159.581 99.8292 159.861 99.9251 160.106 100.096C160.351 100.266 160.543 100.491 160.682 100.772C160.82 101.053 160.889 101.37 160.889 101.725C160.889 102.226 160.751 102.659 160.474 103.025C160.201 103.391 159.821 103.673 159.334 103.872C158.851 104.067 158.299 104.165 157.677 104.165C157.074 104.165 156.532 104.071 156.053 103.883C155.577 103.691 155.199 103.421 154.918 103.073C154.641 102.725 154.494 102.313 154.476 101.837ZM164.915 104.181C164.397 104.181 163.928 104.085 163.509 103.893C163.09 103.698 162.758 103.416 162.513 103.047C162.271 102.677 162.151 102.224 162.151 101.688C162.151 101.227 162.239 100.847 162.417 100.548C162.594 100.25 162.834 100.014 163.136 99.8398C163.438 99.6658 163.775 99.5344 164.148 99.4457C164.521 99.3569 164.901 99.2894 165.288 99.2433C165.778 99.1864 166.176 99.1403 166.481 99.1048C166.787 99.0657 167.008 99.0036 167.147 98.9183C167.285 98.8331 167.355 98.6946 167.355 98.5028V98.4656C167.355 98.0004 167.223 97.6399 166.961 97.3842C166.701 97.1286 166.314 97.0007 165.799 97.0007C165.263 97.0007 164.841 97.1197 164.532 97.3576C164.226 97.592 164.015 97.853 163.898 98.1406L162.401 97.7997C162.578 97.3026 162.838 96.9013 163.179 96.5959C163.523 96.2869 163.919 96.0632 164.366 95.9247C164.814 95.7827 165.284 95.7116 165.778 95.7116C166.105 95.7116 166.451 95.7507 166.817 95.8288C167.186 95.9034 167.53 96.0419 167.85 96.2443C168.173 96.4467 168.438 96.7362 168.644 97.1126C168.85 97.4854 168.953 97.9702 168.953 98.5668V104H167.397V102.881H167.333C167.23 103.087 167.076 103.29 166.87 103.489C166.664 103.687 166.399 103.853 166.076 103.984C165.753 104.115 165.366 104.181 164.915 104.181ZM165.261 102.903C165.702 102.903 166.078 102.816 166.391 102.642C166.707 102.468 166.946 102.24 167.11 101.96C167.277 101.676 167.36 101.372 167.36 101.049V99.9943C167.303 100.051 167.193 100.104 167.03 100.154C166.87 100.2 166.687 100.241 166.481 100.277C166.275 100.309 166.075 100.339 165.879 100.367C165.684 100.392 165.521 100.413 165.389 100.431C165.08 100.47 164.798 100.536 164.542 100.628C164.29 100.721 164.088 100.854 163.935 101.028C163.786 101.198 163.711 101.425 163.711 101.71C163.711 102.104 163.857 102.402 164.148 102.604C164.439 102.803 164.81 102.903 165.261 102.903ZM170.059 97.1925V95.8182H176.963V97.1925H174.294V104H172.739V97.1925H170.059ZM179.846 98.6307H182.222C183.223 98.6307 183.994 98.8793 184.533 99.3764C185.073 99.8736 185.343 100.515 185.343 101.299C185.343 101.811 185.222 102.271 184.981 102.679C184.739 103.087 184.386 103.411 183.921 103.648C183.456 103.883 182.889 104 182.222 104H178.647V95.8182H180.208V102.626H182.222C182.68 102.626 183.056 102.507 183.351 102.269C183.646 102.027 183.793 101.72 183.793 101.347C183.793 100.953 183.646 100.632 183.351 100.383C183.056 100.131 182.68 100.005 182.222 100.005H179.846V98.6307Z" fill="#002033" fill-opacity="0.5"/>
<path d="M102.353 227.364C102.353 228.131 102.214 228.794 101.938 229.352C101.661 229.911 101.281 230.342 100.798 230.645C100.315 230.948 99.763 231.099 99.1428 231.099C98.5225 231.099 97.9709 230.948 97.4879 230.645C97.005 230.342 96.625 229.911 96.348 229.352C96.071 228.794 95.9325 228.131 95.9325 227.364C95.9325 226.597 96.071 225.934 96.348 225.375C96.625 224.816 97.005 224.385 97.4879 224.082C97.9709 223.779 98.5225 223.628 99.1428 223.628C99.763 223.628 100.315 223.779 100.798 224.082C101.281 224.385 101.661 224.816 101.938 225.375C102.214 225.934 102.353 226.597 102.353 227.364ZM101.501 227.364C101.501 226.734 101.395 226.202 101.185 225.769C100.976 225.336 100.693 225.008 100.336 224.786C99.9808 224.563 99.5831 224.452 99.1428 224.452C98.7024 224.452 98.3035 224.563 97.946 224.786C97.5909 225.008 97.308 225.336 97.0973 225.769C96.889 226.202 96.7848 226.734 96.7848 227.364C96.7848 227.993 96.889 228.525 97.0973 228.958C97.308 229.391 97.5909 229.719 97.946 229.942C98.3035 230.164 98.7024 230.276 99.1428 230.276C99.5831 230.276 99.9808 230.164 100.336 229.942C100.693 229.719 100.976 229.391 101.185 228.958C101.395 228.525 101.501 227.993 101.501 227.364ZM107.768 223.5L108.195 224.011C108.029 224.172 107.837 224.285 107.619 224.349C107.402 224.413 107.155 224.452 106.881 224.466C106.606 224.48 106.301 224.494 105.964 224.509C105.586 224.523 105.272 224.615 105.023 224.786C104.775 224.956 104.583 225.202 104.448 225.524C104.313 225.846 104.227 226.241 104.189 226.71H104.26C104.445 226.369 104.7 226.118 105.027 225.957C105.354 225.796 105.704 225.716 106.078 225.716C106.504 225.716 106.888 225.815 107.229 226.014C107.57 226.213 107.839 226.508 108.038 226.898C108.237 227.289 108.337 227.771 108.337 228.344C108.337 228.914 108.235 229.407 108.031 229.821C107.83 230.235 107.547 230.555 107.183 230.78C106.82 231.002 106.395 231.114 105.908 231.114C105.42 231.114 104.993 230.999 104.626 230.769C104.259 230.537 103.973 230.194 103.77 229.739C103.566 229.282 103.464 228.718 103.464 228.045V227.463C103.464 226.249 103.67 225.328 104.082 224.7C104.497 224.073 105.119 223.749 105.95 223.727C106.244 223.718 106.505 223.715 106.735 223.72C106.965 223.725 107.165 223.714 107.335 223.688C107.506 223.662 107.65 223.599 107.768 223.5ZM105.908 230.361C106.237 230.361 106.52 230.278 106.756 230.112C106.996 229.946 107.179 229.713 107.307 229.413C107.435 229.11 107.499 228.753 107.499 228.344C107.499 227.946 107.433 227.607 107.303 227.328C107.175 227.049 106.992 226.836 106.753 226.689C106.514 226.542 106.227 226.469 105.893 226.469C105.65 226.469 105.431 226.51 105.237 226.593C105.042 226.676 104.877 226.798 104.739 226.959C104.602 227.12 104.496 227.316 104.42 227.548C104.346 227.78 104.307 228.045 104.303 228.344C104.303 228.955 104.446 229.443 104.732 229.81C105.019 230.177 105.411 230.361 105.908 230.361ZM117.062 230.219L116.962 232.562H116.096V231H115.386V230.219H117.062ZM109.619 225.545H110.457V230.219H112.516V225.545H113.354V230.219H115.414V225.545H116.252V231H109.619V225.545ZM119.886 231.128C119.54 231.128 119.227 231.063 118.945 230.933C118.663 230.8 118.439 230.609 118.274 230.361C118.108 230.11 118.025 229.807 118.025 229.452C118.025 229.139 118.087 228.886 118.21 228.692C118.333 228.495 118.497 228.341 118.703 228.23C118.909 228.119 119.137 228.036 119.385 227.982C119.636 227.925 119.888 227.88 120.142 227.847C120.473 227.804 120.742 227.772 120.948 227.751C121.156 227.727 121.307 227.688 121.402 227.634C121.499 227.579 121.548 227.484 121.548 227.349V227.321C121.548 226.971 121.452 226.698 121.26 226.504C121.071 226.31 120.783 226.213 120.397 226.213C119.997 226.213 119.683 226.301 119.456 226.476C119.229 226.651 119.069 226.838 118.977 227.037L118.181 226.753C118.323 226.421 118.513 226.163 118.749 225.979C118.989 225.792 119.249 225.661 119.531 225.588C119.815 225.512 120.094 225.474 120.369 225.474C120.544 225.474 120.745 225.496 120.972 225.538C121.202 225.579 121.423 225.663 121.637 225.79C121.852 225.918 122.031 226.111 122.173 226.369C122.315 226.627 122.386 226.973 122.386 227.406V231H121.548V230.261H121.505C121.448 230.38 121.354 230.506 121.221 230.641C121.088 230.776 120.912 230.891 120.692 230.986C120.472 231.08 120.203 231.128 119.886 231.128ZM120.014 230.375C120.345 230.375 120.624 230.31 120.852 230.18C121.081 230.049 121.254 229.881 121.37 229.675C121.489 229.469 121.548 229.253 121.548 229.026V228.259C121.512 228.301 121.434 228.34 121.313 228.376C121.195 228.409 121.058 228.438 120.901 228.464C120.748 228.488 120.597 228.509 120.45 228.528C120.306 228.545 120.189 228.559 120.099 228.571C119.881 228.599 119.677 228.646 119.488 228.71C119.301 228.771 119.15 228.865 119.034 228.99C118.92 229.113 118.863 229.281 118.863 229.494C118.863 229.786 118.971 230.006 119.186 230.155C119.404 230.302 119.68 230.375 120.014 230.375ZM127.282 225.545V226.327H124.754V231H123.915V225.545H127.282ZM129.343 229.764L131.971 225.545H132.937V231H132.099V226.781L129.485 231H128.505V225.545H129.343V229.764ZM136.972 226.327V225.545H141.404V226.327H139.614V231H138.776V226.327H136.972ZM143.464 229.764L146.092 225.545H147.058V231H146.22V226.781L143.607 231H142.626V225.545H143.464V229.764ZM151.576 229.864L153.48 225.545H154.275L151.917 231H151.235L148.92 225.545H149.701L151.576 229.864ZM149.431 225.545V231H148.593V225.545H149.431ZM153.721 231V225.545H154.559V231H153.721ZM156.093 231V225.545H156.931V227.918H157.485L159.445 225.545H160.525L158.323 228.173L160.553 231H159.474L157.684 228.699H156.931V231H156.093ZM162.302 229.764L164.93 225.545H165.896V231H165.058V226.781L162.444 231H161.464V225.545H162.302V229.764Z" fill="#002033" fill-opacity="0.5"/>
<path d="M118.819 135.244C118.819 138.877 117.761 142.626 118.349 146.218C118.753 148.69 119.473 150.896 119.495 153.435C119.517 155.99 119.495 158.546 119.495 161.102C119.495 164.66 119.495 168.218 119.495 171.776C119.495 175.404 118.703 178.955 118.462 182.581C118.145 187.329 117.466 191.851 117.466 196.637C117.466 199.999 117.127 203.381 117.127 206.766C117.127 207.699 116.732 213.567 117.334 213.7C119.331 214.144 121.815 213.043 123.893 213.043C126.26 213.043 128.628 213.043 130.996 213.043C135.653 213.043 140.346 214.058 145.033 214.058C147.588 214.058 146.796 212.715 147.42 210.487C148.439 206.847 149.123 202.964 149.28 199.193C149.502 193.881 149.6 188.602 149.6 183.276C149.6 175.758 151.03 168.497 150.352 160.951C149.938 156.35 150.276 151.587 150.276 146.97C150.276 143.455 149.938 139.968 149.938 136.447C149.938 131.232 149.527 126.17 148.923 121.037C148.773 119.759 142.14 120.022 141.219 120.022C137.617 120.022 134.112 120.654 130.545 120.699C129.059 120.718 118.182 120.33 118.142 121.714C118.054 124.802 118.324 128.308 119.232 131.26C119.801 133.11 119.495 135.338 119.495 137.273" stroke="#002033" stroke-opacity="0.5" stroke-width="3" stroke-linecap="round"/>
<path d="M124.906 129.83C125.615 129.76 126.203 129.492 126.936 129.492" stroke="#002033" stroke-opacity="0.5" stroke-width="3" stroke-linecap="round"/>
<path d="M136.746 130.509C136.808 130.015 138.589 130.007 139.114 129.832" stroke="#002033" stroke-opacity="0.5" stroke-width="3" stroke-linecap="round"/>
<path d="M144.525 131.521H145.54" stroke="#002033" stroke-opacity="0.5" stroke-width="3" stroke-linecap="round"/>
<path d="M128.289 142.685C128.289 141.005 130.886 141.78 131.672 140.994" stroke="#002033" stroke-opacity="0.5" stroke-width="3" stroke-linecap="round"/>
<path d="M139.113 142.008H140.466" stroke="#002033" stroke-opacity="0.5" stroke-width="3" stroke-linecap="round"/>
<path d="M124.568 152.493C124.86 151.327 130.827 151.817 132.01 151.817" stroke="#002033" stroke-opacity="0.5" stroke-width="3" stroke-linecap="round"/>
<path d="M137.76 154.862C139.472 154.481 140.407 152.832 142.495 152.832" stroke="#002033" stroke-opacity="0.5" stroke-width="3" stroke-linecap="round"/>
<path d="M142.834 161.289H144.525" stroke="#002033" stroke-opacity="0.5" stroke-width="3" stroke-linecap="round"/>
<path d="M126.26 167.378C127.934 165.792 130.073 165.072 132.01 166.363" stroke="#002033" stroke-opacity="0.5" stroke-width="3" stroke-linecap="round"/>
<path d="M134.377 173.805C135.97 173.805 137.516 173.467 139.113 173.467" stroke="#002033" stroke-opacity="0.5" stroke-width="3" stroke-linecap="round"/>
<path d="M142.158 177.188H143.849" stroke="#002033" stroke-opacity="0.5" stroke-width="3" stroke-linecap="round"/>
<path d="M126.936 181.246H128.627" stroke="#002033" stroke-opacity="0.5" stroke-width="3" stroke-linecap="round"/>
<path d="M134.039 185.981C135.458 185.545 136.976 185.57 138.436 185.305" stroke="#002033" stroke-opacity="0.5" stroke-width="3" stroke-linecap="round"/>
<path d="M140.467 189.702C141.35 189.702 142.05 189.648 142.835 190.04" stroke="#002033" stroke-opacity="0.5" stroke-width="3" stroke-linecap="round"/>
<path d="M124.906 191.395C125.097 190.949 127.433 191.668 127.951 191.733" stroke="#002033" stroke-opacity="0.5" stroke-width="3" stroke-linecap="round"/>
<path d="M134.377 197.821C135.751 197.696 137.037 197.482 138.436 197.482" stroke="#002033" stroke-opacity="0.5" stroke-width="3" stroke-linecap="round"/>
<path d="M121.186 202.218C121.343 200.801 124.263 201.203 125.245 201.203" stroke="#002033" stroke-opacity="0.5" stroke-width="3" stroke-linecap="round"/>
<path d="M128.29 211.689C128.29 209.648 127.973 207.299 128.309 205.281C128.797 202.351 129.986 204.502 131.673 204.586C132.275 204.616 133.824 204.278 134.303 204.661C134.956 205.183 134.379 206.474 134.379 207.273C134.379 208.303 133.74 209.172 133.74 210.13C133.74 210.607 134.04 211.386 134.04 212.028" stroke="#002033" stroke-opacity="0.5" stroke-width="3" stroke-linecap="round"/>
<path d="M138.775 205.6C139.717 205.6 140.596 205.744 141.143 204.924" stroke="#002033" stroke-opacity="0.5" stroke-width="3" stroke-linecap="round"/>
<path d="M79.3016 155.91C79.3016 158.51 78.5447 161.193 78.9654 163.764C79.2548 165.533 79.7701 167.112 79.7858 168.929C79.8015 170.757 79.7858 172.587 79.7858 174.416C79.7858 176.962 79.7858 179.509 79.7858 182.055C79.7858 184.652 79.2191 187.193 79.0461 189.788C78.8195 193.187 78.3333 196.423 78.3333 199.848C78.3333 202.254 78.0912 204.675 78.0912 207.097C78.0912 207.765 77.8083 211.964 78.2391 212.06C79.6684 212.378 81.446 211.589 82.9329 211.589C84.6275 211.589 86.3221 211.589 88.0167 211.589C91.3497 211.589 94.7083 212.316 98.0632 212.316C99.8912 212.316 99.3249 211.355 99.7713 209.76C100.501 207.155 100.99 204.376 101.103 201.677C101.261 197.876 101.331 194.098 101.331 190.286C101.331 184.905 102.355 179.709 101.869 174.308C101.573 171.015 101.816 167.607 101.816 164.302C101.816 161.787 101.573 159.291 101.573 156.771C101.573 153.039 101.279 149.416 100.847 145.742C100.74 144.828 95.9927 145.016 95.333 145.016C92.7552 145.016 90.2466 145.468 87.6939 145.5C86.6306 145.514 78.8457 145.236 78.8174 146.226C78.7543 148.437 78.9475 150.946 79.5975 153.059C80.0049 154.383 79.7858 155.977 79.7858 157.362" stroke="#002033" stroke-opacity="0.5" stroke-width="3" stroke-linecap="round"/>
<path d="M83.6582 152.035C84.1658 151.984 84.5862 151.793 85.1107 151.793" stroke="#002033" stroke-opacity="0.5" stroke-width="3" stroke-linecap="round"/>
<path d="M92.1328 152.521C92.177 152.168 93.4514 152.162 93.8274 152.037" stroke="#002033" stroke-opacity="0.5" stroke-width="3" stroke-linecap="round"/>
<path d="M97.6992 153.246H98.4255" stroke="#002033" stroke-opacity="0.5" stroke-width="3" stroke-linecap="round"/>
<path d="M86.0801 161.236C86.0801 160.033 87.9385 160.588 88.5009 160.025" stroke="#002033" stroke-opacity="0.5" stroke-width="3" stroke-linecap="round"/>
<path d="M93.8262 160.75H94.7945" stroke="#002033" stroke-opacity="0.5" stroke-width="3" stroke-linecap="round"/>
<path d="M83.416 168.254C83.6247 167.42 87.8954 167.77 88.7419 167.77" stroke="#002033" stroke-opacity="0.5" stroke-width="3" stroke-linecap="round"/>
<path d="M92.8574 169.951C94.083 169.678 94.7521 168.498 96.2466 168.498" stroke="#002033" stroke-opacity="0.5" stroke-width="3" stroke-linecap="round"/>
<path d="M96.4883 174.551H97.6987" stroke="#002033" stroke-opacity="0.5" stroke-width="3" stroke-linecap="round"/>
<path d="M84.627 178.908C85.8254 177.773 87.356 177.258 88.7424 178.182" stroke="#002033" stroke-opacity="0.5" stroke-width="3" stroke-linecap="round"/>
<path d="M90.4355 183.508C91.5754 183.508 92.6823 183.266 93.8247 183.266" stroke="#002033" stroke-opacity="0.5" stroke-width="3" stroke-linecap="round"/>
<path d="M96.0059 185.928H97.2163" stroke="#002033" stroke-opacity="0.5" stroke-width="3" stroke-linecap="round"/>
<path d="M85.1113 188.834H86.3218" stroke="#002033" stroke-opacity="0.5" stroke-width="3" stroke-linecap="round"/>
<path d="M90.1953 192.222C91.2108 191.91 92.297 191.928 93.3424 191.738" stroke="#002033" stroke-opacity="0.5" stroke-width="3" stroke-linecap="round"/>
<path d="M94.7949 194.885C95.427 194.885 95.9281 194.846 96.4895 195.127" stroke="#002033" stroke-opacity="0.5" stroke-width="3" stroke-linecap="round"/>
<path d="M83.6582 196.096C83.7948 195.777 85.4666 196.291 85.837 196.338" stroke="#002033" stroke-opacity="0.5" stroke-width="3" stroke-linecap="round"/>
<path d="M90.4355 200.695C91.4192 200.606 92.3395 200.453 93.3406 200.453" stroke="#002033" stroke-opacity="0.5" stroke-width="3" stroke-linecap="round"/>
<path d="M80.9961 203.842C81.1087 202.828 83.1988 203.116 83.9011 203.116" stroke="#002033" stroke-opacity="0.5" stroke-width="3" stroke-linecap="round"/>
<path d="M86.0795 210.62C86.0795 209.159 85.8523 207.478 86.093 206.034C86.4425 203.937 87.2936 205.476 88.5004 205.537C88.9318 205.558 90.0405 205.316 90.3833 205.59C90.8505 205.964 90.4371 206.888 90.4371 207.46C90.4371 208.197 89.9798 208.819 89.9798 209.504C89.9798 209.846 90.195 210.403 90.195 210.862" stroke="#002033" stroke-opacity="0.5" stroke-width="3" stroke-linecap="round"/>
<path d="M93.584 206.263C94.258 206.263 94.8872 206.366 95.2786 205.779" stroke="#002033" stroke-opacity="0.5" stroke-width="3" stroke-linecap="round"/>
<path d="M167.03 167.637C167.03 169.695 166.431 171.82 166.764 173.855C166.993 175.255 167.401 176.505 167.414 177.944C167.426 179.391 167.414 180.84 167.414 182.288C167.414 184.304 167.414 186.319 167.414 188.335C167.414 190.391 166.965 192.403 166.828 194.457C166.649 197.148 166.264 199.71 166.264 202.422C166.264 204.326 166.072 206.243 166.072 208.16C166.072 208.689 165.848 212.014 166.189 212.089C167.321 212.341 168.728 211.717 169.905 211.717C171.247 211.717 172.588 211.717 173.93 211.717C176.569 211.717 179.227 212.292 181.883 212.292C183.331 212.292 182.882 211.531 183.236 210.269C183.813 208.206 184.201 206.006 184.29 203.87C184.415 200.86 184.471 197.869 184.471 194.851C184.471 190.592 185.281 186.478 184.897 182.202C184.662 179.595 184.854 176.897 184.854 174.281C184.854 172.289 184.662 170.313 184.662 168.318C184.662 165.364 184.429 162.496 184.087 159.588C184.002 158.864 180.244 159.013 179.722 159.013C177.681 159.013 175.695 159.371 173.674 159.396C172.833 159.407 166.67 159.187 166.647 159.971C166.597 161.721 166.75 163.707 167.265 165.38C167.587 166.428 167.414 167.69 167.414 168.787" stroke="#002033" stroke-opacity="0.5" stroke-width="3" stroke-linecap="round"/>
<path d="M170.479 164.569C170.88 164.528 171.213 164.377 171.628 164.377" stroke="#002033" stroke-opacity="0.5" stroke-width="3" stroke-linecap="round"/>
<path d="M177.188 164.954C177.222 164.674 178.231 164.67 178.529 164.57" stroke="#002033" stroke-opacity="0.5" stroke-width="3" stroke-linecap="round"/>
<path d="M181.596 165.527H182.171" stroke="#002033" stroke-opacity="0.5" stroke-width="3" stroke-linecap="round"/>
<path d="M172.396 171.853C172.396 170.901 173.868 171.34 174.313 170.895" stroke="#002033" stroke-opacity="0.5" stroke-width="3" stroke-linecap="round"/>
<path d="M178.529 171.469H179.296" stroke="#002033" stroke-opacity="0.5" stroke-width="3" stroke-linecap="round"/>
<path d="M170.287 177.41C170.452 176.749 173.833 177.027 174.503 177.027" stroke="#002033" stroke-opacity="0.5" stroke-width="3" stroke-linecap="round"/>
<path d="M177.762 178.753C178.732 178.538 179.262 177.604 180.445 177.604" stroke="#002033" stroke-opacity="0.5" stroke-width="3" stroke-linecap="round"/>
<path d="M180.637 182.395H181.595" stroke="#002033" stroke-opacity="0.5" stroke-width="3" stroke-linecap="round"/>
<path d="M171.246 185.843C172.195 184.944 173.407 184.536 174.504 185.268" stroke="#002033" stroke-opacity="0.5" stroke-width="3" stroke-linecap="round"/>
<path d="M175.846 189.485C176.748 189.485 177.624 189.293 178.529 189.293" stroke="#002033" stroke-opacity="0.5" stroke-width="3" stroke-linecap="round"/>
<path d="M180.254 191.4H181.212" stroke="#002033" stroke-opacity="0.5" stroke-width="3" stroke-linecap="round"/>
<path d="M171.629 193.701H172.587" stroke="#002033" stroke-opacity="0.5" stroke-width="3" stroke-linecap="round"/>
<path d="M175.654 196.385C176.458 196.138 177.318 196.152 178.146 196.002" stroke="#002033" stroke-opacity="0.5" stroke-width="3" stroke-linecap="round"/>
<path d="M179.297 198.492C179.797 198.492 180.194 198.461 180.638 198.683" stroke="#002033" stroke-opacity="0.5" stroke-width="3" stroke-linecap="round"/>
<path d="M170.479 199.451C170.587 199.199 171.91 199.606 172.203 199.643" stroke="#002033" stroke-opacity="0.5" stroke-width="3" stroke-linecap="round"/>
<path d="M175.846 203.092C176.624 203.021 177.353 202.9 178.146 202.9" stroke="#002033" stroke-opacity="0.5" stroke-width="3" stroke-linecap="round"/>
<path d="M168.371 205.583C168.46 204.781 170.115 205.008 170.671 205.008" stroke="#002033" stroke-opacity="0.5" stroke-width="3" stroke-linecap="round"/>
<path d="M172.397 210.95C172.397 209.793 172.217 208.462 172.408 207.319C172.685 205.659 173.358 206.877 174.314 206.925C174.655 206.942 175.533 206.751 175.804 206.968C176.174 207.264 175.847 207.995 175.847 208.448C175.847 209.031 175.485 209.523 175.485 210.066C175.485 210.336 175.655 210.778 175.655 211.141" stroke="#002033" stroke-opacity="0.5" stroke-width="3" stroke-linecap="round"/>
<path d="M178.338 207.5C178.871 207.5 179.37 207.582 179.679 207.117" stroke="#002033" stroke-opacity="0.5" stroke-width="3" stroke-linecap="round"/>
<path d="M130.851 4C131.788 14.0247 128 23.9783 128 34" stroke="#002033" stroke-opacity="0.5" stroke-width="3" stroke-linecap="round"/>
<path d="M131.646 2.01739C132.5 3.55471 133.459 5.15078 134.447 6.60062C135.402 8.00354 137.12 10.2282 137.12 12.0623C137.12 12.6419 136.076 11.0458 136 10.942C135.335 10.0395 134.726 9.01231 134.294 7.97559C133.729 6.62113 133.025 5.23947 132.562 3.85068C132.281 3.00524 132.3 2.01739 131.187 2.01739C130.37 2.01739 129.632 1.84233 129.125 2.60303C128.186 4.01143 127.774 5.58432 127.393 7.21172C126.779 9.83654 125.695 12.3015 125 14.8504" stroke="#002033" stroke-opacity="0.5" stroke-width="3" stroke-linecap="round"/>
</svg>
