<svg width="263" height="197" viewBox="0 0 263 197" fill="none" xmlns="http://www.w3.org/2000/svg">
<path d="M2.35138 16.6367V12.6044H3.07049C3.31552 12.3984 3.54457 12.1055 3.75764 11.7255C3.9707 11.3455 4.15181 10.8324 4.30096 10.1861C4.45011 9.53977 4.55309 8.71058 4.60991 7.69851L4.86559 3.09091H11.5932V12.6044H12.829V16.6207H11.2523V14H3.92809V16.6367H2.35138ZM5.00941 12.6044H10.0165V4.50781H6.35707L6.18661 7.69851C6.14045 8.46911 6.0641 9.16158 5.95756 9.77592C5.85458 10.3903 5.72141 10.9336 5.55806 11.4059C5.39826 11.8746 5.21538 12.2741 5.00941 12.6044ZM13.8597 14L13.8544 12.6204H14.1474C14.3746 12.6204 14.5646 12.5724 14.7173 12.4766C14.8736 12.3771 15.0014 12.2102 15.1009 11.9759C15.2003 11.7415 15.2766 11.4183 15.3299 11.0064C15.3832 10.5909 15.4222 10.0689 15.4471 9.44034L15.5909 5.81818H21.3011V14H19.7404V7.19247H17.0664L16.9386 9.97301C16.9066 10.6477 16.8374 11.2372 16.7308 11.7415C16.6278 12.2457 16.4769 12.6665 16.2781 13.0039C16.0792 13.3377 15.8235 13.5881 15.511 13.755C15.1985 13.9183 14.8185 14 14.3711 14H13.8597ZM28.3044 14V7.17649H26.3442C25.879 7.17649 25.5168 7.2848 25.2575 7.50142C24.9983 7.71804 24.8687 8.00213 24.8687 8.35369C24.8687 8.7017 24.9877 8.98224 25.2256 9.19531C25.4671 9.40483 25.8044 9.50959 26.2377 9.50959H28.7678V10.7987H26.2377C25.634 10.7987 25.1119 10.6992 24.6716 10.5004C24.2348 10.2979 23.8975 10.0121 23.6595 9.64276C23.4252 9.27344 23.308 8.83665 23.308 8.33239C23.308 7.81747 23.4287 7.37358 23.6702 7.00071C23.9152 6.62429 24.265 6.3331 24.7195 6.12713C25.1776 5.92116 25.7192 5.81818 26.3442 5.81818H29.8012V14H28.3044ZM22.9351 14L25.2416 9.86648H26.8715L24.5651 14H22.9351ZM41.4361 9.22195V10.6016H37.0043V9.22195H41.4361ZM37.4517 5.81818V14H35.891V5.81818H37.4517ZM42.5494 5.81818V14H40.994V5.81818H42.5494ZM47.0611 14.1811C46.5426 14.1811 46.0739 14.0852 45.6548 13.8935C45.2358 13.6982 44.9038 13.4158 44.6587 13.0465C44.4173 12.6772 44.2965 12.2244 44.2965 11.6882C44.2965 11.2266 44.3853 10.8466 44.5629 10.5483C44.7404 10.25 44.9801 10.0138 45.282 9.83984C45.5838 9.66584 45.9212 9.53445 46.294 9.44567C46.6669 9.35689 47.0469 9.28942 47.4339 9.24325C47.924 9.18643 48.3217 9.14027 48.6271 9.10476C48.9325 9.0657 49.1545 9.00355 49.293 8.91832C49.4315 8.8331 49.5007 8.6946 49.5007 8.50284V8.46555C49.5007 8.00035 49.3693 7.63991 49.1065 7.38423C48.8473 7.12855 48.4602 7.00071 47.9453 7.00071C47.4091 7.00071 46.9865 7.11967 46.6776 7.3576C46.3722 7.59197 46.1609 7.85298 46.0437 8.14062L44.5469 7.79972C44.7244 7.30256 44.9837 6.90128 45.3246 6.59588C45.669 6.28693 46.065 6.06321 46.5124 5.92472C46.9599 5.78267 47.4304 5.71165 47.924 5.71165C48.2507 5.71165 48.5969 5.75071 48.9627 5.82884C49.332 5.90341 49.6765 6.0419 49.9961 6.24432C50.3192 6.44673 50.5838 6.73615 50.7898 7.11257C50.9957 7.48544 51.0987 7.97017 51.0987 8.56676V14H49.5433V12.8814H49.4794C49.3764 13.0874 49.2219 13.2898 49.016 13.4886C48.81 13.6875 48.5455 13.8526 48.2223 13.984C47.8991 14.1154 47.5121 14.1811 47.0611 14.1811ZM47.4073 12.9027C47.8477 12.9027 48.2241 12.8157 48.5366 12.6417C48.8526 12.4677 49.0923 12.2404 49.2557 11.9599C49.4226 11.6758 49.506 11.3722 49.506 11.049V9.99432C49.4492 10.0511 49.3391 10.1044 49.1758 10.1541C49.016 10.2003 48.8331 10.2411 48.6271 10.2766C48.4212 10.3086 48.2205 10.3388 48.0252 10.3672C47.8299 10.392 47.6665 10.4134 47.5352 10.4311C47.2262 10.4702 46.9439 10.5359 46.6882 10.6282C46.4361 10.7205 46.2337 10.8537 46.081 11.0277C45.9318 11.1982 45.8572 11.4254 45.8572 11.7095C45.8572 12.1037 46.0028 12.402 46.294 12.6044C46.5852 12.8033 46.9563 12.9027 47.4073 12.9027ZM59.7879 5.81818V14H58.2325V5.81818H59.7879ZM59.1114 9.61612V10.9904C58.8664 11.0898 58.6072 11.1786 58.3337 11.2567C58.0603 11.3313 57.7726 11.3899 57.4708 11.4325C57.1689 11.4751 56.8547 11.4964 56.528 11.4964C55.5159 11.4964 54.7116 11.2496 54.115 10.756C53.5184 10.2589 53.2201 9.49893 53.2201 8.47621V5.8022H54.7702V8.47621C54.7702 8.86328 54.8412 9.17756 54.9832 9.41903C55.1253 9.66051 55.3277 9.83807 55.5905 9.9517C55.8532 10.0653 56.1657 10.1222 56.528 10.1222C57.0074 10.1222 57.4495 10.0778 57.8543 9.98899C58.2627 9.89666 58.6817 9.77237 59.1114 9.61612ZM64.2876 14.1811C63.7692 14.1811 63.3004 14.0852 62.8814 13.8935C62.4624 13.6982 62.1303 13.4158 61.8853 13.0465C61.6438 12.6772 61.5231 12.2244 61.5231 11.6882C61.5231 11.2266 61.6119 10.8466 61.7894 10.5483C61.967 10.25 62.2067 10.0138 62.5085 9.83984C62.8104 9.66584 63.1477 9.53445 63.5206 9.44567C63.8935 9.35689 64.2734 9.28942 64.6605 9.24325C65.1506 9.18643 65.5483 9.14027 65.8537 9.10476C66.1591 9.0657 66.381 9.00355 66.5195 8.91832C66.658 8.8331 66.7273 8.6946 66.7273 8.50284V8.46555C66.7273 8.00035 66.5959 7.63991 66.3331 7.38423C66.0739 7.12855 65.6868 7.00071 65.1719 7.00071C64.6357 7.00071 64.2131 7.11967 63.9041 7.3576C63.5987 7.59197 63.3874 7.85298 63.2702 8.14062L61.7734 7.79972C61.951 7.30256 62.2102 6.90128 62.5511 6.59588C62.8956 6.28693 63.2915 6.06321 63.739 5.92472C64.1864 5.78267 64.657 5.71165 65.1506 5.71165C65.4773 5.71165 65.8235 5.75071 66.1893 5.82884C66.5586 5.90341 66.9031 6.0419 67.2227 6.24432C67.5458 6.44673 67.8104 6.73615 68.0163 7.11257C68.2223 7.48544 68.3253 7.97017 68.3253 8.56676V14H66.7699V12.8814H66.706C66.603 13.0874 66.4485 13.2898 66.2425 13.4886C66.0366 13.6875 65.772 13.8526 65.4489 13.984C65.1257 14.1154 64.7386 14.1811 64.2876 14.1811ZM64.6339 12.9027C65.0742 12.9027 65.4506 12.8157 65.7631 12.6417C66.0792 12.4677 66.3189 12.2404 66.4822 11.9599C66.6491 11.6758 66.7326 11.3722 66.7326 11.049V9.99432C66.6758 10.0511 66.5657 10.1044 66.4023 10.1541C66.2425 10.2003 66.0597 10.2411 65.8537 10.2766C65.6477 10.3086 65.4471 10.3388 65.2518 10.3672C65.0565 10.392 64.8931 10.4134 64.7617 10.4311C64.4528 10.4702 64.1705 10.5359 63.9148 10.6282C63.6626 10.7205 63.4602 10.8537 63.3075 11.0277C63.1584 11.1982 63.0838 11.4254 63.0838 11.7095C63.0838 12.1037 63.2294 12.402 63.5206 12.6044C63.8118 12.8033 64.1829 12.9027 64.6339 12.9027ZM69.8021 14L69.7968 12.6204H70.0898C70.317 12.6204 70.507 12.5724 70.6597 12.4766C70.816 12.3771 70.9438 12.2102 71.0432 11.9759C71.1427 11.7415 71.219 11.4183 71.2723 11.0064C71.3256 10.5909 71.3646 10.0689 71.3895 9.44034L71.5333 5.81818H77.2435V14H75.6828V7.19247H73.0088L72.8809 9.97301C72.849 10.6477 72.7797 11.2372 72.6732 11.7415C72.5702 12.2457 72.4193 12.6665 72.2204 13.0039C72.0216 13.3377 71.7659 13.5881 71.4534 13.755C71.1409 13.9183 70.7609 14 70.3135 14H69.8021ZM81.7486 14.1811C81.2301 14.1811 80.7614 14.0852 80.3423 13.8935C79.9233 13.6982 79.5913 13.4158 79.3462 13.0465C79.1048 12.6772 78.984 12.2244 78.984 11.6882C78.984 11.2266 79.0728 10.8466 79.2504 10.5483C79.4279 10.25 79.6676 10.0138 79.9695 9.83984C80.2713 9.66584 80.6087 9.53445 80.9815 9.44567C81.3544 9.35689 81.7344 9.28942 82.1214 9.24325C82.6115 9.18643 83.0092 9.14027 83.3146 9.10476C83.62 9.0657 83.842 9.00355 83.9805 8.91832C84.119 8.8331 84.1882 8.6946 84.1882 8.50284V8.46555C84.1882 8.00035 84.0568 7.63991 83.794 7.38423C83.5348 7.12855 83.1477 7.00071 82.6328 7.00071C82.0966 7.00071 81.674 7.11967 81.3651 7.3576C81.0597 7.59197 80.8484 7.85298 80.7312 8.14062L79.2344 7.79972C79.4119 7.30256 79.6712 6.90128 80.0121 6.59588C80.3565 6.28693 80.7525 6.06321 81.1999 5.92472C81.6474 5.78267 82.1179 5.71165 82.6115 5.71165C82.9382 5.71165 83.2844 5.75071 83.6502 5.82884C84.0195 5.90341 84.364 6.0419 84.6836 6.24432C85.0067 6.44673 85.2713 6.73615 85.4773 7.11257C85.6832 7.48544 85.7862 7.97017 85.7862 8.56676V14H84.2308V12.8814H84.1669C84.0639 13.0874 83.9094 13.2898 83.7035 13.4886C83.4975 13.6875 83.233 13.8526 82.9098 13.984C82.5866 14.1154 82.1996 14.1811 81.7486 14.1811ZM82.0948 12.9027C82.5352 12.9027 82.9116 12.8157 83.2241 12.6417C83.5401 12.4677 83.7798 12.2404 83.9432 11.9599C84.1101 11.6758 84.1935 11.3722 84.1935 11.049V9.99432C84.1367 10.0511 84.0266 10.1044 83.8633 10.1541C83.7035 10.2003 83.5206 10.2411 83.3146 10.2766C83.1087 10.3086 82.908 10.3388 82.7127 10.3672C82.5174 10.392 82.354 10.4134 82.2227 10.4311C81.9137 10.4702 81.6314 10.5359 81.3757 10.6282C81.1236 10.7205 80.9212 10.8537 80.7685 11.0277C80.6193 11.1982 80.5447 11.4254 80.5447 11.7095C80.5447 12.1037 80.6903 12.402 80.9815 12.6044C81.2727 12.8033 81.6438 12.9027 82.0948 12.9027ZM91.8773 14V5.81818H95.2704C96.1937 5.81818 96.9252 6.01527 97.465 6.40945C98.0048 6.80007 98.2747 7.33097 98.2747 8.00213C98.2747 8.48153 98.122 8.86151 97.8166 9.14205C97.5112 9.42259 97.1064 9.6108 96.6021 9.70668C96.9679 9.74929 97.3034 9.85937 97.6088 10.0369C97.9142 10.2109 98.1593 10.4453 98.3439 10.7401C98.5321 11.0348 98.6262 11.3864 98.6262 11.7947C98.6262 12.228 98.5144 12.6115 98.2907 12.9453C98.0669 13.2756 97.742 13.5348 97.3159 13.723C96.8933 13.9077 96.3837 14 95.7871 14H91.8773ZM93.3741 12.6683H95.7871C96.1813 12.6683 96.4902 12.5742 96.714 12.386C96.9377 12.1978 97.0495 11.9421 97.0495 11.619C97.0495 11.239 96.9377 10.9407 96.714 10.7241C96.4902 10.5039 96.1813 10.3938 95.7871 10.3938H93.3741V12.6683ZM93.3741 9.22727H95.2864C95.5847 9.22727 95.8404 9.18466 96.0534 9.09943C96.2701 9.0142 96.4352 8.89347 96.5488 8.73722C96.666 8.57741 96.7246 8.3892 96.7246 8.17258C96.7246 7.85653 96.595 7.60973 96.3358 7.43217C96.0765 7.25462 95.7214 7.16584 95.2704 7.16584H93.3741V9.22727ZM101.572 8.63068H103.948C104.949 8.63068 105.72 8.87926 106.259 9.37642C106.799 9.87358 107.069 10.5146 107.069 11.2994C107.069 11.8107 106.948 12.2706 106.707 12.679C106.465 13.0874 106.112 13.4105 105.647 13.6484C105.182 13.8828 104.615 14 103.948 14H100.373V5.81818H101.934V12.6257H103.948C104.406 12.6257 104.782 12.5067 105.077 12.2688C105.372 12.0273 105.519 11.7202 105.519 11.3473C105.519 10.9531 105.372 10.6317 105.077 10.3832C104.782 10.131 104.406 10.005 103.948 10.005H101.572V8.63068ZM108.23 14V5.81818H109.823V14H108.23ZM118.272 2.77131L118.933 3.77805C118.688 4.00178 118.409 4.16158 118.097 4.25746C117.788 4.34979 117.431 4.40838 117.026 4.43324C116.621 4.45455 116.158 4.47408 115.636 4.49183C115.046 4.50959 114.562 4.63743 114.182 4.87535C113.802 5.10973 113.509 5.45774 113.303 5.91939C113.1 6.37749 112.969 6.95277 112.908 7.64524H113.01C113.276 7.13743 113.645 6.75746 114.118 6.50533C114.593 6.2532 115.128 6.12713 115.721 6.12713C116.381 6.12713 116.969 6.27805 117.484 6.5799C117.999 6.88175 118.404 7.32386 118.699 7.90625C118.997 8.48509 119.146 9.19354 119.146 10.0316C119.146 10.8803 118.99 11.6136 118.677 12.2315C118.368 12.8494 117.932 13.3271 117.367 13.6644C116.806 13.9982 116.144 14.1651 115.38 14.1651C114.617 14.1651 113.951 13.9929 113.383 13.6484C112.818 13.3004 112.379 12.7855 112.067 12.1037C111.758 11.4219 111.603 10.5803 111.603 9.57884V8.76918C111.603 6.89773 111.937 5.4897 112.605 4.5451C113.272 3.6005 114.27 3.11577 115.598 3.09091C116.028 3.08026 116.412 3.07848 116.749 3.08558C117.086 3.08913 117.381 3.07315 117.633 3.03764C117.889 2.99858 118.102 2.9098 118.272 2.77131ZM115.385 12.8281C115.829 12.8281 116.211 12.7163 116.531 12.4925C116.854 12.2653 117.102 11.9439 117.276 11.5284C117.45 11.1129 117.537 10.6229 117.537 10.0582C117.537 9.50426 117.45 9.03374 117.276 8.64666C117.102 8.25959 116.854 7.96484 116.531 7.76243C116.207 7.55646 115.82 7.45348 115.369 7.45348C115.036 7.45348 114.737 7.51207 114.475 7.62926C114.212 7.7429 113.986 7.91158 113.798 8.1353C113.613 8.35902 113.47 8.63246 113.367 8.95561C113.267 9.27521 113.214 9.64276 113.207 10.0582C113.207 10.9034 113.4 11.5763 113.787 12.0771C114.178 12.5778 114.711 12.8281 115.385 12.8281ZM124.451 14.1651C123.645 14.1651 122.951 13.9929 122.369 13.6484C121.79 13.3004 121.342 12.8121 121.026 12.1836C120.714 11.5515 120.558 10.8111 120.558 9.96236C120.558 9.12429 120.714 8.38565 121.026 7.74645C121.342 7.10724 121.783 6.60831 122.347 6.24964C122.916 5.89098 123.58 5.71165 124.34 5.71165C124.801 5.71165 125.249 5.788 125.682 5.9407C126.115 6.09339 126.504 6.3331 126.848 6.6598C127.193 6.98651 127.465 7.41087 127.663 7.93288C127.862 8.45135 127.962 9.08168 127.962 9.82386V10.3885H121.458V9.19531H126.401C126.401 8.77628 126.316 8.40518 126.145 8.08203C125.975 7.75533 125.735 7.49787 125.426 7.30966C125.121 7.12145 124.762 7.02734 124.35 7.02734C123.903 7.02734 123.512 7.13743 123.178 7.3576C122.848 7.57422 122.592 7.85831 122.411 8.20987C122.234 8.55788 122.145 8.93608 122.145 9.34446V10.2766C122.145 10.8235 122.241 11.2887 122.433 11.6722C122.628 12.0558 122.9 12.3487 123.248 12.5511C123.596 12.75 124.002 12.8494 124.467 12.8494C124.769 12.8494 125.044 12.8068 125.293 12.7216C125.542 12.6328 125.756 12.5014 125.938 12.3274C126.119 12.1534 126.257 11.9386 126.353 11.6829L127.861 11.9545C127.74 12.3984 127.523 12.7873 127.211 13.1211C126.902 13.4513 126.513 13.7088 126.044 13.8935C125.579 14.0746 125.048 14.1651 124.451 14.1651ZM129.729 17.0682V5.81818H131.284V7.14453H131.417C131.51 6.97408 131.643 6.77699 131.817 6.55327C131.991 6.32955 132.232 6.13423 132.541 5.96733C132.85 5.79688 133.259 5.71165 133.767 5.71165C134.427 5.71165 135.017 5.87855 135.535 6.21236C136.053 6.54616 136.46 7.02734 136.755 7.65589C137.053 8.28445 137.202 9.04084 137.202 9.92507C137.202 10.8093 137.055 11.5675 136.76 12.1996C136.465 12.8281 136.061 13.3129 135.546 13.6538C135.031 13.9911 134.443 14.1598 133.782 14.1598C133.285 14.1598 132.879 14.0763 132.563 13.9094C132.25 13.7425 132.005 13.5472 131.828 13.3235C131.65 13.0998 131.513 12.9009 131.417 12.7269H131.322V17.0682H129.729ZM131.29 9.90909C131.29 10.4844 131.373 10.9886 131.54 11.4219C131.707 11.8551 131.948 12.1942 132.264 12.4393C132.58 12.6808 132.968 12.8015 133.426 12.8015C133.901 12.8015 134.299 12.6754 134.619 12.4233C134.938 12.1676 135.18 11.8214 135.343 11.3846C135.51 10.9478 135.594 10.456 135.594 9.90909C135.594 9.36932 135.512 8.88459 135.349 8.4549C135.189 8.02521 134.947 7.68608 134.624 7.4375C134.305 7.18892 133.905 7.06463 133.426 7.06463C132.964 7.06463 132.573 7.18359 132.254 7.42152C131.938 7.65945 131.698 7.99148 131.535 8.41761C131.371 8.84375 131.29 9.34091 131.29 9.90909ZM140.547 11.7681L144.154 5.81818H145.869V14H144.308V8.04474L140.718 14H138.987V5.81818H140.547V11.7681ZM155.426 14.1651C154.634 14.1651 153.953 13.9858 153.381 13.6271C152.813 13.2649 152.376 12.766 152.07 12.1303C151.765 11.4947 151.612 10.7667 151.612 9.94638C151.612 9.11541 151.769 8.3821 152.081 7.74645C152.394 7.10724 152.834 6.60831 153.402 6.24964C153.97 5.89098 154.64 5.71165 155.41 5.71165C156.032 5.71165 156.586 5.82706 157.072 6.05788C157.559 6.28516 157.951 6.60476 158.249 7.01669C158.551 7.42862 158.731 7.9098 158.787 8.46023H157.237C157.152 8.0767 156.957 7.74645 156.651 7.46946C156.35 7.19247 155.945 7.05398 155.437 7.05398C154.993 7.05398 154.604 7.17116 154.27 7.40554C153.94 7.63636 153.683 7.96662 153.498 8.39631C153.313 8.82244 153.221 9.3267 153.221 9.90909C153.221 10.5057 153.312 11.0206 153.493 11.4538C153.674 11.8871 153.929 12.2227 154.26 12.4606C154.593 12.6985 154.986 12.8175 155.437 12.8175C155.739 12.8175 156.012 12.7624 156.257 12.6523C156.506 12.5387 156.714 12.3771 156.88 12.1676C157.051 11.9581 157.17 11.706 157.237 11.4112H158.787C158.731 11.9403 158.558 12.4126 158.271 12.8281C157.983 13.2436 157.598 13.5703 157.115 13.8082C156.635 14.0462 156.073 14.1651 155.426 14.1651ZM160.491 14V5.81818H163.884C164.807 5.81818 165.539 6.01527 166.078 6.40945C166.618 6.80007 166.888 7.33097 166.888 8.00213C166.888 8.48153 166.735 8.86151 166.43 9.14205C166.124 9.42259 165.72 9.6108 165.215 9.70668C165.581 9.74929 165.917 9.85937 166.222 10.0369C166.528 10.2109 166.773 10.4453 166.957 10.7401C167.145 11.0348 167.24 11.3864 167.24 11.7947C167.24 12.228 167.128 12.6115 166.904 12.9453C166.68 13.2756 166.355 13.5348 165.929 13.723C165.507 13.9077 164.997 14 164.4 14H160.491ZM161.987 12.6683H164.4C164.795 12.6683 165.104 12.5742 165.327 12.386C165.551 12.1978 165.663 11.9421 165.663 11.619C165.663 11.239 165.551 10.9407 165.327 10.7241C165.104 10.5039 164.795 10.3938 164.4 10.3938H161.987V12.6683ZM161.987 9.22727H163.9C164.198 9.22727 164.454 9.18466 164.667 9.09943C164.883 9.0142 165.048 8.89347 165.162 8.73722C165.279 8.57741 165.338 8.3892 165.338 8.17258C165.338 7.85653 165.208 7.60973 164.949 7.43217C164.69 7.25462 164.335 7.16584 163.884 7.16584H161.987V9.22727ZM172.433 14.1651C171.666 14.1651 170.997 13.9893 170.425 13.6378C169.853 13.2862 169.409 12.7944 169.093 12.1623C168.777 11.5302 168.619 10.7915 168.619 9.94638C168.619 9.09766 168.777 8.35547 169.093 7.71982C169.409 7.08416 169.853 6.59055 170.425 6.23899C170.997 5.88743 171.666 5.71165 172.433 5.71165C173.2 5.71165 173.869 5.88743 174.441 6.23899C175.013 6.59055 175.457 7.08416 175.773 7.71982C176.089 8.35547 176.247 9.09766 176.247 9.94638C176.247 10.7915 176.089 11.5302 175.773 12.1623C175.457 12.7944 175.013 13.2862 174.441 13.6378C173.869 13.9893 173.2 14.1651 172.433 14.1651ZM172.438 12.8281C172.936 12.8281 173.347 12.6967 173.674 12.4339C174.001 12.1712 174.242 11.8214 174.399 11.3846C174.558 10.9478 174.638 10.4666 174.638 9.94105C174.638 9.41903 174.558 8.93963 174.399 8.50284C174.242 8.0625 174.001 7.70916 173.674 7.44283C173.347 7.17649 172.936 7.04332 172.438 7.04332C171.938 7.04332 171.522 7.17649 171.192 7.44283C170.865 7.70916 170.622 8.0625 170.462 8.50284C170.306 8.93963 170.228 9.41903 170.228 9.94105C170.228 10.4666 170.306 10.9478 170.462 11.3846C170.622 11.8214 170.865 12.1712 171.192 12.4339C171.522 12.6967 171.938 12.8281 172.438 12.8281ZM182.142 9.28054V10.6655H177.78V9.28054H182.142ZM179.074 5.81818V14H177.481V5.81818H179.074ZM184.635 14.1651C183.875 14.1651 183.211 13.9876 182.643 13.6325C182.075 13.2773 181.634 12.7837 181.322 12.1516C181.009 11.516 180.853 10.7791 180.853 9.94105C180.853 9.09588 181.009 8.35724 181.322 7.72514C181.634 7.08949 182.075 6.59588 182.643 6.24432C183.211 5.8892 183.875 5.71165 184.635 5.71165C185.399 5.71165 186.063 5.8892 186.627 6.24432C187.196 6.59588 187.636 7.08949 187.948 7.72514C188.264 8.35724 188.422 9.09588 188.422 9.94105C188.422 10.7791 188.264 11.516 187.948 12.1516C187.636 12.7837 187.196 13.2773 186.627 13.6325C186.063 13.9876 185.399 14.1651 184.635 14.1651ZM184.635 12.8015C185.15 12.8015 185.571 12.6719 185.898 12.4126C186.228 12.1499 186.471 11.8018 186.627 11.3686C186.784 10.9354 186.862 10.4595 186.862 9.94105C186.862 9.41903 186.784 8.94141 186.627 8.50817C186.471 8.07138 186.228 7.72159 185.898 7.45881C185.571 7.19602 185.15 7.06463 184.635 7.06463C184.124 7.06463 183.703 7.19602 183.373 7.45881C183.043 7.72159 182.799 8.07138 182.643 8.50817C182.487 8.94141 182.409 9.41903 182.409 9.94105C182.409 10.4595 182.487 10.9354 182.643 11.3686C182.799 11.8018 183.043 12.1499 183.373 12.4126C183.703 12.6719 184.124 12.8015 184.635 12.8015ZM197.716 14.1651C196.949 14.1651 196.28 13.9893 195.708 13.6378C195.136 13.2862 194.692 12.7944 194.376 12.1623C194.06 11.5302 193.902 10.7915 193.902 9.94638C193.902 9.09766 194.06 8.35547 194.376 7.71982C194.692 7.08416 195.136 6.59055 195.708 6.23899C196.28 5.88743 196.949 5.71165 197.716 5.71165C198.483 5.71165 199.153 5.88743 199.724 6.23899C200.296 6.59055 200.74 7.08416 201.056 7.71982C201.372 8.35547 201.53 9.09766 201.53 9.94638C201.53 10.7915 201.372 11.5302 201.056 12.1623C200.74 12.7944 200.296 13.2862 199.724 13.6378C199.153 13.9893 198.483 14.1651 197.716 14.1651ZM197.722 12.8281C198.219 12.8281 198.631 12.6967 198.957 12.4339C199.284 12.1712 199.526 11.8214 199.682 11.3846C199.842 10.9478 199.922 10.4666 199.922 9.94105C199.922 9.41903 199.842 8.93963 199.682 8.50284C199.526 8.0625 199.284 7.70916 198.957 7.44283C198.631 7.17649 198.219 7.04332 197.722 7.04332C197.221 7.04332 196.805 7.17649 196.475 7.44283C196.148 7.70916 195.905 8.0625 195.745 8.50284C195.589 8.93963 195.511 9.41903 195.511 9.94105C195.511 10.4666 195.589 10.9478 195.745 11.3846C195.905 11.8214 196.148 12.1712 196.475 12.4339C196.805 12.6967 197.221 12.8281 197.722 12.8281ZM209.62 2.77131L210.281 3.77805C210.036 4.00178 209.757 4.16158 209.444 4.25746C209.135 4.34979 208.778 4.40838 208.374 4.43324C207.969 4.45455 207.505 4.47408 206.983 4.49183C206.394 4.50959 205.909 4.63743 205.529 4.87535C205.149 5.10973 204.856 5.45774 204.65 5.91939C204.448 6.37749 204.316 6.95277 204.256 7.64524H204.357C204.624 7.13743 204.993 6.75746 205.465 6.50533C205.941 6.2532 206.476 6.12713 207.069 6.12713C207.729 6.12713 208.317 6.27805 208.832 6.5799C209.347 6.88175 209.752 7.32386 210.046 7.90625C210.345 8.48509 210.494 9.19354 210.494 10.0316C210.494 10.8803 210.337 11.6136 210.025 12.2315C209.716 12.8494 209.279 13.3271 208.715 13.6644C208.153 13.9982 207.491 14.1651 206.728 14.1651C205.964 14.1651 205.298 13.9929 204.73 13.6484C204.166 13.3004 203.727 12.7855 203.415 12.1037C203.106 11.4219 202.951 10.5803 202.951 9.57884V8.76918C202.951 6.89773 203.285 5.4897 203.953 4.5451C204.62 3.6005 205.618 3.11577 206.946 3.09091C207.376 3.08026 207.759 3.07848 208.097 3.08558C208.434 3.08913 208.729 3.07315 208.981 3.03764C209.237 2.99858 209.45 2.9098 209.62 2.77131ZM206.733 12.8281C207.177 12.8281 207.559 12.7163 207.878 12.4925C208.201 12.2653 208.45 11.9439 208.624 11.5284C208.798 11.1129 208.885 10.6229 208.885 10.0582C208.885 9.50426 208.798 9.03374 208.624 8.64666C208.45 8.25959 208.201 7.96484 207.878 7.76243C207.555 7.55646 207.168 7.45348 206.717 7.45348C206.383 7.45348 206.085 7.51207 205.822 7.62926C205.559 7.7429 205.334 7.91158 205.146 8.1353C204.961 8.35902 204.817 8.63246 204.714 8.95561C204.615 9.27521 204.562 9.64276 204.554 10.0582C204.554 10.9034 204.748 11.5763 205.135 12.0771C205.526 12.5778 206.058 12.8281 206.733 12.8281ZM223.997 12.6257L223.848 16.3438H222.287V14H221.27V12.6257H223.997ZM212.273 5.81818H213.834V12.6204H216.662V5.81818H218.223V12.6204H221.051V5.81818H222.612V14H212.273V5.81818ZM228.057 14.1811C227.539 14.1811 227.07 14.0852 226.651 13.8935C226.232 13.6982 225.9 13.4158 225.655 13.0465C225.413 12.6772 225.293 12.2244 225.293 11.6882C225.293 11.2266 225.381 10.8466 225.559 10.5483C225.737 10.25 225.976 10.0138 226.278 9.83984C226.58 9.66584 226.917 9.53445 227.29 9.44567C227.663 9.35689 228.043 9.28942 228.43 9.24325C228.92 9.18643 229.318 9.14027 229.623 9.10476C229.929 9.0657 230.151 9.00355 230.289 8.91832C230.428 8.8331 230.497 8.6946 230.497 8.50284V8.46555C230.497 8.00035 230.365 7.63991 230.103 7.38423C229.843 7.12855 229.456 7.00071 228.941 7.00071C228.405 7.00071 227.983 7.11967 227.674 7.3576C227.368 7.59197 227.157 7.85298 227.04 8.14062L225.543 7.79972C225.721 7.30256 225.98 6.90128 226.321 6.59588C226.665 6.28693 227.061 6.06321 227.509 5.92472C227.956 5.78267 228.426 5.71165 228.92 5.71165C229.247 5.71165 229.593 5.75071 229.959 5.82884C230.328 5.90341 230.673 6.0419 230.992 6.24432C231.315 6.44673 231.58 6.73615 231.786 7.11257C231.992 7.48544 232.095 7.97017 232.095 8.56676V14H230.539V12.8814H230.475C230.373 13.0874 230.218 13.2898 230.012 13.4886C229.806 13.6875 229.542 13.8526 229.218 13.984C228.895 14.1154 228.508 14.1811 228.057 14.1811ZM228.403 12.9027C228.844 12.9027 229.22 12.8157 229.533 12.6417C229.849 12.4677 230.088 12.2404 230.252 11.9599C230.419 11.6758 230.502 11.3722 230.502 11.049V9.99432C230.445 10.0511 230.335 10.1044 230.172 10.1541C230.012 10.2003 229.829 10.2411 229.623 10.2766C229.417 10.3086 229.217 10.3388 229.021 10.3672C228.826 10.392 228.663 10.4134 228.531 10.4311C228.222 10.4702 227.94 10.5359 227.684 10.6282C227.432 10.7205 227.23 10.8537 227.077 11.0277C226.928 11.1982 226.853 11.4254 226.853 11.7095C226.853 12.1037 226.999 12.402 227.29 12.6044C227.581 12.8033 227.952 12.9027 228.403 12.9027ZM239.447 5.81818V7.19247H235.788V14H234.216V5.81818H239.447ZM242.137 17.0682C241.899 17.0682 241.682 17.0487 241.487 17.0096C241.292 16.9741 241.146 16.935 241.05 16.8924L241.434 15.5874C241.725 15.6655 241.984 15.6992 242.212 15.6886C242.439 15.6779 242.639 15.5927 242.813 15.4329C242.991 15.2731 243.147 15.0121 243.282 14.6499L243.479 14.1065L240.486 5.81818H242.19L244.262 12.1676H244.348L246.42 5.81818H248.13L244.758 15.092C244.601 15.5181 244.403 15.8786 244.161 16.1733C243.92 16.4716 243.632 16.6953 243.298 16.8445C242.964 16.9936 242.577 17.0682 242.137 17.0682ZM253.596 14V5.81818H256.989C257.912 5.81818 258.644 6.01527 259.184 6.40945C259.724 6.80007 259.993 7.33097 259.993 8.00213C259.993 8.48153 259.841 8.86151 259.535 9.14205C259.23 9.42259 258.825 9.6108 258.321 9.70668C258.687 9.74929 259.022 9.85937 259.328 10.0369C259.633 10.2109 259.878 10.4453 260.063 10.7401C260.251 11.0348 260.345 11.3864 260.345 11.7947C260.345 12.228 260.233 12.6115 260.009 12.9453C259.786 13.2756 259.461 13.5348 259.035 13.723C258.612 13.9077 258.102 14 257.506 14H253.596ZM255.093 12.6683H257.506C257.9 12.6683 258.209 12.5742 258.433 12.386C258.656 12.1978 258.768 11.9421 258.768 11.619C258.768 11.239 258.656 10.9407 258.433 10.7241C258.209 10.5039 257.9 10.3938 257.506 10.3938H255.093V12.6683ZM255.093 9.22727H257.005C257.303 9.22727 257.559 9.18466 257.772 9.09943C257.989 9.0142 258.154 8.89347 258.268 8.73722C258.385 8.57741 258.443 8.3892 258.443 8.17258C258.443 7.85653 258.314 7.60973 258.055 7.43217C257.795 7.25462 257.44 7.16584 256.989 7.16584H255.093V9.22727ZM48.3894 35.0682C48.1515 35.0682 47.9349 35.0487 47.7396 35.0096C47.5443 34.9741 47.3987 34.935 47.3028 34.8924L47.6863 33.5874C47.9775 33.6655 48.2367 33.6992 48.464 33.6886C48.6913 33.6779 48.8919 33.5927 49.0659 33.4329C49.2435 33.2731 49.3997 33.0121 49.5347 32.6499L49.7318 32.1065L46.7381 23.8182H48.4427L50.5148 30.1676H50.6L52.6721 23.8182H54.382L51.0102 33.092C50.8539 33.5181 50.6551 33.8786 50.4136 34.1733C50.1721 34.4716 49.8845 34.6953 49.5506 34.8445C49.2168 34.9936 48.8298 35.0682 48.3894 35.0682ZM55.8788 32V23.8182H62.5531V32H60.9924V25.1925H57.4288V32H55.8788ZM64.6825 35.0682V23.8182H66.2379V25.1445H66.371C66.4634 24.9741 66.5965 24.777 66.7706 24.5533C66.9446 24.3295 67.186 24.1342 67.495 23.9673C67.8039 23.7969 68.2123 23.7116 68.7201 23.7116C69.3806 23.7116 69.9701 23.8786 70.4886 24.2124C71.0071 24.5462 71.4137 25.0273 71.7084 25.6559C72.0067 26.2844 72.1559 27.0408 72.1559 27.9251C72.1559 28.8093 72.0085 29.5675 71.7137 30.1996C71.419 30.8281 71.0142 31.3129 70.4992 31.6538C69.9843 31.9911 69.3966 32.1598 68.7361 32.1598C68.2389 32.1598 67.8323 32.0763 67.5163 31.9094C67.2038 31.7425 66.9588 31.5472 66.7812 31.3235C66.6036 31.0998 66.4669 30.9009 66.371 30.7269H66.2752V35.0682H64.6825ZM66.2432 27.9091C66.2432 28.4844 66.3267 28.9886 66.4936 29.4219C66.6605 29.8551 66.9019 30.1942 67.218 30.4393C67.534 30.6808 67.9211 30.8015 68.3792 30.8015C68.8551 30.8015 69.2528 30.6754 69.5724 30.4233C69.892 30.1676 70.1335 29.8214 70.2968 29.3846C70.4637 28.9478 70.5472 28.456 70.5472 27.9091C70.5472 27.3693 70.4655 26.8846 70.3022 26.4549C70.1424 26.0252 69.9009 25.6861 69.5777 25.4375C69.2581 25.1889 68.8586 25.0646 68.3792 25.0646C67.9176 25.0646 67.5269 25.1836 67.2073 25.4215C66.8913 25.6594 66.6516 25.9915 66.4882 26.4176C66.3249 26.8437 66.2432 27.3409 66.2432 27.9091ZM76.3213 32.1811C75.8029 32.1811 75.3341 32.0852 74.9151 31.8935C74.496 31.6982 74.164 31.4158 73.919 31.0465C73.6775 30.6772 73.5568 30.2244 73.5568 29.6882C73.5568 29.2266 73.6456 28.8466 73.8231 28.5483C74.0007 28.25 74.2404 28.0138 74.5422 27.8398C74.8441 27.6658 75.1814 27.5344 75.5543 27.4457C75.9272 27.3569 76.3071 27.2894 76.6942 27.2433C77.1843 27.1864 77.582 27.1403 77.8874 27.1048C78.1928 27.0657 78.4147 27.0036 78.5532 26.9183C78.6917 26.8331 78.761 26.6946 78.761 26.5028V26.4656C78.761 26.0004 78.6296 25.6399 78.3668 25.3842C78.1076 25.1286 77.7205 25.0007 77.2056 25.0007C76.6693 25.0007 76.2468 25.1197 75.9378 25.3576C75.6324 25.592 75.4211 25.853 75.3039 26.1406L73.8071 25.7997C73.9847 25.3026 74.2439 24.9013 74.5848 24.5959C74.9293 24.2869 75.3252 24.0632 75.7727 23.9247C76.2201 23.7827 76.6907 23.7116 77.1843 23.7116C77.511 23.7116 77.8572 23.7507 78.223 23.8288C78.5923 23.9034 78.9367 24.0419 79.2563 24.2443C79.5795 24.4467 79.8441 24.7362 80.05 25.1126C80.256 25.4854 80.359 25.9702 80.359 26.5668V32H78.8036V30.8814H78.7397C78.6367 31.0874 78.4822 31.2898 78.2762 31.4886C78.0703 31.6875 77.8057 31.8526 77.4826 31.984C77.1594 32.1154 76.7723 32.1811 76.3213 32.1811ZM76.6676 30.9027C77.1079 30.9027 77.4843 30.8157 77.7968 30.6417C78.1129 30.4677 78.3526 30.2404 78.5159 29.9599C78.6828 29.6758 78.7663 29.3722 78.7663 29.049V27.9943C78.7095 28.0511 78.5994 28.1044 78.436 28.1541C78.2762 28.2003 78.0934 28.2411 77.8874 28.2766C77.6814 28.3086 77.4808 28.3388 77.2855 28.3672C77.0902 28.392 76.9268 28.4134 76.7954 28.4311C76.4865 28.4702 76.2041 28.5359 75.9485 28.6282C75.6963 28.7205 75.4939 28.8537 75.3412 29.0277C75.1921 29.1982 75.1175 29.4254 75.1175 29.7095C75.1175 30.1037 75.2631 30.402 75.5543 30.6044C75.8455 30.8033 76.2166 30.9027 76.6676 30.9027ZM82.4803 32V23.8182H85.8734C86.7967 23.8182 87.5283 24.0153 88.068 24.4094C88.6078 24.8001 88.8777 25.331 88.8777 26.0021C88.8777 26.4815 88.725 26.8615 88.4196 27.142C88.1142 27.4226 87.7094 27.6108 87.2051 27.7067C87.5709 27.7493 87.9065 27.8594 88.2119 28.0369C88.5173 28.2109 88.7623 28.4453 88.947 28.7401C89.1352 29.0348 89.2293 29.3864 89.2293 29.7947C89.2293 30.228 89.1174 30.6115 88.8937 30.9453C88.67 31.2756 88.345 31.5348 87.9189 31.723C87.4963 31.9077 86.9867 32 86.3901 32H82.4803ZM83.9771 30.6683H86.3901C86.7843 30.6683 87.0933 30.5742 87.317 30.386C87.5407 30.1978 87.6526 29.9421 87.6526 29.619C87.6526 29.239 87.5407 28.9407 87.317 28.7241C87.0933 28.5039 86.7843 28.3938 86.3901 28.3938H83.9771V30.6683ZM83.9771 27.2273H85.8894C86.1877 27.2273 86.4434 27.1847 86.6565 27.0994C86.8731 27.0142 87.0382 26.8935 87.1519 26.7372C87.269 26.5774 87.3276 26.3892 87.3276 26.1726C87.3276 25.8565 87.198 25.6097 86.9388 25.4322C86.6796 25.2546 86.3244 25.1658 85.8734 25.1658H83.9771V27.2273ZM90.3319 32L90.3266 30.6204H90.6195C90.8468 30.6204 91.0368 30.5724 91.1895 30.4766C91.3457 30.3771 91.4736 30.2102 91.573 29.9759C91.6725 29.7415 91.7488 29.4183 91.8021 29.0064C91.8553 28.5909 91.8944 28.0689 91.9193 27.4403L92.0631 23.8182H97.7733V32H96.2126V25.1925H93.5386L93.4107 27.973C93.3788 28.6477 93.3095 29.2372 93.203 29.7415C93.1 30.2457 92.9491 30.6665 92.7502 31.0039C92.5514 31.3377 92.2957 31.5881 91.9832 31.755C91.6707 31.9183 91.2907 32 90.8433 32H90.3319ZM103.424 32.1651C102.617 32.1651 101.923 31.9929 101.341 31.6484C100.762 31.3004 100.315 30.8121 99.9985 30.1836C99.686 29.5515 99.5298 28.8111 99.5298 27.9624C99.5298 27.1243 99.686 26.3857 99.9985 25.7464C100.315 25.1072 100.755 24.6083 101.32 24.2496C101.888 23.891 102.552 23.7116 103.312 23.7116C103.773 23.7116 104.221 23.788 104.654 23.9407C105.087 24.0934 105.476 24.3331 105.821 24.6598C106.165 24.9865 106.437 25.4109 106.636 25.9329C106.834 26.4513 106.934 27.0817 106.934 27.8239V28.3885H100.43V27.1953H105.373C105.373 26.7763 105.288 26.4052 105.117 26.082C104.947 25.7553 104.707 25.4979 104.398 25.3097C104.093 25.1214 103.734 25.0273 103.322 25.0273C102.875 25.0273 102.484 25.1374 102.151 25.3576C101.82 25.5742 101.565 25.8583 101.383 26.2099C101.206 26.5579 101.117 26.9361 101.117 27.3445V28.2766C101.117 28.8235 101.213 29.2887 101.405 29.6722C101.6 30.0558 101.872 30.3487 102.22 30.5511C102.568 30.75 102.974 30.8494 103.44 30.8494C103.741 30.8494 104.017 30.8068 104.265 30.7216C104.514 30.6328 104.729 30.5014 104.91 30.3274C105.091 30.1534 105.229 29.9386 105.325 29.6829L106.833 29.9545C106.712 30.3984 106.495 30.7873 106.183 31.1211C105.874 31.4513 105.485 31.7088 105.016 31.8935C104.551 32.0746 104.02 32.1651 103.424 32.1651ZM114.246 27.2219V28.6016H109.814V27.2219H114.246ZM110.262 23.8182V32H108.701V23.8182H110.262ZM115.359 23.8182V32H113.804V23.8182H115.359ZM119.051 29.7681L122.657 23.8182H124.372V32H122.811V26.0447L119.221 32H117.49V23.8182H119.051V29.7681ZM128.074 29.7681L131.68 23.8182H133.396V32H131.835V26.0447L128.245 32H126.514V23.8182H128.074V29.7681ZM141.888 32.1811C141.369 32.1811 140.901 32.0852 140.481 31.8935C140.062 31.6982 139.73 31.4158 139.485 31.0465C139.244 30.6772 139.123 30.2244 139.123 29.6882C139.123 29.2266 139.212 28.8466 139.39 28.5483C139.567 28.25 139.807 28.0138 140.109 27.8398C140.41 27.6658 140.748 27.5344 141.121 27.4457C141.494 27.3569 141.874 27.2894 142.261 27.2433C142.751 27.1864 143.148 27.1403 143.454 27.1048C143.759 27.0657 143.981 27.0036 144.12 26.9183C144.258 26.8331 144.327 26.6946 144.327 26.5028V26.4656C144.327 26.0004 144.196 25.6399 143.933 25.3842C143.674 25.1286 143.287 25.0007 142.772 25.0007C142.236 25.0007 141.813 25.1197 141.504 25.3576C141.199 25.592 140.988 25.853 140.87 26.1406L139.374 25.7997C139.551 25.3026 139.81 24.9013 140.151 24.5959C140.496 24.2869 140.892 24.0632 141.339 23.9247C141.787 23.7827 142.257 23.7116 142.751 23.7116C143.077 23.7116 143.424 23.7507 143.789 23.8288C144.159 23.9034 144.503 24.0419 144.823 24.2443C145.146 24.4467 145.41 24.7362 145.616 25.1126C145.822 25.4854 145.925 25.9702 145.925 26.5668V32H144.37V30.8814H144.306C144.203 31.0874 144.049 31.2898 143.843 31.4886C143.637 31.6875 143.372 31.8526 143.049 31.984C142.726 32.1154 142.339 32.1811 141.888 32.1811ZM142.234 30.9027C142.674 30.9027 143.051 30.8157 143.363 30.6417C143.679 30.4677 143.919 30.2404 144.082 29.9599C144.249 29.6758 144.333 29.3722 144.333 29.049V27.9943C144.276 28.0511 144.166 28.1044 144.002 28.1541C143.843 28.2003 143.66 28.2411 143.454 28.2766C143.248 28.3086 143.047 28.3388 142.852 28.3672C142.657 28.392 142.493 28.4134 142.362 28.4311C142.053 28.4702 141.771 28.5359 141.515 28.6282C141.263 28.7205 141.06 28.8537 140.908 29.0277C140.758 29.1982 140.684 29.4254 140.684 29.7095C140.684 30.1037 140.83 30.402 141.121 30.6044C141.412 30.8033 141.783 30.9027 142.234 30.9027ZM148.047 32V23.8182H149.639V27.2486H150.406L153.107 23.8182H155.078L151.909 27.7972L155.115 32H153.139L150.673 28.7294H149.639V32H148.047ZM156.352 32V23.8182H157.945V27.2486H158.712L161.413 23.8182H163.384L160.214 27.7972L163.421 32H161.445L158.978 28.7294H157.945V32H156.352ZM167.039 32.1811C166.521 32.1811 166.052 32.0852 165.633 31.8935C165.214 31.6982 164.882 31.4158 164.637 31.0465C164.395 30.6772 164.275 30.2244 164.275 29.6882C164.275 29.2266 164.363 28.8466 164.541 28.5483C164.718 28.25 164.958 28.0138 165.26 27.8398C165.562 27.6658 165.899 27.5344 166.272 27.4457C166.645 27.3569 167.025 27.2894 167.412 27.2433C167.902 27.1864 168.3 27.1403 168.605 27.1048C168.911 27.0657 169.133 27.0036 169.271 26.9183C169.409 26.8331 169.479 26.6946 169.479 26.5028V26.4656C169.479 26.0004 169.347 25.6399 169.085 25.3842C168.825 25.1286 168.438 25.0007 167.923 25.0007C167.387 25.0007 166.965 25.1197 166.656 25.3576C166.35 25.592 166.139 25.853 166.022 26.1406L164.525 25.7997C164.702 25.3026 164.962 24.9013 165.303 24.5959C165.647 24.2869 166.043 24.0632 166.49 23.9247C166.938 23.7827 167.408 23.7116 167.902 23.7116C168.229 23.7116 168.575 23.7507 168.941 23.8288C169.31 23.9034 169.655 24.0419 169.974 24.2443C170.297 24.4467 170.562 24.7362 170.768 25.1126C170.974 25.4854 171.077 25.9702 171.077 26.5668V32H169.521V30.8814H169.457C169.354 31.0874 169.2 31.2898 168.994 31.4886C168.788 31.6875 168.523 31.8526 168.2 31.984C167.877 32.1154 167.49 32.1811 167.039 32.1811ZM167.385 30.9027C167.826 30.9027 168.202 30.8157 168.515 30.6417C168.831 30.4677 169.07 30.2404 169.234 29.9599C169.401 29.6758 169.484 29.3722 169.484 29.049V27.9943C169.427 28.0511 169.317 28.1044 169.154 28.1541C168.994 28.2003 168.811 28.2411 168.605 28.2766C168.399 28.3086 168.199 28.3388 168.003 28.3672C167.808 28.392 167.645 28.4134 167.513 28.4311C167.204 28.4702 166.922 28.5359 166.666 28.6282C166.414 28.7205 166.212 28.8537 166.059 29.0277C165.91 29.1982 165.835 29.4254 165.835 29.7095C165.835 30.1037 165.981 30.402 166.272 30.6044C166.563 30.8033 166.934 30.9027 167.385 30.9027ZM173.912 35.0682C173.674 35.0682 173.457 35.0487 173.262 35.0096C173.067 34.9741 172.921 34.935 172.825 34.8924L173.209 33.5874C173.5 33.6655 173.759 33.6992 173.986 33.6886C174.214 33.6779 174.414 33.5927 174.588 33.4329C174.766 33.2731 174.922 33.0121 175.057 32.6499L175.254 32.1065L172.261 23.8182H173.965L176.037 30.1676H176.122L178.195 23.8182H179.904L176.533 33.092C176.376 33.5181 176.178 33.8786 175.936 34.1733C175.695 34.4716 175.407 34.6953 175.073 34.8445C174.739 34.9936 174.352 35.0682 173.912 35.0682ZM186.946 27.2219V28.6016H182.515V27.2219H186.946ZM182.962 23.8182V32H181.401V23.8182H182.962ZM188.06 23.8182V32H186.504V23.8182H188.06ZM189.176 25.1925V23.8182H196.079V25.1925H193.41V32H191.855V25.1925H189.176ZM200.829 32.1651C200.062 32.1651 199.393 31.9893 198.821 31.6378C198.249 31.2862 197.805 30.7944 197.489 30.1623C197.173 29.5302 197.015 28.7915 197.015 27.9464C197.015 27.0977 197.173 26.3555 197.489 25.7198C197.805 25.0842 198.249 24.5906 198.821 24.239C199.393 23.8874 200.062 23.7116 200.829 23.7116C201.596 23.7116 202.265 23.8874 202.837 24.239C203.409 24.5906 203.853 25.0842 204.169 25.7198C204.485 26.3555 204.643 27.0977 204.643 27.9464C204.643 28.7915 204.485 29.5302 204.169 30.1623C203.853 30.7944 203.409 31.2862 202.837 31.6378C202.265 31.9893 201.596 32.1651 200.829 32.1651ZM200.834 30.8281C201.332 30.8281 201.743 30.6967 202.07 30.4339C202.397 30.1712 202.638 29.8214 202.795 29.3846C202.954 28.9478 203.034 28.4666 203.034 27.9411C203.034 27.419 202.954 26.9396 202.795 26.5028C202.638 26.0625 202.397 25.7092 202.07 25.4428C201.743 25.1765 201.332 25.0433 200.834 25.0433C200.334 25.0433 199.918 25.1765 199.588 25.4428C199.261 25.7092 199.018 26.0625 198.858 26.5028C198.702 26.9396 198.624 27.419 198.624 27.9411C198.624 28.4666 198.702 28.9478 198.858 29.3846C199.018 29.8214 199.261 30.1712 199.588 30.4339C199.918 30.6967 200.334 30.8281 200.834 30.8281ZM211.012 30.0291L213.654 23.8182H215.029L211.604 32H210.421L207.065 23.8182H208.424L211.012 30.0291ZM207.981 23.8182V32H206.421V23.8182H207.981ZM214.086 32V23.8182H215.636V32H214.086ZM6.17263 39.0909H7.8026V47.1023H7.90381L13.4542 39.0909H14.9777V50H13.3317V41.9993H13.2305L7.69074 50H6.17263V39.0909ZM22.7959 45.2219V46.6016H18.3641V45.2219H22.7959ZM18.8116 41.8182V50H17.2508V41.8182H18.8116ZM23.9092 41.8182V50H22.3538V41.8182H23.9092ZM28.4209 50.1811C27.9025 50.1811 27.4337 50.0852 27.0147 49.8935C26.5957 49.6982 26.2636 49.4158 26.0186 49.0465C25.7771 48.6772 25.6564 48.2244 25.6564 47.6882C25.6564 47.2266 25.7452 46.8466 25.9227 46.5483C26.1003 46.25 26.34 46.0138 26.6418 45.8398C26.9437 45.6658 27.281 45.5344 27.6539 45.4457C28.0268 45.3569 28.4067 45.2894 28.7938 45.2433C29.2839 45.1864 29.6816 45.1403 29.987 45.1048C30.2924 45.0657 30.5143 45.0036 30.6528 44.9183C30.7913 44.8331 30.8606 44.6946 30.8606 44.5028V44.4656C30.8606 44.0004 30.7292 43.6399 30.4664 43.3842C30.2072 43.1286 29.8201 43.0007 29.3052 43.0007C28.769 43.0007 28.3464 43.1197 28.0374 43.3576C27.732 43.592 27.5207 43.853 27.4035 44.1406L25.9067 43.7997C26.0843 43.3026 26.3435 42.9013 26.6844 42.5959C27.0289 42.2869 27.4248 42.0632 27.8723 41.9247C28.3197 41.7827 28.7903 41.7116 29.2839 41.7116C29.6106 41.7116 29.9568 41.7507 30.3226 41.8288C30.6919 41.9034 31.0364 42.0419 31.356 42.2443C31.6791 42.4467 31.9437 42.7362 32.1496 43.1126C32.3556 43.4854 32.4586 43.9702 32.4586 44.5668V50H30.9032V48.8814H30.8393C30.7363 49.0874 30.5818 49.2898 30.3758 49.4886C30.1699 49.6875 29.9053 49.8526 29.5822 49.984C29.259 50.1154 28.8719 50.1811 28.4209 50.1811ZM28.7672 48.9027C29.2075 48.9027 29.5839 48.8157 29.8964 48.6417C30.2125 48.4677 30.4522 48.2404 30.6155 47.9599C30.7824 47.6758 30.8659 47.3722 30.8659 47.049V45.9943C30.8091 46.0511 30.699 46.1044 30.5356 46.1541C30.3758 46.2003 30.193 46.2411 29.987 46.2766C29.781 46.3086 29.5804 46.3388 29.3851 46.3672C29.1898 46.392 29.0264 46.4134 28.895 46.4311C28.5861 46.4702 28.3038 46.5359 28.0481 46.6282C27.7959 46.7205 27.5935 46.8537 27.4408 47.0277C27.2917 47.1982 27.2171 47.4254 27.2171 47.7095C27.2171 48.1037 27.3627 48.402 27.6539 48.6044C27.9451 48.8033 28.3162 48.9027 28.7672 48.9027ZM41.1478 41.8182V50H39.5924V41.8182H41.1478ZM40.4713 45.6161V46.9904C40.2263 47.0898 39.967 47.1786 39.6936 47.2567C39.4201 47.3313 39.1325 47.3899 38.8307 47.4325C38.5288 47.4751 38.2145 47.4964 37.8878 47.4964C36.8758 47.4964 36.0714 47.2496 35.4748 46.756C34.8782 46.2589 34.5799 45.4989 34.5799 44.4762V41.8022H36.13V44.4762C36.13 44.8633 36.201 45.1776 36.3431 45.419C36.4851 45.6605 36.6875 45.8381 36.9503 45.9517C37.2131 46.0653 37.5256 46.1222 37.8878 46.1222C38.3672 46.1222 38.8093 46.0778 39.2142 45.989C39.6226 45.8967 40.0416 45.7724 40.4713 45.6161ZM46.7927 50.1651C45.9866 50.1651 45.2924 49.9929 44.71 49.6484C44.1312 49.3004 43.6837 48.8121 43.3677 48.1836C43.0552 47.5515 42.8989 46.8111 42.8989 45.9624C42.8989 45.1243 43.0552 44.3857 43.3677 43.7464C43.6837 43.1072 44.1241 42.6083 44.6887 42.2496C45.2569 41.891 45.9209 41.7116 46.6809 41.7116C47.1425 41.7116 47.59 41.788 48.0232 41.9407C48.4565 42.0934 48.8453 42.3331 49.1898 42.6598C49.5342 42.9865 49.8059 43.4109 50.0048 43.9329C50.2036 44.4513 50.303 45.0817 50.303 45.8239V46.3885H43.7991V45.1953H48.7423C48.7423 44.7763 48.6571 44.4052 48.4866 44.082C48.3162 43.7553 48.0765 43.4979 47.7675 43.3097C47.4621 43.1214 47.1035 43.0273 46.6915 43.0273C46.2441 43.0273 45.8535 43.1374 45.5197 43.3576C45.1894 43.5742 44.9337 43.8583 44.7526 44.2099C44.5751 44.5579 44.4863 44.9361 44.4863 45.3445V46.2766C44.4863 46.8235 44.5822 47.2887 44.7739 47.6722C44.9692 48.0558 45.2409 48.3487 45.5889 48.5511C45.9369 48.75 46.3435 48.8494 46.8087 48.8494C47.1106 48.8494 47.3858 48.8068 47.6344 48.7216C47.8829 48.6328 48.0978 48.5014 48.2789 48.3274C48.46 48.1534 48.5985 47.9386 48.6944 47.6829L50.2018 47.9545C50.0811 48.3984 49.8645 48.7873 49.552 49.1211C49.243 49.4513 48.8542 49.7088 48.3854 49.8935C47.9202 50.0746 47.3893 50.1651 46.7927 50.1651ZM54.1423 48.5085L54.0624 49.0891C54.0091 49.5153 53.9185 49.9592 53.7907 50.4208C53.6664 50.886 53.5368 51.3175 53.4019 51.7152C53.2705 52.1129 53.1622 52.429 53.0769 52.6634H51.9477C51.9938 52.4432 52.0578 52.1449 52.1394 51.7685C52.2211 51.3956 52.301 50.9783 52.3791 50.5167C52.4573 50.055 52.5158 49.5845 52.5549 49.1051L52.6082 48.5085H54.1423ZM64.777 48.0291L67.4191 41.8182H68.7934L65.3683 50H64.1858L60.8299 41.8182H62.1883L64.777 48.0291ZM61.7461 41.8182V50H60.1854V41.8182H61.7461ZM67.8505 50V41.8182H69.4006V50H67.8505ZM72.7218 44.6307H75.0975C76.0989 44.6307 76.8695 44.8793 77.4093 45.3764C77.9491 45.8736 78.219 46.5146 78.219 47.2994C78.219 47.8107 78.0982 48.2706 77.8568 48.679C77.6153 49.0874 77.2619 49.4105 76.7967 49.6484C76.3315 49.8828 75.7651 50 75.0975 50H71.5233V41.8182H73.084V48.6257H75.0975C75.5556 48.6257 75.932 48.5067 76.2268 48.2688C76.5215 48.0273 76.6689 47.7202 76.6689 47.3473C76.6689 46.9531 76.5215 46.6317 76.2268 46.3832C75.932 46.131 75.5556 46.005 75.0975 46.005H72.7218V44.6307ZM79.3802 50V41.8182H80.9729V50H79.3802ZM92.625 45.2219V46.6016H88.1932V45.2219H92.625ZM88.6407 41.8182V50H87.0799V41.8182H88.6407ZM93.7383 41.8182V50H92.1829V41.8182H93.7383ZM99.3953 50.1651C98.5892 50.1651 97.8949 49.9929 97.3125 49.6484C96.7337 49.3004 96.2863 48.8121 95.9702 48.1836C95.6577 47.5515 95.5015 46.8111 95.5015 45.9624C95.5015 45.1243 95.6577 44.3857 95.9702 43.7464C96.2863 43.1072 96.7266 42.6083 97.2912 42.2496C97.8594 41.891 98.5235 41.7116 99.2834 41.7116C99.7451 41.7116 100.193 41.788 100.626 41.9407C101.059 42.0934 101.448 42.3331 101.792 42.6598C102.137 42.9865 102.408 43.4109 102.607 43.9329C102.806 44.4513 102.906 45.0817 102.906 45.8239V46.3885H96.4017V45.1953H101.345C101.345 44.7763 101.26 44.4052 101.089 44.082C100.919 43.7553 100.679 43.4979 100.37 43.3097C100.065 43.1214 99.706 43.0273 99.2941 43.0273C98.8466 43.0273 98.456 43.1374 98.1222 43.3576C97.7919 43.5742 97.5363 43.8583 97.3552 44.2099C97.1776 44.5579 97.0888 44.9361 97.0888 45.3445V46.2766C97.0888 46.8235 97.1847 47.2887 97.3765 47.6722C97.5718 48.0558 97.8434 48.3487 98.1915 48.5511C98.5395 48.75 98.9461 48.8494 99.4113 48.8494C99.7131 48.8494 99.9883 48.8068 100.237 48.7216C100.485 48.6328 100.7 48.5014 100.881 48.3274C101.063 48.1534 101.201 47.9386 101.297 47.6829L102.804 47.9545C102.684 48.3984 102.467 48.7873 102.155 49.1211C101.846 49.4513 101.457 49.7088 100.988 49.8935C100.523 50.0746 99.9919 50.1651 99.3953 50.1651ZM108.158 47.8374H109.788C109.809 48.1712 109.96 48.4286 110.24 48.6097C110.525 48.7908 110.892 48.8814 111.343 48.8814C111.801 48.8814 112.192 48.7837 112.515 48.5884C112.838 48.3896 113 48.0824 113 47.6669C113 47.4183 112.938 47.2017 112.813 47.017C112.693 46.8288 112.52 46.6832 112.297 46.5803C112.076 46.4773 111.815 46.4258 111.514 46.4258H110.182V45.174H111.514C111.965 45.174 112.302 45.071 112.526 44.8651C112.749 44.6591 112.861 44.4016 112.861 44.0927C112.861 43.7589 112.74 43.4908 112.499 43.2884C112.261 43.0824 111.929 42.9794 111.503 42.9794C111.07 42.9794 110.709 43.0771 110.422 43.2724C110.134 43.4641 109.983 43.7127 109.969 44.0181H108.36C108.371 43.56 108.509 43.1587 108.776 42.8143C109.045 42.4663 109.408 42.1964 109.862 42.0046C110.32 41.8093 110.841 41.7116 111.423 41.7116C112.03 41.7116 112.556 41.8093 113 42.0046C113.444 42.1999 113.786 42.4698 114.028 42.8143C114.273 43.1587 114.395 43.5547 114.395 44.0021C114.395 44.4531 114.26 44.8224 113.99 45.1101C113.724 45.3942 113.376 45.5984 112.946 45.7227V45.8079C113.262 45.8292 113.543 45.9251 113.788 46.0955C114.033 46.266 114.225 46.4915 114.363 46.772C114.502 47.0526 114.571 47.3704 114.571 47.7255C114.571 48.2262 114.433 48.6594 114.156 49.0252C113.882 49.391 113.502 49.6733 113.016 49.8722C112.533 50.0675 111.981 50.1651 111.359 50.1651C110.755 50.1651 110.214 50.071 109.734 49.8828C109.259 49.6911 108.88 49.4212 108.6 49.0732C108.323 48.7251 108.175 48.3132 108.158 47.8374ZM121.761 45.2219V46.6016H117.329V45.2219H121.761ZM117.776 41.8182V50H116.216V41.8182H117.776ZM122.874 41.8182V50H121.319V41.8182H122.874ZM127.386 50.1811C126.867 50.1811 126.399 50.0852 125.98 49.8935C125.561 49.6982 125.228 49.4158 124.983 49.0465C124.742 48.6772 124.621 48.2244 124.621 47.6882C124.621 47.2266 124.71 46.8466 124.888 46.5483C125.065 46.25 125.305 46.0138 125.607 45.8398C125.909 45.6658 126.246 45.5344 126.619 45.4457C126.992 45.3569 127.372 45.2894 127.759 45.2433C128.249 45.1864 128.646 45.1403 128.952 45.1048C129.257 45.0657 129.479 45.0036 129.618 44.9183C129.756 44.8331 129.825 44.6946 129.825 44.5028V44.4656C129.825 44.0004 129.694 43.6399 129.431 43.3842C129.172 43.1286 128.785 43.0007 128.27 43.0007C127.734 43.0007 127.311 43.1197 127.002 43.3576C126.697 43.592 126.486 43.853 126.368 44.1406L124.872 43.7997C125.049 43.3026 125.308 42.9013 125.649 42.5959C125.994 42.2869 126.39 42.0632 126.837 41.9247C127.285 41.7827 127.755 41.7116 128.249 41.7116C128.575 41.7116 128.922 41.7507 129.287 41.8288C129.657 41.9034 130.001 42.0419 130.321 42.2443C130.644 42.4467 130.909 42.7362 131.114 43.1126C131.32 43.4854 131.423 43.9702 131.423 44.5668V50H129.868V48.8814H129.804C129.701 49.0874 129.547 49.2898 129.341 49.4886C129.135 49.6875 128.87 49.8526 128.547 49.984C128.224 50.1154 127.837 50.1811 127.386 50.1811ZM127.732 48.9027C128.172 48.9027 128.549 48.8157 128.861 48.6417C129.177 48.4677 129.417 48.2404 129.58 47.9599C129.747 47.6758 129.831 47.3722 129.831 47.049V45.9943C129.774 46.0511 129.664 46.1044 129.5 46.1541C129.341 46.2003 129.158 46.2411 128.952 46.2766C128.746 46.3086 128.545 46.3388 128.35 46.3672C128.155 46.392 127.991 46.4134 127.86 46.4311C127.551 46.4702 127.269 46.5359 127.013 46.6282C126.761 46.7205 126.558 46.8537 126.406 47.0277C126.257 47.1982 126.182 47.4254 126.182 47.7095C126.182 48.1037 126.328 48.402 126.619 48.6044C126.91 48.8033 127.281 48.9027 127.732 48.9027ZM137.071 50.1651C136.265 50.1651 135.571 49.9929 134.988 49.6484C134.409 49.3004 133.962 48.8121 133.646 48.1836C133.333 47.5515 133.177 46.8111 133.177 45.9624C133.177 45.1243 133.333 44.3857 133.646 43.7464C133.962 43.1072 134.402 42.6083 134.967 42.2496C135.535 41.891 136.199 41.7116 136.959 41.7116C137.421 41.7116 137.868 41.788 138.302 41.9407C138.735 42.0934 139.124 42.3331 139.468 42.6598C139.813 42.9865 140.084 43.4109 140.283 43.9329C140.482 44.4513 140.581 45.0817 140.581 45.8239V46.3885H134.077V45.1953H139.021C139.021 44.7763 138.935 44.4052 138.765 44.082C138.595 43.7553 138.355 43.4979 138.046 43.3097C137.74 43.1214 137.382 43.0273 136.97 43.0273C136.522 43.0273 136.132 43.1374 135.798 43.3576C135.468 43.5742 135.212 43.8583 135.031 44.2099C134.853 44.5579 134.765 44.9361 134.765 45.3445V46.2766C134.765 46.8235 134.86 47.2887 135.052 47.6722C135.248 48.0558 135.519 48.3487 135.867 48.5511C136.215 48.75 136.622 48.8494 137.087 48.8494C137.389 48.8494 137.664 48.8068 137.913 48.7216C138.161 48.6328 138.376 48.5014 138.557 48.3274C138.738 48.1534 138.877 47.9386 138.973 47.6829L140.48 47.9545C140.359 48.3984 140.143 48.7873 139.83 49.1211C139.521 49.4513 139.133 49.7088 138.664 49.8935C138.199 50.0746 137.668 50.1651 137.071 50.1651ZM146.94 48.0291L149.582 41.8182H150.956L147.531 50H146.349L142.993 41.8182H144.351L146.94 48.0291ZM143.909 41.8182V50H142.348V41.8182H143.909ZM150.014 50V41.8182H151.564V50H150.014ZM157.656 50V41.8182H159.249V45.2486H160.016L162.716 41.8182H164.687L161.518 45.7972L164.725 50H162.748L160.282 46.7294H159.249V50H157.656ZM168.343 50.1811C167.824 50.1811 167.356 50.0852 166.937 49.8935C166.518 49.6982 166.186 49.4158 165.94 49.0465C165.699 48.6772 165.578 48.2244 165.578 47.6882C165.578 47.2266 165.667 46.8466 165.845 46.5483C166.022 46.25 166.262 46.0138 166.564 45.8398C166.866 45.6658 167.203 45.5344 167.576 45.4457C167.949 45.3569 168.329 45.2894 168.716 45.2433C169.206 45.1864 169.603 45.1403 169.909 45.1048C170.214 45.0657 170.436 45.0036 170.575 44.9183C170.713 44.8331 170.782 44.6946 170.782 44.5028V44.4656C170.782 44.0004 170.651 43.6399 170.388 43.3842C170.129 43.1286 169.742 43.0007 169.227 43.0007C168.691 43.0007 168.268 43.1197 167.959 43.3576C167.654 43.592 167.443 43.853 167.325 44.1406L165.829 43.7997C166.006 43.3026 166.265 42.9013 166.606 42.5959C166.951 42.2869 167.347 42.0632 167.794 41.9247C168.242 41.7827 168.712 41.7116 169.206 41.7116C169.532 41.7116 169.879 41.7507 170.244 41.8288C170.614 41.9034 170.958 42.0419 171.278 42.2443C171.601 42.4467 171.866 42.7362 172.072 43.1126C172.277 43.4854 172.38 43.9702 172.38 44.5668V50H170.825V48.8814H170.761C170.658 49.0874 170.504 49.2898 170.298 49.4886C170.092 49.6875 169.827 49.8526 169.504 49.984C169.181 50.1154 168.794 50.1811 168.343 50.1811ZM168.689 48.9027C169.129 48.9027 169.506 48.8157 169.818 48.6417C170.134 48.4677 170.374 48.2404 170.537 47.9599C170.704 47.6758 170.788 47.3722 170.788 47.049V45.9943C170.731 46.0511 170.621 46.1044 170.458 46.1541C170.298 46.2003 170.115 46.2411 169.909 46.2766C169.703 46.3086 169.502 46.3388 169.307 46.3672C169.112 46.392 168.948 46.4134 168.817 46.4311C168.508 46.4702 168.226 46.5359 167.97 46.6282C167.718 46.7205 167.515 46.8537 167.363 47.0277C167.214 47.1982 167.139 47.4254 167.139 47.7095C167.139 48.1037 167.285 48.402 167.576 48.6044C167.867 48.8033 168.238 48.9027 168.689 48.9027ZM174.502 50V41.8182H176.095V45.2486H176.862L179.562 41.8182H181.533L178.364 45.7972L181.57 50H179.594L177.128 46.7294H176.095V50H174.502ZM184.368 47.7681L187.974 41.8182H189.69V50H188.129V44.0447L184.539 50H182.807V41.8182H184.368V47.7681ZM195.357 50.1651C194.551 50.1651 193.857 49.9929 193.274 49.6484C192.696 49.3004 192.248 48.8121 191.932 48.1836C191.62 47.5515 191.463 46.8111 191.463 45.9624C191.463 45.1243 191.62 44.3857 191.932 43.7464C192.248 43.1072 192.689 42.6083 193.253 42.2496C193.821 41.891 194.485 41.7116 195.245 41.7116C195.707 41.7116 196.154 41.788 196.588 41.9407C197.021 42.0934 197.41 42.3331 197.754 42.6598C198.099 42.9865 198.37 43.4109 198.569 43.9329C198.768 44.4513 198.867 45.0817 198.867 45.8239V46.3885H192.364V45.1953H197.307C197.307 44.7763 197.222 44.4052 197.051 44.082C196.881 43.7553 196.641 43.4979 196.332 43.3097C196.027 43.1214 195.668 43.0273 195.256 43.0273C194.809 43.0273 194.418 43.1374 194.084 43.3576C193.754 43.5742 193.498 43.8583 193.317 44.2099C193.14 44.5579 193.051 44.9361 193.051 45.3445V46.2766C193.051 46.8235 193.147 47.2887 193.338 47.6722C193.534 48.0558 193.805 48.3487 194.153 48.5511C194.501 48.75 194.908 48.8494 195.373 48.8494C195.675 48.8494 195.95 48.8068 196.199 48.7216C196.447 48.6328 196.662 48.5014 196.843 48.3274C197.024 48.1534 197.163 47.9386 197.259 47.6829L198.766 47.9545C198.646 48.3984 198.429 48.7873 198.116 49.1211C197.807 49.4513 197.419 49.7088 196.95 49.8935C196.485 50.0746 195.954 50.1651 195.357 50.1651ZM208.051 50.1651C207.284 50.1651 206.614 49.9893 206.043 49.6378C205.471 49.2862 205.027 48.7944 204.711 48.1623C204.395 47.5302 204.237 46.7915 204.237 45.9464C204.237 45.0977 204.395 44.3555 204.711 43.7198C205.027 43.0842 205.471 42.5906 206.043 42.239C206.614 41.8874 207.284 41.7116 208.051 41.7116C208.818 41.7116 209.487 41.8874 210.059 42.239C210.631 42.5906 211.075 43.0842 211.391 43.7198C211.707 44.3555 211.865 45.0977 211.865 45.9464C211.865 46.7915 211.707 47.5302 211.391 48.1623C211.075 48.7944 210.631 49.2862 210.059 49.6378C209.487 49.9893 208.818 50.1651 208.051 50.1651ZM208.056 48.8281C208.553 48.8281 208.965 48.6967 209.292 48.4339C209.619 48.1712 209.86 47.8214 210.016 47.3846C210.176 46.9478 210.256 46.4666 210.256 45.9411C210.256 45.419 210.176 44.9396 210.016 44.5028C209.86 44.0625 209.619 43.7092 209.292 43.4428C208.965 43.1765 208.553 43.0433 208.056 43.0433C207.555 43.0433 207.14 43.1765 206.81 43.4428C206.483 43.7092 206.24 44.0625 206.08 44.5028C205.924 44.9396 205.845 45.419 205.845 45.9411C205.845 46.4666 205.924 46.9478 206.08 47.3846C206.24 47.8214 206.483 48.1712 206.81 48.4339C207.14 48.6967 207.555 48.8281 208.056 48.8281ZM213.642 53.0682V41.8182H215.198V43.1445H215.331C215.423 42.9741 215.557 42.777 215.731 42.5533C215.905 42.3295 216.146 42.1342 216.455 41.9673C216.764 41.7969 217.172 41.7116 217.68 41.7116C218.341 41.7116 218.93 41.8786 219.449 42.2124C219.967 42.5462 220.374 43.0273 220.668 43.6559C220.967 44.2844 221.116 45.0408 221.116 45.9251C221.116 46.8093 220.968 47.5675 220.674 48.1996C220.379 48.8281 219.974 49.3129 219.459 49.6538C218.944 49.9911 218.357 50.1598 217.696 50.1598C217.199 50.1598 216.792 50.0763 216.476 49.9094C216.164 49.7425 215.919 49.5472 215.741 49.3235C215.564 49.0998 215.427 48.9009 215.331 48.7269H215.235V53.0682H213.642ZM215.203 45.9091C215.203 46.4844 215.287 46.9886 215.454 47.4219C215.62 47.8551 215.862 48.1942 216.178 48.4393C216.494 48.6808 216.881 48.8015 217.339 48.8015C217.815 48.8015 218.213 48.6754 218.532 48.4233C218.852 48.1676 219.093 47.8214 219.257 47.3846C219.424 46.9478 219.507 46.456 219.507 45.9091C219.507 45.3693 219.425 44.8846 219.262 44.4549C219.102 44.0252 218.861 43.6861 218.538 43.4375C218.218 43.1889 217.819 43.0646 217.339 43.0646C216.878 43.0646 216.487 43.1836 216.167 43.4215C215.851 43.6594 215.612 43.9915 215.448 44.4176C215.285 44.8437 215.203 45.3409 215.203 45.9091ZM222.101 52.3597V48.6204H222.767C222.938 48.4641 223.081 48.2777 223.199 48.0611C223.319 47.8445 223.42 47.587 223.502 47.2887C223.587 46.9904 223.658 46.6424 223.715 46.2447C223.772 45.8434 223.822 45.3853 223.864 44.8704L224.12 41.8182H229.681V48.6204H230.938V52.3597H229.383V50H223.678V52.3597H222.101ZM224.472 48.6204H228.126V43.1818H225.548L225.377 44.8704C225.295 45.7298 225.193 46.4755 225.068 47.1076C224.944 47.7362 224.745 48.2404 224.472 48.6204ZM236.021 50.1651C235.215 50.1651 234.521 49.9929 233.939 49.6484C233.36 49.3004 232.912 48.8121 232.596 48.1836C232.284 47.5515 232.127 46.8111 232.127 45.9624C232.127 45.1243 232.284 44.3857 232.596 43.7464C232.912 43.1072 233.353 42.6083 233.917 42.2496C234.485 41.891 235.149 41.7116 235.909 41.7116C236.371 41.7116 236.818 41.788 237.252 41.9407C237.685 42.0934 238.074 42.3331 238.418 42.6598C238.763 42.9865 239.034 43.4109 239.233 43.9329C239.432 44.4513 239.532 45.0817 239.532 45.8239V46.3885H233.028V45.1953H237.971C237.971 44.7763 237.886 44.4052 237.715 44.082C237.545 43.7553 237.305 43.4979 236.996 43.3097C236.691 43.1214 236.332 43.0273 235.92 43.0273C235.473 43.0273 235.082 43.1374 234.748 43.3576C234.418 43.5742 234.162 43.8583 233.981 44.2099C233.804 44.5579 233.715 44.9361 233.715 45.3445V46.2766C233.715 46.8235 233.811 47.2887 234.002 47.6722C234.198 48.0558 234.469 48.3487 234.817 48.5511C235.165 48.75 235.572 48.8494 236.037 48.8494C236.339 48.8494 236.614 48.8068 236.863 48.7216C237.111 48.6328 237.326 48.5014 237.507 48.3274C237.689 48.1534 237.827 47.9386 237.923 47.6829L239.43 47.9545C239.31 48.3984 239.093 48.7873 238.78 49.1211C238.472 49.4513 238.083 49.7088 237.614 49.8935C237.149 50.0746 236.618 50.1651 236.021 50.1651ZM241.299 53.0682V41.8182H242.854V43.1445H242.987C243.08 42.9741 243.213 42.777 243.387 42.5533C243.561 42.3295 243.802 42.1342 244.111 41.9673C244.42 41.7969 244.829 41.7116 245.336 41.7116C245.997 41.7116 246.586 41.8786 247.105 42.2124C247.623 42.5462 248.03 43.0273 248.325 43.6559C248.623 44.2844 248.772 45.0408 248.772 45.9251C248.772 46.8093 248.625 47.5675 248.33 48.1996C248.035 48.8281 247.63 49.3129 247.115 49.6538C246.601 49.9911 246.013 50.1598 245.352 50.1598C244.855 50.1598 244.449 50.0763 244.133 49.9094C243.82 49.7425 243.575 49.5472 243.397 49.3235C243.22 49.0998 243.083 48.9009 242.987 48.7269H242.891V53.0682H241.299ZM242.859 45.9091C242.859 46.4844 242.943 46.9886 243.11 47.4219C243.277 47.8551 243.518 48.1942 243.834 48.4393C244.15 48.6808 244.537 48.8015 244.995 48.8015C245.471 48.8015 245.869 48.6754 246.189 48.4233C246.508 48.1676 246.75 47.8214 246.913 47.3846C247.08 46.9478 247.163 46.456 247.163 45.9091C247.163 45.3693 247.082 44.8846 246.918 44.4549C246.759 44.0252 246.517 43.6861 246.194 43.4375C245.874 43.1889 245.475 43.0646 244.995 43.0646C244.534 43.0646 244.143 43.1836 243.824 43.4215C243.508 43.6594 243.268 43.9915 243.104 44.4176C242.941 44.8437 242.859 45.3409 242.859 45.9091ZM252.938 50.1811C252.419 50.1811 251.95 50.0852 251.531 49.8935C251.112 49.6982 250.78 49.4158 250.535 49.0465C250.294 48.6772 250.173 48.2244 250.173 47.6882C250.173 47.2266 250.262 46.8466 250.439 46.5483C250.617 46.25 250.857 46.0138 251.158 45.8398C251.46 45.6658 251.798 45.5344 252.17 45.4457C252.543 45.3569 252.923 45.2894 253.31 45.2433C253.8 45.1864 254.198 45.1403 254.504 45.1048C254.809 45.0657 255.031 45.0036 255.169 44.9183C255.308 44.8331 255.377 44.6946 255.377 44.5028V44.4656C255.377 44.0004 255.246 43.6399 254.983 43.3842C254.724 43.1286 254.337 43.0007 253.822 43.0007C253.286 43.0007 252.863 43.1197 252.554 43.3576C252.249 43.592 252.037 43.853 251.92 44.1406L250.423 43.7997C250.601 43.3026 250.86 42.9013 251.201 42.5959C251.545 42.2869 251.941 42.0632 252.389 41.9247C252.836 41.7827 253.307 41.7116 253.8 41.7116C254.127 41.7116 254.473 41.7507 254.839 41.8288C255.208 41.9034 255.553 42.0419 255.873 42.2443C256.196 42.4467 256.46 42.7362 256.666 43.1126C256.872 43.4854 256.975 43.9702 256.975 44.5668V50H255.42V48.8814H255.356C255.253 49.0874 255.098 49.2898 254.892 49.4886C254.686 49.6875 254.422 49.8526 254.099 49.984C253.776 50.1154 253.389 50.1811 252.938 50.1811ZM253.284 48.9027C253.724 48.9027 254.101 48.8157 254.413 48.6417C254.729 48.4677 254.969 48.2404 255.132 47.9599C255.299 47.6758 255.383 47.3722 255.383 47.049V45.9943C255.326 46.0511 255.216 46.1044 255.052 46.1541C254.892 46.2003 254.71 46.2411 254.504 46.2766C254.298 46.3086 254.097 46.3388 253.902 46.3672C253.706 46.392 253.543 46.4134 253.412 46.4311C253.103 46.4702 252.82 46.5359 252.565 46.6282C252.313 46.7205 252.11 46.8537 251.957 47.0277C251.808 47.1982 251.734 47.4254 251.734 47.7095C251.734 48.1037 251.879 48.402 252.17 48.6044C252.462 48.8033 252.833 48.9027 253.284 48.9027ZM81.5242 61.1925V59.8182H88.4276V61.1925H85.7589V68H84.2035V61.1925H81.5242ZM93.2576 68.1651C92.4515 68.1651 91.7572 67.9929 91.1748 67.6484C90.596 67.3004 90.1486 66.8121 89.8325 66.1836C89.52 65.5515 89.3638 64.8111 89.3638 63.9624C89.3638 63.1243 89.52 62.3857 89.8325 61.7464C90.1486 61.1072 90.5889 60.6083 91.1535 60.2496C91.7217 59.891 92.3858 59.7116 93.1457 59.7116C93.6074 59.7116 94.0548 59.788 94.4881 59.9407C94.9213 60.0934 95.3101 60.3331 95.6546 60.6598C95.9991 60.9865 96.2707 61.4109 96.4696 61.9329C96.6685 62.4513 96.7679 63.0817 96.7679 63.8239V64.3885H90.264V63.1953H95.2072C95.2072 62.7763 95.1219 62.4052 94.9515 62.082C94.781 61.7553 94.5413 61.4979 94.2324 61.3097C93.927 61.1214 93.5683 61.0273 93.1564 61.0273C92.7089 61.0273 92.3183 61.1374 91.9845 61.3576C91.6543 61.5742 91.3986 61.8583 91.2175 62.2099C91.0399 62.5579 90.9511 62.9361 90.9511 63.3445V64.2766C90.9511 64.8235 91.047 65.2887 91.2388 65.6722C91.4341 66.0558 91.7057 66.3487 92.0538 66.5511C92.4018 66.75 92.8084 66.8494 93.2736 66.8494C93.5754 66.8494 93.8506 66.8068 94.0992 66.7216C94.3478 66.6328 94.5626 66.5014 94.7437 66.3274C94.9248 66.1534 95.0633 65.9386 95.1592 65.6829L96.6667 65.9545C96.5459 66.3984 96.3293 66.7873 96.0168 67.1211C95.7079 67.4513 95.319 67.7088 94.8503 67.8935C94.3851 68.0746 93.8542 68.1651 93.2576 68.1651ZM104.847 56.7713L105.508 57.7781C105.263 58.0018 104.984 58.1616 104.671 58.2575C104.362 58.3498 104.006 58.4084 103.601 58.4332C103.196 58.4545 102.732 58.4741 102.21 58.4918C101.621 58.5096 101.136 58.6374 100.756 58.8754C100.376 59.1097 100.083 59.4577 99.8774 59.9194C99.6749 60.3775 99.5435 60.9528 99.4832 61.6452H99.5844C99.8507 61.1374 100.22 60.7575 100.692 60.5053C101.168 60.2532 101.703 60.1271 102.296 60.1271C102.956 60.1271 103.544 60.2781 104.059 60.5799C104.574 60.8817 104.979 61.3239 105.273 61.9062C105.572 62.4851 105.721 63.1935 105.721 64.0316C105.721 64.8803 105.564 65.6136 105.252 66.2315C104.943 66.8494 104.506 67.3271 103.942 67.6644C103.381 67.9982 102.718 68.1651 101.955 68.1651C101.191 68.1651 100.525 67.9929 99.9573 67.6484C99.3926 67.3004 98.9541 66.7855 98.6416 66.1037C98.3326 65.4219 98.1781 64.5803 98.1781 63.5788V62.7692C98.1781 60.8977 98.5119 59.4897 99.1796 58.5451C99.8472 57.6005 100.845 57.1158 102.173 57.0909C102.603 57.0803 102.986 57.0785 103.324 57.0856C103.661 57.0891 103.956 57.0732 104.208 57.0376C104.464 56.9986 104.677 56.9098 104.847 56.7713ZM101.96 66.8281C102.404 66.8281 102.786 66.7163 103.105 66.4925C103.428 66.2653 103.677 65.9439 103.851 65.5284C104.025 65.1129 104.112 64.6229 104.112 64.0582C104.112 63.5043 104.025 63.0337 103.851 62.6467C103.677 62.2596 103.428 61.9648 103.105 61.7624C102.782 61.5565 102.395 61.4535 101.944 61.4535C101.61 61.4535 101.312 61.5121 101.049 61.6293C100.786 61.7429 100.561 61.9116 100.373 62.1353C100.188 62.359 100.044 62.6325 99.9413 62.9556C99.8418 63.2752 99.7886 63.6428 99.7815 64.0582C99.7815 64.9034 99.975 65.5763 100.362 66.0771C100.753 66.5778 101.285 66.8281 101.96 66.8281ZM111.026 68.1651C110.22 68.1651 109.526 67.9929 108.943 67.6484C108.365 67.3004 107.917 66.8121 107.601 66.1836C107.289 65.5515 107.132 64.8111 107.132 63.9624C107.132 63.1243 107.289 62.3857 107.601 61.7464C107.917 61.1072 108.357 60.6083 108.922 60.2496C109.49 59.891 110.154 59.7116 110.914 59.7116C111.376 59.7116 111.823 59.788 112.257 59.9407C112.69 60.0934 113.079 60.3331 113.423 60.6598C113.768 60.9865 114.039 61.4109 114.238 61.9329C114.437 62.4513 114.536 63.0817 114.536 63.8239V64.3885H108.033V63.1953H112.976C112.976 62.7763 112.89 62.4052 112.72 62.082C112.55 61.7553 112.31 61.4979 112.001 61.3097C111.696 61.1214 111.337 61.0273 110.925 61.0273C110.477 61.0273 110.087 61.1374 109.753 61.3576C109.423 61.5742 109.167 61.8583 108.986 62.2099C108.808 62.5579 108.72 62.9361 108.72 63.3445V64.2766C108.72 64.8235 108.816 65.2887 109.007 65.6722C109.203 66.0558 109.474 66.3487 109.822 66.5511C110.17 66.75 110.577 66.8494 111.042 66.8494C111.344 66.8494 111.619 66.8068 111.868 66.7216C112.116 66.6328 112.331 66.5014 112.512 66.3274C112.693 66.1534 112.832 65.9386 112.928 65.6829L114.435 65.9545C114.314 66.3984 114.098 66.7873 113.785 67.1211C113.476 67.4513 113.088 67.7088 112.619 67.8935C112.154 68.0746 111.623 68.1651 111.026 68.1651ZM120.273 68V59.8182H126.948V68H125.387V61.1925H121.823V68H120.273ZM132.523 68.1651C131.756 68.1651 131.087 67.9893 130.515 67.6378C129.943 67.2862 129.5 66.7944 129.184 66.1623C128.867 65.5302 128.709 64.7915 128.709 63.9464C128.709 63.0977 128.867 62.3555 129.184 61.7198C129.5 61.0842 129.943 60.5906 130.515 60.239C131.087 59.8874 131.756 59.7116 132.523 59.7116C133.29 59.7116 133.96 59.8874 134.532 60.239C135.103 60.5906 135.547 61.0842 135.863 61.7198C136.179 62.3555 136.337 63.0977 136.337 63.9464C136.337 64.7915 136.179 65.5302 135.863 66.1623C135.547 66.7944 135.103 67.2862 134.532 67.6378C133.96 67.9893 133.29 68.1651 132.523 68.1651ZM132.529 66.8281C133.026 66.8281 133.438 66.6967 133.765 66.4339C134.091 66.1712 134.333 65.8214 134.489 65.3846C134.649 64.9478 134.729 64.4666 134.729 63.9411C134.729 63.419 134.649 62.9396 134.489 62.5028C134.333 62.0625 134.091 61.7092 133.765 61.4428C133.438 61.1765 133.026 61.0433 132.529 61.0433C132.028 61.0433 131.613 61.1765 131.282 61.4428C130.956 61.7092 130.712 62.0625 130.553 62.5028C130.396 62.9396 130.318 63.419 130.318 63.9411C130.318 64.4666 130.396 64.9478 130.553 65.3846C130.712 65.8214 130.956 66.1712 131.282 66.4339C131.613 66.6967 132.028 66.8281 132.529 66.8281ZM138.115 68V59.8182H139.708V63.2486H140.475L143.175 59.8182H145.146L141.977 63.7972L145.184 68H143.207L140.741 64.7294H139.708V68H138.115ZM148.802 68.1811C148.283 68.1811 147.815 68.0852 147.396 67.8935C146.977 67.6982 146.644 67.4158 146.399 67.0465C146.158 66.6772 146.037 66.2244 146.037 65.6882C146.037 65.2266 146.126 64.8466 146.304 64.5483C146.481 64.25 146.721 64.0138 147.023 63.8398C147.325 63.6658 147.662 63.5344 148.035 63.4457C148.408 63.3569 148.788 63.2894 149.175 63.2433C149.665 63.1864 150.062 63.1403 150.368 63.1048C150.673 63.0657 150.895 63.0036 151.034 62.9183C151.172 62.8331 151.241 62.6946 151.241 62.5028V62.4656C151.241 62.0004 151.11 61.6399 150.847 61.3842C150.588 61.1286 150.201 61.0007 149.686 61.0007C149.15 61.0007 148.727 61.1197 148.418 61.3576C148.113 61.592 147.902 61.853 147.784 62.1406L146.288 61.7997C146.465 61.3026 146.724 60.9013 147.065 60.5959C147.41 60.2869 147.806 60.0632 148.253 59.9247C148.701 59.7827 149.171 59.7116 149.665 59.7116C149.991 59.7116 150.338 59.7507 150.703 59.8288C151.073 59.9034 151.417 60.0419 151.737 60.2443C152.06 60.4467 152.325 60.7362 152.53 61.1126C152.736 61.4854 152.839 61.9702 152.839 62.5668V68H151.284V66.8814H151.22C151.117 67.0874 150.963 67.2898 150.757 67.4886C150.551 67.6875 150.286 67.8526 149.963 67.984C149.64 68.1154 149.253 68.1811 148.802 68.1811ZM149.148 66.9027C149.588 66.9027 149.965 66.8157 150.277 66.6417C150.593 66.4677 150.833 66.2404 150.996 65.9599C151.163 65.6758 151.247 65.3722 151.247 65.049V63.9943C151.19 64.0511 151.08 64.1044 150.917 64.1541C150.757 64.2003 150.574 64.2411 150.368 64.2766C150.162 64.3086 149.961 64.3388 149.766 64.3672C149.571 64.392 149.407 64.4134 149.276 64.4311C148.967 64.4702 148.685 64.5359 148.429 64.6282C148.177 64.7205 147.974 64.8537 147.822 65.0277C147.673 65.1982 147.598 65.4254 147.598 65.7095C147.598 66.1037 147.744 66.402 148.035 66.6044C148.326 66.8033 148.697 66.9027 149.148 66.9027ZM154.476 65.8374H156.106C156.127 66.1712 156.278 66.4286 156.559 66.6097C156.843 66.7908 157.21 66.8814 157.661 66.8814C158.12 66.8814 158.51 66.7837 158.833 66.5884C159.156 66.3896 159.318 66.0824 159.318 65.6669C159.318 65.4183 159.256 65.2017 159.132 65.017C159.011 64.8288 158.839 64.6832 158.615 64.5803C158.395 64.4773 158.134 64.4258 157.832 64.4258H156.5V63.174H157.832C158.283 63.174 158.62 63.071 158.844 62.8651C159.068 62.6591 159.18 62.4016 159.18 62.0927C159.18 61.7589 159.059 61.4908 158.817 61.2884C158.579 61.0824 158.247 60.9794 157.821 60.9794C157.388 60.9794 157.028 61.0771 156.74 61.2724C156.452 61.4641 156.301 61.7127 156.287 62.0181H154.678C154.689 61.56 154.828 61.1587 155.094 60.8143C155.364 60.4663 155.726 60.1964 156.181 60.0046C156.639 59.8093 157.159 59.7116 157.741 59.7116C158.349 59.7116 158.874 59.8093 159.318 60.0046C159.762 60.1999 160.105 60.4698 160.346 60.8143C160.591 61.1587 160.714 61.5547 160.714 62.0021C160.714 62.4531 160.579 62.8224 160.309 63.1101C160.042 63.3942 159.694 63.5984 159.265 63.7227V63.8079C159.581 63.8292 159.861 63.9251 160.106 64.0955C160.351 64.266 160.543 64.4915 160.682 64.772C160.82 65.0526 160.889 65.3704 160.889 65.7255C160.889 66.2262 160.751 66.6594 160.474 67.0252C160.201 67.391 159.821 67.6733 159.334 67.8722C158.851 68.0675 158.299 68.1651 157.677 68.1651C157.074 68.1651 156.532 68.071 156.053 67.8828C155.577 67.6911 155.199 67.4212 154.918 67.0732C154.641 66.7251 154.494 66.3132 154.476 65.8374ZM164.915 68.1811C164.397 68.1811 163.928 68.0852 163.509 67.8935C163.09 67.6982 162.758 67.4158 162.513 67.0465C162.271 66.6772 162.151 66.2244 162.151 65.6882C162.151 65.2266 162.239 64.8466 162.417 64.5483C162.594 64.25 162.834 64.0138 163.136 63.8398C163.438 63.6658 163.775 63.5344 164.148 63.4457C164.521 63.3569 164.901 63.2894 165.288 63.2433C165.778 63.1864 166.176 63.1403 166.481 63.1048C166.787 63.0657 167.008 63.0036 167.147 62.9183C167.285 62.8331 167.355 62.6946 167.355 62.5028V62.4656C167.355 62.0004 167.223 61.6399 166.961 61.3842C166.701 61.1286 166.314 61.0007 165.799 61.0007C165.263 61.0007 164.841 61.1197 164.532 61.3576C164.226 61.592 164.015 61.853 163.898 62.1406L162.401 61.7997C162.578 61.3026 162.838 60.9013 163.179 60.5959C163.523 60.2869 163.919 60.0632 164.366 59.9247C164.814 59.7827 165.284 59.7116 165.778 59.7116C166.105 59.7116 166.451 59.7507 166.817 59.8288C167.186 59.9034 167.53 60.0419 167.85 60.2443C168.173 60.4467 168.438 60.7362 168.644 61.1126C168.85 61.4854 168.953 61.9702 168.953 62.5668V68H167.397V66.8814H167.333C167.23 67.0874 167.076 67.2898 166.87 67.4886C166.664 67.6875 166.399 67.8526 166.076 67.984C165.753 68.1154 165.366 68.1811 164.915 68.1811ZM165.261 66.9027C165.702 66.9027 166.078 66.8157 166.391 66.6417C166.707 66.4677 166.946 66.2404 167.11 65.9599C167.277 65.6758 167.36 65.3722 167.36 65.049V63.9943C167.303 64.0511 167.193 64.1044 167.03 64.1541C166.87 64.2003 166.687 64.2411 166.481 64.2766C166.275 64.3086 166.075 64.3388 165.879 64.3672C165.684 64.392 165.521 64.4134 165.389 64.4311C165.08 64.4702 164.798 64.5359 164.542 64.6282C164.29 64.7205 164.088 64.8537 163.935 65.0277C163.786 65.1982 163.711 65.4254 163.711 65.7095C163.711 66.1037 163.857 66.402 164.148 66.6044C164.439 66.8033 164.81 66.9027 165.261 66.9027ZM170.059 61.1925V59.8182H176.963V61.1925H174.294V68H172.739V61.1925H170.059ZM179.846 62.6307H182.222C183.223 62.6307 183.994 62.8793 184.533 63.3764C185.073 63.8736 185.343 64.5146 185.343 65.2994C185.343 65.8107 185.222 66.2706 184.981 66.679C184.739 67.0874 184.386 67.4105 183.921 67.6484C183.456 67.8828 182.889 68 182.222 68H178.647V59.8182H180.208V66.6257H182.222C182.68 66.6257 183.056 66.5067 183.351 66.2688C183.646 66.0273 183.793 65.7202 183.793 65.3473C183.793 64.9531 183.646 64.6317 183.351 64.3832C183.056 64.131 182.68 64.005 182.222 64.005H179.846V62.6307Z" fill="#002033" fill-opacity="0.5"/>
<path d="M102.353 191.364C102.353 192.131 102.214 192.794 101.938 193.352C101.661 193.911 101.281 194.342 100.798 194.645C100.315 194.948 99.763 195.099 99.1428 195.099C98.5225 195.099 97.9709 194.948 97.4879 194.645C97.005 194.342 96.625 193.911 96.348 193.352C96.071 192.794 95.9325 192.131 95.9325 191.364C95.9325 190.597 96.071 189.934 96.348 189.375C96.625 188.816 97.005 188.385 97.4879 188.082C97.9709 187.779 98.5225 187.628 99.1428 187.628C99.763 187.628 100.315 187.779 100.798 188.082C101.281 188.385 101.661 188.816 101.938 189.375C102.214 189.934 102.353 190.597 102.353 191.364ZM101.501 191.364C101.501 190.734 101.395 190.202 101.185 189.769C100.976 189.336 100.693 189.008 100.336 188.786C99.9808 188.563 99.5831 188.452 99.1428 188.452C98.7024 188.452 98.3035 188.563 97.946 188.786C97.5909 189.008 97.308 189.336 97.0973 189.769C96.889 190.202 96.7848 190.734 96.7848 191.364C96.7848 191.993 96.889 192.525 97.0973 192.958C97.308 193.391 97.5909 193.719 97.946 193.942C98.3035 194.164 98.7024 194.276 99.1428 194.276C99.5831 194.276 99.9808 194.164 100.336 193.942C100.693 193.719 100.976 193.391 101.185 192.958C101.395 192.525 101.501 191.993 101.501 191.364ZM107.768 187.5L108.195 188.011C108.029 188.172 107.837 188.285 107.619 188.349C107.402 188.413 107.155 188.452 106.881 188.466C106.606 188.48 106.301 188.494 105.964 188.509C105.586 188.523 105.272 188.615 105.023 188.786C104.775 188.956 104.583 189.202 104.448 189.524C104.313 189.846 104.227 190.241 104.189 190.71H104.26C104.445 190.369 104.7 190.118 105.027 189.957C105.354 189.796 105.704 189.716 106.078 189.716C106.504 189.716 106.888 189.815 107.229 190.014C107.57 190.213 107.839 190.508 108.038 190.898C108.237 191.289 108.337 191.771 108.337 192.344C108.337 192.914 108.235 193.407 108.031 193.821C107.83 194.235 107.547 194.555 107.183 194.78C106.82 195.002 106.395 195.114 105.908 195.114C105.42 195.114 104.993 194.999 104.626 194.769C104.259 194.537 103.973 194.194 103.77 193.739C103.566 193.282 103.464 192.718 103.464 192.045V191.463C103.464 190.249 103.67 189.328 104.082 188.7C104.497 188.073 105.119 187.749 105.95 187.727C106.244 187.718 106.505 187.715 106.735 187.72C106.965 187.725 107.165 187.714 107.335 187.688C107.506 187.662 107.65 187.599 107.768 187.5ZM105.908 194.361C106.237 194.361 106.52 194.278 106.756 194.112C106.996 193.946 107.179 193.713 107.307 193.413C107.435 193.11 107.499 192.753 107.499 192.344C107.499 191.946 107.433 191.607 107.303 191.328C107.175 191.049 106.992 190.836 106.753 190.689C106.514 190.542 106.227 190.469 105.893 190.469C105.65 190.469 105.431 190.51 105.237 190.593C105.042 190.676 104.877 190.798 104.739 190.959C104.602 191.12 104.496 191.316 104.42 191.548C104.346 191.78 104.307 192.045 104.303 192.344C104.303 192.955 104.446 193.443 104.732 193.81C105.019 194.177 105.411 194.361 105.908 194.361ZM117.062 194.219L116.962 196.562H116.096V195H115.386V194.219H117.062ZM109.619 189.545H110.457V194.219H112.516V189.545H113.354V194.219H115.414V189.545H116.252V195H109.619V189.545ZM119.886 195.128C119.54 195.128 119.227 195.063 118.945 194.933C118.663 194.8 118.439 194.609 118.274 194.361C118.108 194.11 118.025 193.807 118.025 193.452C118.025 193.139 118.087 192.886 118.21 192.692C118.333 192.495 118.497 192.341 118.703 192.23C118.909 192.119 119.137 192.036 119.385 191.982C119.636 191.925 119.888 191.88 120.142 191.847C120.473 191.804 120.742 191.772 120.948 191.751C121.156 191.727 121.307 191.688 121.402 191.634C121.499 191.579 121.548 191.484 121.548 191.349V191.321C121.548 190.971 121.452 190.698 121.26 190.504C121.071 190.31 120.783 190.213 120.397 190.213C119.997 190.213 119.683 190.301 119.456 190.476C119.229 190.651 119.069 190.838 118.977 191.037L118.181 190.753C118.323 190.421 118.513 190.163 118.749 189.979C118.989 189.792 119.249 189.661 119.531 189.588C119.815 189.512 120.094 189.474 120.369 189.474C120.544 189.474 120.745 189.496 120.972 189.538C121.202 189.579 121.423 189.663 121.637 189.79C121.852 189.918 122.031 190.111 122.173 190.369C122.315 190.627 122.386 190.973 122.386 191.406V195H121.548V194.261H121.505C121.448 194.38 121.354 194.506 121.221 194.641C121.088 194.776 120.912 194.891 120.692 194.986C120.472 195.08 120.203 195.128 119.886 195.128ZM120.014 194.375C120.345 194.375 120.624 194.31 120.852 194.18C121.081 194.049 121.254 193.881 121.37 193.675C121.489 193.469 121.548 193.253 121.548 193.026V192.259C121.512 192.301 121.434 192.34 121.313 192.376C121.195 192.409 121.058 192.438 120.901 192.464C120.748 192.488 120.597 192.509 120.45 192.528C120.306 192.545 120.189 192.559 120.099 192.571C119.881 192.599 119.677 192.646 119.488 192.71C119.301 192.771 119.15 192.865 119.034 192.99C118.92 193.113 118.863 193.281 118.863 193.494C118.863 193.786 118.971 194.006 119.186 194.155C119.404 194.302 119.68 194.375 120.014 194.375ZM127.282 189.545V190.327H124.754V195H123.915V189.545H127.282ZM129.343 193.764L131.971 189.545H132.937V195H132.099V190.781L129.485 195H128.505V189.545H129.343V193.764ZM136.972 190.327V189.545H141.404V190.327H139.614V195H138.776V190.327H136.972ZM143.464 193.764L146.092 189.545H147.058V195H146.22V190.781L143.607 195H142.626V189.545H143.464V193.764ZM151.576 193.864L153.48 189.545H154.275L151.917 195H151.235L148.92 189.545H149.701L151.576 193.864ZM149.431 189.545V195H148.593V189.545H149.431ZM153.721 195V189.545H154.559V195H153.721ZM156.093 195V189.545H156.931V191.918H157.485L159.445 189.545H160.525L158.323 192.173L160.553 195H159.474L157.684 192.699H156.931V195H156.093ZM162.302 193.764L164.93 189.545H165.896V195H165.058V190.781L162.444 195H161.464V189.545H162.302V193.764Z" fill="#002033" fill-opacity="0.5"/>
<path d="M118.819 99.2439C118.819 102.877 117.761 106.626 118.349 110.218C118.753 112.69 119.473 114.896 119.495 117.435C119.517 119.99 119.495 122.546 119.495 125.102C119.495 128.66 119.495 132.218 119.495 135.776C119.495 139.404 118.703 142.955 118.462 146.581C118.145 151.329 117.466 155.851 117.466 160.637C117.466 163.999 117.127 167.381 117.127 170.766C117.127 171.699 116.732 177.567 117.334 177.7C119.331 178.144 121.815 177.043 123.893 177.043C126.26 177.043 128.628 177.043 130.996 177.043C135.653 177.043 140.346 178.058 145.033 178.058C147.588 178.058 146.796 176.715 147.42 174.487C148.439 170.847 149.123 166.964 149.28 163.193C149.502 157.881 149.6 152.602 149.6 147.276C149.6 139.758 151.03 132.497 150.352 124.951C149.938 120.35 150.276 115.587 150.276 110.97C150.276 107.455 149.938 103.968 149.938 100.447C149.938 95.2321 149.527 90.17 148.923 85.0372C148.773 83.7591 142.14 84.0224 141.219 84.0224C137.617 84.0224 134.112 84.6543 130.545 84.6989C129.059 84.7175 118.182 84.3302 118.142 85.7137C118.054 88.8019 118.324 92.3083 119.232 95.26C119.801 97.1102 119.495 99.3379 119.495 101.273" stroke="#002033" stroke-opacity="0.5" stroke-width="3" stroke-linecap="round"/>
<path d="M124.906 93.8304C125.615 93.7595 126.203 93.4922 126.936 93.4922" stroke="#002033" stroke-opacity="0.5" stroke-width="3" stroke-linecap="round"/>
<path d="M136.746 94.5085C136.808 94.0146 138.589 94.0071 139.114 93.832" stroke="#002033" stroke-opacity="0.5" stroke-width="3" stroke-linecap="round"/>
<path d="M144.525 95.5215H145.54" stroke="#002033" stroke-opacity="0.5" stroke-width="3" stroke-linecap="round"/>
<path d="M128.289 106.685C128.289 105.005 130.886 105.78 131.672 104.994" stroke="#002033" stroke-opacity="0.5" stroke-width="3" stroke-linecap="round"/>
<path d="M139.113 106.008H140.466" stroke="#002033" stroke-opacity="0.5" stroke-width="3" stroke-linecap="round"/>
<path d="M124.568 116.493C124.86 115.327 130.827 115.817 132.01 115.817" stroke="#002033" stroke-opacity="0.5" stroke-width="3" stroke-linecap="round"/>
<path d="M137.76 118.862C139.472 118.481 140.407 116.832 142.495 116.832" stroke="#002033" stroke-opacity="0.5" stroke-width="3" stroke-linecap="round"/>
<path d="M142.834 125.289H144.525" stroke="#002033" stroke-opacity="0.5" stroke-width="3" stroke-linecap="round"/>
<path d="M126.26 131.378C127.934 129.792 130.073 129.072 132.01 130.363" stroke="#002033" stroke-opacity="0.5" stroke-width="3" stroke-linecap="round"/>
<path d="M134.377 137.805C135.97 137.805 137.516 137.467 139.113 137.467" stroke="#002033" stroke-opacity="0.5" stroke-width="3" stroke-linecap="round"/>
<path d="M142.158 141.188H143.849" stroke="#002033" stroke-opacity="0.5" stroke-width="3" stroke-linecap="round"/>
<path d="M126.936 145.246H128.627" stroke="#002033" stroke-opacity="0.5" stroke-width="3" stroke-linecap="round"/>
<path d="M134.039 149.981C135.458 149.545 136.976 149.57 138.436 149.305" stroke="#002033" stroke-opacity="0.5" stroke-width="3" stroke-linecap="round"/>
<path d="M140.467 153.702C141.35 153.702 142.05 153.648 142.835 154.04" stroke="#002033" stroke-opacity="0.5" stroke-width="3" stroke-linecap="round"/>
<path d="M124.906 155.395C125.097 154.949 127.433 155.668 127.951 155.733" stroke="#002033" stroke-opacity="0.5" stroke-width="3" stroke-linecap="round"/>
<path d="M134.377 161.821C135.751 161.696 137.037 161.482 138.436 161.482" stroke="#002033" stroke-opacity="0.5" stroke-width="3" stroke-linecap="round"/>
<path d="M121.186 166.218C121.343 164.801 124.263 165.203 125.245 165.203" stroke="#002033" stroke-opacity="0.5" stroke-width="3" stroke-linecap="round"/>
<path d="M128.29 175.689C128.29 173.648 127.973 171.299 128.309 169.281C128.797 166.351 129.986 168.502 131.673 168.586C132.275 168.616 133.824 168.278 134.303 168.661C134.956 169.183 134.379 170.474 134.379 171.273C134.379 172.303 133.74 173.172 133.74 174.13C133.74 174.607 134.04 175.386 134.04 176.028" stroke="#002033" stroke-opacity="0.5" stroke-width="3" stroke-linecap="round"/>
<path d="M138.775 169.6C139.717 169.6 140.596 169.744 141.143 168.924" stroke="#002033" stroke-opacity="0.5" stroke-width="3" stroke-linecap="round"/>
<path d="M79.3016 119.91C79.3016 122.51 78.5447 125.193 78.9654 127.764C79.2548 129.533 79.7701 131.112 79.7858 132.929C79.8015 134.757 79.7858 136.587 79.7858 138.416C79.7858 140.962 79.7858 143.509 79.7858 146.055C79.7858 148.652 79.2191 151.193 79.0461 153.788C78.8195 157.187 78.3333 160.423 78.3333 163.848C78.3333 166.254 78.0912 168.675 78.0912 171.097C78.0912 171.765 77.8083 175.964 78.2391 176.06C79.6684 176.378 81.446 175.589 82.9329 175.589C84.6275 175.589 86.3221 175.589 88.0167 175.589C91.3497 175.589 94.7083 176.316 98.0632 176.316C99.8912 176.316 99.3249 175.355 99.7713 173.76C100.501 171.155 100.99 168.376 101.103 165.677C101.261 161.876 101.331 158.098 101.331 154.286C101.331 148.905 102.355 143.709 101.869 138.308C101.573 135.015 101.816 131.607 101.816 128.302C101.816 125.787 101.573 123.291 101.573 120.771C101.573 117.039 101.279 113.416 100.847 109.742C100.74 108.828 95.9927 109.016 95.333 109.016C92.7552 109.016 90.2466 109.468 87.6939 109.5C86.6306 109.514 78.8457 109.236 78.8174 110.226C78.7543 112.437 78.9475 114.946 79.5975 117.059C80.0049 118.383 79.7858 119.977 79.7858 121.362" stroke="#002033" stroke-opacity="0.5" stroke-width="3" stroke-linecap="round"/>
<path d="M83.6582 116.035C84.1658 115.984 84.5862 115.793 85.1107 115.793" stroke="#002033" stroke-opacity="0.5" stroke-width="3" stroke-linecap="round"/>
<path d="M92.1328 116.521C92.177 116.168 93.4514 116.162 93.8274 116.037" stroke="#002033" stroke-opacity="0.5" stroke-width="3" stroke-linecap="round"/>
<path d="M97.6992 117.246H98.4255" stroke="#002033" stroke-opacity="0.5" stroke-width="3" stroke-linecap="round"/>
<path d="M86.0801 125.236C86.0801 124.033 87.9385 124.588 88.5009 124.025" stroke="#002033" stroke-opacity="0.5" stroke-width="3" stroke-linecap="round"/>
<path d="M93.8262 124.75H94.7945" stroke="#002033" stroke-opacity="0.5" stroke-width="3" stroke-linecap="round"/>
<path d="M83.416 132.254C83.6247 131.42 87.8954 131.77 88.7419 131.77" stroke="#002033" stroke-opacity="0.5" stroke-width="3" stroke-linecap="round"/>
<path d="M92.8574 133.951C94.083 133.678 94.7521 132.498 96.2466 132.498" stroke="#002033" stroke-opacity="0.5" stroke-width="3" stroke-linecap="round"/>
<path d="M96.4883 138.551H97.6987" stroke="#002033" stroke-opacity="0.5" stroke-width="3" stroke-linecap="round"/>
<path d="M84.627 142.908C85.8254 141.773 87.356 141.258 88.7424 142.182" stroke="#002033" stroke-opacity="0.5" stroke-width="3" stroke-linecap="round"/>
<path d="M90.4355 147.508C91.5754 147.508 92.6823 147.266 93.8247 147.266" stroke="#002033" stroke-opacity="0.5" stroke-width="3" stroke-linecap="round"/>
<path d="M96.0059 149.928H97.2163" stroke="#002033" stroke-opacity="0.5" stroke-width="3" stroke-linecap="round"/>
<path d="M85.1113 152.834H86.3218" stroke="#002033" stroke-opacity="0.5" stroke-width="3" stroke-linecap="round"/>
<path d="M90.1953 156.222C91.2108 155.91 92.297 155.928 93.3424 155.738" stroke="#002033" stroke-opacity="0.5" stroke-width="3" stroke-linecap="round"/>
<path d="M94.7949 158.885C95.427 158.885 95.9281 158.846 96.4895 159.127" stroke="#002033" stroke-opacity="0.5" stroke-width="3" stroke-linecap="round"/>
<path d="M83.6582 160.096C83.7948 159.777 85.4666 160.291 85.837 160.338" stroke="#002033" stroke-opacity="0.5" stroke-width="3" stroke-linecap="round"/>
<path d="M90.4355 164.695C91.4192 164.606 92.3395 164.453 93.3406 164.453" stroke="#002033" stroke-opacity="0.5" stroke-width="3" stroke-linecap="round"/>
<path d="M80.9961 167.842C81.1087 166.828 83.1988 167.116 83.9011 167.116" stroke="#002033" stroke-opacity="0.5" stroke-width="3" stroke-linecap="round"/>
<path d="M86.0795 174.62C86.0795 173.159 85.8523 171.478 86.093 170.034C86.4425 167.937 87.2936 169.476 88.5004 169.537C88.9318 169.558 90.0405 169.316 90.3833 169.59C90.8505 169.964 90.4371 170.888 90.4371 171.46C90.4371 172.197 89.9798 172.819 89.9798 173.504C89.9798 173.846 90.195 174.403 90.195 174.862" stroke="#002033" stroke-opacity="0.5" stroke-width="3" stroke-linecap="round"/>
<path d="M93.584 170.263C94.258 170.263 94.8872 170.366 95.2786 169.779" stroke="#002033" stroke-opacity="0.5" stroke-width="3" stroke-linecap="round"/>
<path d="M167.03 131.637C167.03 133.695 166.431 135.82 166.764 137.855C166.993 139.255 167.401 140.505 167.414 141.944C167.426 143.391 167.414 144.84 167.414 146.288C167.414 148.304 167.414 150.319 167.414 152.335C167.414 154.391 166.965 156.403 166.828 158.457C166.649 161.148 166.264 163.71 166.264 166.422C166.264 168.326 166.072 170.243 166.072 172.16C166.072 172.689 165.848 176.014 166.189 176.089C167.321 176.341 168.728 175.717 169.905 175.717C171.247 175.717 172.588 175.717 173.93 175.717C176.569 175.717 179.227 176.292 181.883 176.292C183.331 176.292 182.882 175.531 183.236 174.269C183.813 172.206 184.201 170.006 184.29 167.87C184.415 164.86 184.471 161.869 184.471 158.851C184.471 154.592 185.281 150.478 184.897 146.202C184.662 143.595 184.854 140.897 184.854 138.281C184.854 136.289 184.662 134.313 184.662 132.318C184.662 129.364 184.429 126.496 184.087 123.588C184.002 122.864 180.244 123.013 179.722 123.013C177.681 123.013 175.695 123.371 173.674 123.396C172.833 123.407 166.67 123.187 166.647 123.971C166.597 125.721 166.75 127.707 167.265 129.38C167.587 130.428 167.414 131.69 167.414 132.787" stroke="#002033" stroke-opacity="0.5" stroke-width="3" stroke-linecap="round"/>
<path d="M170.479 128.569C170.88 128.528 171.213 128.377 171.628 128.377" stroke="#002033" stroke-opacity="0.5" stroke-width="3" stroke-linecap="round"/>
<path d="M177.188 128.954C177.222 128.674 178.231 128.67 178.529 128.57" stroke="#002033" stroke-opacity="0.5" stroke-width="3" stroke-linecap="round"/>
<path d="M181.596 129.527H182.171" stroke="#002033" stroke-opacity="0.5" stroke-width="3" stroke-linecap="round"/>
<path d="M172.396 135.853C172.396 134.901 173.868 135.34 174.313 134.895" stroke="#002033" stroke-opacity="0.5" stroke-width="3" stroke-linecap="round"/>
<path d="M178.529 135.469H179.296" stroke="#002033" stroke-opacity="0.5" stroke-width="3" stroke-linecap="round"/>
<path d="M170.287 141.41C170.452 140.749 173.833 141.027 174.503 141.027" stroke="#002033" stroke-opacity="0.5" stroke-width="3" stroke-linecap="round"/>
<path d="M177.762 142.753C178.732 142.538 179.262 141.604 180.445 141.604" stroke="#002033" stroke-opacity="0.5" stroke-width="3" stroke-linecap="round"/>
<path d="M180.637 146.395H181.595" stroke="#002033" stroke-opacity="0.5" stroke-width="3" stroke-linecap="round"/>
<path d="M171.246 149.843C172.195 148.944 173.407 148.536 174.504 149.268" stroke="#002033" stroke-opacity="0.5" stroke-width="3" stroke-linecap="round"/>
<path d="M175.846 153.485C176.748 153.485 177.624 153.293 178.529 153.293" stroke="#002033" stroke-opacity="0.5" stroke-width="3" stroke-linecap="round"/>
<path d="M180.254 155.4H181.212" stroke="#002033" stroke-opacity="0.5" stroke-width="3" stroke-linecap="round"/>
<path d="M171.629 157.701H172.587" stroke="#002033" stroke-opacity="0.5" stroke-width="3" stroke-linecap="round"/>
<path d="M175.654 160.385C176.458 160.138 177.318 160.152 178.146 160.002" stroke="#002033" stroke-opacity="0.5" stroke-width="3" stroke-linecap="round"/>
<path d="M179.297 162.492C179.797 162.492 180.194 162.461 180.638 162.683" stroke="#002033" stroke-opacity="0.5" stroke-width="3" stroke-linecap="round"/>
<path d="M170.479 163.451C170.587 163.199 171.91 163.606 172.203 163.643" stroke="#002033" stroke-opacity="0.5" stroke-width="3" stroke-linecap="round"/>
<path d="M175.846 167.092C176.624 167.021 177.353 166.9 178.146 166.9" stroke="#002033" stroke-opacity="0.5" stroke-width="3" stroke-linecap="round"/>
<path d="M168.371 169.583C168.46 168.781 170.115 169.008 170.671 169.008" stroke="#002033" stroke-opacity="0.5" stroke-width="3" stroke-linecap="round"/>
<path d="M172.397 174.95C172.397 173.793 172.217 172.462 172.408 171.319C172.685 169.659 173.358 170.877 174.314 170.925C174.655 170.942 175.533 170.751 175.804 170.968C176.174 171.264 175.847 171.995 175.847 172.448C175.847 173.031 175.485 173.523 175.485 174.066C175.485 174.336 175.655 174.778 175.655 175.141" stroke="#002033" stroke-opacity="0.5" stroke-width="3" stroke-linecap="round"/>
<path d="M178.338 171.5C178.871 171.5 179.37 171.582 179.679 171.117" stroke="#002033" stroke-opacity="0.5" stroke-width="3" stroke-linecap="round"/>
</svg>
