<svg width="11" height="13" viewBox="0 0 11 13" fill="none" xmlns="http://www.w3.org/2000/svg">
<path d="M5.25 0.650024C5.42405 0.650024 5.59097 0.727067 5.71404 0.864203C5.83711 1.00134 5.90625 1.18733 5.90625 1.38127V5.76877H9.84375C10.0178 5.76877 10.1847 5.84582 10.3078 5.98295C10.4309 6.12009 10.5 6.30608 10.5 6.50002C10.5 6.69396 10.4309 6.87996 10.3078 7.0171C10.1847 7.15423 10.0178 7.23127 9.84375 7.23127H5.90625V11.6188C5.90625 11.8127 5.83711 11.9987 5.71404 12.1358C5.59097 12.273 5.42405 12.35 5.25 12.35C5.07595 12.35 4.90903 12.273 4.78596 12.1358C4.66289 11.9987 4.59375 11.8127 4.59375 11.6188V7.23127H0.65625C0.482202 7.23127 0.315282 7.15423 0.192211 7.0171C0.0691406 6.87996 0 6.69396 0 6.50002C0 6.30608 0.0691406 6.12009 0.192211 5.98295C0.315282 5.84582 0.482202 5.76877 0.65625 5.76877H4.59375V1.38127C4.59375 1.18733 4.66289 1.00134 4.78596 0.864203C4.90903 0.727067 5.07595 0.650024 5.25 0.650024Z" fill="#002033"/>
</svg>
