<svg width="15" height="19" viewBox="0 0 15 19" fill="none" xmlns="http://www.w3.org/2000/svg">
<path d="M1 18L1.60316 17.1902C2.61441 15.8324 4.06324 14.8652 5.70499 14.4519V14.4519C6.88328 14.1553 8.11672 14.1553 9.29501 14.4519V14.4519C10.9368 14.8652 12.3856 15.8324 13.3968 17.1902L14 18" stroke="#002033" stroke-width="1.8"/>
<path d="M11.1 6C11.1 6.70667 10.6834 8.03759 9.92512 9.21614C9.1428 10.432 8.2523 11.1 7.5 11.1C6.7477 11.1 5.8572 10.432 5.07488 9.21614C4.31657 8.03759 3.9 6.70667 3.9 6C3.9 4.51905 4.35133 3.21294 5.03802 2.29736C5.7245 1.38206 6.60415 0.9 7.5 0.9C8.39585 0.9 9.2755 1.38206 9.96198 2.29736C10.6487 3.21294 11.1 4.51905 11.1 6Z" stroke="#002033" stroke-width="1.8"/>
</svg>
