<svg width="329" height="330" viewBox="0 0 329 330" fill="none" xmlns="http://www.w3.org/2000/svg">
<circle cx="164.5" cy="165" r="164.5" fill="#D9D9D9"/>
<path d="M97.8008 246.065L103.895 237.939C114.333 224.022 129.243 214.122 146.12 209.903V209.903C158.181 206.888 170.799 206.888 182.86 209.903V209.903C199.737 214.122 214.647 224.022 225.085 237.939L231.179 246.065" stroke="#002033" stroke-width="19"/>
<path d="M199.452 127.507C199.452 134.333 195.395 147.368 187.941 158.953C180.234 170.932 171.594 177.286 164.493 177.286C157.391 177.286 148.752 170.932 141.044 158.953C133.59 147.368 129.533 134.333 129.533 127.507C129.533 112.994 133.957 100.221 140.655 91.29C147.351 82.3621 155.876 77.7275 164.493 77.7275C173.109 77.7275 181.634 82.3621 188.33 91.29C195.028 100.221 199.452 112.994 199.452 127.507Z" stroke="#002033" stroke-width="19"/>
</svg>
