<svg width="14" height="17" viewBox="0 0 14 17" fill="none" xmlns="http://www.w3.org/2000/svg">
<path d="M1.24023 15.6799L1.76663 14.9781C2.66813 13.776 3.95592 12.921 5.41356 12.5566V12.5566C6.45531 12.2961 7.54516 12.2961 8.58691 12.5566V12.5566C10.0446 12.921 11.3323 13.776 12.2338 14.9781L12.7602 15.6799" stroke="#002033" stroke-width="1.5"/>
<path d="M10.0902 5.43995C10.0902 6.04759 9.73294 7.18669 9.08473 8.19412C8.41651 9.23265 7.65192 9.80995 7.00016 9.80995C6.34839 9.80995 5.58381 9.23265 4.91559 8.19412C4.26737 7.18668 3.91016 6.04759 3.91016 5.43995C3.91016 4.17268 4.29634 3.05426 4.88487 2.26956C5.47322 1.48509 6.22877 1.06995 7.00016 1.06995C7.77155 1.06995 8.52709 1.48509 9.11545 2.26956C9.70397 3.05426 10.0902 4.17268 10.0902 5.43995Z" stroke="#002033" stroke-width="1.5"/>
</svg>
