<svg width="360" height="360" viewBox="0 0 360 360" fill="none" xmlns="http://www.w3.org/2000/svg">
<g clip-path="url(#clip0_1585_737)">
<path d="M206.052 142H152.948C146.349 142 141 147.443 141 154.158V206.842C141 213.557 146.349 219 152.948 219H206.052C212.651 219 218 213.557 218 206.842V154.158C218 147.443 212.651 142 206.052 142Z" fill="#002033"/>
<path d="M189.456 158.211H169.542C166.243 158.211 163.568 160.933 163.568 164.29C163.568 167.647 166.243 170.369 169.542 170.369H189.456C192.756 170.369 195.43 167.647 195.43 164.29C195.43 160.933 192.756 158.211 189.456 158.211Z" fill="#C5EE6D"/>
<path d="M189.456 174.422H169.542C166.243 174.422 163.568 177.144 163.568 180.501C163.568 183.858 166.243 186.58 169.542 186.58H189.456C192.756 186.58 195.43 183.858 195.43 180.501C195.43 177.144 192.756 174.422 189.456 174.422Z" fill="#C5EE6D"/>
<path d="M173.525 190.631H169.542C166.243 190.631 163.568 193.352 163.568 196.71C163.568 200.067 166.243 202.789 169.542 202.789H173.525C176.825 202.789 179.499 200.067 179.499 196.71C179.499 193.352 176.825 190.631 173.525 190.631Z" fill="#C5EE6D"/>
</g>
<path d="M111.982 12.773H99.209V6.38648C99.209 2.76747 101.976 0 105.595 0C109.214 0 111.982 2.76747 111.982 6.38648V12.773Z" fill="#002033"/>
<path d="M167.595 12.773C171.123 12.773 173.982 9.91363 173.982 6.38648C173.982 2.85932 171.123 0 167.595 0C164.068 0 161.209 2.85932 161.209 6.38648C161.209 9.91363 164.068 12.773 167.595 12.773Z" fill="#002033"/>
<path d="M198.789 12.773H186.016V6.38648C186.016 2.76747 188.783 0 192.402 0H198.789V12.773Z" fill="#002033"/>
<path d="M211.185 0H198.412V12.773H211.185V0Z" fill="#002033"/>
<path d="M223.589 0H210.816V12.773H223.589V0Z" fill="#002033"/>
<path d="M229.605 12.773H223.219V0H229.605C233.224 0 235.992 2.76747 235.992 6.38648C235.992 10.0055 233.224 12.773 229.605 12.773Z" fill="#002033"/>
<path d="M111.982 12.4023H99.209V25.1753H111.982V12.4023Z" fill="#002033"/>
<path d="M149.185 25.1753H142.799C139.18 25.1753 136.412 22.4078 136.412 18.7888C136.412 15.1698 139.18 12.4023 142.799 12.4023H149.185V25.1753Z" fill="#002033"/>
<path d="M155.201 25.1753H148.814V12.4023H155.201C158.82 12.4023 161.587 15.1698 161.587 18.7888C161.587 22.4078 158.82 25.1753 155.201 25.1753Z" fill="#002033"/>
<path d="M198.789 25.1753H192.402C188.783 25.1753 186.016 22.4078 186.016 18.7888V12.4023H198.789V25.1753Z" fill="#002033"/>
<path d="M211.185 12.4023H198.412V25.1753H211.185V12.4023Z" fill="#002033"/>
<path d="M260.791 25.1753H248.018V18.7888C248.018 15.1698 250.785 12.4023 254.404 12.4023C258.023 12.4023 260.791 15.1698 260.791 18.7888V25.1753Z" fill="#002033"/>
<path d="M105.595 37.5737C101.976 37.5737 99.209 34.8063 99.209 31.1873V24.8008H111.982V31.1873C111.982 34.8063 109.214 37.5737 105.595 37.5737Z" fill="#002033"/>
<path d="M136.783 37.5737H124.01V31.1873C124.01 27.5683 126.777 24.8008 130.396 24.8008C134.015 24.8008 136.783 27.5683 136.783 31.1873V37.5737Z" fill="#002033"/>
<path d="M180 37.5737C183.527 37.5737 186.386 34.7144 186.386 31.1873C186.386 27.6601 183.527 24.8008 180 24.8008C176.473 24.8008 173.613 27.6601 173.613 31.1873C173.613 34.7144 176.473 37.5737 180 37.5737Z" fill="#002033"/>
<path d="M204.799 37.5737C201.18 37.5737 198.412 34.8063 198.412 31.1873V24.8008H211.185V31.1873C211.185 34.8063 208.418 37.5737 204.799 37.5737Z" fill="#002033"/>
<path d="M235.992 37.5737H229.605C225.986 37.5737 223.219 34.8063 223.219 31.1873C223.219 27.5683 225.986 24.8008 229.605 24.8008H235.992V37.5737Z" fill="#002033"/>
<path d="M248.388 24.8008H235.615V37.5737H248.388V24.8008Z" fill="#002033"/>
<path d="M254.404 37.5737H248.018V24.8008H260.791V31.1873C260.791 34.8063 258.023 37.5737 254.404 37.5737Z" fill="#002033"/>
<path d="M124.38 49.9761H117.994C114.375 49.9761 111.607 47.2086 111.607 43.5896C111.607 39.9706 114.375 37.2031 117.994 37.2031H124.38V49.9761Z" fill="#002033"/>
<path d="M136.783 37.2031H124.01V49.9761H136.783V37.2031Z" fill="#002033"/>
<path d="M149.185 37.2031H136.412V49.9761H149.185V37.2031Z" fill="#002033"/>
<path d="M161.587 49.9761H148.814V37.2031H155.201C158.82 37.2031 161.587 39.9706 161.587 43.5896V49.9761Z" fill="#002033"/>
<path d="M198.789 49.9761H186.016V43.5896C186.016 39.9706 188.783 37.2031 192.402 37.2031C196.021 37.2031 198.789 39.9706 198.789 43.5896V49.9761Z" fill="#002033"/>
<path d="M223.589 49.9761H210.816V43.5896C210.816 39.9706 213.584 37.2031 217.203 37.2031C220.822 37.2031 223.589 39.9706 223.589 43.5896V49.9761Z" fill="#002033"/>
<path d="M248.388 37.2031H235.615V49.9761H248.388V37.2031Z" fill="#002033"/>
<path d="M136.783 62.3784H130.396C126.777 62.3784 124.01 59.611 124.01 55.9919V49.6055H136.783V62.3784Z" fill="#002033"/>
<path d="M149.185 49.6055H136.412V62.3784H149.185V49.6055Z" fill="#002033"/>
<path d="M161.587 49.6055H148.814V62.3784H161.587V49.6055Z" fill="#002033"/>
<path d="M173.982 49.6055H161.209V62.3784H173.982V49.6055Z" fill="#002033"/>
<path d="M186.386 49.6055H173.613V62.3784H186.386V49.6055Z" fill="#002033"/>
<path d="M198.789 49.6055H186.016V62.3784H198.789V49.6055Z" fill="#002033"/>
<path d="M223.589 49.6055H210.816V62.3784H223.589V49.6055Z" fill="#002033"/>
<path d="M235.992 49.6055H223.219V62.3784H235.992V49.6055Z" fill="#002033"/>
<path d="M248.388 49.6055H235.615V62.3784H248.388V49.6055Z" fill="#002033"/>
<path d="M260.791 62.3784H248.018V49.6055H254.404C258.023 49.6055 260.791 52.3729 260.791 55.9919V62.3784Z" fill="#002033"/>
<path d="M111.982 74.7808H99.209V68.3943C99.209 64.7753 101.976 62.0078 105.595 62.0078C109.214 62.0078 111.982 64.7753 111.982 68.3943V74.7808Z" fill="#002033"/>
<path d="M142.799 74.7808C139.18 74.7808 136.412 72.0133 136.412 68.3943V62.0078H149.185V68.3943C149.185 72.0133 146.418 74.7808 142.799 74.7808Z" fill="#002033"/>
<path d="M167.595 74.7808C163.976 74.7808 161.209 72.0133 161.209 68.3943V62.0078H173.982V68.3943C173.982 72.0133 171.214 74.7808 167.595 74.7808Z" fill="#002033"/>
<path d="M192.402 74.7808C188.783 74.7808 186.016 72.0133 186.016 68.3943V62.0078H198.789V68.3943C198.789 72.0133 196.021 74.7808 192.402 74.7808Z" fill="#002033"/>
<path d="M217.203 74.7808C213.584 74.7808 210.816 72.0133 210.816 68.3943V62.0078H223.589V68.3943C223.589 72.0133 220.822 74.7808 217.203 74.7808Z" fill="#002033"/>
<path d="M260.791 62.0078H248.018V74.7808H260.791V62.0078Z" fill="#002033"/>
<path d="M111.982 74.4023H99.209V87.1753H111.982V74.4023Z" fill="#002033"/>
<path d="M136.783 87.1753H124.01V80.7888C124.01 77.1698 126.777 74.4023 130.396 74.4023C134.015 74.4023 136.783 77.1698 136.783 80.7888V87.1753Z" fill="#002033"/>
<path d="M155.201 87.1753C158.728 87.1753 161.587 84.316 161.587 80.7888C161.587 77.2617 158.728 74.4023 155.201 74.4023C151.674 74.4023 148.814 77.2617 148.814 80.7888C148.814 84.316 151.674 87.1753 155.201 87.1753Z" fill="#002033"/>
<path d="M180 87.1753C183.527 87.1753 186.386 84.316 186.386 80.7888C186.386 77.2617 183.527 74.4023 180 74.4023C176.473 74.4023 173.613 77.2617 173.613 80.7888C173.613 84.316 176.473 87.1753 180 87.1753Z" fill="#002033"/>
<path d="M211.185 87.1753H198.412V80.7888C198.412 77.1698 201.18 74.4023 204.799 74.4023C208.418 74.4023 211.185 77.1698 211.185 80.7888V87.1753Z" fill="#002033"/>
<path d="M235.992 87.1753H223.219V80.7888C223.219 77.1698 225.986 74.4023 229.605 74.4023C233.224 74.4023 235.992 77.1698 235.992 80.7888V87.1753Z" fill="#002033"/>
<path d="M260.791 74.4023H248.018V87.1753H260.791V74.4023Z" fill="#002033"/>
<path d="M111.982 86.8066H99.209V99.5796H111.982V86.8066Z" fill="#002033"/>
<path d="M124.38 86.8066H111.607V99.5796H124.38V86.8066Z" fill="#002033"/>
<path d="M136.783 86.8066H124.01V99.5796H136.783V86.8066Z" fill="#002033"/>
<path d="M198.789 99.5796H192.402C188.783 99.5796 186.016 96.8121 186.016 93.1931C186.016 89.5741 188.783 86.8066 192.402 86.8066H198.789V99.5796Z" fill="#002033"/>
<path d="M211.185 86.8066H198.412V99.5796H211.185V86.8066Z" fill="#002033"/>
<path d="M223.589 86.8066H210.816V99.5796H223.589V86.8066Z" fill="#002033"/>
<path d="M229.605 99.5796H223.219V86.8066H235.992V93.1931C235.992 96.8121 233.224 99.5796 229.605 99.5796Z" fill="#002033"/>
<path d="M254.404 99.5796C250.785 99.5796 248.018 96.8121 248.018 93.1931V86.8066H260.791V93.1931C260.791 96.8121 258.023 99.5796 254.404 99.5796Z" fill="#002033"/>
<path d="M37.5737 111.982H24.8008V105.595C24.8008 101.976 27.5683 99.209 31.1873 99.209H37.5737V111.982Z" fill="#002033"/>
<path d="M49.9761 99.209H37.2031V111.982H49.9761V99.209Z" fill="#002033"/>
<path d="M62.3784 111.982H49.6055V99.209H55.9919C59.611 99.209 62.3784 101.976 62.3784 105.595V111.982Z" fill="#002033"/>
<path d="M80.7908 111.982C84.3179 111.982 87.1773 109.123 87.1773 105.595C87.1773 102.068 84.3179 99.209 80.7908 99.209C77.2636 99.209 74.4043 102.068 74.4043 105.595C74.4043 109.123 77.2636 111.982 80.7908 111.982Z" fill="#002033"/>
<path d="M105.595 111.982C101.976 111.982 99.209 109.214 99.209 105.595V99.209H111.982V105.595C111.982 109.214 109.214 111.982 105.595 111.982Z" fill="#002033"/>
<path d="M130.396 111.982C126.777 111.982 124.01 109.214 124.01 105.595V99.209H136.783V105.595C136.783 109.214 134.015 111.982 130.396 111.982Z" fill="#002033"/>
<path d="M173.982 111.982H161.209V105.595C161.209 101.976 163.976 99.209 167.595 99.209C171.214 99.209 173.982 101.976 173.982 105.595V111.982Z" fill="#002033"/>
<path d="M204.799 111.982C201.18 111.982 198.412 109.214 198.412 105.595V99.209H211.185V105.595C211.185 109.214 208.418 111.982 204.799 111.982Z" fill="#002033"/>
<path d="M273.195 111.982H266.808C263.189 111.982 260.422 109.214 260.422 105.595C260.422 101.976 263.189 99.209 266.808 99.209H273.195V111.982Z" fill="#002033"/>
<path d="M285.595 99.209H272.822V111.982H285.595V99.209Z" fill="#002033"/>
<path d="M297.992 111.982H285.219V99.209H291.605C295.224 99.209 297.992 101.976 297.992 105.595V111.982Z" fill="#002033"/>
<path d="M335.195 111.982H322.422V105.595C322.422 101.976 325.189 99.209 328.808 99.209H335.195V111.982Z" fill="#002033"/>
<path d="M347.597 99.209H334.824V111.982H347.597V99.209Z" fill="#002033"/>
<path d="M360 111.982H347.227V99.209H353.613C357.232 99.209 360 101.976 360 105.595V111.982Z" fill="#002033"/>
<path d="M25.1753 124.378H12.4023V117.992C12.4023 114.373 15.1698 111.605 18.7888 111.605H25.1753V124.378Z" fill="#002033"/>
<path d="M37.5737 111.605H24.8008V124.378H37.5737V111.605Z" fill="#002033"/>
<path d="M49.9761 111.605H37.2031V124.378H49.9761V111.605Z" fill="#002033"/>
<path d="M62.3784 111.605H49.6055V124.378H62.3784V111.605Z" fill="#002033"/>
<path d="M74.7788 124.378H62.0059V111.605H68.3923C72.0113 111.605 74.7788 114.373 74.7788 117.992V124.378Z" fill="#002033"/>
<path d="M93.1931 124.378C96.7203 124.378 99.5796 121.519 99.5796 117.992C99.5796 114.465 96.7203 111.605 93.1931 111.605C89.666 111.605 86.8066 114.465 86.8066 117.992C86.8066 121.519 89.666 124.378 93.1931 124.378Z" fill="#002033"/>
<path d="M173.982 124.378H167.595C163.976 124.378 161.209 121.611 161.209 117.992V111.605H173.982V124.378Z" fill="#002033"/>
<path d="M180 124.378H173.613V111.605H180C183.619 111.605 186.386 114.373 186.386 117.992C186.386 121.611 183.619 124.378 180 124.378Z" fill="#002033"/>
<path d="M223.589 124.378H217.203C213.584 124.378 210.816 121.611 210.816 117.992C210.816 114.373 213.584 111.605 217.203 111.605H223.589V124.378Z" fill="#002033"/>
<path d="M235.992 111.605H223.219V124.378H235.992V111.605Z" fill="#002033"/>
<path d="M242.002 124.378H235.615V111.605H242.002C245.621 111.605 248.388 114.373 248.388 117.992C248.388 121.611 245.621 124.378 242.002 124.378Z" fill="#002033"/>
<path d="M285.595 111.605H272.822V124.378H285.595V111.605Z" fill="#002033"/>
<path d="M297.992 111.605H285.219V124.378H297.992V111.605Z" fill="#002033"/>
<path d="M310.394 111.605H297.621V124.378H310.394V111.605Z" fill="#002033"/>
<path d="M322.796 111.605H310.023V124.378H322.796V111.605Z" fill="#002033"/>
<path d="M335.195 111.605H322.422V124.378H335.195V111.605Z" fill="#002033"/>
<path d="M353.613 124.378C349.994 124.378 347.227 121.611 347.227 117.992V111.605H360V117.992C360 121.611 357.232 124.378 353.613 124.378Z" fill="#002033"/>
<path d="M25.1753 124.008H12.4023V136.781H25.1753V124.008Z" fill="#002033"/>
<path d="M31.1873 136.781H24.8008V124.008H37.5737V130.394C37.5737 134.013 34.8063 136.781 31.1873 136.781Z" fill="#002033"/>
<path d="M62.3784 124.008H49.6055V136.781H62.3784V124.008Z" fill="#002033"/>
<path d="M74.7788 124.008H62.0059V136.781H74.7788V124.008Z" fill="#002033"/>
<path d="M80.7908 136.781H74.4043V124.008H80.7908C84.4098 124.008 87.1773 126.775 87.1773 130.394C87.1773 134.013 84.4098 136.781 80.7908 136.781Z" fill="#002033"/>
<path d="M111.982 136.781H105.595C101.976 136.781 99.209 134.013 99.209 130.394C99.209 126.775 101.976 124.008 105.595 124.008H111.982V136.781Z" fill="#002033"/>
<path d="M124.38 136.781H111.607V124.008H117.994C121.613 124.008 124.38 126.775 124.38 130.394V136.781Z" fill="#002033"/>
<path d="M260.791 136.781H248.018V130.394C248.018 126.775 250.785 124.008 254.404 124.008H260.791V136.781Z" fill="#002033"/>
<path d="M273.195 124.008H260.422V136.781H273.195V124.008Z" fill="#002033"/>
<path d="M285.595 124.008H272.822V136.781H285.595V124.008Z" fill="#002033"/>
<path d="M291.605 136.781H285.219V124.008H297.992V130.394C297.992 134.013 295.224 136.781 291.605 136.781Z" fill="#002033"/>
<path d="M322.796 124.008H310.023V136.781H322.796V124.008Z" fill="#002033"/>
<path d="M328.808 136.781H322.422V124.008H335.195V130.394C335.195 134.013 332.427 136.781 328.808 136.781Z" fill="#002033"/>
<path d="M25.1753 136.412H12.4023V149.185H25.1753V136.412Z" fill="#002033"/>
<path d="M49.9761 149.185H37.2031V142.799C37.2031 139.18 39.9706 136.412 43.5896 136.412H49.9761V149.185Z" fill="#002033"/>
<path d="M62.3784 136.412H49.6055V149.185H62.3784V136.412Z" fill="#002033"/>
<path d="M74.7788 136.412H62.0059V149.185H74.7788V136.412Z" fill="#002033"/>
<path d="M99.5796 149.185H86.8066V142.799C86.8066 139.18 89.5741 136.412 93.1931 136.412C96.8121 136.412 99.5796 139.18 99.5796 142.799V149.185Z" fill="#002033"/>
<path d="M124.38 136.412H111.607V149.185H124.38V136.412Z" fill="#002033"/>
<path d="M260.791 149.185H254.404C250.785 149.185 248.018 146.418 248.018 142.799V136.412H260.791V149.185Z" fill="#002033"/>
<path d="M273.195 136.412H260.422V149.185H273.195V136.412Z" fill="#002033"/>
<path d="M279.209 149.185H272.822V136.412H285.595V142.799C285.595 146.418 282.828 149.185 279.209 149.185Z" fill="#002033"/>
<path d="M310.394 149.185H304.008C300.389 149.185 297.621 146.418 297.621 142.799C297.621 139.18 300.389 136.412 304.008 136.412H310.394V149.185Z" fill="#002033"/>
<path d="M316.41 149.185H310.023V136.412H322.796V142.799C322.796 146.418 320.029 149.185 316.41 149.185Z" fill="#002033"/>
<path d="M347.597 149.185H334.824V142.799C334.824 139.18 337.592 136.412 341.211 136.412C344.83 136.412 347.597 139.18 347.597 142.799V149.185Z" fill="#002033"/>
<path d="M12.773 161.587H6.38648C2.76747 161.587 0 158.82 0 155.201C0 151.582 2.76747 148.814 6.38648 148.814H12.773V161.587Z" fill="#002033"/>
<path d="M18.7888 161.587H12.4023V148.814H25.1753V155.201C25.1753 158.82 22.4078 161.587 18.7888 161.587Z" fill="#002033"/>
<path d="M49.9761 161.587H43.5896C39.9706 161.587 37.2031 158.82 37.2031 155.201V148.814H49.9761V161.587Z" fill="#002033"/>
<path d="M62.3784 148.814H49.6055V161.587H62.3784V148.814Z" fill="#002033"/>
<path d="M74.7788 148.814H62.0059V161.587H74.7788V148.814Z" fill="#002033"/>
<path d="M87.1773 148.814H74.4043V161.587H87.1773V148.814Z" fill="#002033"/>
<path d="M93.1931 161.587H86.8066V148.814H99.5796V155.201C99.5796 158.82 96.8121 161.587 93.1931 161.587Z" fill="#002033"/>
<path d="M117.994 161.587C114.375 161.587 111.607 158.82 111.607 155.201V148.814H124.38V155.201C124.38 158.82 121.613 161.587 117.994 161.587Z" fill="#002033"/>
<path d="M273.195 148.814H260.422V161.587H273.195V148.814Z" fill="#002033"/>
<path d="M291.605 161.587C295.132 161.587 297.992 158.728 297.992 155.201C297.992 151.674 295.132 148.814 291.605 148.814C288.078 148.814 285.219 151.674 285.219 155.201C285.219 158.728 288.078 161.587 291.605 161.587Z" fill="#002033"/>
<path d="M335.195 161.587H328.808C325.189 161.587 322.422 158.82 322.422 155.201C322.422 151.582 325.189 148.814 328.808 148.814H335.195V161.587Z" fill="#002033"/>
<path d="M347.597 148.814H334.824V161.587H347.597V148.814Z" fill="#002033"/>
<path d="M360 161.587H347.227V148.814H353.613C357.232 148.814 360 151.582 360 155.201V161.587Z" fill="#002033"/>
<path d="M37.5737 173.982H24.8008V167.595C24.8008 163.976 27.5683 161.209 31.1873 161.209C34.8063 161.209 37.5737 163.976 37.5737 167.595V173.982Z" fill="#002033"/>
<path d="M62.3784 161.209H49.6055V173.982H62.3784V161.209Z" fill="#002033"/>
<path d="M68.3923 173.982H62.0059V161.209H74.7788V167.595C74.7788 171.214 72.0113 173.982 68.3923 173.982Z" fill="#002033"/>
<path d="M105.595 173.982C109.123 173.982 111.982 171.123 111.982 167.595C111.982 164.068 109.123 161.209 105.595 161.209C102.068 161.209 99.209 164.068 99.209 167.595C99.209 171.123 102.068 173.982 105.595 173.982Z" fill="#002033"/>
<path d="M248.388 173.982H242.002C238.383 173.982 235.615 171.214 235.615 167.595C235.615 163.976 238.383 161.209 242.002 161.209H248.388V173.982Z" fill="#002033"/>
<path d="M260.791 161.209H248.018V173.982H260.791V161.209Z" fill="#002033"/>
<path d="M273.195 161.209H260.422V173.982H273.195V161.209Z" fill="#002033"/>
<path d="M279.209 173.982H272.822V161.209H279.209C282.828 161.209 285.595 163.976 285.595 167.595C285.595 171.214 282.828 173.982 279.209 173.982Z" fill="#002033"/>
<path d="M310.394 173.982H304.008C300.389 173.982 297.621 171.214 297.621 167.595C297.621 163.976 300.389 161.209 304.008 161.209H310.394V173.982Z" fill="#002033"/>
<path d="M316.41 173.982H310.023V161.209H316.41C320.029 161.209 322.796 163.976 322.796 167.595C322.796 171.214 320.029 173.982 316.41 173.982Z" fill="#002033"/>
<path d="M347.597 173.982H341.211C337.592 173.982 334.824 171.214 334.824 167.595V161.209H347.597V173.982Z" fill="#002033"/>
<path d="M353.613 173.982H347.227V161.209H360V167.595C360 171.214 357.232 173.982 353.613 173.982Z" fill="#002033"/>
<path d="M25.1753 186.384H12.4023V179.998C12.4023 176.379 15.1698 173.611 18.7888 173.611H25.1753V186.384Z" fill="#002033"/>
<path d="M37.5737 173.611H24.8008V186.384H37.5737V173.611Z" fill="#002033"/>
<path d="M49.9761 173.611H37.2031V186.384H49.9761V173.611Z" fill="#002033"/>
<path d="M62.3784 173.611H49.6055V186.384H62.3784V173.611Z" fill="#002033"/>
<path d="M87.1773 186.384H80.7908C77.1718 186.384 74.4043 183.617 74.4043 179.998C74.4043 176.379 77.1718 173.611 80.7908 173.611H87.1773V186.384Z" fill="#002033"/>
<path d="M93.1931 186.384H86.8066V173.611H93.1931C96.8121 173.611 99.5796 176.379 99.5796 179.998C99.5796 183.617 96.8121 186.384 93.1931 186.384Z" fill="#002033"/>
<path d="M117.994 186.384C121.521 186.384 124.38 183.525 124.38 179.998C124.38 176.471 121.521 173.611 117.994 173.611C114.467 173.611 111.607 176.471 111.607 179.998C111.607 183.525 114.467 186.384 117.994 186.384Z" fill="#002033"/>
<path d="M273.195 173.611H260.422V186.384H273.195V173.611Z" fill="#002033"/>
<path d="M291.605 186.384C295.132 186.384 297.992 183.525 297.992 179.998C297.992 176.471 295.132 173.611 291.605 173.611C288.078 173.611 285.219 176.471 285.219 179.998C285.219 183.525 288.078 186.384 291.605 186.384Z" fill="#002033"/>
<path d="M18.7888 198.787C15.1698 198.787 12.4023 196.019 12.4023 192.4V186.014H25.1753V192.4C25.1753 196.019 22.4078 198.787 18.7888 198.787Z" fill="#002033"/>
<path d="M62.3784 186.014H49.6055V198.787H62.3784V186.014Z" fill="#002033"/>
<path d="M260.791 198.787H254.404C250.785 198.787 248.018 196.019 248.018 192.4C248.018 188.781 250.785 186.014 254.404 186.014H260.791V198.787Z" fill="#002033"/>
<path d="M266.808 198.787H260.422V186.014H273.195V192.4C273.195 196.019 270.427 198.787 266.808 198.787Z" fill="#002033"/>
<path d="M310.394 198.787H304.008C300.389 198.787 297.621 196.019 297.621 192.4C297.621 188.781 300.389 186.014 304.008 186.014H310.394V198.787Z" fill="#002033"/>
<path d="M322.796 198.787H310.023V186.014H316.41C320.029 186.014 322.796 188.781 322.796 192.4V198.787Z" fill="#002033"/>
<path d="M347.597 198.787H341.211C337.592 198.787 334.824 196.019 334.824 192.4C334.824 188.781 337.592 186.014 341.211 186.014H347.597V198.787Z" fill="#002033"/>
<path d="M353.613 198.787H347.227V186.014H353.613C357.232 186.014 360 188.781 360 192.4C360 196.019 357.232 198.787 353.613 198.787Z" fill="#002033"/>
<path d="M12.773 211.185H0V204.799C0 201.18 2.76747 198.412 6.38648 198.412C10.0055 198.412 12.773 201.18 12.773 204.799V211.185Z" fill="#002033"/>
<path d="M49.9761 211.185H37.2031V204.799C37.2031 201.18 39.9706 198.412 43.5896 198.412H49.9761V211.185Z" fill="#002033"/>
<path d="M62.3784 198.412H49.6055V211.185H62.3784V198.412Z" fill="#002033"/>
<path d="M74.7788 198.412H62.0059V211.185H74.7788V198.412Z" fill="#002033"/>
<path d="M87.1773 198.412H74.4043V211.185H87.1773V198.412Z" fill="#002033"/>
<path d="M93.1931 211.185H86.8066V198.412H93.1931C96.8121 198.412 99.5796 201.18 99.5796 204.799C99.5796 208.418 96.8121 211.185 93.1931 211.185Z" fill="#002033"/>
<path d="M124.38 211.185H111.607V204.799C111.607 201.18 114.375 198.412 117.994 198.412C121.613 198.412 124.38 201.18 124.38 204.799V211.185Z" fill="#002033"/>
<path d="M297.992 211.185H285.219V204.799C285.219 201.18 287.986 198.412 291.605 198.412C295.224 198.412 297.992 201.18 297.992 204.799V211.185Z" fill="#002033"/>
<path d="M322.796 198.412H310.023V211.185H322.796V198.412Z" fill="#002033"/>
<path d="M335.195 211.185H322.422V198.412H328.808C332.427 198.412 335.195 201.18 335.195 204.799V211.185Z" fill="#002033"/>
<path d="M12.773 210.814H0V223.587H12.773V210.814Z" fill="#002033"/>
<path d="M37.5737 223.587H31.1873C27.5683 223.587 24.8008 220.82 24.8008 217.201C24.8008 213.582 27.5683 210.814 31.1873 210.814H37.5737V223.587Z" fill="#002033"/>
<path d="M49.9761 210.814H37.2031V223.587H49.9761V210.814Z" fill="#002033"/>
<path d="M68.3923 223.587C64.7733 223.587 62.0059 220.82 62.0059 217.201V210.814H74.7788V217.201C74.7788 220.82 72.0113 223.587 68.3923 223.587Z" fill="#002033"/>
<path d="M117.994 223.587C114.375 223.587 111.607 220.82 111.607 217.201V210.814H124.38V217.201C124.38 220.82 121.613 223.587 117.994 223.587Z" fill="#002033"/>
<path d="M248.388 223.587H242.002C238.383 223.587 235.615 220.82 235.615 217.201C235.615 213.582 238.383 210.814 242.002 210.814H248.388V223.587Z" fill="#002033"/>
<path d="M260.791 210.814H248.018V223.587H260.791V210.814Z" fill="#002033"/>
<path d="M273.195 210.814H260.422V223.587H273.195V210.814Z" fill="#002033"/>
<path d="M285.595 210.814H272.822V223.587H285.595V210.814Z" fill="#002033"/>
<path d="M297.992 210.814H285.219V223.587H297.992V210.814Z" fill="#002033"/>
<path d="M310.394 210.814H297.621V223.587H310.394V210.814Z" fill="#002033"/>
<path d="M322.796 210.814H310.023V223.587H322.796V210.814Z" fill="#002033"/>
<path d="M335.195 210.814H322.422V223.587H335.195V210.814Z" fill="#002033"/>
<path d="M347.597 210.814H334.824V223.587H347.597V210.814Z" fill="#002033"/>
<path d="M353.613 223.587H347.227V210.814H353.613C357.232 210.814 360 213.582 360 217.201C360 220.82 357.232 223.587 353.613 223.587Z" fill="#002033"/>
<path d="M12.773 223.217H0V235.99H12.773V223.217Z" fill="#002033"/>
<path d="M49.9761 223.217H37.2031V235.99H49.9761V223.217Z" fill="#002033"/>
<path d="M80.7908 235.99C84.3179 235.99 87.1773 233.13 87.1773 229.603C87.1773 226.076 84.3179 223.217 80.7908 223.217C77.2636 223.217 74.4043 226.076 74.4043 229.603C74.4043 233.13 77.2636 235.99 80.7908 235.99Z" fill="#002033"/>
<path d="M254.404 235.99C250.785 235.99 248.018 233.222 248.018 229.603V223.217H260.791V229.603C260.791 233.222 258.023 235.99 254.404 235.99Z" fill="#002033"/>
<path d="M285.595 223.217H272.822V235.99H285.595V223.217Z" fill="#002033"/>
<path d="M322.796 223.217H310.023V235.99H322.796V223.217Z" fill="#002033"/>
<path d="M328.808 235.99H322.422V223.217H335.195V229.603C335.195 233.222 332.427 235.99 328.808 235.99Z" fill="#002033"/>
<path d="M12.773 235.615H0V248.388H12.773V235.615Z" fill="#002033"/>
<path d="M37.5737 248.388H24.8008V242.002C24.8008 238.383 27.5683 235.615 31.1873 235.615H37.5737V248.388Z" fill="#002033"/>
<path d="M49.9761 235.615H37.2031V248.388H49.9761V235.615Z" fill="#002033"/>
<path d="M62.3784 235.615H49.6055V248.388H62.3784V235.615Z" fill="#002033"/>
<path d="M68.3923 248.388H62.0059V235.615H68.3923C72.0113 235.615 74.7788 238.383 74.7788 242.002C74.7788 245.621 72.0113 248.388 68.3923 248.388Z" fill="#002033"/>
<path d="M117.994 248.388C121.521 248.388 124.38 245.529 124.38 242.002C124.38 238.475 121.521 235.615 117.994 235.615C114.467 235.615 111.607 238.475 111.607 242.002C111.607 245.529 114.467 248.388 117.994 248.388Z" fill="#002033"/>
<path d="M198.789 248.388H186.016V242.002C186.016 238.383 188.783 235.615 192.402 235.615H198.789V248.388Z" fill="#002033"/>
<path d="M211.185 235.615H198.412V248.388H211.185V235.615Z" fill="#002033"/>
<path d="M223.589 248.388H210.816V235.615H217.203C220.822 235.615 223.589 238.383 223.589 242.002V248.388Z" fill="#002033"/>
<path d="M242.002 248.388C245.529 248.388 248.388 245.529 248.388 242.002C248.388 238.475 245.529 235.615 242.002 235.615C238.475 235.615 235.615 238.475 235.615 242.002C235.615 245.529 238.475 248.388 242.002 248.388Z" fill="#002033"/>
<path d="M285.595 235.615H272.822V248.388H285.595V235.615Z" fill="#002033"/>
<path d="M297.992 248.388H285.219V235.615H291.605C295.224 235.615 297.992 238.383 297.992 242.002V248.388Z" fill="#002033"/>
<path d="M316.41 248.388C312.791 248.388 310.023 245.621 310.023 242.002V235.615H322.796V242.002C322.796 245.621 320.029 248.388 316.41 248.388Z" fill="#002033"/>
<path d="M353.613 248.388C357.14 248.388 360 245.529 360 242.002C360 238.475 357.14 235.615 353.613 235.615C350.086 235.615 347.227 238.475 347.227 242.002C347.227 245.529 350.086 248.388 353.613 248.388Z" fill="#002033"/>
<path d="M6.38648 260.791C2.76747 260.791 0 258.023 0 254.404V248.018H12.773V254.404C12.773 258.023 10.0055 260.791 6.38648 260.791Z" fill="#002033"/>
<path d="M31.1873 260.791C27.5683 260.791 24.8008 258.023 24.8008 254.404V248.018H37.5737V254.404C37.5737 258.023 34.8063 260.791 31.1873 260.791Z" fill="#002033"/>
<path d="M80.7908 260.791C84.3179 260.791 87.1773 257.931 87.1773 254.404C87.1773 250.877 84.3179 248.018 80.7908 248.018C77.2636 248.018 74.4043 250.877 74.4043 254.404C74.4043 257.931 77.2636 260.791 80.7908 260.791Z" fill="#002033"/>
<path d="M149.185 260.791H136.412V254.404C136.412 250.785 139.18 248.018 142.799 248.018H149.185V260.791Z" fill="#002033"/>
<path d="M155.201 260.791H148.814V248.018H155.201C158.82 248.018 161.587 250.785 161.587 254.404C161.587 258.023 158.82 260.791 155.201 260.791Z" fill="#002033"/>
<path d="M198.789 248.018H186.016V260.791H198.789V248.018Z" fill="#002033"/>
<path d="M217.203 260.791C213.584 260.791 210.816 258.023 210.816 254.404V248.018H223.589V254.404C223.589 258.023 220.822 260.791 217.203 260.791Z" fill="#002033"/>
<path d="M260.791 260.791H248.018V254.404C248.018 250.785 250.785 248.018 254.404 248.018H260.791V260.791Z" fill="#002033"/>
<path d="M273.195 248.018H260.422V260.791H273.195V248.018Z" fill="#002033"/>
<path d="M285.595 248.018H272.822V260.791H285.595V248.018Z" fill="#002033"/>
<path d="M297.992 248.018H285.219V260.791H297.992V248.018Z" fill="#002033"/>
<path d="M310.394 260.791H297.621V248.018H304.008C307.627 248.018 310.394 250.785 310.394 254.404V260.791Z" fill="#002033"/>
<path d="M328.808 260.791C332.336 260.791 335.195 257.931 335.195 254.404C335.195 250.877 332.336 248.018 328.808 248.018C325.281 248.018 322.422 250.877 322.422 254.404C322.422 257.931 325.281 260.791 328.808 260.791Z" fill="#002033"/>
<path d="M111.982 273.193H105.595C101.976 273.193 99.209 270.425 99.209 266.806C99.209 263.187 101.976 260.42 105.595 260.42H111.982V273.193Z" fill="#002033"/>
<path d="M124.38 273.193H111.607V260.42H117.994C121.613 260.42 124.38 263.187 124.38 266.806V273.193Z" fill="#002033"/>
<path d="M149.185 260.42H136.412V273.193H149.185V260.42Z" fill="#002033"/>
<path d="M186.386 273.193H180C176.381 273.193 173.613 270.425 173.613 266.806C173.613 263.187 176.381 260.42 180 260.42H186.386V273.193Z" fill="#002033"/>
<path d="M192.402 273.193H186.016V260.42H198.789V266.806C198.789 270.425 196.021 273.193 192.402 273.193Z" fill="#002033"/>
<path d="M260.791 260.42H248.018V273.193H260.791V260.42Z" fill="#002033"/>
<path d="M310.394 260.42H297.621V273.193H310.394V260.42Z" fill="#002033"/>
<path d="M316.41 273.193H310.023V260.42H316.41C320.029 260.42 322.796 263.187 322.796 266.806C322.796 270.425 320.029 273.193 316.41 273.193Z" fill="#002033"/>
<path d="M347.597 273.193H341.211C337.592 273.193 334.824 270.425 334.824 266.806C334.824 263.187 337.592 260.42 341.211 260.42H347.597V273.193Z" fill="#002033"/>
<path d="M353.613 273.193H347.227V260.42H353.613C357.232 260.42 360 263.187 360 266.806C360 270.425 357.232 273.193 353.613 273.193Z" fill="#002033"/>
<path d="M117.994 285.595C114.375 285.595 111.607 282.828 111.607 279.209V272.822H124.38V279.209C124.38 282.828 121.613 285.595 117.994 285.595Z" fill="#002033"/>
<path d="M149.185 272.822H136.412V285.595H149.185V272.822Z" fill="#002033"/>
<path d="M155.201 285.595H148.814V272.822H155.201C158.82 272.822 161.587 275.59 161.587 279.209C161.587 282.828 158.82 285.595 155.201 285.595Z" fill="#002033"/>
<path d="M211.185 285.595H198.412V279.209C198.412 275.59 201.18 272.822 204.799 272.822H211.185V285.595Z" fill="#002033"/>
<path d="M223.589 272.822H210.816V285.595H223.589V272.822Z" fill="#002033"/>
<path d="M235.992 272.822H223.219V285.595H235.992V272.822Z" fill="#002033"/>
<path d="M248.388 272.822H235.615V285.595H248.388V272.822Z" fill="#002033"/>
<path d="M260.791 272.822H248.018V285.595H260.791V272.822Z" fill="#002033"/>
<path d="M279.209 285.595C282.736 285.595 285.595 282.736 285.595 279.209C285.595 275.682 282.736 272.822 279.209 272.822C275.682 272.822 272.822 275.682 272.822 279.209C272.822 282.736 275.682 285.595 279.209 285.595Z" fill="#002033"/>
<path d="M310.394 272.822H297.621V285.595H310.394V272.822Z" fill="#002033"/>
<path d="M142.799 297.992C139.18 297.992 136.412 295.224 136.412 291.605V285.219H149.185V291.605C149.185 295.224 146.418 297.992 142.799 297.992Z" fill="#002033"/>
<path d="M186.386 297.992H180C176.381 297.992 173.613 295.224 173.613 291.605C173.613 287.986 176.381 285.219 180 285.219H186.386V297.992Z" fill="#002033"/>
<path d="M198.789 285.219H186.016V297.992H198.789V285.219Z" fill="#002033"/>
<path d="M211.185 285.219H198.412V297.992H211.185V285.219Z" fill="#002033"/>
<path d="M223.589 285.219H210.816V297.992H223.589V285.219Z" fill="#002033"/>
<path d="M235.992 285.219H223.219V297.992H235.992V285.219Z" fill="#002033"/>
<path d="M248.388 285.219H235.615V297.992H248.388V285.219Z" fill="#002033"/>
<path d="M260.791 285.219H248.018V297.992H260.791V285.219Z" fill="#002033"/>
<path d="M310.394 285.219H297.621V297.992H310.394V285.219Z" fill="#002033"/>
<path d="M322.796 297.992H310.023V285.219H316.41C320.029 285.219 322.796 287.986 322.796 291.605V297.992Z" fill="#002033"/>
<path d="M111.982 310.394H99.209V304.008C99.209 300.389 101.976 297.621 105.595 297.621C109.214 297.621 111.982 300.389 111.982 304.008V310.394Z" fill="#002033"/>
<path d="M136.783 310.394H124.01V304.008C124.01 300.389 126.777 297.621 130.396 297.621C134.015 297.621 136.783 300.389 136.783 304.008V310.394Z" fill="#002033"/>
<path d="M167.595 310.394C171.123 310.394 173.982 307.535 173.982 304.008C173.982 300.48 171.123 297.621 167.595 297.621C164.068 297.621 161.209 300.48 161.209 304.008C161.209 307.535 164.068 310.394 167.595 310.394Z" fill="#002033"/>
<path d="M204.799 310.394C201.18 310.394 198.412 307.627 198.412 304.008V297.621H211.185V304.008C211.185 307.627 208.418 310.394 204.799 310.394Z" fill="#002033"/>
<path d="M260.791 297.621H248.018V310.394H260.791V297.621Z" fill="#002033"/>
<path d="M273.195 297.621H260.422V310.394H273.195V297.621Z" fill="#002033"/>
<path d="M285.595 297.621H272.822V310.394H285.595V297.621Z" fill="#002033"/>
<path d="M297.992 297.621H285.219V310.394H297.992V297.621Z" fill="#002033"/>
<path d="M310.394 297.621H297.621V310.394H310.394V297.621Z" fill="#002033"/>
<path d="M322.796 297.621H310.023V310.394H322.796V297.621Z" fill="#002033"/>
<path d="M335.195 297.621H322.422V310.394H335.195V297.621Z" fill="#002033"/>
<path d="M347.597 297.621H334.824V310.394H347.597V297.621Z" fill="#002033"/>
<path d="M353.613 310.394H347.227V297.621H353.613C357.232 297.621 360 300.389 360 304.008C360 307.627 357.232 310.394 353.613 310.394Z" fill="#002033"/>
<path d="M111.982 310.023H99.209V322.796H111.982V310.023Z" fill="#002033"/>
<path d="M124.38 310.023H111.607V322.796H124.38V310.023Z" fill="#002033"/>
<path d="M136.783 310.023H124.01V322.796H136.783V310.023Z" fill="#002033"/>
<path d="M149.185 310.023H136.412V322.796H149.185V310.023Z" fill="#002033"/>
<path d="M155.201 322.796H148.814V310.023H155.201C158.82 310.023 161.587 312.791 161.587 316.41C161.587 320.029 158.82 322.796 155.201 322.796Z" fill="#002033"/>
<path d="M223.589 322.796H210.816V316.41C210.816 312.791 213.584 310.023 217.203 310.023H223.589V322.796Z" fill="#002033"/>
<path d="M235.992 310.023H223.219V322.796H235.992V310.023Z" fill="#002033"/>
<path d="M248.388 310.023H235.615V322.796H248.388V310.023Z" fill="#002033"/>
<path d="M260.791 310.023H248.018V322.796H260.791V310.023Z" fill="#002033"/>
<path d="M273.195 310.023H260.422V322.796H273.195V310.023Z" fill="#002033"/>
<path d="M297.992 310.023H285.219V322.796H297.992V310.023Z" fill="#002033"/>
<path d="M316.41 322.796C312.791 322.796 310.023 320.029 310.023 316.41V310.023H322.796V316.41C322.796 320.029 320.029 322.796 316.41 322.796Z" fill="#002033"/>
<path d="M105.595 335.195C101.976 335.195 99.209 332.427 99.209 328.808V322.422H111.982V328.808C111.982 332.427 109.214 335.195 105.595 335.195Z" fill="#002033"/>
<path d="M142.799 335.195C139.18 335.195 136.412 332.427 136.412 328.808V322.422H149.185V328.808C149.185 332.427 146.418 335.195 142.799 335.195Z" fill="#002033"/>
<path d="M198.789 335.195H186.016V328.808C186.016 325.189 188.783 322.422 192.402 322.422C196.021 322.422 198.789 325.189 198.789 328.808V335.195Z" fill="#002033"/>
<path d="M223.589 322.422H210.816V335.195H223.589V322.422Z" fill="#002033"/>
<path d="M248.388 335.195H242.002C238.383 335.195 235.615 332.427 235.615 328.808V322.422H248.388V335.195Z" fill="#002033"/>
<path d="M260.791 322.422H248.018V335.195H260.791V322.422Z" fill="#002033"/>
<path d="M273.195 322.422H260.422V335.195H273.195V322.422Z" fill="#002033"/>
<path d="M285.595 322.422H272.822V335.195H285.595V322.422Z" fill="#002033"/>
<path d="M297.992 322.422H285.219V335.195H297.992V322.422Z" fill="#002033"/>
<path d="M310.394 335.195H297.621V322.422H304.008C307.627 322.422 310.394 325.189 310.394 328.808V335.195Z" fill="#002033"/>
<path d="M347.597 335.195H334.824V328.808C334.824 325.189 337.592 322.422 341.211 322.422C344.83 322.422 347.597 325.189 347.597 328.808V335.195Z" fill="#002033"/>
<path d="M124.38 347.597H111.607V341.211C111.607 337.592 114.375 334.824 117.994 334.824C121.613 334.824 124.38 337.592 124.38 341.211V347.597Z" fill="#002033"/>
<path d="M173.982 347.597H161.209V341.211C161.209 337.592 163.976 334.824 167.595 334.824H173.982V347.597Z" fill="#002033"/>
<path d="M186.386 334.824H173.613V347.597H186.386V334.824Z" fill="#002033"/>
<path d="M198.789 334.824H186.016V347.597H198.789V334.824Z" fill="#002033"/>
<path d="M211.185 334.824H198.412V347.597H211.185V334.824Z" fill="#002033"/>
<path d="M223.589 334.824H210.816V347.597H223.589V334.824Z" fill="#002033"/>
<path d="M260.791 347.597H254.404C250.785 347.597 248.018 344.83 248.018 341.211V334.824H260.791V347.597Z" fill="#002033"/>
<path d="M266.808 347.597H260.422V334.824H273.195V341.211C273.195 344.83 270.427 347.597 266.808 347.597Z" fill="#002033"/>
<path d="M310.394 334.824H297.621V347.597H310.394V334.824Z" fill="#002033"/>
<path d="M341.211 347.597C337.592 347.597 334.824 344.83 334.824 341.211V334.824H347.597V341.211C347.597 344.83 344.83 347.597 341.211 347.597Z" fill="#002033"/>
<path d="M117.994 360C114.375 360 111.607 357.232 111.607 353.613V347.227H124.38V353.613C124.38 357.232 121.613 360 117.994 360Z" fill="#002033"/>
<path d="M167.595 360C163.976 360 161.209 357.232 161.209 353.613V347.227H173.982V353.613C173.982 357.232 171.214 360 167.595 360Z" fill="#002033"/>
<path d="M198.789 360H192.402C188.783 360 186.016 357.232 186.016 353.613V347.227H198.789V360Z" fill="#002033"/>
<path d="M211.185 347.227H198.412V360H211.185V347.227Z" fill="#002033"/>
<path d="M217.203 360H210.816V347.227H223.589V353.613C223.589 357.232 220.822 360 217.203 360Z" fill="#002033"/>
<path d="M242.002 360C245.529 360 248.388 357.14 248.388 353.613C248.388 350.086 245.529 347.227 242.002 347.227C238.475 347.227 235.615 350.086 235.615 353.613C235.615 357.14 238.475 360 242.002 360Z" fill="#002033"/>
<path d="M304.008 360C300.389 360 297.621 357.232 297.621 353.613V347.227H310.394V353.613C310.394 357.232 307.627 360 304.008 360Z" fill="#002033"/>
<path d="M328.808 360C332.336 360 335.195 357.14 335.195 353.613C335.195 350.086 332.336 347.227 328.808 347.227C325.281 347.227 322.422 350.086 322.422 353.613C322.422 357.14 325.281 360 328.808 360Z" fill="#002033"/>
<path d="M27.9021 86.8065H59.5244C74.4056 86.8065 86.8065 74.4056 86.8065 59.5244V27.9021C86.8065 12.4009 74.4056 0 58.9044 0H27.282C12.4009 0 0 12.4009 0 27.282V58.9044C0 74.4056 12.4009 86.8065 27.9021 86.8065ZM74.4056 29.7622V57.0443C74.4056 66.3449 66.3449 74.4056 57.0443 74.4056H29.7622C19.8415 74.4056 12.4009 66.965 12.4009 57.0443V29.7622C12.4009 20.4615 20.4615 12.4009 29.7622 12.4009H57.0443C66.965 12.4009 74.4056 19.8415 74.4056 29.7622Z" fill="#002033"/>
<path d="M300.724 86.8065H332.347C347.228 86.8065 359.629 74.4056 359.629 59.5244V27.9021C359.629 12.4009 347.228 0 331.727 0H300.104C285.223 0 272.822 12.4009 272.822 27.282V58.9044C272.822 74.4056 285.223 86.8065 300.724 86.8065ZM347.228 29.7622V57.0443C347.228 66.3449 339.167 74.4056 329.867 74.4056H302.584C292.664 74.4056 285.223 66.965 285.223 57.0443V29.7622C285.223 20.4615 293.284 12.4009 302.584 12.4009H329.867C339.787 12.4009 347.228 19.8415 347.228 29.7622Z" fill="#002033"/>
<path d="M27.9021 359.633H59.5244C74.4056 359.633 86.8065 347.232 86.8065 332.351V300.728C86.8065 285.227 74.4056 272.826 58.9044 272.826H27.282C12.4009 272.826 0 285.227 0 300.108V331.731C0 347.232 12.4009 359.633 27.9021 359.633ZM74.4056 302.588V329.87C74.4056 339.171 66.3449 347.232 57.0443 347.232H29.7622C19.8415 347.232 12.4009 339.791 12.4009 329.87V302.588C12.4009 293.288 20.4615 285.227 29.7622 285.227H57.0443C66.965 285.227 74.4056 292.668 74.4056 302.588Z" fill="#002033"/>
<path d="M62.0036 35.3435V52.0848C62.0036 57.0451 57.0432 62.0055 51.4628 62.0055H35.3416C29.1411 62.0055 24.8008 57.6652 24.8008 51.4647V35.3435C24.8008 29.7631 29.7612 24.8027 35.3416 24.8027H52.0828C57.6632 24.8027 62.0036 29.1431 62.0036 35.3435Z" fill="#002033"/>
<path d="M334.824 35.3435V52.0848C334.824 57.0451 329.864 62.0055 324.283 62.0055H308.162C301.961 62.0055 297.621 57.6652 297.621 51.4647V35.3435C297.621 29.7631 302.581 24.8027 308.162 24.8027H324.903C330.484 24.8027 334.824 29.1431 334.824 35.3435Z" fill="#002033"/>
<path d="M62.0036 308.162V324.903C62.0036 329.864 57.0432 334.824 51.4628 334.824H35.3416C29.1411 334.824 24.8008 330.484 24.8008 324.283V308.162C24.8008 302.581 29.7612 297.621 35.3416 297.621H52.0828C57.6632 297.621 62.0036 301.961 62.0036 308.162Z" fill="#002033"/>
<defs>
<clipPath id="clip0_1585_737">
<rect width="77" height="77" fill="white" transform="translate(141 142)"/>
</clipPath>
</defs>
</svg>
