<svg width="17" height="14" viewBox="0 0 17 14" fill="none" xmlns="http://www.w3.org/2000/svg">
<path d="M16 7.23267C15.8559 7.08724 15.8045 6.86177 15.6695 6.70838C15.5238 6.54301 15.4185 6.3356 15.2834 6.15885C15.0874 5.90236 14.8581 5.72848 14.6112 5.5224C14.4513 5.38896 14.2408 5.2708 14.1057 5.11306C14.0503 5.0484 13.9944 5.01447 13.9223 4.97147C13.8145 4.90717 13.7411 4.79949 13.6349 4.73596C13.3618 4.5726 13.144 4.34151 12.8863 4.15419C12.5944 3.94208 12.3451 3.7241 12.0891 3.47288C11.8909 3.27834 11.6908 3.01788 11.4503 2.8813C11.3581 2.82897 11.2956 2.73287 11.2003 2.67943C11.0909 2.61807 10.9665 2.53521 10.8739 2.44952C10.726 2.31263 10.5613 2.19476 10.4142 2.05981C10.2628 1.92083 10.0826 1.81475 9.93785 1.66869C9.87571 1.60596 9.81521 1.59255 9.75036 1.54112C9.6852 1.48944 9.50745 1.3942 9.47398 1.32663C9.4103 1.19806 9.1412 1.1898 9.02262 1.17103C8.89139 1.15025 8.77994 1.08513 8.65042 1.05607C8.58696 1.04184 8.51202 1 8.45043 1C8.25355 1 8.13982 1.1713 8.04907 1.33925C7.95003 1.52252 7.82597 1.73588 7.67687 1.89579C7.50573 2.07933 7.50674 2.44659 7.60048 2.66541C7.71701 2.93742 7.70048 3.21853 7.70048 3.50933C7.70048 3.65176 7.63943 3.76703 7.60604 3.90185C7.59019 3.96583 7.58672 4.09702 7.54493 4.14858C7.46112 4.25198 7.25592 4.2691 7.13662 4.29998C7.05335 4.32153 6.94418 4.40415 6.86441 4.40652C6.66838 4.41234 6.44181 4.4918 6.26167 4.55792C5.53682 4.82398 4.92335 5.31465 4.25623 5.69343C3.91847 5.8852 3.60657 6.09125 3.33128 6.36913C3.23245 6.46889 3.15388 6.56706 3.07019 6.67753C2.99037 6.78289 2.92908 6.89402 2.85075 7.00697C2.75493 7.14515 2.64649 7.27268 2.55077 7.41071C2.47633 7.51805 2.37087 7.60599 2.30079 7.71211C2.15315 7.93564 1.95094 8.10622 1.81192 8.33734C1.71604 8.49675 1.60083 8.73179 1.60083 8.91771C1.60083 9.00125 1.55796 9.1008 1.53138 9.18126C1.49486 9.29186 1.47602 9.4145 1.45083 9.52892C1.40101 9.75524 1.33218 9.97898 1.29945 10.2102C1.28153 10.3369 1.20085 10.4519 1.20085 10.5873C1.20085 10.7357 1.174 10.9289 1.1453 11.0738C1.11411 11.2311 1.12234 11.385 1.0953 11.542C1.07558 11.6564 1.07329 11.791 1.0453 11.9009C0.990023 12.1179 1.00086 12.3389 1.00086 12.5682C1.00086 12.6709 0.993333 12.5514 1.04114 12.4925C1.12091 12.394 1.20896 12.3037 1.28834 12.2051C1.44745 12.0074 1.72702 11.9044 1.88692 11.699C2.04133 11.5006 2.24856 11.3469 2.41328 11.1551C2.60649 10.93 2.94838 10.8271 3.12574 10.5943C3.16874 10.5379 3.24296 10.537 3.29934 10.5004C3.35789 10.4624 3.41124 10.4186 3.47016 10.3813C3.66064 10.2605 3.87003 10.1486 4.08679 10.0841C4.29367 10.0224 4.49453 9.98635 4.68954 9.8934C4.76747 9.85626 4.90777 9.79233 4.98813 9.77985C5.0827 9.76517 5.16041 9.70336 5.25062 9.68312C5.38872 9.65215 5.51763 9.62037 5.65059 9.56817C5.74063 9.53283 5.85435 9.4685 5.95058 9.45462C6.06702 9.43783 6.1904 9.47206 6.30611 9.44761C6.42079 9.42338 6.53474 9.38461 6.65054 9.35789C6.73566 9.33825 6.80738 9.36066 6.88941 9.32144C6.96018 9.28761 7.19593 9.27289 7.25606 9.32144C7.29252 9.35089 7.36966 9.33669 7.39494 9.37752C7.45795 9.47929 7.52549 9.47362 7.52549 9.61864C7.52549 9.82892 7.52549 10.0392 7.52549 10.2495C7.52549 10.3513 7.53797 10.4372 7.55187 10.5355C7.55854 10.5826 7.59893 10.6081 7.60048 10.6644C7.60207 10.7222 7.59476 10.7822 7.60187 10.8397C7.62768 11.0481 7.70048 11.2536 7.70048 11.4663C7.70048 11.6809 7.72547 11.8916 7.72547 12.1083C7.72547 12.2667 7.74668 12.429 7.82547 12.5682C7.94955 12.7873 8.20945 12.9859 8.46293 12.9859C8.54148 12.9859 8.86499 13.0262 8.9018 12.9705C8.9461 12.9034 9.05898 12.8426 9.12539 12.7995C9.21447 12.7417 9.27678 12.646 9.36427 12.6018C9.44375 12.5617 9.47488 12.4481 9.55037 12.4055C9.64594 12.3516 9.72755 12.2891 9.81702 12.2289C9.89538 12.1762 9.99133 12.1255 10.0753 12.0831C10.1432 12.0488 10.264 12.006 10.3128 11.9513C10.3765 11.8799 10.4959 11.8681 10.5739 11.814C10.6696 11.7475 10.7808 11.7095 10.8753 11.6345C11.1157 11.4439 11.394 11.3337 11.6641 11.1999C12.2357 10.9169 12.815 10.6903 13.214 10.1724C13.3144 10.0421 13.4611 9.94401 13.5738 9.83032C13.767 9.63527 13.9565 9.38794 14.2001 9.25135C14.4024 9.13792 14.5767 8.95958 14.7445 8.80275C14.9181 8.64049 15.1042 8.48919 15.2612 8.31631C15.371 8.19533 15.5142 8.08386 15.6014 7.95183C15.6456 7.8849 15.7341 7.84369 15.7736 7.76398C15.7936 7.72371 15.8435 7.6523 15.875 7.63641" stroke="#888C95" stroke-width="1.8" stroke-linecap="round"/>
</svg>
