<svg width="390" height="16" viewBox="0 0 390 16" fill="none" xmlns="http://www.w3.org/2000/svg">
<path d="M403.113 5.71067C399.871 5.71067 397.167 7.30095 393.807 7.30095C392.047 7.30095 388.518 7.98827 386.975 7.00645C385.435 6.02671 383.998 4.74858 382.41 3.85533C379.841 2.41023 373.65 2.55698 370.777 3.17798C365.024 4.42196 359.299 6.45378 353.697 8.36114C350.451 9.46601 344.396 11.1384 341.328 9.18574C338.901 7.64135 336.113 5.71066 333.141 5.71066C325.617 5.71066 318.819 6.11294 311.407 7.59544C306.878 8.50125 302.187 8.77858 297.624 9.53913C295.243 9.93606 292.61 10.4343 290.203 10.4815C286.31 10.5579 282.585 10.3198 278.806 9.92197C277.661 9.80147 275.616 8.68011 274.565 8.09609C273.324 7.40662 271.088 7.83104 269.706 7.83104C267.154 7.83104 264.21 7.45682 261.695 7.94884C259.444 8.3894 257.188 9.5026 254.922 10.0692C253.042 10.5391 250.77 11.9479 248.973 12.0718C246.473 12.2442 244.097 11.0872 241.846 10.187C237.413 8.41362 233.704 5.71065 228.712 5.71065C226.581 5.71065 224.451 5.71065 222.321 5.71065C219.115 5.71065 216.461 7.46031 213.309 7.83103C206.432 8.64012 200.06 12.351 192.93 11.5123C190.906 11.2742 189.068 9.95142 187.07 9.95142C184.857 9.95142 183.134 8.07651 180.974 7.86048C177.96 7.55918 174.196 5.59466 170.931 7.00644C168.775 7.93873 166.363 9.09844 164.158 9.83362C162.367 10.4303 160.093 11.594 158.209 11.5417C153.192 11.4023 149.43 6.81758 144.986 5.1511C143.103 4.44484 141.769 3.52977 139.655 3.06016C136.669 2.39651 134.326 1.99997 131.203 1.99997C127.719 1.99997 124.308 2.86084 120.984 3.82585C118.103 4.66224 114.756 5.02299 112.267 6.77083C109.891 8.43945 106.643 8.97906 104.375 10.5993C102.47 11.9599 101.869 12.1432 99.3681 12.0718C96.5579 11.9915 92.5639 8.13284 90.1209 6.80028C87.0656 5.13374 83.6868 4.65045 80.2552 4.65045C74.2525 4.65044 68.0352 6.42928 63.2038 10.187C58.7834 13.6251 55.1981 12.5182 50.4815 10.4815C48.1832 9.48908 46.2069 8.09398 43.9731 7.03587C42.3044 6.24545 40.1701 5.85807 38.6427 4.88604C34.935 2.52661 32.4466 4.0916 29.3365 6.53523C27.3607 8.08765 23.7921 11.7271 20.9139 10.3637C17.6029 8.79534 15.8388 5.71063 11.9023 5.71063C8.28337 5.71063 4.80651 5.85115 1.30032 6.24073C0.141073 6.36953 -2.0092 8.84951 -2.29254 9.9514C-2.67806 11.4506 -4.00064 12.211 -4.00064 13.6621" stroke="#002033" stroke-width="3" stroke-linecap="round"/>
</svg>
