<svg width="390" height="16" viewBox="0 0 390 16" fill="none" xmlns="http://www.w3.org/2000/svg">
<path d="M-4 9.95144C-0.758087 9.95144 1.94595 8.36116 5.30613 8.36116C7.06678 8.36116 10.5956 7.67383 12.1385 8.65565C13.6781 9.63539 15.1152 10.9135 16.7032 11.8068C19.2723 13.2519 25.4637 13.1051 28.3359 12.4841C34.0893 11.2401 39.8139 9.20833 45.4167 7.30096C48.6623 6.1961 54.7171 4.52367 57.7857 6.47637C60.2126 8.02076 63.0005 9.95144 65.9727 9.95144C73.4962 9.95144 80.2941 9.54917 87.7066 8.06666C92.2357 7.16085 96.9258 6.88352 101.489 6.12297C103.871 5.72604 106.504 5.22777 108.91 5.18058C112.804 5.10424 116.528 5.34229 120.308 5.74012C121.452 5.86062 123.497 6.98199 124.548 7.56601C125.789 8.25547 128.025 7.83106 129.408 7.83106C131.959 7.83106 134.903 8.20528 137.418 7.71326C139.67 7.2727 141.925 6.15949 144.191 5.59287C146.071 5.12298 148.343 3.71424 150.14 3.59029C152.641 3.41785 155.017 4.5749 157.267 5.47508C161.701 7.24847 165.409 9.95144 170.402 9.95144C172.532 9.95144 174.662 9.95144 176.792 9.95144C179.998 9.95144 182.653 8.20178 185.804 7.83106C192.681 7.02197 199.054 3.31108 206.183 4.14983C208.207 4.38791 210.045 5.71067 212.044 5.71067C214.256 5.71067 215.979 7.58558 218.14 7.80161C221.153 8.10291 224.917 10.0674 228.182 8.65565C230.338 7.72336 232.75 6.56364 234.956 5.82847C236.746 5.23175 239.02 4.06804 240.904 4.12038C245.922 4.25975 249.683 8.8445 254.127 10.511C256.011 11.2172 257.345 12.1323 259.458 12.6019C262.444 13.2656 264.788 13.6621 267.91 13.6621C271.394 13.6621 274.805 12.8012 278.129 11.8362C281.01 10.9998 284.357 10.6391 286.846 8.89125C289.223 7.22264 292.47 6.68302 294.739 5.06278C296.644 3.70217 297.245 3.51885 299.745 3.59029C302.555 3.67058 306.549 7.52925 308.992 8.8618C312.048 10.5283 315.426 11.0116 318.858 11.0116C324.861 11.0116 331.078 9.2328 335.909 5.47508C340.33 2.037 343.915 3.14387 348.632 5.18058C350.93 6.17299 352.906 7.5681 355.14 8.6262C356.809 9.41663 358.943 9.80401 360.471 10.776C364.178 13.1355 366.667 11.5705 369.777 9.12685C371.753 7.57442 375.321 3.93501 378.199 5.29838C381.51 6.86673 383.275 9.95144 387.211 9.95144C390.83 9.95144 394.307 9.81092 397.813 9.42135C398.972 9.29254 401.122 6.81256 401.406 5.71067C401.791 4.21145 403.114 3.45111 403.114 2" stroke="#002033" stroke-width="3" stroke-linecap="round"/>
</svg>
